<?xml version="1.0" standalone="no"?>
<!DOCTYPE svg PUBLIC "-//W3C//DTD SVG 20010904//EN"
 "http://www.w3.org/TR/2001/REC-SVG-20010904/DTD/svg10.dtd">
<svg version="1.0" xmlns="http://www.w3.org/2000/svg"
 width="2228.000000pt" height="2228.000000pt" viewBox="0 0 2228.000000 2228.000000"
 preserveAspectRatio="xMidYMid meet">
<metadata>
Created by potrace 1.14, written by Peter Selinger 2001-2017
</metadata>
<g transform="translate(0.000000,2228.000000) scale(0.100000,-0.100000)"
fill="#000000" stroke="none">
<path d="M11835 20420 c-11 -4 -96 -10 -189 -14 -138 -6 -177 -11 -208 -27
-20 -10 -50 -19 -66 -19 -15 0 -33 -5 -39 -11 -5 -5 -26 -11 -44 -11 -19 0
-43 -5 -54 -11 -36 -18 -159 -121 -214 -179 -37 -40 -64 -59 -87 -64 -36 -7
-104 -72 -104 -100 0 -24 -70 -92 -101 -99 -32 -7 -44 -20 -53 -58 -4 -16 -17
-33 -31 -39 -14 -6 -25 -19 -25 -28 0 -9 -5 -21 -12 -28 -7 -7 -9 -12 -5 -12
4 0 1 -13 -8 -30 -9 -16 -22 -30 -30 -30 -8 0 -18 -6 -22 -13 -4 -6 -26 -18
-48 -26 -51 -17 -105 -68 -105 -99 0 -25 -50 -82 -72 -82 -7 0 -28 -16 -47
-35 -19 -19 -40 -35 -48 -35 -16 0 -33 -40 -33 -81 0 -18 -5 -29 -14 -29 -7 0
-16 -9 -19 -19 -2 -10 -20 -26 -40 -36 -21 -10 -38 -26 -41 -41 -4 -13 -26
-50 -49 -82 -38 -51 -87 -151 -87 -178 0 -6 -15 -18 -34 -27 -25 -11 -44 -34
-68 -76 -18 -34 -40 -63 -49 -66 -53 -18 -128 -127 -106 -154 10 -11 8 -13
-11 -7 -18 6 -33 0 -67 -29 -25 -20 -45 -44 -45 -54 0 -25 -28 -46 -56 -43
-24 3 -28 -3 -25 -44 1 -11 -9 -31 -22 -45 -13 -13 -27 -33 -31 -44 -3 -11
-18 -26 -33 -33 -74 -34 -115 -61 -193 -126 -47 -40 -116 -87 -154 -106 -39
-20 -80 -49 -95 -69 -45 -58 -61 -71 -92 -78 -26 -5 -30 -10 -26 -30 3 -17 -2
-28 -14 -36 -11 -7 -19 -20 -19 -29 0 -20 -16 -24 -22 -7 -7 21 -50 -2 -63
-35 -19 -44 -50 -70 -76 -63 -17 5 -35 -6 -77 -44 -30 -27 -70 -56 -88 -64
-19 -8 -34 -19 -34 -26 0 -7 -8 -21 -17 -32 -10 -10 -18 -26 -18 -34 0 -10
-11 -16 -35 -18 -22 -2 -42 -12 -56 -28 -12 -14 -50 -45 -85 -70 -35 -24 -85
-64 -110 -88 -109 -105 -147 -129 -207 -129 -13 0 -43 -16 -66 -35 -28 -23
-54 -35 -73 -35 -26 0 -94 -42 -113 -69 -3 -4 -39 -13 -80 -21 -41 -7 -86 -19
-100 -25 -14 -7 -56 -18 -94 -24 -38 -7 -101 -23 -140 -35 -39 -13 -107 -29
-151 -36 -44 -7 -94 -18 -112 -26 -17 -8 -51 -14 -75 -14 -25 0 -54 -7 -68
-17 -16 -11 -45 -18 -80 -18 -39 -1 -70 -9 -109 -28 -46 -24 -59 -26 -84 -17
-50 17 -157 12 -197 -10 -19 -11 -49 -26 -67 -34 -17 -9 -34 -20 -38 -26 -3
-5 -15 -10 -25 -10 -11 0 -41 -7 -67 -16 -26 -9 -73 -18 -105 -20 -43 -2 -80
-15 -157 -52 -55 -27 -107 -57 -116 -66 -10 -9 -33 -16 -56 -16 -29 0 -41 -5
-46 -17 -11 -29 -71 -98 -95 -110 -13 -6 -53 -25 -90 -43 -63 -30 -77 -42
-163 -146 -54 -65 -115 -148 -115 -156 0 -5 -7 -8 -15 -8 -8 0 -21 -12 -29
-27 -8 -16 -15 -25 -16 -20 0 8 -105 -48 -133 -72 -10 -8 -25 -30 -33 -48 -9
-17 -31 -41 -50 -52 -19 -12 -47 -40 -62 -65 -15 -24 -42 -54 -60 -66 -34 -24
-43 -50 -16 -50 28 0 10 -34 -23 -45 -60 -20 -97 -77 -58 -91 8 -4 15 -15 15
-26 0 -10 4 -17 9 -13 17 10 24 -17 8 -33 -13 -12 -19 -13 -30 -4 -15 13 -64
11 -86 -2 -8 -6 -11 -19 -7 -37 6 -33 -17 -167 -34 -200 -11 -20 -19 -21 -70
-8 -10 3 -20 -13 -33 -54 -13 -41 -26 -61 -43 -69 -14 -7 -24 -20 -24 -32 0
-12 -9 -32 -20 -46 -11 -14 -20 -36 -20 -49 0 -13 -9 -40 -19 -60 -24 -45 -41
-97 -41 -126 0 -12 -18 -43 -40 -68 -22 -25 -40 -52 -40 -60 0 -9 -5 -19 -11
-23 -6 -3 -10 -28 -8 -58 2 -30 -4 -66 -13 -87 -18 -40 -64 -81 -87 -77 -18 4
-86 -67 -101 -106 -5 -15 -10 -38 -10 -50 0 -16 -13 -34 -37 -52 -49 -36 -62
-54 -63 -81 0 -26 -46 -96 -90 -138 -18 -16 -43 -54 -56 -83 -13 -29 -32 -61
-42 -70 -11 -9 -27 -39 -37 -66 -10 -28 -33 -64 -50 -80 -18 -17 -49 -62 -69
-100 -21 -38 -48 -78 -62 -88 -35 -28 -47 -55 -53 -123 -3 -33 -10 -60 -16
-60 -19 0 -35 -16 -72 -71 -57 -83 -70 -107 -77 -142 -4 -17 -14 -36 -22 -43
-8 -6 -14 -21 -14 -32 0 -12 -12 -38 -27 -60 -21 -30 -27 -51 -28 -94 -1 -54
-2 -57 -38 -76 -20 -10 -37 -22 -37 -25 -1 -4 -2 -32 -4 -62 -1 -31 -12 -73
-24 -97 -12 -23 -22 -47 -22 -53 0 -5 -25 -44 -55 -85 -44 -59 -54 -80 -49
-100 5 -21 0 -28 -30 -46 -20 -11 -36 -27 -36 -35 0 -8 -9 -23 -20 -34 -13
-13 -20 -33 -20 -60 0 -36 -7 -48 -52 -94 -81 -82 -95 -106 -103 -169 -4 -31
-9 -57 -11 -57 -2 0 -15 5 -29 12 -35 16 -48 1 -33 -38 14 -39 3 -108 -17
-100 -26 10 -61 -47 -74 -123 -12 -67 -15 -72 -46 -85 -18 -8 -36 -22 -39 -33
-14 -48 15 -141 51 -162 14 -8 8 -10 -30 -11 -53 0 -87 -25 -87 -63 0 -13 -9
-42 -20 -65 -12 -24 -24 -73 -27 -110 -5 -49 -14 -80 -36 -115 -16 -26 -30
-58 -31 -71 -2 -13 -18 -37 -37 -54 -19 -16 -40 -46 -48 -67 -12 -33 -11 -39
7 -58 16 -18 18 -27 10 -47 l-9 -25 -18 24 c-21 28 -38 22 -39 -14 0 -31 -19
-55 -43 -55 -31 0 -56 -99 -29 -115 5 -3 10 -19 10 -35 0 -15 5 -30 12 -32 16
-6 3 -48 -22 -76 -15 -15 -28 -21 -41 -17 -40 13 -66 -38 -34 -65 21 -17 19
-42 -2 -38 -15 2 -17 -3 -15 -31 l2 -34 -50 7 c-56 7 -51 13 -85 -89 -28 -85
-29 -104 -7 -128 44 -46 56 -133 25 -177 -10 -14 -16 -35 -15 -46 5 -36 -18
-39 -31 -5 -9 24 -17 31 -39 31 -35 0 -35 -6 3 -58 l31 -42 -31 -35 c-17 -20
-31 -43 -31 -53 0 -11 -9 -17 -25 -18 -35 -2 -52 -19 -75 -72 -15 -33 -19 -57
-15 -87 6 -34 3 -43 -19 -64 -14 -14 -26 -33 -26 -44 0 -11 3 -18 6 -14 3 3
20 -3 36 -13 17 -10 37 -16 44 -13 8 3 14 1 14 -5 0 -13 -40 -23 -68 -15 -19
5 -22 1 -22 -25 0 -17 -4 -34 -10 -37 -5 -3 -22 -31 -37 -61 -24 -49 -25 -56
-11 -71 8 -10 18 -26 21 -35 4 -11 12 -15 22 -12 20 8 31 -22 15 -41 -14 -17
-50 -3 -50 20 0 8 -7 15 -16 15 -20 0 -84 -37 -102 -58 -16 -21 -15 -91 3
-122 8 -14 14 -30 15 -36 0 -15 -35 -54 -48 -54 -15 0 -20 -25 -21 -100 0 -36
-5 -81 -11 -100 -5 -19 -10 -63 -10 -97 0 -35 -4 -63 -10 -63 -12 0 -13 -37
-1 -44 5 -3 9 -35 9 -71 0 -57 -2 -65 -18 -65 -46 0 -65 -96 -37 -177 42 -118
42 -147 1 -137 -19 5 -24 2 -24 -14 0 -12 6 -25 13 -29 20 -12 40 -98 34 -139
-4 -20 -1 -46 4 -57 6 -10 12 -59 14 -108 2 -55 8 -98 17 -112 8 -12 25 -50
37 -84 22 -58 22 -65 9 -99 -13 -32 -13 -43 0 -88 8 -28 23 -60 33 -71 30 -33
52 -97 50 -146 -1 -36 6 -61 39 -122 40 -77 50 -123 28 -145 -9 -9 -3 -20 25
-46 41 -38 46 -52 20 -59 -14 -4 -14 -5 3 -6 37 -2 47 -26 41 -91 -4 -35 -3
-62 3 -65 26 -16 48 -81 43 -127 -7 -61 0 -87 37 -133 16 -21 30 -44 30 -53 0
-8 13 -30 30 -49 16 -18 30 -44 30 -56 0 -31 24 -106 49 -155 11 -23 18 -47
15 -55 -3 -9 18 -41 55 -82 34 -37 61 -74 61 -82 0 -8 14 -42 31 -74 24 -44
41 -63 68 -75 26 -11 45 -30 61 -61 25 -47 65 -73 112 -73 13 0 42 -18 65 -39
22 -21 66 -53 96 -70 30 -17 61 -38 68 -47 7 -8 29 -24 48 -35 20 -11 57 -33
83 -49 62 -38 149 -46 324 -30 118 10 135 10 170 -6 28 -12 73 -17 162 -19
118 -2 124 -1 132 19 14 37 38 52 62 37 17 -10 23 -10 38 4 12 11 26 14 39 10
26 -8 97 51 141 117 16 23 39 45 52 48 13 3 30 20 40 39 9 19 21 38 27 44 7 7
7 16 0 30 -9 16 -5 25 20 51 17 18 31 42 31 53 0 27 -25 53 -51 53 -10 0 -19
3 -19 8 0 13 44 37 70 37 18 0 26 6 28 21 2 11 16 35 32 53 17 18 30 43 30 57
0 13 4 24 10 24 5 0 15 20 21 45 6 25 22 53 34 63 12 10 25 27 29 39 4 12 13
26 21 33 9 7 12 23 8 45 -5 31 -2 36 31 56 31 18 36 26 36 59 0 21 6 43 14 49
8 7 17 23 20 36 5 18 13 25 30 25 31 0 37 8 23 31 -9 14 -8 22 6 36 9 11 19
45 23 76 6 48 12 62 39 85 58 49 82 93 90 158 4 41 3 64 -4 68 -21 13 -11 34
19 41 37 8 97 76 110 126 6 20 21 44 35 53 14 9 25 23 25 30 0 8 11 21 25 30
20 13 25 25 25 61 0 35 5 48 26 64 16 13 27 32 29 53 4 56 24 85 69 101 106
38 121 46 125 63 4 22 -24 43 -50 37 -39 -10 -47 11 -31 79 24 109 26 112 63
132 25 14 42 35 62 77 15 32 35 60 45 63 20 7 112 109 112 125 0 6 9 19 20 29
11 10 26 36 33 57 12 33 20 41 61 55 56 18 82 49 91 106 4 30 13 47 30 58 14
9 25 25 25 35 0 10 9 28 20 41 11 13 20 31 20 41 0 13 10 20 35 25 46 8 67 33
36 41 -15 4 -21 12 -19 27 2 17 9 20 35 18 18 -2 48 6 69 17 21 12 43 21 47
21 11 0 43 37 63 73 16 30 11 45 -26 74 -13 10 -9 17 24 47 21 20 49 36 61 36
12 0 28 7 35 15 7 8 19 15 26 15 8 0 14 8 14 19 0 26 18 38 70 46 25 4 51 12
58 18 9 7 16 5 27 -9 11 -15 16 -17 26 -6 10 9 11 19 2 42 -13 35 -1 55 39 64
14 3 44 23 66 44 24 23 60 44 94 55 31 9 76 28 102 42 26 14 51 25 56 25 28 0
166 77 232 129 111 87 177 121 239 121 38 0 51 4 56 18 13 37 105 102 144 102
33 0 164 52 189 75 10 9 53 22 97 30 150 26 407 106 438 136 5 5 18 9 30 9 40
0 223 79 265 115 30 25 89 35 250 41 91 3 192 7 225 8 91 3 247 -36 270 -67 7
-9 20 -17 29 -17 9 0 39 -11 67 -25 52 -27 78 -59 106 -135 9 -25 23 -53 31
-63 13 -14 13 -23 2 -60 -7 -23 -14 -48 -16 -55 -2 -7 -12 -12 -21 -10 -10 1
-24 -1 -30 -5 -15 -9 -56 10 -48 23 8 12 -6 41 -16 34 -5 -3 -7 -10 -3 -15 3
-5 1 -15 -5 -22 -7 -9 -1 -25 20 -56 16 -24 29 -54 29 -66 0 -11 4 -25 8 -31
17 -19 56 -129 54 -153 -1 -13 4 -31 11 -40 8 -9 20 -31 27 -49 7 -18 19 -36
26 -40 20 -11 -20 -92 -48 -100 -16 -4 -19 -11 -14 -33 3 -16 -1 -44 -10 -65
-9 -22 -15 -66 -15 -113 1 -135 -10 -245 -25 -254 -17 -10 -18 -31 -1 -57 9
-15 9 -23 1 -28 -7 -4 -17 -34 -24 -67 -7 -33 -20 -76 -30 -95 -18 -36 -31
-98 -51 -255 -14 -113 -26 -155 -46 -155 -11 0 -14 -10 -12 -45 2 -31 -2 -49
-13 -57 -11 -9 -17 -39 -22 -103 -4 -53 -13 -99 -22 -113 -20 -31 -10 -62 22
-62 23 0 65 -31 64 -47 -2 -26 -27 -103 -39 -117 -8 -9 -19 -42 -25 -74 -10
-50 -16 -59 -45 -74 -51 -26 -57 -34 -41 -63 12 -22 11 -27 -5 -45 -10 -11
-26 -20 -36 -20 -25 0 -40 -58 -27 -107 20 -77 21 -103 4 -103 -8 0 -22 12
-29 26 l-14 27 -12 -34 c-6 -18 -14 -73 -18 -122 -6 -82 -5 -89 17 -112 16
-17 21 -31 16 -49 -7 -28 -17 -32 -47 -16 -14 8 -19 7 -19 -3 0 -7 5 -18 11
-24 6 -6 9 -26 7 -44 -4 -40 -32 -51 -54 -22 -12 16 -15 16 -24 3 -5 -8 -10
-25 -10 -36 0 -12 -7 -27 -16 -35 -23 -19 -44 -64 -44 -95 0 -37 13 -22 25 29
13 53 38 61 54 16 6 -18 10 -44 10 -58 -2 -24 -2 -24 -6 -4 -4 21 -8 24 -30
23 -5 -1 -6 -12 -5 -27 2 -16 -5 -35 -20 -52 -57 -63 -68 -88 -68 -149 0 -41
5 -64 15 -72 23 -19 19 -52 -6 -48 -16 2 -24 -5 -34 -35 -7 -21 -20 -46 -29
-56 -19 -21 -23 -69 -8 -98 11 -19 8 -27 -16 -55 -31 -36 -56 -107 -46 -132 3
-9 15 -16 26 -16 14 0 19 -6 16 -22 -4 -26 -28 -37 -28 -13 0 9 -6 15 -12 12
-9 -3 -12 -27 -10 -85 3 -88 -6 -117 -40 -128 -42 -12 -50 -25 -32 -45 19 -22
15 -53 -9 -57 -12 -3 -17 3 -17 22 0 32 -6 33 -31 4 -25 -32 -24 -48 6 -48 37
0 31 -27 -10 -44 -25 -11 -35 -21 -35 -37 0 -17 -4 -20 -24 -15 -19 5 -31 -2
-60 -34 -20 -23 -36 -50 -36 -64 0 -24 -44 -66 -68 -66 -6 0 -37 -24 -69 -53
-73 -67 -264 -223 -280 -228 -6 -2 -40 -31 -75 -64 -103 -97 -139 -125 -202
-156 -32 -16 -72 -40 -88 -54 -16 -14 -37 -25 -46 -25 -9 0 -52 -12 -95 -26
-65 -22 -83 -33 -115 -71 -41 -49 -73 -66 -146 -77 -56 -9 -96 -42 -96 -80 0
-31 -12 -39 -43 -27 -21 8 -29 5 -51 -18 -14 -15 -26 -38 -26 -52 0 -36 -8
-40 -42 -23 -27 14 -32 14 -55 -1 -21 -14 -24 -22 -18 -51 6 -36 -2 -42 -34
-25 -13 8 -26 3 -52 -18 -19 -15 -63 -39 -99 -55 -36 -15 -76 -33 -90 -40 -14
-7 -48 -21 -76 -30 -40 -13 -55 -24 -70 -52 -12 -21 -35 -42 -61 -55 -28 -14
-45 -29 -49 -45 -5 -17 -15 -27 -36 -31 -17 -3 -34 -15 -39 -27 -18 -38 -73
-68 -111 -61 -26 5 -40 2 -58 -14 -24 -19 -24 -20 -6 -34 11 -8 26 -28 35 -44
9 -17 24 -44 33 -61 21 -37 15 -58 -18 -66 -31 -8 -31 -26 1 -26 l24 0 -19
-42 c-11 -24 -20 -57 -20 -74 0 -60 -69 -109 -117 -83 -20 11 -26 11 -33 -1
-6 -10 4 -25 36 -53 24 -21 44 -44 44 -50 -1 -19 -41 -62 -48 -51 -7 10 -57
34 -72 34 -4 0 -6 -18 -3 -40 3 -22 1 -45 -4 -52 -11 -15 -10 -189 1 -207 4
-6 5 -15 2 -19 -7 -12 -76 -9 -76 3 0 6 4 10 9 10 20 0 21 14 2 20 -26 8 -42
-1 -35 -20 3 -7 -2 -29 -10 -47 -20 -41 -37 -143 -29 -164 3 -9 1 -19 -6 -23
-15 -9 -41 -112 -41 -161 0 -47 12 -77 62 -152 21 -31 38 -61 38 -66 0 -5 -9
-17 -20 -27 -11 -10 -20 -26 -20 -36 0 -10 -5 -21 -10 -24 -17 -10 -11 -43 13
-83 13 -20 36 -75 51 -122 15 -47 38 -96 51 -110 13 -14 25 -38 27 -55 2 -25
8 -31 35 -35 62 -10 108 -74 84 -118 -16 -29 -14 -47 10 -98 25 -56 53 -57 81
-3 17 33 23 37 74 43 30 3 60 3 66 0 5 -4 66 -8 135 -10 140 -3 251 -18 303
-42 19 -9 63 -18 96 -20 65 -4 62 -6 154 59 48 33 157 33 245 -1 57 -21 191
-36 365 -39 66 -1 214 12 329 29 55 8 144 11 265 8 139 -4 195 -2 239 9 40 10
67 12 85 5 16 -5 72 -6 136 -1 64 4 153 3 215 -3 58 -5 140 -9 181 -7 41 1
127 3 190 4 64 0 121 4 127 8 23 15 165 -5 185 -25 23 -23 45 -23 86 2 44 27
96 26 135 -4 39 -28 83 -36 251 -41 103 -3 136 -1 159 12 23 12 35 12 54 4 35
-16 102 -14 119 4 9 9 34 15 59 15 24 0 56 5 72 12 16 7 89 13 173 14 211 3
340 11 372 25 18 7 62 9 130 5 57 -3 209 -7 338 -9 210 -2 239 -5 270 -22 30
-16 58 -19 190 -21 85 -1 182 -4 215 -7 33 -3 98 -9 145 -12 47 -4 107 -14
134 -23 39 -12 55 -13 80 -4 18 7 102 16 187 22 84 5 175 14 202 20 46 9 410
26 512 23 128 -3 212 -11 232 -21 28 -15 51 -6 55 21 4 32 39 33 68 2 26 -27
55 -31 110 -14 19 6 136 13 259 15 123 3 232 9 242 15 13 6 25 6 38 -1 11 -5
36 -10 56 -10 20 0 46 -5 58 -12 20 -10 125 -22 314 -33 33 -2 78 -8 100 -14
21 -5 83 -8 138 -5 145 6 147 6 182 -1 21 -5 47 -2 73 9 23 9 69 16 106 16 45
0 77 6 104 20 21 11 56 19 77 19 21 -1 55 6 77 16 21 9 40 14 43 11 3 -2 23 2
45 10 22 8 70 14 107 14 38 1 76 7 91 15 34 19 157 19 203 0 20 -8 44 -15 54
-15 26 1 52 42 63 101 6 29 17 60 25 69 8 9 15 25 15 36 0 11 6 26 12 32 7 7
13 39 13 72 0 45 5 64 21 82 17 19 21 37 22 98 0 41 7 94 16 117 8 24 18 71
22 105 4 34 16 78 28 97 19 32 20 52 22 295 1 212 4 267 17 291 12 25 13 44 5
110 -9 77 -6 196 8 317 6 57 -15 176 -39 223 -6 11 -14 44 -18 73 -6 42 -18
66 -58 119 -28 36 -51 74 -51 84 0 11 -21 34 -50 55 -27 19 -62 52 -77 73 -43
57 -247 239 -277 247 -16 4 -28 15 -32 29 -3 14 -23 33 -49 47 -87 46 -191
113 -228 145 -20 18 -46 33 -57 33 -25 0 -92 33 -137 66 -17 13 -37 24 -43 24
-19 0 -140 69 -200 113 -62 46 -240 221 -240 236 0 5 -18 31 -39 58 -21 28
-61 92 -87 143 -27 51 -65 111 -84 134 -44 52 -119 151 -144 191 -10 16 -28
41 -41 55 -28 30 -115 195 -115 218 0 27 -41 135 -64 167 -22 32 -46 90 -46
115 0 20 -44 67 -70 75 -21 7 -80 118 -80 151 0 10 -20 36 -44 60 -56 53 -66
72 -73 137 -6 58 -6 65 3 125 4 26 2 48 -4 54 -7 7 -7 16 0 28 9 14 6 27 -14
61 -15 26 -27 66 -30 97 -6 67 -73 198 -147 290 -57 71 -94 145 -130 256 -12
38 -31 87 -42 107 -10 21 -30 71 -43 111 -14 40 -32 92 -40 116 -13 35 -15 65
-10 152 l7 109 -57 53 c-53 52 -56 57 -56 104 0 52 -29 185 -53 244 -9 22 -13
62 -11 110 2 48 -4 104 -17 158 -10 46 -19 93 -19 105 0 21 -10 58 -37 132 -8
22 -19 74 -24 115 -5 41 -13 96 -17 123 -5 26 -5 94 -1 152 7 82 5 118 -6 162
-9 36 -15 104 -15 183 0 112 3 134 26 191 17 44 27 92 31 154 4 73 10 98 32
132 23 38 38 49 93 67 15 4 15 8 3 33 -7 15 -17 40 -20 54 -6 23 -2 28 37 47
35 16 64 20 132 20 74 0 92 3 108 19 21 22 16 73 -7 73 -17 0 -28 31 -17 42
12 12 91 30 101 23 5 -2 18 -25 29 -49 19 -40 26 -45 72 -55 61 -13 137 -14
144 -2 3 4 24 11 46 15 23 3 39 10 36 14 -9 15 137 3 154 -13 9 -8 26 -15 38
-15 12 0 21 -5 20 -11 -2 -7 10 -15 26 -20 15 -4 36 -14 45 -23 20 -18 124
-57 169 -63 19 -3 36 -11 39 -19 7 -19 88 -59 168 -82 76 -22 152 -56 230
-104 84 -52 152 -88 167 -88 7 0 54 -24 105 -54 50 -30 115 -62 143 -71 33
-11 59 -28 73 -47 21 -29 83 -68 108 -68 7 0 21 -7 31 -17 21 -18 38 -29 123
-71 33 -17 85 -51 115 -76 30 -25 84 -62 120 -81 36 -19 83 -52 105 -74 22
-22 45 -40 52 -41 7 0 17 -9 22 -19 13 -23 97 -80 131 -88 14 -3 50 -23 80
-43 30 -20 75 -50 99 -66 108 -71 156 -105 175 -123 25 -22 44 -28 116 -35 37
-4 60 -12 70 -25 8 -10 27 -35 42 -54 15 -19 55 -55 90 -81 81 -60 115 -91
159 -146 20 -25 54 -62 76 -84 25 -24 39 -45 36 -55 -6 -22 21 -45 45 -39 21
6 36 -9 45 -42 4 -14 10 -30 14 -36 13 -18 74 -44 103 -44 31 0 59 -29 84 -87
11 -25 23 -40 31 -37 16 6 94 -41 101 -61 7 -17 77 -55 102 -55 26 0 82 -38
82 -55 0 -9 9 -28 19 -43 11 -15 22 -48 26 -74 3 -27 16 -60 28 -75 12 -16 27
-37 33 -48 6 -11 23 -42 37 -68 15 -26 27 -52 27 -57 0 -6 21 -37 48 -69 26
-33 58 -81 72 -108 13 -26 28 -51 33 -54 4 -3 19 -37 33 -75 13 -38 29 -73 34
-78 6 -6 10 -17 11 -26 0 -18 48 -120 49 -105 0 6 7 1 15 -9 12 -16 14 -42 9
-130 l-6 -111 38 -80 c36 -77 38 -84 38 -191 1 -119 16 -164 56 -164 10 0 22
-4 25 -10 3 -5 19 -10 35 -10 23 0 27 3 23 20 -6 23 9 27 26 6 9 -10 9 -29 1
-72 -6 -33 -11 -63 -10 -69 0 -33 15 -83 29 -100 31 -36 61 -96 61 -121 0 -23
3 -25 28 -19 19 4 33 1 41 -8 16 -20 9 -96 -12 -128 -19 -29 -12 -70 22 -118
12 -16 22 -39 23 -51 2 -12 20 -41 41 -63 20 -23 37 -48 37 -56 0 -33 44 -83
94 -105 34 -15 66 -41 95 -76 55 -65 158 -118 254 -130 35 -4 73 -13 85 -19
28 -15 114 -14 134 1 9 7 18 20 20 28 4 12 24 15 94 16 105 1 131 7 140 37 9
29 23 37 55 30 27 -5 90 27 119 62 28 34 89 65 128 65 43 0 59 10 92 60 40 58
133 160 147 160 7 0 43 28 80 63 38 34 77 67 88 73 12 6 22 25 25 45 4 28 9
33 28 31 14 -2 22 2 22 12 0 8 10 21 23 27 28 16 44 35 63 81 15 36 60 76 71
64 4 -3 12 2 19 13 9 12 12 42 9 95 -4 64 -3 76 10 76 9 0 27 11 41 25 21 21
25 34 23 68 -3 31 4 59 28 109 18 36 37 69 43 73 18 11 40 75 40 116 0 31 6
45 30 66 33 29 50 76 50 139 0 33 7 49 31 75 25 27 30 39 26 65 -7 40 1 49 25
27 17 -15 18 -15 18 13 0 16 4 45 10 63 7 26 6 42 -5 64 -20 41 -19 56 5 50
24 -6 36 32 25 85 -5 20 -9 64 -10 97 -1 33 -8 71 -15 85 -23 43 -14 143 20
210 24 47 31 77 36 152 6 81 4 98 -11 122 -15 23 -17 38 -10 104 4 42 7 93 6
112 -1 20 10 58 23 85 20 43 23 60 18 123 -4 57 -1 76 11 90 21 23 25 59 34
262 9 229 8 257 -8 276 -12 15 -16 64 -22 309 -2 73 -8 118 -17 135 -17 29
-33 198 -31 313 1 43 -5 140 -15 215 -9 75 -14 162 -10 192 4 44 0 71 -20 130
-29 83 -30 85 -39 188 -3 40 -13 91 -20 112 -9 25 -12 66 -10 112 3 40 0 97
-6 126 -8 38 -7 62 1 87 10 30 8 45 -9 98 -24 73 -47 185 -56 277 -4 36 -15
90 -25 120 -10 30 -21 95 -25 145 -3 49 -12 101 -20 115 -7 14 -18 50 -25 80
-7 30 -18 64 -25 75 -7 11 -18 67 -25 125 -6 58 -16 110 -20 116 -14 15 -40
123 -34 137 7 19 -24 87 -40 87 -8 0 -17 15 -20 33 -3 17 -12 44 -20 59 -8 14
-20 59 -27 100 -7 40 -20 84 -30 98 -24 36 -70 149 -75 184 -2 16 -11 51 -20
78 -9 29 -14 62 -10 80 3 17 2 36 -3 42 -4 6 -16 34 -25 63 -10 28 -23 56 -31
63 -7 6 -11 20 -8 31 4 14 -4 31 -25 52 -33 36 -47 69 -43 109 4 39 -14 67
-39 61 -17 -5 -20 0 -20 31 0 39 13 47 29 19 14 -25 14 2 0 30 -6 12 -32 44
-58 70 -39 40 -46 54 -47 88 0 22 -6 44 -14 49 -7 4 -13 27 -14 51 -1 24 -5
44 -11 44 -28 2 -52 18 -68 45 -20 34 -14 58 9 39 15 -13 16 -11 19 41 1 19 5
43 9 52 9 19 -28 63 -44 53 -6 -4 -10 4 -10 16 0 21 -1 21 -27 4 -26 -17 -27
-17 -44 4 -9 11 -21 21 -25 21 -4 0 -22 12 -41 26 -42 32 -80 92 -99 155 -8
26 -19 51 -24 54 -6 3 -10 31 -10 60 0 47 -3 57 -25 71 -14 9 -55 62 -91 118
-36 55 -75 112 -85 126 -34 45 -97 187 -109 246 -7 32 -27 91 -46 131 -18 41
-36 91 -40 111 -3 20 -15 46 -25 57 -10 11 -30 47 -44 80 -32 74 -37 86 -69
157 -14 31 -26 63 -26 71 0 7 -24 45 -53 84 -30 39 -72 104 -95 145 -22 41
-47 80 -56 87 -25 21 -81 113 -100 164 -10 26 -42 85 -72 130 -30 45 -58 93
-61 106 -3 14 -12 36 -19 50 -8 14 -14 42 -14 62 0 19 -7 44 -15 55 -9 12 -14
44 -15 91 0 39 -4 74 -9 77 -4 3 -11 23 -15 44 -3 22 -19 54 -39 77 -30 35
-36 37 -62 28 -19 -6 -38 -23 -50 -46 -20 -38 -41 -45 -74 -27 -23 12 -194
184 -281 282 -35 40 -73 78 -85 85 -38 22 -144 73 -153 73 -5 0 -19 -11 -32
-25 -41 -44 -106 -27 -190 50 -19 17 -42 24 -96 29 -39 4 -96 16 -125 27 -75
29 -134 38 -274 45 -66 3 -138 11 -160 19 -22 7 -56 17 -75 20 -19 4 -48 15
-65 25 -35 21 -140 50 -182 50 -16 0 -39 7 -51 16 -12 8 -67 24 -122 35 -56
10 -118 28 -140 39 -21 11 -76 26 -122 33 -77 13 -136 37 -181 75 -10 9 -41
16 -75 17 -37 2 -76 11 -112 29 -30 14 -60 26 -66 26 -6 0 -22 8 -35 19 -19
14 -48 19 -144 24 -124 6 -201 24 -280 66 -22 12 -73 39 -113 61 -41 21 -81
45 -90 53 -10 8 -34 20 -55 25 -29 8 -65 38 -148 121 -60 61 -109 118 -109
126 0 8 -4 15 -10 15 -5 0 -10 6 -10 14 0 7 -7 19 -15 26 -9 7 -13 20 -10 27
7 20 -12 53 -31 53 -39 0 -131 71 -118 92 4 5 22 7 40 3 31 -5 34 -4 34 18 0
34 -77 97 -118 97 -18 0 -92 68 -92 85 0 4 -7 25 -17 46 -16 38 -36 53 -85 63
-30 7 -98 96 -98 128 0 10 -4 18 -8 18 -9 0 -67 53 -96 88 -11 12 -22 39 -25
59 -4 25 -12 39 -24 41 -11 2 -15 -1 -11 -11 3 -8 0 -18 -6 -22 -18 -11 -40
15 -40 49 0 22 -8 40 -26 57 -39 35 -64 100 -68 172 -4 68 -21 107 -47 107
-21 0 -31 -37 -18 -62 6 -12 6 -18 -1 -18 -5 0 -10 5 -10 10 0 6 -8 10 -17 10
-10 0 -26 14 -35 30 -9 17 -24 30 -33 30 -24 0 -35 41 -17 68 16 24 18 110 4
124 -6 6 -18 4 -31 -3 -16 -11 -23 -11 -33 -1 -6 6 -18 12 -24 12 -44 0 -119
87 -86 98 7 2 12 19 12 37 0 22 6 38 18 44 15 8 11 12 -23 28 -64 30 -145 85
-145 98 0 7 7 15 15 19 23 9 18 24 -22 65 -50 52 -93 106 -93 119 0 6 -10 14
-22 18 -13 4 -43 24 -67 45 -24 22 -48 39 -52 39 -10 0 -49 37 -49 46 0 18
-70 88 -105 104 -22 10 -53 27 -70 36 -16 9 -37 20 -45 24 -8 3 -21 20 -28 36
-9 20 -28 35 -58 48 -46 19 -59 48 -28 60 13 5 14 9 4 22 -9 10 -22 13 -42 8
-29 -6 -30 -5 -26 33 3 38 3 38 -39 43 -29 4 -47 13 -62 31 -19 24 -82 46
-118 40 -7 -1 -13 2 -13 7 0 5 -12 21 -26 35 -20 20 -32 24 -57 21 -18 -3 -61
0 -97 6 -78 14 -257 20 -285 10z m238 -212 c9 -5 24 -20 33 -33 13 -20 14 -28
4 -40 -11 -13 -18 -11 -59 12 -49 28 -91 62 -91 74 0 9 90 -1 113 -13z m531
-125 c24 -21 43 -42 42 -48 -2 -5 -25 -10 -52 -9 -44 1 -49 4 -51 25 -1 13 -5
34 -9 47 -10 34 17 28 70 -15z m-954 -50 c0 -8 -5 -23 -10 -34 -11 -19 -11
-19 -51 2 -28 14 -39 25 -35 35 3 9 6 20 6 25 0 5 10 14 23 18 17 7 27 4 45
-12 12 -11 22 -27 22 -34z m-150 -162 c0 -5 -7 -11 -15 -15 -21 -8 -19 -36 3
-36 9 0 23 9 30 20 14 23 37 27 29 5 -8 -19 10 -29 47 -27 16 2 39 -4 52 -13
13 -8 45 -15 73 -15 49 0 102 -17 240 -75 54 -23 74 -26 120 -22 43 5 60 2 81
-13 14 -10 44 -22 65 -25 34 -6 56 -24 145 -117 119 -123 171 -188 192 -238
10 -22 34 -48 67 -70 30 -20 63 -54 78 -79 14 -25 48 -67 76 -94 27 -26 71
-76 98 -109 27 -34 65 -73 84 -87 20 -13 48 -45 64 -70 15 -25 56 -75 90 -111
34 -36 74 -80 88 -97 15 -18 31 -33 37 -33 16 -1 46 -29 98 -94 26 -32 65 -71
87 -86 21 -16 50 -44 64 -62 27 -35 77 -174 77 -213 0 -29 16 -41 63 -50 21
-4 37 -13 37 -21 0 -16 40 -96 52 -105 5 -3 14 -25 21 -49 9 -33 23 -51 50
-70 39 -26 57 -53 77 -117 15 -46 59 -123 70 -123 5 0 11 -13 15 -29 7 -34 50
-76 88 -85 17 -4 27 -13 27 -24 0 -35 52 -72 111 -79 30 -3 63 -12 74 -19 11
-8 25 -14 31 -14 7 0 25 -12 41 -27 83 -79 179 -150 289 -213 24 -14 58 -40
76 -57 18 -17 62 -44 98 -58 36 -15 73 -31 83 -36 10 -6 37 -20 60 -31 23 -12
65 -36 94 -55 28 -18 54 -33 58 -33 3 0 38 -22 78 -48 85 -57 165 -88 262
-102 125 -18 150 -23 175 -35 14 -7 52 -18 85 -25 33 -7 69 -16 80 -20 11 -5
38 -14 60 -21 22 -6 58 -24 80 -39 45 -31 130 -70 152 -70 7 0 36 -11 64 -25
27 -14 80 -29 117 -34 37 -5 84 -16 105 -25 21 -8 69 -19 105 -22 37 -4 94
-17 127 -30 32 -14 84 -27 115 -30 30 -4 86 -21 125 -39 56 -26 86 -34 147
-37 62 -3 83 -8 105 -26 15 -12 43 -32 61 -43 17 -12 32 -27 32 -35 0 -23 71
-123 91 -129 10 -4 42 -31 71 -61 29 -30 72 -68 97 -84 101 -67 181 -141 181
-168 0 -11 29 -50 64 -88 36 -38 68 -80 71 -94 4 -14 10 -27 14 -30 4 -3 22
-32 40 -65 17 -34 42 -67 55 -75 26 -16 91 -98 108 -136 6 -13 16 -24 22 -24
15 0 56 -74 56 -100 0 -13 25 -48 60 -84 33 -35 57 -66 54 -69 -10 -9 24 -74
46 -90 25 -18 40 -57 42 -118 2 -40 8 -54 31 -75 16 -14 26 -32 23 -40 -3 -7
6 -25 20 -39 21 -21 24 -31 19 -57 -7 -29 10 -80 56 -171 5 -9 16 -39 25 -65
9 -26 23 -55 31 -64 9 -9 18 -38 20 -63 5 -37 3 -45 -11 -45 -13 0 -36 -35
-36 -55 0 -3 46 -61 88 -110 9 -12 51 -47 93 -78 65 -49 81 -67 109 -125 18
-37 37 -69 41 -72 4 -3 11 -19 15 -35 4 -17 22 -59 39 -95 18 -36 41 -83 51
-105 9 -22 26 -52 36 -67 10 -14 18 -39 18 -55 0 -15 9 -39 20 -53 11 -14 20
-32 20 -41 0 -9 6 -22 14 -28 7 -6 16 -33 19 -60 3 -27 17 -68 31 -90 15 -22
26 -45 26 -51 0 -18 31 -112 51 -156 11 -22 19 -48 19 -58 0 -9 11 -32 25 -50
14 -18 25 -45 25 -59 0 -15 5 -27 10 -27 6 0 10 -11 10 -25 0 -14 12 -54 27
-88 14 -34 30 -78 34 -97 4 -19 22 -82 40 -140 18 -58 35 -136 39 -175 3 -38
12 -83 18 -99 7 -15 17 -71 22 -123 10 -94 32 -153 57 -153 8 0 11 -14 10 -40
-1 -26 6 -49 20 -67 11 -16 25 -53 31 -83 13 -74 42 -149 70 -184 12 -16 22
-32 22 -36 0 -5 18 -39 40 -78 22 -38 40 -78 40 -88 0 -11 15 -42 33 -69 41
-61 77 -164 77 -220 0 -47 17 -105 36 -120 6 -5 14 -28 17 -50 4 -22 15 -85
27 -140 11 -55 20 -116 20 -135 0 -19 9 -66 20 -105 11 -38 20 -82 20 -97 0
-15 4 -47 9 -70 6 -24 15 -72 21 -108 7 -36 15 -69 20 -75 4 -5 13 -68 20
-140 7 -71 19 -146 27 -165 8 -20 14 -64 13 -100 -2 -153 11 -332 27 -363 18
-36 19 -178 2 -422 -8 -119 -15 -161 -34 -205 -13 -30 -29 -84 -36 -120 -7
-36 -18 -74 -25 -85 -20 -33 -54 -216 -54 -292 0 -43 -6 -82 -15 -99 -9 -18
-15 -58 -15 -104 -1 -41 -6 -95 -11 -120 -12 -49 -36 -224 -47 -337 -4 -39 -9
-73 -12 -75 -3 -2 -18 -14 -33 -26 -34 -25 -82 -89 -92 -123 -4 -13 -15 -33
-25 -44 -10 -11 -23 -31 -29 -45 -6 -14 -15 -32 -20 -40 -5 -8 -22 -45 -37
-82 -15 -38 -31 -68 -36 -68 -4 0 -8 -11 -8 -25 0 -16 6 -25 15 -25 8 0 15 -4
15 -9 0 -20 -49 -77 -103 -119 l-58 -46 -93 2 c-99 2 -158 20 -221 67 -16 12
-48 30 -70 40 -56 25 -83 52 -95 94 -32 107 -40 140 -46 185 -4 38 -14 57 -46
92 -38 41 -43 44 -83 40 -46 -5 -91 -25 -141 -62 -55 -43 -96 -24 -149 67 -5
10 -40 44 -77 76 -85 75 -154 169 -190 258 -16 38 -35 76 -42 85 -22 25 -53
92 -60 131 -4 21 -15 48 -25 60 -10 13 -28 46 -39 72 -12 27 -44 82 -72 124
-27 41 -50 81 -50 89 0 22 -75 178 -93 193 -9 7 -17 19 -17 25 -1 6 -11 23
-23 37 -27 32 -96 64 -253 119 -86 30 -292 156 -361 220 -35 33 -72 60 -83 60
-28 0 -158 110 -165 140 -8 35 -99 154 -146 192 -22 18 -58 59 -80 92 -89 136
-125 184 -132 176 -2 -3 -1 -45 2 -93 8 -107 1 -117 -58 -87 -27 13 -50 36
-68 68 -16 27 -40 63 -55 81 -26 30 -30 31 -65 22 -31 -9 -41 -8 -58 7 -28 25
-90 64 -161 101 -32 18 -88 49 -124 71 -36 21 -75 39 -87 39 -11 1 -43 18 -70
39 -42 33 -150 92 -168 92 -4 0 -58 20 -121 45 -110 44 -166 77 -263 155 -52
42 -164 110 -241 146 -121 57 -228 110 -275 139 -72 43 -207 105 -230 105 -11
0 -33 7 -49 15 -15 8 -36 15 -46 15 -9 0 -42 14 -73 30 -31 16 -66 30 -77 30
-12 0 -45 11 -73 24 -29 14 -71 30 -94 38 -31 9 -45 21 -57 45 -9 18 -19 33
-23 33 -5 -1 -27 -5 -51 -9 -29 -6 -45 -5 -50 3 -15 24 -108 95 -144 109 -20
9 -79 23 -130 32 -51 9 -113 21 -138 26 -25 6 -54 11 -65 11 -41 -1 -261 -39
-290 -51 -22 -9 -40 -9 -78 0 -38 9 -62 9 -106 0 -98 -21 -191 -75 -191 -111
0 -23 -20 -40 -47 -40 -32 0 -39 -24 -18 -57 18 -26 17 -27 -16 -54 -19 -15
-45 -30 -59 -33 -18 -3 -42 -30 -85 -93 l-60 -88 -2 -210 c-3 -230 -17 -436
-33 -475 -5 -14 -14 -75 -20 -137 -6 -62 -13 -119 -16 -128 -8 -19 13 -46 30
-39 19 7 18 -57 -1 -78 -9 -10 -22 -18 -28 -18 -7 0 -18 -13 -25 -30 -7 -16
-16 -28 -20 -25 -4 3 -13 -2 -20 -10 -15 -18 -5 -145 11 -156 7 -4 7 -13 -2
-27 -11 -17 -10 -32 3 -89 12 -49 17 -119 18 -248 0 -99 3 -196 6 -215 7 -44
35 -105 68 -149 14 -19 26 -39 26 -44 0 -10 -31 -6 -63 8 -17 7 -18 4 -12 -41
6 -48 23 -104 34 -114 11 -10 47 -65 56 -85 5 -11 10 -47 11 -80 2 -69 12
-125 26 -142 7 -9 6 -23 -2 -43 -9 -22 -9 -42 -2 -77 20 -91 25 -128 27 -198
1 -66 8 -93 37 -140 7 -11 27 -42 44 -70 23 -36 33 -68 38 -115 4 -36 23 -101
42 -148 19 -45 34 -97 34 -114 0 -48 29 -157 57 -217 33 -69 66 -158 108 -291
18 -58 42 -125 54 -150 11 -25 21 -53 21 -63 0 -10 13 -44 30 -77 28 -55 39
-88 60 -185 22 -96 61 -216 96 -291 13 -28 31 -82 40 -120 8 -38 24 -87 36
-109 11 -22 53 -103 92 -180 86 -168 114 -213 156 -248 35 -30 140 -143 183
-198 16 -20 48 -51 73 -70 24 -18 54 -47 66 -65 15 -21 34 -35 54 -39 33 -6
66 -40 97 -102 32 -61 116 -153 141 -153 24 0 52 -25 70 -63 6 -12 32 -32 57
-44 45 -22 46 -23 52 -77 8 -82 50 -129 85 -94 9 9 22 3 56 -31 24 -24 54 -48
67 -55 12 -6 46 -51 73 -100 48 -84 72 -113 173 -208 43 -42 92 -54 73 -19
-15 29 -13 33 22 29 38 -3 48 -27 22 -52 -14 -15 -15 -21 -4 -41 32 -60 80
-94 185 -132 37 -14 51 -24 53 -41 2 -12 -1 -22 -7 -22 -47 0 88 -179 152
-203 12 -5 17 -17 17 -46 0 -22 5 -43 10 -46 6 -3 10 -25 10 -48 0 -24 9 -60
20 -82 11 -22 20 -47 20 -56 0 -9 9 -24 21 -35 12 -10 30 -37 41 -58 21 -41
21 -59 -3 -167 -10 -46 -10 -70 1 -128 12 -63 11 -75 -3 -103 -9 -18 -23 -76
-31 -128 l-16 -95 -82 -77 c-46 -42 -90 -77 -98 -78 -9 0 -25 -7 -37 -15 -13
-9 -32 -13 -45 -10 -18 5 -32 -3 -62 -34 -37 -38 -42 -40 -125 -48 -47 -4 -95
-6 -106 -5 -29 4 -122 52 -141 74 -20 21 -93 25 -112 5 -9 -8 -67 -14 -180
-18 -107 -4 -196 -12 -248 -24 l-80 -19 -70 33 c-72 34 -219 59 -238 40 -14
-13 -60 -11 -73 2 -9 9 -19 9 -41 0 -37 -16 -57 -16 -292 -6 -200 9 -215 9
-335 1 -38 -2 -126 -7 -194 -10 -68 -3 -147 -12 -175 -19 -61 -17 -254 -15
-366 3 -58 9 -86 9 -123 0 -30 -8 -66 -9 -100 -4 -28 5 -59 7 -67 6 -29 -5
-157 -12 -297 -16 -79 -3 -147 -7 -153 -11 -12 -7 -251 11 -340 26 -42 7 -79
7 -105 2 -23 -6 -53 -6 -70 -1 -36 10 -204 17 -565 21 -147 2 -298 10 -339 16
-40 7 -92 10 -115 7 -22 -4 -106 -10 -186 -15 -128 -7 -152 -6 -204 10 -77 25
-131 24 -167 -2 -20 -14 -42 -19 -76 -18 -27 1 -79 -6 -117 -16 -40 -10 -87
-15 -112 -12 -25 2 -62 -1 -84 -9 -30 -10 -80 -12 -207 -8 -92 3 -186 10 -209
14 -23 5 -132 12 -243 15 -195 6 -203 6 -237 -15 -39 -24 -49 -24 -159 10 -58
18 -93 22 -203 21 -74 -1 -177 -8 -230 -15 -111 -16 -429 -14 -462 4 -14 7
-51 7 -127 -1 -245 -25 -470 -15 -519 24 -27 21 -27 27 -10 113 2 12 -1 32 -8
45 -12 24 -34 227 -38 351 -2 48 2 72 13 85 25 29 69 125 69 150 0 12 9 38 20
58 11 20 20 46 20 59 0 70 11 87 99 152 47 35 107 89 132 121 25 32 84 86 130
120 46 34 93 70 104 80 28 25 135 89 165 98 14 4 34 15 45 25 28 24 60 40 83
40 10 0 37 16 59 35 23 19 44 35 48 35 4 0 28 15 54 33 67 48 88 55 165 59 74
4 72 3 146 97 15 19 38 34 55 37 17 3 37 7 45 9 8 2 22 4 30 4 9 1 24 16 34
35 11 20 37 44 65 59 42 23 110 92 169 171 35 49 113 135 161 180 54 51 86
100 95 147 3 20 18 47 32 60 49 44 175 221 195 272 11 28 26 55 34 61 7 6 30
43 50 81 21 39 44 77 51 85 21 25 52 105 60 156 4 27 20 76 35 109 16 33 29
76 29 94 0 23 8 44 24 60 37 41 84 215 90 336 4 80 42 161 102 217 19 18 34
40 34 50 0 9 5 20 11 24 6 3 8 17 5 30 -5 17 6 49 35 107 39 78 41 87 46 192
4 112 -6 191 -34 254 -15 37 -11 78 23 228 8 34 14 80 14 101 0 22 9 68 20
102 11 34 20 85 20 112 0 29 8 66 20 90 11 23 20 53 20 67 0 31 22 112 43 161
8 19 18 69 22 110 4 41 12 81 18 88 5 7 13 49 17 93 4 47 12 84 20 89 14 9 27
64 40 176 5 44 23 120 40 168 18 51 30 104 29 129 0 23 11 76 25 117 52 155
66 211 66 265 0 31 6 66 14 78 8 12 19 75 25 142 6 66 16 161 23 211 10 79 9
104 -7 186 -13 73 -15 107 -8 150 7 40 6 65 -4 92 -7 22 -13 90 -14 169 -1
115 1 133 17 144 41 30 -4 165 -60 179 -30 7 -46 42 -46 100 0 49 -10 73 -46
117 -13 16 -24 42 -24 57 0 51 -32 138 -54 148 -63 29 -164 71 -186 77 -55 16
-146 58 -167 77 -12 12 -39 22 -59 24 -21 2 -40 8 -44 13 -7 13 -49 14 -115 5
-35 -5 -58 -15 -78 -36 -47 -47 -90 -60 -158 -48 -33 5 -86 15 -119 20 -67 12
-113 -3 -125 -39 -13 -41 -39 -53 -104 -45 -53 6 -63 10 -82 39 -13 19 -53 49
-99 73 -76 41 -80 42 -173 42 -53 0 -99 -4 -102 -10 -3 -5 -23 -10 -45 -10
-21 0 -69 -9 -106 -21 -52 -16 -77 -30 -104 -60 -19 -21 -43 -39 -53 -39 -21
0 -60 -37 -52 -50 4 -6 -12 -10 -37 -10 -49 0 -98 -26 -124 -66 -15 -22 -15
-29 -5 -46 11 -17 10 -22 -1 -29 -18 -12 -24 -11 -38 6 -6 7 -31 17 -55 21
-24 3 -52 12 -62 20 -16 12 -16 15 -3 24 11 8 6 9 -20 6 -54 -7 -70 -16 -76
-45 -9 -36 -24 -53 -42 -46 -8 3 -21 0 -28 -6 -8 -6 -23 -9 -35 -6 -13 4 -22
0 -25 -11 -3 -9 -12 -33 -21 -52 l-15 -35 -19 24 c-10 13 -19 29 -19 37 0 8
-7 14 -15 14 -20 0 -19 -10 5 -35 l21 -22 -23 -28 c-50 -61 -68 -75 -93 -75
-32 0 -32 18 0 30 18 7 23 14 18 27 -10 28 -25 33 -55 17 -31 -16 -36 -45 -13
-64 13 -11 13 -14 -2 -26 -10 -7 -28 -14 -41 -14 -13 0 -30 -6 -37 -14 -10
-10 -26 -11 -65 -5 -63 10 -95 -3 -109 -42 -11 -31 -41 -40 -41 -12 0 13 -9 8
-35 -17 -23 -22 -35 -43 -35 -61 0 -14 -7 -32 -16 -40 -9 -7 -14 -22 -11 -36
6 -32 4 -32 -57 21 -44 39 -69 19 -78 -64 -3 -22 -7 -25 -41 -22 -32 3 -39 0
-54 -26 -22 -38 -60 -52 -115 -41 -35 6 -45 5 -55 -9 -16 -20 -16 -39 -1 -44
9 -3 8 -12 -6 -33 -17 -27 -20 -27 -83 -22 -77 6 -109 -9 -185 -87 -26 -26
-48 -43 -48 -37 0 6 -7 11 -16 11 -11 0 -15 -6 -11 -19 3 -13 -1 -21 -14 -24
-12 -3 -16 -11 -12 -25 4 -16 -3 -23 -31 -33 -20 -7 -36 -19 -36 -26 0 -7 -3
-13 -7 -14 -5 0 -18 -2 -30 -5 -25 -4 -30 5 -11 24 6 6 9 15 5 18 -11 11 -38
-18 -61 -66 -12 -25 -26 -45 -31 -46 -6 0 -38 -6 -73 -14 -71 -14 -85 -30 -86
-95 -1 -39 -2 -40 -40 -42 -43 -3 -66 -17 -66 -43 0 -11 -27 -38 -65 -66 -36
-26 -67 -55 -70 -65 -3 -9 -14 -24 -25 -34 -11 -10 -20 -31 -20 -47 0 -36 -9
-46 -85 -87 -77 -42 -85 -49 -85 -74 0 -39 -23 -96 -51 -127 -24 -26 -27 -34
-18 -57 7 -18 6 -30 -1 -37 -13 -13 -27 2 -32 34 -2 17 -10 26 -26 28 -12 2
-22 -1 -22 -6 0 -5 -20 -29 -45 -53 -25 -24 -52 -57 -60 -73 -17 -34 -10 -105
12 -123 8 -6 12 -17 7 -24 -5 -9 -10 -8 -20 5 -17 24 -56 4 -53 -27 4 -32 -10
-66 -32 -77 -24 -13 -49 -72 -49 -116 0 -23 -5 -34 -18 -38 -26 -9 -52 -69
-52 -120 0 -36 -5 -48 -35 -75 -19 -17 -35 -40 -35 -49 0 -10 -14 -31 -30 -47
-36 -34 -53 -90 -51 -162 1 -46 -1 -53 -28 -72 -16 -12 -43 -43 -60 -71 -17
-27 -43 -56 -59 -64 -29 -15 -49 -57 -36 -77 10 -17 -5 -59 -21 -59 -8 0 -15
-3 -15 -7 0 -5 -11 -21 -25 -37 -14 -16 -25 -37 -25 -46 0 -21 -44 -70 -63
-70 -7 0 -40 -26 -73 -57 -33 -32 -77 -73 -98 -92 -29 -26 -36 -38 -32 -56 5
-18 -1 -28 -24 -45 -18 -13 -34 -37 -42 -62 -6 -22 -18 -42 -25 -45 -15 -6
-18 -43 -3 -43 6 0 10 -12 10 -26 0 -23 -3 -26 -27 -22 -16 3 -34 7 -42 9 -10
3 -17 -8 -22 -31 -4 -19 -16 -41 -26 -50 -10 -8 -24 -27 -30 -42 -7 -16 -20
-28 -28 -28 -23 0 -66 -46 -59 -63 7 -18 -58 -68 -135 -102 -45 -20 -53 -19
-114 11 -63 32 -107 71 -107 96 0 38 -74 148 -99 148 -22 0 -144 136 -174 195
-8 17 -40 58 -70 93 -79 90 -105 147 -117 250 -11 101 -12 458 -2 517 6 28 3
53 -10 87 -15 39 -15 47 -3 52 8 3 17 0 21 -6 5 -8 11 -6 18 4 17 24 10 175
-9 194 -24 25 -28 58 -11 109 15 43 22 113 30 300 2 39 7 95 12 125 4 30 7 72
5 93 -3 40 18 138 32 148 4 3 7 37 6 75 -4 182 6 295 28 307 9 6 13 23 12 52
-2 24 4 59 13 77 32 65 42 116 29 141 -13 24 -3 66 23 97 7 8 19 49 26 90 7
41 19 85 27 98 14 23 30 87 40 154 3 21 11 42 19 49 8 6 14 16 14 21 0 5 18
36 40 69 22 33 43 72 46 87 17 73 51 152 74 172 4 3 14 32 24 65 33 112 50
148 88 192 27 31 38 54 38 76 0 20 9 41 27 59 25 26 48 74 60 126 3 12 19 32
35 43 16 12 38 42 49 67 12 26 27 59 35 74 8 14 14 33 14 42 0 15 52 98 86
137 8 8 14 21 14 28 0 19 49 86 62 86 7 0 18 25 26 55 10 43 19 59 42 72 17 9
32 29 36 45 4 15 20 54 35 85 16 32 29 66 29 77 0 11 5 23 11 27 6 3 20 25 31
48 24 51 54 103 79 135 10 13 19 27 19 31 0 5 18 37 40 71 60 95 88 158 96
215 6 48 4 52 -22 73 -16 12 -41 25 -56 28 -17 3 -41 22 -60 45 -37 47 -32 64
22 82 31 10 35 15 38 51 2 22 9 47 16 55 6 8 22 38 35 65 12 28 26 57 31 65
26 43 68 139 74 168 3 18 17 49 31 70 14 20 25 42 25 49 0 7 5 13 10 13 6 0
10 13 10 30 0 16 6 33 14 37 8 4 21 25 29 46 9 20 21 37 26 37 6 0 11 9 11 20
0 11 16 52 35 90 19 38 35 80 35 93 0 14 12 32 30 45 22 16 30 31 30 52 0 20
5 30 15 30 25 0 30 2 44 22 10 14 12 36 7 77 -6 55 -5 60 29 104 19 25 35 50
35 55 0 6 7 12 15 15 19 8 54 78 56 114 1 15 -1 43 -5 61 -7 31 5 45 19 22 12
-20 23 -9 46 48 33 83 62 135 102 184 32 40 34 47 30 95 -5 45 -3 52 16 62 11
6 35 40 52 74 17 34 47 85 67 112 46 62 92 156 92 188 0 13 9 36 20 50 11 13
35 53 54 88 18 35 47 87 64 116 17 29 37 71 44 95 24 81 76 168 101 168 11 0
32 7 47 17 22 13 30 26 35 62 4 25 13 58 21 72 15 30 82 89 100 89 6 0 27 25
45 57 19 31 44 66 56 78 12 11 25 33 28 48 4 14 19 39 33 54 39 41 82 111 82
133 0 12 12 26 30 35 19 10 30 23 30 37 0 11 5 38 11 58 10 33 17 40 55 50 49
14 78 41 114 108 15 28 37 53 56 62 18 8 64 47 103 87 69 71 99 90 174 113 40
12 122 55 147 76 18 15 98 44 122 44 9 0 21 13 26 29 15 43 70 52 126 22 44
-23 159 -30 171 -11 3 6 39 10 79 10 74 0 82 2 224 66 29 13 58 24 64 24 25 0
134 43 145 58 11 13 16 14 38 2 20 -11 32 -11 62 -1 21 7 76 17 123 21 215 20
359 52 407 89 14 11 39 23 57 25 184 28 246 40 281 56 22 10 57 21 78 25 25 5
45 17 60 37 12 17 43 53 70 81 49 54 54 66 36 99 -6 11 -8 35 -4 55 7 37 33
53 92 58 18 1 40 8 48 15 12 10 24 10 54 1 78 -23 108 -13 136 43 6 11 36 33
68 49 45 22 61 37 78 69 12 23 37 57 55 75 19 18 34 41 34 52 0 11 14 32 32
48 17 15 48 45 68 66 19 20 40 37 46 37 16 0 49 41 64 80 7 19 19 42 27 51 7
8 13 19 13 23 0 4 9 21 21 38 17 23 26 28 48 23 21 -4 35 3 77 42 27 27 63 65
78 86 18 23 37 37 50 37 28 0 45 15 77 62 13 21 28 38 32 38 4 0 15 16 23 35
8 19 21 35 30 35 8 0 41 21 73 48 32 26 73 58 91 72 18 14 44 34 59 45 14 12
38 28 53 38 29 18 118 129 118 147 0 6 7 13 15 16 8 4 15 14 15 24 0 11 5 22
10 25 6 3 10 17 10 29 0 16 30 56 90 120 50 54 90 101 90 106 0 16 53 72 77
81 12 5 23 14 23 21 0 7 24 29 53 48 28 20 53 45 55 55 5 28 38 61 104 106 82
56 122 123 87 145 -17 10 -4 134 16 153 14 14 17 14 25 1 5 -8 7 -22 4 -30
-20 -49 -8 -73 39 -84 21 -5 29 -2 34 11 4 10 22 39 40 65 18 26 33 55 33 63
0 8 5 15 11 15 5 0 8 4 5 9 -3 5 6 12 20 15 37 10 176 143 194 187 8 20 31 55
50 77 40 47 177 188 210 215 15 13 20 26 16 40 -3 16 4 31 25 51 16 16 29 35
29 43 0 7 11 13 25 13 14 0 25 -4 25 -9z m-730 -280 c0 -6 -5 -13 -11 -17 -6
-3 -8 -20 -5 -38 3 -17 1 -38 -4 -46 -8 -13 -14 -10 -40 16 -28 28 -30 33 -19
57 7 16 22 27 38 30 14 2 29 5 34 6 4 0 7 -3 7 -8z m2420 -181 c0 -5 -4 -10
-10 -10 -5 0 -10 5 -10 10 0 6 5 10 10 10 6 0 10 -4 10 -10z m-3592 -931 c-2
-6 -8 -10 -13 -10 -5 0 -11 4 -13 10 -2 6 4 11 13 11 9 0 15 -5 13 -11z m4404
-892 c12 -19 9 -47 -5 -47 -20 0 -57 39 -57 60 0 17 3 18 27 9 15 -6 31 -16
35 -22z m-5458 -282 c3 -9 0 -15 -8 -15 -8 0 -16 7 -20 15 -3 9 0 15 8 15 8 0
16 -7 20 -15z m6808 -175 c56 -55 40 -70 -35 -33 -42 21 -56 33 -56 51 -1 37
42 28 91 -18z m252 -58 c28 -16 83 -41 122 -56 39 -14 79 -33 90 -40 18 -14
18 -15 -1 -36 -23 -26 -54 -22 -130 14 -27 14 -70 30 -95 36 -65 17 -140 52
-140 65 0 17 21 34 36 28 7 -2 21 0 31 6 26 15 31 14 87 -17z m-184 -22 c0 -5
-7 -10 -15 -10 -8 0 -15 5 -15 10 0 6 7 10 15 10 8 0 15 -4 15 -10z m485 -130
c10 -11 16 -23 12 -26 -7 -7 -57 25 -57 37 0 16 26 9 45 -11z m885 -245 c10
-12 10 -15 -4 -15 -9 0 -16 7 -16 15 0 8 2 15 4 15 2 0 9 -7 16 -15z m437 -97
c19 -19 9 -38 -19 -38 -21 0 -68 36 -68 51 0 14 70 3 87 -13z m283 -112 c13
-17 10 -58 -6 -63 -11 -4 -34 38 -34 62 0 19 24 19 40 1z m88 -100 c8 -19 18
-24 42 -24 38 1 83 -39 113 -100 17 -37 18 -45 6 -53 -8 -5 -21 -6 -29 -3 -8
3 -36 8 -61 11 -41 5 -48 9 -64 42 -9 20 -32 49 -51 64 -30 26 -50 68 -23 52
6 -4 13 2 16 14 7 29 37 27 51 -3z m-13148 -1457 c0 -5 -9 -9 -20 -9 -19 0
-26 11 -14 23 8 8 34 -3 34 -14z m15440 -1880 c0 -6 -4 -7 -10 -4 -5 3 -10 11
-10 16 0 6 5 7 10 4 6 -3 10 -11 10 -16z m-6125 -2509 c3 -5 -1 -10 -9 -10 -9
0 -16 5 -16 10 0 6 4 10 9 10 6 0 13 -4 16 -10z m-915 -35 c0 -8 -4 -15 -10
-15 -5 0 -10 7 -10 15 0 8 5 15 10 15 6 0 10 -7 10 -15z m1018 -68 c2 -10 -3
-17 -11 -17 -16 0 -30 24 -19 34 10 10 27 1 30 -17z m87 -276 c8 -26 -2 -45
-33 -63 -34 -20 -62 -8 -62 27 0 18 6 25 19 25 10 0 24 7 31 15 17 20 37 19
45 -4z m175 -51 c0 -12 46 -35 86 -43 17 -3 45 -20 62 -36 20 -21 40 -31 61
-31 32 0 35 -3 44 -40 6 -26 6 -26 -46 -20 -39 5 -70 18 -125 54 -41 27 -89
52 -107 57 -18 5 -44 18 -57 29 l-23 19 43 1 c23 0 42 5 42 10 0 6 5 10 10 10
6 0 10 -4 10 -10z m-580 -115 c7 -9 10 -19 6 -22 -8 -9 -38 9 -44 25 -5 17 23
15 38 -3z m-11410 -365 c0 -11 -6 -20 -13 -20 -19 0 -27 10 -20 26 8 21 33 17
33 -6z m5095 -50 c3 -5 20 -7 38 -5 l32 5 -35 -16 c-19 -9 -46 -13 -62 -10
-40 8 -76 -11 -80 -43 -2 -20 -9 -27 -30 -29 -15 -2 -35 1 -44 6 -14 8 -12 12
15 31 17 12 31 28 31 35 0 26 121 49 135 26z m-215 -110 c0 -5 -4 -10 -10 -10
-5 0 -10 5 -10 10 0 6 5 10 10 10 6 0 10 -4 10 -10z m-172 -76 c49 -23 35 -39
-34 -39 l-59 0 -5 -34 c-7 -46 -22 -48 -54 -7 -34 45 -34 86 1 97 26 8 119 -3
151 -17z m5672 -209 c0 -8 -4 -15 -10 -15 -5 0 -10 7 -10 15 0 8 5 15 10 15 6
0 10 -7 10 -15z m-10590 -162 c0 -3 -7 -15 -17 -25 -14 -16 -15 -23 -3 -58 23
-71 -25 -91 -51 -22 -7 18 -6 29 6 42 8 9 15 20 15 25 0 5 7 17 17 27 16 18
33 24 33 11z m-41 -365 c6 -17 10 -32 9 -32 -2 -1 -15 -12 -30 -25 -23 -20
-30 -22 -43 -11 -21 18 -19 50 7 77 29 31 44 29 57 -9z m-59 -217 c0 -6 -4
-13 -10 -16 -5 -3 -10 1 -10 9 0 9 5 16 10 16 6 0 10 -4 10 -9z m22 -119 c22
-14 28 -24 28 -54 0 -33 -3 -38 -23 -38 -34 0 -52 -35 -36 -71 15 -38 8 -44
-35 -28 -43 16 -49 28 -32 76 7 21 11 57 8 79 -2 23 1 52 8 64 11 20 13 20 33
5 12 -9 34 -23 49 -33z m15990 -736 c6 -11 6 -22 1 -27 -13 -13 -63 45 -63 73
0 21 0 21 26 -3 14 -13 30 -32 36 -43z m-16248 -667 c18 -16 -3 -21 -38 -9
-20 6 -34 16 -30 21 6 10 53 2 68 -12z m18396 -348 c0 -14 -28 -33 -40 -26
-15 10 -12 23 8 28 28 8 32 7 32 -2z m-15861 -80 c15 -10 7 -31 -12 -31 -7 0
-19 5 -27 10 -13 9 -13 11 0 20 18 12 21 12 39 1z m15842 -17 c12 -33 7 -39
-19 -23 -16 10 -18 16 -9 31 15 23 16 23 28 -8z m-15651 1 c0 -8 -2 -15 -4
-15 -2 0 -6 7 -10 15 -3 8 -1 15 4 15 6 0 10 -7 10 -15z m15535 -115 c11 -17
-5 -32 -21 -19 -7 6 -11 15 -8 20 7 12 21 11 29 -1z m-654 -161 c23 -23 22
-52 -3 -57 -14 -3 -48 45 -48 70 0 15 30 8 51 -13z m-5634 -45 c-9 -9 -28 6
-21 18 4 6 10 6 17 -1 6 -6 8 -13 4 -17z m-244 -75 c17 -30 17 -33 1 -50 -10
-11 -22 -19 -27 -19 -19 0 -57 43 -57 65 0 28 8 35 39 35 19 0 31 -9 44 -31z
m-9449 -126 c10 -26 -35 -46 -49 -23 -8 13 13 40 30 40 7 0 16 -8 19 -17z
m-1403 -54 c28 -19 40 -59 19 -59 -5 0 -10 5 -10 10 0 6 -6 10 -14 10 -14 0
-46 36 -46 52 0 14 21 9 51 -13z m16586 -66 c15 -49 3 -63 -35 -41 -38 24 -49
43 -33 62 25 29 55 20 68 -21z m673 -133 c0 -5 -4 -10 -10 -10 -5 0 -10 5 -10
10 0 6 5 10 10 10 6 0 10 -4 10 -10z m-11080 -26 c0 -8 -4 -12 -10 -9 -5 3
-10 13 -10 21 0 8 5 12 10 9 6 -3 10 -13 10 -21z m-4820 -241 c-1 -25 -26 -56
-39 -48 -15 8 -14 38 1 53 18 18 38 15 38 -5z m15246 -166 c4 -14 12 -17 29
-13 30 8 53 -17 35 -39 -12 -14 -15 -14 -36 0 -13 8 -30 15 -38 15 -20 0 -50
46 -42 65 5 13 9 13 26 3 11 -7 23 -21 26 -31z m-15781 23 c3 -5 1 -10 -4 -10
-6 0 -11 5 -11 10 0 6 2 10 4 10 3 0 8 -4 11 -10z m2799 -1819 c6 -10 -46 -71
-62 -71 -5 0 -13 6 -15 13 -4 9 -8 8 -16 -3 -9 -13 -11 -13 -11 1 0 9 17 28
37 42 39 28 58 33 67 18z m-344 -491 c0 -11 -4 -20 -10 -20 -5 0 -10 9 -10 20
0 11 5 20 10 20 6 0 10 -9 10 -20z m-270 -450 c0 -5 -4 -10 -10 -10 -5 0 -10
5 -10 10 0 6 5 10 10 10 6 0 10 -4 10 -10z m-51 -399 c21 -14 -4 -23 -44 -15
-19 3 -35 10 -35 15 0 11 61 11 79 0z"/>
<path d="M3795 12020 c3 -5 11 -10 16 -10 6 0 7 5 4 10 -3 6 -11 10 -16 10 -6
0 -7 -4 -4 -10z"/>
<path d="M9227 10764 c-4 -4 -7 -20 -7 -36 0 -35 23 -34 28 1 4 25 -10 46 -21
35z"/>
<path d="M9191 10612 c-14 -26 -14 -42 -1 -42 11 0 25 48 17 56 -3 3 -10 -3
-16 -14z"/>
<path d="M7110 10245 c0 -25 0 -25 30 -10 17 9 30 20 30 25 0 6 -13 10 -30 10
-25 0 -30 -4 -30 -25z"/>
<path d="M6683 10075 c-3 -9 -3 -19 1 -22 7 -7 36 16 36 28 0 15 -30 10 -37
-6z"/>
<path d="M14207 3941 c3 -12 10 -21 15 -21 13 0 6 32 -9 37 -7 3 -9 -3 -6 -16z"/>
<path d="M14397 3763 c-12 -11 -8 -23 8 -23 8 0 19 -9 25 -20 12 -23 30 -27
30 -7 0 15 -36 57 -49 57 -4 0 -11 -3 -14 -7z"/>
<path d="M13436 19261 c-9 -13 23 -36 34 -25 6 6 2 14 -10 22 -10 6 -21 8 -24
3z"/>
<path d="M5854 8515 c-10 -24 8 -36 29 -20 18 13 18 14 -2 25 -17 9 -22 8 -27
-5z"/>
<path d="M5920 8520 c0 -5 5 -10 10 -10 6 0 10 5 10 10 0 6 -4 10 -10 10 -5 0
-10 -4 -10 -10z"/>
<path d="M5725 8490 c-3 -6 -3 -20 1 -33 4 -12 7 -35 5 -50 -1 -25 1 -28 21
-22 37 11 41 21 28 62 -16 48 -40 67 -55 43z"/>
<path d="M8667 7184 c-49 -160 -60 -244 -32 -244 8 0 29 13 47 29 31 28 32 30
20 68 -7 22 -9 60 -6 84 4 31 1 50 -9 63 -14 20 -15 20 -20 0z"/>
<path d="M4005 5684 l-17 -27 26 19 c26 19 33 34 17 34 -5 0 -16 -12 -26 -26z"/>
<path d="M1730 5639 c0 -5 5 -7 10 -4 6 3 10 8 10 11 0 2 -4 4 -10 4 -5 0 -10
-5 -10 -11z"/>
<path d="M1760 5630 c0 -5 5 -10 10 -10 6 0 10 5 10 10 0 6 -4 10 -10 10 -5 0
-10 -4 -10 -10z"/>
<path d="M1630 4715 c0 -15 26 -32 36 -23 2 3 2 13 -2 22 -8 20 -34 21 -34 1z"/>
<path d="M5467 3028 c8 -59 25 -113 37 -120 6 -4 21 -8 34 -8 29 0 32 46 3 55
-11 3 -23 16 -26 28 -14 50 -28 77 -40 77 -9 0 -12 -10 -8 -32z"/>
<path d="M5257 2184 c-8 -8 1 -24 14 -24 5 0 9 7 9 15 0 15 -12 20 -23 9z"/>
<path d="M9670 986 c0 -2 7 -6 15 -10 8 -3 15 -1 15 4 0 6 -7 10 -15 10 -8 0
-15 -2 -15 -4z"/>
</g>
</svg>
