<?xml version="1.0" standalone="no"?>
<!DOCTYPE svg PUBLIC "-//W3C//DTD SVG 20010904//EN"
 "http://www.w3.org/TR/2001/REC-SVG-20010904/DTD/svg10.dtd">
<svg version="1.0" xmlns="http://www.w3.org/2000/svg"
 width="2228.000000pt" height="2228.000000pt" viewBox="0 0 2228.000000 2228.000000"
 preserveAspectRatio="xMidYMid meet">
<metadata>
Created by potrace 1.14, written by Peter Selinger 2001-2017
</metadata>
<g transform="translate(0.000000,2228.000000) scale(0.100000,-0.100000)"
fill="#000000" stroke="none">
<path d="M11835 20438 c-16 -5 -72 -7 -124 -3 -63 4 -98 2 -107 -6 -8 -6 -41
-13 -73 -14 -34 -2 -79 -11 -103 -23 -24 -11 -74 -26 -113 -33 -73 -13 -113
-29 -155 -61 -46 -35 -101 -83 -132 -115 -17 -18 -37 -33 -44 -33 -7 0 -27
-13 -44 -30 -17 -16 -36 -30 -42 -30 -20 0 -78 -51 -78 -69 0 -9 -10 -26 -22
-37 -13 -11 -34 -33 -48 -50 -14 -17 -33 -33 -43 -37 -10 -4 -25 -20 -35 -37
-10 -18 -23 -28 -31 -25 -18 7 -51 -23 -51 -47 0 -10 -7 -21 -16 -25 -11 -4
-14 -14 -10 -37 5 -27 0 -35 -31 -58 -20 -16 -44 -28 -53 -28 -23 0 -110 -96
-110 -120 0 -14 -11 -22 -39 -30 -28 -7 -48 -23 -72 -54 -19 -25 -42 -47 -51
-49 -9 -3 -21 -21 -26 -40 -24 -88 -42 -113 -98 -138 -48 -21 -54 -27 -59 -59
-5 -33 -15 -54 -68 -154 -11 -21 -38 -57 -59 -80 -22 -22 -49 -58 -61 -78 -11
-21 -24 -38 -28 -38 -4 0 -10 -11 -13 -24 -3 -14 -18 -29 -37 -36 -17 -7 -37
-23 -45 -35 -7 -11 -34 -36 -59 -55 -30 -23 -45 -41 -45 -56 0 -13 -10 -30
-21 -38 -12 -8 -30 -29 -40 -46 -11 -17 -33 -36 -49 -42 -17 -5 -30 -13 -30
-18 0 -4 -13 -24 -30 -45 -16 -21 -30 -48 -30 -60 0 -26 -56 -73 -120 -102
-25 -11 -72 -46 -105 -77 -37 -34 -92 -73 -143 -98 -76 -38 -109 -67 -125
-109 -3 -9 -19 -19 -36 -22 -35 -7 -181 -144 -181 -169 0 -22 -19 -35 -60 -43
-23 -4 -56 -26 -93 -60 -41 -38 -63 -51 -77 -48 -16 4 -23 -3 -35 -30 -9 -23
-31 -45 -61 -64 -25 -15 -70 -49 -100 -75 -30 -26 -72 -59 -93 -73 -22 -13
-45 -34 -51 -45 -9 -17 -86 -75 -134 -101 -26 -14 -83 -38 -106 -45 -13 -4
-37 -19 -53 -35 -15 -16 -44 -31 -65 -35 -20 -3 -62 -23 -93 -44 -31 -21 -80
-43 -110 -49 -30 -7 -74 -18 -99 -26 -25 -7 -63 -17 -85 -20 -22 -4 -78 -17
-125 -30 -112 -30 -223 -55 -247 -55 -11 0 -28 -7 -39 -15 -10 -8 -41 -15 -67
-15 -26 0 -60 -6 -75 -14 -15 -8 -49 -14 -77 -13 -33 0 -63 -7 -90 -21 -34
-19 -56 -22 -155 -22 -114 0 -190 -12 -190 -30 0 -24 -147 -75 -267 -94 -51
-7 -166 -53 -253 -100 -36 -20 -73 -36 -82 -36 -18 0 -88 -68 -88 -86 0 -16
-44 -54 -62 -54 -32 0 -131 -53 -166 -90 -83 -86 -125 -136 -134 -161 -5 -16
-22 -32 -39 -39 -16 -7 -42 -27 -57 -45 -15 -18 -38 -38 -52 -45 -30 -16 -123
-91 -129 -104 -4 -10 -84 -100 -167 -188 -24 -26 -44 -52 -44 -59 0 -6 -13
-28 -30 -49 -16 -20 -38 -58 -49 -83 -11 -25 -34 -58 -51 -74 -27 -24 -31 -33
-26 -62 7 -42 -15 -95 -46 -112 -59 -32 -125 -131 -113 -170 4 -11 -4 -27 -20
-43 -14 -14 -25 -33 -25 -42 0 -30 -54 -114 -74 -114 -13 0 -16 -5 -12 -16 4
-10 -1 -25 -10 -36 -10 -10 -19 -30 -20 -46 -12 -105 -14 -111 -47 -114 -31
-3 -32 -4 -35 -57 -2 -35 -11 -65 -23 -83 -18 -24 -19 -33 -10 -60 9 -25 8
-35 -2 -45 -14 -14 -47 -8 -47 8 0 5 -6 9 -14 9 -17 0 -29 -31 -21 -52 3 -8
-5 -28 -18 -44 -41 -50 -67 -100 -67 -129 0 -18 -10 -36 -31 -53 -52 -45 -119
-133 -119 -156 0 -12 -17 -39 -39 -60 -22 -21 -42 -50 -46 -65 -4 -14 -15 -35
-25 -46 -21 -22 -80 -134 -80 -151 0 -6 -12 -21 -26 -35 -14 -13 -56 -73 -92
-132 -84 -135 -100 -165 -106 -198 -3 -14 -21 -42 -41 -62 -19 -20 -35 -42
-35 -50 0 -8 -11 -25 -24 -38 -33 -34 -66 -95 -66 -124 0 -14 -9 -33 -20 -42
-11 -10 -20 -27 -20 -40 0 -12 -7 -28 -15 -37 -21 -21 -55 -96 -55 -122 0 -24
-24 -49 -38 -40 -18 11 -41 -40 -35 -77 8 -53 -6 -126 -28 -148 -11 -11 -22
-29 -24 -39 -6 -31 -35 -80 -55 -93 -11 -6 -20 -19 -20 -27 0 -8 -7 -23 -15
-33 -7 -11 -11 -25 -9 -32 3 -7 -12 -26 -33 -43 -26 -21 -42 -44 -51 -75 -8
-26 -20 -51 -28 -58 -8 -6 -14 -17 -14 -24 0 -7 -11 -20 -25 -29 -14 -9 -25
-25 -25 -36 0 -27 -20 -71 -46 -100 -15 -16 -24 -41 -26 -70 -3 -44 -4 -45
-35 -42 -34 4 -54 -17 -46 -48 2 -9 -3 -22 -11 -29 -9 -8 -16 -21 -16 -30 0
-9 -15 -33 -33 -53 -74 -83 -84 -102 -102 -192 -15 -72 -15 -83 -1 -127 21
-62 20 -66 -5 -43 -20 18 -21 18 -35 -1 -8 -11 -23 -19 -32 -17 -22 3 -43 -62
-36 -110 4 -19 1 -60 -6 -92 -9 -43 -18 -62 -41 -78 -17 -13 -29 -31 -29 -44
0 -12 -6 -27 -14 -33 -7 -6 -19 -33 -26 -59 -7 -26 -18 -54 -25 -62 -6 -8 -16
-27 -23 -42 -6 -16 -19 -28 -28 -28 -12 0 -15 -6 -10 -25 4 -14 3 -25 -1 -24
-28 5 -33 -4 -33 -56 0 -39 -5 -59 -18 -72 -10 -10 -23 -30 -30 -45 -6 -16
-16 -28 -22 -28 -5 0 -10 -12 -10 -26 0 -14 -9 -39 -21 -55 -25 -36 -22 -61
11 -69 38 -9 30 -33 -14 -42 -48 -10 -66 -24 -66 -50 0 -14 5 -18 16 -14 12 5
15 2 9 -11 -4 -10 -10 -27 -13 -38 -8 -31 -20 -42 -50 -48 -23 -5 -31 -14 -40
-45 -7 -22 -12 -48 -12 -58 0 -11 -10 -37 -23 -59 -26 -48 -25 -95 4 -102 16
-5 18 -11 13 -38 -3 -19 -1 -35 5 -39 13 -9 15 -56 2 -56 -5 0 -11 3 -14 8 -2
4 -2 2 -1 -5 5 -21 -22 -35 -35 -19 -11 13 -17 13 -48 -2 -30 -14 -34 -20 -29
-45 7 -32 -28 -142 -76 -245 -23 -49 -28 -70 -23 -100 5 -32 2 -41 -19 -59
-21 -19 -24 -29 -24 -92 0 -57 -5 -81 -26 -120 -14 -27 -27 -61 -30 -74 -7
-39 -34 -74 -70 -91 -19 -9 -37 -23 -40 -32 -9 -24 -7 -89 3 -117 8 -20 6 -29
-11 -44 -43 -37 -58 -93 -57 -205 1 -56 -1 -119 -5 -138 -8 -39 -19 -169 -17
-214 0 -17 -7 -38 -15 -48 -36 -39 -37 -145 -3 -214 14 -27 8 -70 -9 -66 -7 1
-17 -10 -22 -24 -8 -21 -6 -34 10 -62 21 -35 31 -96 49 -302 7 -76 15 -107 40
-155 34 -65 37 -88 20 -145 -10 -32 -8 -46 11 -96 12 -33 28 -66 36 -76 19
-21 46 -135 38 -160 -3 -11 1 -27 9 -36 23 -27 67 -119 67 -142 0 -12 -11 -31
-25 -44 -30 -28 -31 -42 -6 -55 10 -6 28 -26 40 -46 13 -22 28 -35 41 -35 26
0 42 -39 33 -80 -3 -17 -8 -29 -12 -28 -49 26 -63 30 -88 23 l-28 -7 31 -13
c18 -7 35 -18 38 -24 4 -6 20 -11 37 -11 42 0 72 -50 63 -105 -3 -22 -10 -44
-15 -50 -5 -5 -9 -22 -9 -37 0 -15 -4 -28 -10 -28 -5 0 -10 -8 -10 -17 1 -17
1 -17 14 0 7 9 18 17 25 17 18 0 69 -62 76 -91 3 -15 17 -37 31 -49 29 -28 31
-50 4 -50 -25 0 -37 -30 -35 -83 2 -46 6 -50 70 -75 42 -17 52 -25 60 -54 6
-20 26 -53 46 -75 34 -37 79 -134 79 -168 0 -21 99 -115 115 -109 9 4 20 -10
33 -39 23 -52 45 -67 97 -67 30 0 44 -7 74 -38 20 -22 66 -56 103 -76 38 -20
68 -41 68 -45 0 -5 14 -14 30 -21 17 -7 42 -22 57 -33 37 -29 92 -56 130 -63
18 -3 36 -10 39 -15 3 -5 13 -5 23 1 10 5 73 11 139 14 66 2 126 7 132 11 7 4
22 3 33 -3 41 -19 122 -44 142 -43 11 1 68 3 127 4 70 1 111 6 119 15 15 14
55 16 64 2 12 -20 33 -9 59 29 15 22 43 47 62 56 19 9 46 34 60 56 13 22 40
47 58 56 24 11 37 27 46 54 7 21 22 46 32 56 13 12 17 25 13 44 -6 25 -2 30
29 43 36 15 45 29 26 41 -15 9 -12 25 4 25 24 0 29 19 15 52 -12 29 -11 33 9
46 12 8 22 18 22 23 0 5 9 18 20 29 11 11 20 30 20 41 0 23 31 80 63 116 11
13 21 38 22 56 1 19 12 44 26 59 37 41 49 56 59 80 6 13 14 30 18 38 27 49 42
84 42 101 0 10 12 26 26 35 20 14 24 23 19 42 -4 18 1 32 20 52 23 24 25 30
14 54 -11 22 -10 29 7 49 11 12 33 42 49 66 l29 43 63 -6 c59 -6 63 -5 63 13
0 12 -12 28 -27 38 -36 23 -43 34 -34 51 5 8 3 27 -2 43 -10 25 -8 32 15 56
33 35 80 123 74 139 -5 14 21 27 29 15 3 -5 14 -7 26 -4 16 5 20 12 16 31 -3
16 3 39 17 61 30 48 76 166 76 194 0 44 12 67 34 67 11 1 32 7 46 15 14 8 37
14 51 15 31 0 42 11 60 63 7 20 23 44 36 52 27 18 31 55 6 55 -10 0 -29 -12
-42 -25 -26 -28 -41 -32 -41 -11 0 7 -7 19 -15 26 -12 10 -14 25 -10 59 6 53
10 58 48 63 31 3 45 24 68 98 10 32 22 49 41 58 16 7 28 19 28 27 0 8 6 18 13
22 6 4 17 15 22 25 71 116 154 203 196 203 6 0 19 19 29 43 18 39 37 67 111
155 15 18 30 43 34 56 4 13 20 35 36 49 16 13 29 29 29 36 0 18 39 50 79 66
18 8 46 24 60 36 15 12 63 41 108 65 112 58 195 128 210 179 6 22 21 53 32 69
12 16 21 41 21 55 0 16 7 29 18 33 9 3 37 28 62 54 26 28 57 50 75 54 17 3 62
21 100 40 39 18 106 50 150 70 44 20 115 64 159 96 106 80 184 119 240 119 41
0 47 4 85 49 43 51 56 58 161 86 36 10 93 33 127 51 36 19 94 39 140 48 119
22 264 61 299 79 48 25 116 47 146 47 15 0 29 4 32 9 3 5 68 40 143 77 l138
69 125 0 c154 0 175 -5 178 -41 3 -36 9 -41 28 -22 14 14 14 17 -5 35 -20 18
-20 21 -6 33 28 23 251 8 277 -18 7 -7 22 -12 34 -12 13 0 31 -11 42 -25 11
-14 30 -25 41 -25 27 0 93 -33 111 -55 20 -24 40 -84 40 -121 0 -23 5 -33 20
-37 17 -4 18 -8 7 -36 -10 -28 -27 -42 -27 -23 0 4 -17 16 -37 27 -21 11 -42
25 -48 31 -5 7 -21 15 -34 19 -22 7 -23 5 -17 -21 3 -16 10 -50 16 -77 5 -26
14 -56 20 -67 5 -10 10 -37 10 -60 0 -46 21 -94 45 -104 12 -4 15 -13 10 -35
-3 -17 -2 -32 4 -36 6 -3 11 -18 11 -32 0 -15 17 -45 41 -74 46 -55 47 -81 6
-119 -16 -15 -23 -34 -24 -68 -10 -204 -14 -256 -21 -322 -5 -41 -14 -88 -20
-103 -7 -16 -12 -50 -12 -77 0 -28 -11 -78 -26 -117 -28 -77 -48 -160 -59
-248 -10 -87 -26 -147 -46 -173 -9 -12 -20 -40 -24 -62 -4 -22 -11 -42 -16
-46 -5 -3 -9 -35 -9 -72 0 -66 -13 -116 -66 -257 -49 -130 -76 -288 -60 -352
6 -26 3 -35 -16 -53 -20 -18 -23 -30 -22 -86 1 -54 -1 -64 -15 -64 -23 0 -41
-72 -48 -196 -6 -97 -5 -102 17 -117 22 -15 20 -37 -4 -37 -7 0 -22 9 -33 19
-20 19 -21 19 -32 -6 -10 -23 -9 -29 14 -53 27 -29 33 -50 12 -50 -19 0 -50
37 -42 49 3 6 1 11 -4 11 -6 0 -11 -9 -11 -20 0 -11 -4 -28 -9 -38 -4 -9 -25
-49 -45 -88 -29 -58 -36 -83 -36 -129 0 -31 -7 -71 -14 -88 -8 -18 -17 -61
-19 -97 -5 -78 -24 -159 -42 -180 -19 -22 -36 -96 -29 -124 4 -19 -2 -38 -24
-70 -19 -30 -31 -64 -36 -102 -3 -31 -11 -64 -16 -74 -7 -13 -5 -33 6 -67 21
-64 9 -96 -48 -123 -45 -22 -109 -107 -122 -162 -3 -15 -24 -42 -46 -60 -30
-23 -44 -44 -52 -75 -10 -42 -21 -53 -33 -33 -12 20 -31 9 -43 -23 -6 -18 -25
-41 -42 -50 -16 -10 -30 -22 -30 -26 0 -22 -267 -240 -295 -241 -5 0 -30 -23
-55 -51 -56 -64 -138 -128 -210 -164 -30 -15 -64 -35 -75 -44 -11 -9 -56 -27
-100 -40 -95 -26 -151 -54 -176 -85 -15 -19 -51 -39 -189 -106 -8 -3 -24 -21
-35 -38 -14 -21 -28 -31 -45 -32 -17 0 -41 -16 -70 -45 -24 -25 -51 -45 -60
-45 -24 0 -60 -29 -70 -56 -6 -15 -18 -24 -31 -24 -12 0 -32 -11 -45 -25 -13
-14 -34 -25 -48 -25 -14 0 -28 -5 -31 -10 -7 -12 -128 -70 -189 -91 -23 -9
-53 -31 -74 -56 -19 -24 -40 -43 -47 -43 -7 0 -32 -17 -56 -38 -90 -76 -128
-102 -153 -102 -31 0 -116 -56 -116 -77 0 -8 10 -28 23 -44 12 -16 32 -42 45
-59 31 -40 26 -65 -13 -65 -38 0 -47 -35 -15 -58 26 -18 23 -52 -5 -52 -11 0
-25 11 -31 24 -7 13 -20 28 -28 33 -10 6 -16 23 -16 48 0 22 -5 40 -10 40 -12
0 -3 48 12 67 6 8 4 20 -6 34 -13 19 -16 20 -21 7 -4 -9 -5 -23 -3 -31 2 -8
-10 -27 -26 -42 -25 -23 -28 -31 -22 -68 4 -23 9 -83 12 -133 4 -79 3 -92 -12
-98 -9 -3 -22 -2 -29 4 -8 7 -17 4 -29 -9 -21 -23 -12 -44 14 -36 36 12 120
-42 120 -77 0 -27 -27 -33 -66 -14 -19 9 -37 16 -40 16 -3 0 -3 -22 1 -49 8
-58 -6 -74 -35 -39 -20 23 -20 23 -35 4 -21 -27 -19 -35 10 -42 33 -8 43 -29
40 -80 -3 -50 -12 -67 -32 -60 -26 10 -53 -13 -53 -44 0 -40 -41 -163 -57
-173 -16 -10 -17 -54 -2 -59 7 -2 7 -13 -2 -33 -6 -17 -12 -73 -13 -125 0 -87
2 -99 26 -135 26 -39 26 -41 17 -139 -9 -97 -9 -100 16 -138 14 -21 31 -64 39
-96 15 -64 27 -91 63 -139 14 -17 28 -44 32 -60 5 -21 15 -29 37 -33 16 -3 40
-13 53 -22 25 -18 25 -21 19 -125 -3 -52 29 -100 74 -111 33 -9 38 -8 38 7 0
9 6 29 13 44 16 34 66 43 162 27 39 -6 101 -8 140 -5 52 5 82 3 115 -9 25 -9
56 -16 70 -16 14 0 43 -7 65 -15 22 -8 60 -14 84 -15 25 0 59 -5 77 -12 31
-11 35 -10 64 20 16 18 37 32 45 32 8 0 15 4 15 8 0 14 48 32 86 32 36 0 114
-21 172 -46 20 -8 66 -14 115 -14 45 0 120 -5 165 -10 63 -8 87 -8 105 2 13 7
63 13 122 14 55 1 120 4 145 7 158 21 222 24 327 17 90 -5 129 -4 167 7 30 9
63 12 88 8 53 -9 162 -9 220 0 26 4 55 4 65 0 10 -4 54 -10 98 -12 107 -5 96
-5 295 3 326 13 325 13 354 -40 27 -50 81 -63 69 -17 -3 13 5 24 30 40 48 30
87 27 132 -9 29 -23 45 -29 65 -25 15 3 33 0 45 -9 23 -17 81 -21 90 -6 15 25
155 -2 155 -29 0 -6 15 -11 33 -11 18 0 38 -5 44 -11 17 -17 41 -4 45 23 3 21
7 23 56 21 47 -2 54 0 63 21 10 21 20 24 89 30 42 3 98 13 124 22 44 15 50 15
88 -2 36 -16 45 -16 96 -4 31 7 102 14 157 15 55 1 113 7 128 13 34 14 149 16
195 3 20 -6 87 -6 175 -1 113 7 155 6 204 -5 34 -8 70 -12 78 -9 9 4 33 0 53
-9 58 -23 134 -34 177 -24 22 5 81 6 130 2 50 -4 128 -9 175 -11 132 -6 151
-9 206 -33 48 -21 54 -21 88 -7 21 9 99 20 184 26 81 6 181 17 222 25 80 16
427 17 465 1 14 -6 16 -5 6 2 -27 19 27 24 84 7 30 -8 77 -15 103 -15 26 1 64
-2 85 -5 24 -5 43 -3 52 5 12 10 24 10 60 0 36 -10 57 -10 104 0 46 10 63 10
81 0 20 -11 26 -10 40 7 14 18 28 20 110 19 52 0 160 1 240 3 131 3 149 2 192
-17 38 -18 63 -21 140 -20 59 1 101 -2 116 -10 13 -8 36 -10 56 -7 19 4 58 2
87 -4 30 -6 105 -12 167 -13 62 -1 115 -5 118 -10 9 -15 82 -8 116 11 22 13
56 20 103 21 129 4 203 14 215 29 8 11 60 31 78 31 10 0 35 9 57 20 27 14 59
20 101 20 33 0 83 7 110 15 66 20 148 20 169 -1 14 -14 70 -33 101 -34 14 0
45 72 51 120 4 28 12 41 25 46 15 4 19 12 15 32 -3 15 1 42 9 61 8 18 14 42
14 53 0 11 14 40 32 66 30 43 33 54 34 130 0 48 6 88 12 94 7 7 12 25 12 40 0
17 8 33 19 40 15 9 17 17 11 34 -5 12 -6 25 -2 29 3 3 -1 3 -10 0 -33 -13 -32
33 2 96 l31 59 0 162 c-1 189 4 301 16 413 5 44 9 166 8 270 -2 197 -18 312
-50 362 -9 13 -13 28 -9 34 10 17 -16 70 -61 124 -23 28 -47 67 -54 87 -8 24
-32 53 -69 85 -31 26 -64 57 -71 68 -8 11 -29 34 -46 50 -131 125 -174 165
-205 186 -19 13 -46 34 -60 47 -14 13 -49 35 -79 49 -62 28 -130 72 -183 119
-21 19 -50 37 -65 40 -16 4 -99 43 -186 88 -272 139 -411 278 -572 570 -20 38
-52 85 -69 105 -42 47 -96 123 -96 133 0 13 -39 67 -87 120 -24 26 -43 54 -43
63 0 9 -11 38 -25 66 -16 31 -24 58 -20 70 5 13 -9 51 -40 112 -25 51 -47 106
-47 124 -1 26 -5 32 -21 30 -15 -1 -22 6 -28 28 -5 17 -31 56 -59 87 -27 31
-50 64 -50 74 0 21 -59 109 -101 149 -28 28 -30 34 -25 77 4 28 2 49 -4 53 -6
3 -10 47 -10 102 0 85 -3 103 -29 157 -16 34 -34 87 -40 119 -7 41 -29 90 -78
172 -37 63 -73 115 -80 115 -12 0 -103 172 -103 196 0 14 -26 79 -75 189 -7
17 -19 50 -25 75 -7 25 -21 64 -31 88 -17 37 -19 56 -13 145 6 93 5 107 -15
145 -12 23 -25 42 -30 42 -5 0 -23 13 -39 28 -27 25 -30 33 -23 63 9 42 -18
188 -44 239 -13 25 -19 64 -21 141 -2 61 -9 124 -18 150 -9 24 -16 61 -16 83
0 21 -12 71 -26 110 -31 86 -46 210 -49 416 -2 85 -7 187 -13 225 -15 97 -18
246 -5 270 44 85 53 118 53 199 0 76 2 86 30 124 17 23 36 42 44 42 8 0 21 2
28 5 9 4 38 -17 72 -50 32 -30 62 -53 67 -49 12 7 12 44 -1 44 -13 0 -78 66
-101 104 -10 17 -19 43 -19 58 0 39 50 58 154 58 78 0 84 1 111 30 16 17 36
30 44 30 13 0 13 2 3 9 -13 8 -42 56 -42 69 0 3 5 1 12 -6 7 -7 23 -12 36 -12
21 0 24 -4 20 -30 -5 -33 9 -51 39 -51 10 0 56 0 103 0 103 0 191 16 203 36
15 27 64 16 169 -38 58 -30 141 -66 185 -80 45 -14 103 -40 131 -57 27 -17 85
-41 128 -54 106 -32 168 -60 223 -100 49 -35 170 -96 192 -96 8 0 41 -16 74
-36 33 -19 94 -51 135 -71 41 -19 94 -53 117 -74 23 -21 54 -41 70 -45 30 -7
92 -45 314 -191 77 -51 144 -93 149 -93 5 0 11 -9 15 -20 6 -19 222 -170 244
-170 6 0 28 -15 48 -34 21 -18 63 -46 93 -61 64 -32 230 -144 230 -155 0 -7
100 -32 116 -29 31 5 55 -4 63 -23 10 -28 99 -112 162 -155 67 -46 136 -127
190 -224 29 -51 70 -99 85 -99 8 0 39 -25 69 -55 30 -31 62 -55 74 -55 41 0
70 -23 98 -78 37 -72 57 -94 69 -75 7 12 26 2 94 -45 106 -75 126 -95 134
-132 3 -19 14 -34 29 -39 23 -9 57 -64 57 -93 0 -8 5 -19 11 -25 5 -5 18 -24
27 -40 34 -61 58 -98 110 -172 29 -42 62 -96 73 -121 11 -25 28 -53 37 -63 9
-10 24 -42 33 -70 34 -102 57 -163 77 -207 30 -66 42 -117 42 -187 0 -45 8
-82 31 -138 34 -85 47 -195 28 -232 -16 -30 25 -113 94 -185 37 -39 56 -69 60
-92 3 -19 24 -58 46 -86 45 -57 46 -61 29 -90 -10 -16 -6 -26 30 -69 39 -46
41 -53 36 -93 -5 -34 0 -56 20 -102 14 -32 26 -66 26 -75 0 -10 16 -36 35 -58
19 -23 35 -48 35 -56 0 -21 96 -125 123 -132 43 -12 69 -30 83 -56 17 -33 136
-114 196 -133 158 -51 296 -57 334 -15 16 17 19 18 40 4 29 -19 53 -19 78 0
11 8 33 15 48 15 20 0 39 10 59 32 25 29 32 31 49 20 25 -16 50 -15 50 1 0 14
114 115 148 130 17 8 29 8 44 -2 31 -19 74 17 141 119 30 46 181 166 235 187
29 11 44 23 48 39 3 13 12 28 20 35 8 6 14 20 14 30 0 10 16 27 40 40 23 13
59 47 81 76 22 29 47 53 56 53 25 0 91 75 77 88 -14 13 -27 96 -19 120 3 9 22
29 43 44 32 22 39 24 48 12 12 -20 46 -7 42 15 -2 9 -13 17 -26 19 -19 3 -22
9 -22 47 0 41 24 112 43 126 4 3 16 21 25 39 17 34 48 56 36 27 -3 -8 -1 -18
5 -22 6 -3 14 1 18 10 3 10 0 21 -8 26 -9 5 -14 28 -14 69 -1 60 8 73 33 48 9
-9 15 -3 27 25 8 20 15 41 15 47 0 6 6 19 13 30 10 17 9 22 -1 29 -27 16 15
108 44 97 22 -8 37 20 23 43 -11 17 -10 23 6 41 10 11 19 28 20 38 8 82 20
133 41 164 28 44 32 67 7 47 -15 -13 -16 -9 -11 52 3 36 2 73 -3 82 -5 8 -5
25 -1 37 6 16 -1 50 -21 111 l-29 89 38 68 c32 58 38 80 45 162 8 85 6 100
-13 147 -18 45 -19 57 -9 97 6 25 8 64 5 85 -5 30 0 52 20 97 21 45 26 67 21
97 -5 26 -2 45 9 62 16 24 23 100 31 330 2 66 6 130 9 141 2 12 -2 75 -9 140
-7 66 -14 133 -14 149 -6 224 -8 252 -25 284 -24 46 -36 188 -29 346 5 116 4
136 -13 170 -16 35 -19 61 -17 192 1 143 0 154 -20 180 -18 22 -22 41 -22 100
-1 43 -6 78 -13 85 -7 7 -12 27 -12 44 0 18 -3 35 -8 38 -4 2 -9 57 -10 122
-2 64 -5 121 -8 125 -3 5 2 19 11 33 15 22 14 29 -10 97 -15 41 -30 90 -34
109 -5 19 -11 42 -15 50 -12 29 -29 226 -27 315 2 82 0 94 -23 128 -28 40 -32
67 -15 84 15 15 0 64 -20 61 -12 -2 -15 4 -13 25 2 18 -1 27 -11 27 -10 0 -16
15 -20 47 -6 55 -1 73 22 74 13 0 13 2 1 6 -24 8 -40 35 -40 64 0 15 -4 30 -9
34 -5 3 -15 31 -21 63 -7 31 -16 62 -21 68 -6 8 -4 14 6 18 16 6 21 46 7 46
-5 0 -17 17 -26 38 -9 20 -32 64 -51 97 -22 39 -36 80 -40 117 -4 31 -13 62
-21 69 -8 6 -14 18 -14 26 0 9 -18 49 -41 91 -30 56 -40 84 -38 111 2 24 -5
53 -23 87 -25 47 -26 53 -11 73 14 20 14 27 -2 69 -10 26 -28 66 -41 89 -13
23 -24 48 -24 56 0 8 -12 31 -26 52 -14 21 -27 54 -29 74 -4 48 -62 211 -84
236 -41 48 -54 81 -57 144 -3 54 -8 70 -34 103 -35 43 -49 110 -50 230 0 49
-4 69 -15 75 -10 6 -16 28 -18 66 -2 54 -16 74 -32 46 -4 -6 -13 -8 -19 -6
-24 9 -35 -9 -39 -63 -3 -52 -4 -55 -28 -52 -13 2 -29 10 -35 18 -6 8 -18 14
-27 14 -40 0 -76 74 -108 225 -9 42 -23 71 -46 96 -18 20 -33 41 -33 46 0 6
-11 23 -25 39 -14 16 -35 47 -45 69 -11 22 -30 54 -43 71 -12 18 -30 45 -40
60 -9 16 -27 44 -39 63 -12 18 -25 56 -29 83 -4 27 -15 63 -23 80 -9 17 -16
39 -16 49 0 10 -4 21 -10 24 -5 3 -10 19 -10 34 0 15 -11 49 -24 77 -13 27
-26 59 -30 71 -4 12 -20 36 -37 54 -16 17 -29 40 -29 50 0 10 -15 49 -34 86
-18 38 -46 95 -62 128 -15 33 -45 83 -66 112 -21 29 -38 54 -38 57 0 7 -118
176 -140 201 -10 11 -28 45 -40 75 -39 98 -76 167 -110 205 -28 31 -50 81 -50
112 0 15 -9 53 -21 83 -12 30 -21 75 -20 100 0 25 -11 79 -25 122 -31 91 -74
148 -112 148 -31 0 -89 -38 -96 -62 -2 -10 -11 -18 -20 -18 -20 0 -211 178
-246 228 -55 80 -193 194 -250 207 -16 3 -31 13 -34 21 -8 20 -33 18 -45 -4
-17 -33 -53 -45 -97 -33 -50 13 -99 62 -91 90 4 17 -1 22 -29 27 -21 4 -40 2
-48 -5 -23 -19 -121 3 -141 32 -12 17 -26 20 -97 21 -53 1 -94 7 -113 17 -28
14 -33 14 -67 -4 -49 -25 -115 -24 -166 2 -23 12 -50 21 -61 21 -11 0 -53 14
-95 30 -41 17 -101 34 -133 39 -32 5 -76 15 -98 21 -22 6 -76 18 -119 25 -44
8 -107 26 -139 41 -33 14 -87 30 -121 34 -58 7 -97 23 -157 63 -14 9 -52 21
-85 26 -67 11 -185 51 -209 71 -11 9 -61 17 -136 21 -162 10 -255 41 -376 126
-35 24 -96 58 -136 74 -60 25 -84 43 -154 115 -46 47 -83 90 -83 95 0 5 -21
39 -48 76 -26 38 -58 85 -72 105 -15 23 -31 36 -40 33 -8 -2 -22 0 -30 5 -13
9 -13 12 3 21 19 11 23 50 7 79 -14 27 -105 90 -129 90 -16 0 -27 12 -42 48
-45 102 -56 117 -97 137 -62 31 -122 93 -122 127 0 20 -5 28 -17 28 -37 1
-117 92 -107 122 4 12 -5 30 -25 54 -36 41 -38 50 -11 57 25 6 25 29 3 69 -14
23 -15 32 -5 35 21 8 14 36 -8 30 -10 -3 -24 1 -31 9 -16 19 -29 18 -29 -3 0
-10 -11 -26 -24 -35 -35 -26 -47 -5 -51 91 -3 74 -6 85 -47 153 -30 50 -51 74
-66 76 -23 4 -28 -12 -13 -37 13 -20 2 -41 -20 -41 -16 0 -18 7 -15 48 2 27 8
58 15 70 10 18 6 28 -25 69 -32 44 -116 124 -188 180 -22 18 -27 29 -23 50 4
22 -3 34 -46 72 -75 68 -107 102 -133 141 -21 33 -88 111 -116 137 -80 71
-151 121 -187 132 -54 16 -111 57 -111 80 0 9 -23 41 -51 71 -28 30 -62 72
-76 93 -14 20 -31 37 -38 37 -8 0 -15 4 -17 9 -3 10 -230 121 -247 121 -6 0
-29 11 -50 24 -39 25 -147 43 -236 38 -22 -1 -58 -2 -80 -3 -23 -1 -52 0 -65
3 -14 3 -38 2 -55 -4z m23 -699 c46 -15 90 -33 97 -39 8 -6 53 -20 102 -30
205 -45 213 -47 238 -74 25 -27 137 -156 165 -190 8 -10 25 -30 38 -44 12 -14
22 -33 22 -42 0 -19 51 -73 117 -123 23 -18 43 -36 43 -41 0 -9 57 -72 121
-135 20 -20 48 -55 62 -77 14 -23 51 -64 82 -90 31 -27 62 -59 68 -70 7 -12
52 -65 101 -118 49 -53 100 -112 113 -131 13 -19 32 -35 41 -35 10 0 35 -22
55 -49 21 -27 59 -68 85 -92 73 -67 105 -113 118 -171 22 -96 47 -152 91 -204
24 -28 43 -56 43 -63 0 -6 11 -17 25 -23 19 -9 23 -16 19 -34 -4 -17 3 -35 26
-64 26 -33 36 -39 57 -34 24 6 25 5 18 -26 -6 -27 -2 -37 22 -63 36 -40 71
-88 105 -147 15 -25 40 -61 58 -80 17 -19 45 -51 61 -71 26 -32 38 -38 108
-52 53 -10 92 -24 114 -41 19 -14 40 -26 48 -26 8 -1 32 -19 54 -40 22 -22 56
-47 75 -57 19 -10 40 -23 45 -29 16 -17 87 -67 125 -88 19 -11 54 -36 77 -56
23 -20 60 -42 83 -49 59 -17 218 -101 295 -155 36 -25 69 -46 73 -46 4 0 24
-11 44 -25 54 -37 172 -72 343 -104 149 -27 222 -52 396 -134 133 -63 245
-104 304 -112 46 -5 78 -14 130 -35 11 -5 54 -13 96 -18 42 -5 91 -17 110 -26
19 -8 68 -20 109 -26 54 -8 94 -21 148 -50 40 -22 85 -40 98 -40 14 0 42 -9
64 -20 22 -11 45 -20 52 -20 38 -1 122 -79 182 -167 16 -24 33 -43 38 -43 4 0
32 -23 61 -52 28 -28 77 -67 107 -86 53 -34 160 -136 160 -152 0 -5 6 -15 13
-22 50 -52 116 -137 122 -156 9 -32 87 -140 124 -175 17 -16 31 -33 31 -37 0
-5 13 -28 29 -52 16 -24 32 -53 35 -66 4 -12 15 -26 25 -32 10 -5 21 -24 24
-43 6 -41 47 -103 89 -136 31 -25 99 -157 117 -227 16 -61 45 -136 69 -174 12
-19 22 -41 22 -49 0 -8 11 -33 25 -56 26 -46 48 -124 46 -166 -1 -15 7 -37 18
-50 13 -16 16 -30 11 -44 -4 -11 -3 -31 3 -45 6 -14 12 -45 13 -70 2 -74 30
-134 82 -174 25 -20 49 -36 55 -36 5 0 34 -22 64 -49 59 -53 88 -97 130 -196
14 -33 51 -114 82 -180 32 -66 61 -133 65 -149 4 -16 23 -60 42 -98 18 -39 34
-75 34 -82 0 -6 16 -49 36 -96 20 -47 42 -107 49 -133 7 -26 18 -53 23 -60 5
-7 13 -28 17 -47 4 -19 18 -54 31 -78 13 -23 24 -49 24 -56 0 -7 18 -57 40
-111 22 -54 40 -105 40 -114 0 -9 9 -45 21 -81 38 -119 41 -130 49 -218 5 -48
13 -100 20 -117 6 -16 15 -59 21 -95 16 -112 21 -135 34 -150 16 -20 95 -215
95 -234 0 -26 52 -149 72 -172 10 -11 18 -26 18 -33 0 -7 8 -25 19 -39 10 -15
21 -37 25 -49 4 -11 13 -27 21 -33 8 -7 15 -22 15 -35 0 -12 17 -57 39 -101
55 -113 74 -169 68 -201 -5 -28 17 -132 36 -168 23 -43 67 -221 67 -270 0 -28
9 -78 19 -111 10 -32 22 -86 25 -119 4 -33 16 -100 27 -150 30 -132 38 -180
48 -280 4 -49 14 -102 21 -117 10 -22 11 -36 2 -67 -8 -25 -9 -48 -3 -67 5
-16 12 -87 15 -158 5 -93 11 -136 23 -157 15 -25 15 -52 6 -287 -10 -229 -13
-263 -31 -299 -12 -22 -26 -62 -33 -89 -6 -27 -16 -53 -20 -59 -5 -5 -9 -21
-9 -37 0 -15 -9 -51 -19 -80 -10 -29 -22 -66 -26 -83 -9 -40 -34 -255 -44
-386 -5 -58 -13 -115 -20 -126 -6 -12 -14 -63 -17 -115 -3 -51 -11 -102 -16
-112 -6 -11 -10 -50 -9 -86 1 -73 1 -74 -53 -114 -27 -21 -49 -50 -73 -102
-18 -41 -50 -91 -71 -111 -20 -21 -38 -46 -39 -58 -1 -11 -13 -49 -27 -84 -15
-36 -26 -83 -26 -106 0 -36 -6 -47 -55 -95 l-56 -55 -104 2 c-112 3 -147 13
-212 59 -21 16 -62 40 -90 53 -59 27 -66 39 -88 152 -28 141 -36 161 -88 210
-45 44 -51 47 -90 42 -23 -3 -49 -12 -58 -19 -8 -8 -18 -14 -22 -14 -3 0 -29
-14 -57 -32 l-51 -31 -27 20 c-15 11 -38 38 -52 61 -14 22 -53 63 -87 91 -70
57 -142 147 -165 206 -33 83 -53 125 -60 125 -10 0 -58 95 -58 116 0 9 -16 50
-35 90 -19 40 -35 83 -35 96 0 14 -11 30 -30 43 -31 20 -62 77 -120 215 -32
75 -67 135 -104 178 -21 24 -106 72 -126 72 -6 0 -30 9 -53 19 -24 11 -56 23
-72 27 -56 13 -295 155 -343 204 -26 27 -75 62 -108 80 -85 44 -131 84 -158
139 -27 51 -99 144 -185 237 -57 63 -104 124 -137 181 -16 28 -24 33 -56 33
-41 0 -47 -12 -24 -46 8 -11 16 -44 17 -74 3 -46 0 -55 -14 -58 -21 -4 -71 47
-97 99 -11 20 -25 39 -32 41 -7 3 -13 18 -14 34 -1 22 -5 28 -20 26 -103 -16
-100 -16 -168 27 -36 22 -68 41 -71 41 -3 0 -23 11 -45 25 -22 14 -64 38 -95
55 -58 31 -69 37 -130 66 -21 10 -51 28 -65 40 -14 12 -56 33 -95 48 -223 87
-333 146 -475 254 -25 19 -56 40 -70 46 -14 6 -57 30 -97 54 -39 23 -75 42
-80 42 -15 0 -221 107 -249 129 -15 12 -30 21 -35 21 -4 0 -45 17 -91 38 -46
21 -114 47 -152 56 -38 10 -95 31 -127 47 -32 16 -67 29 -78 29 -22 0 -138 69
-189 112 -23 20 -40 26 -56 22 -16 -4 -25 0 -30 11 -3 10 -15 15 -28 14 -13
-2 -43 10 -68 27 -66 45 -123 64 -235 80 -55 8 -122 21 -149 30 -38 13 -57 14
-85 6 -20 -6 -70 -15 -111 -22 -41 -6 -98 -18 -126 -27 -46 -14 -54 -14 -80 0
-23 12 -40 13 -74 6 -25 -5 -61 -12 -80 -16 -19 -3 -47 -14 -62 -24 -14 -11
-30 -19 -35 -19 -12 0 -63 -49 -63 -61 0 -5 -15 -16 -33 -25 -32 -15 -67 -62
-67 -89 0 -7 -22 -36 -50 -64 -27 -28 -50 -56 -50 -62 0 -6 -13 -27 -30 -45
-66 -76 -69 -89 -60 -297 6 -154 5 -195 -7 -230 -10 -29 -13 -61 -9 -102 4
-38 1 -81 -8 -115 -8 -30 -17 -86 -20 -125 -4 -38 -11 -100 -17 -137 -9 -57
-8 -71 5 -90 19 -27 20 -38 3 -38 -16 0 -76 -77 -84 -108 -3 -12 1 -80 8 -150
14 -136 13 -134 28 -433 9 -168 13 -201 30 -230 43 -72 52 -91 46 -97 -3 -3
-14 -1 -25 6 -27 17 -32 2 -21 -65 10 -62 19 -86 56 -148 13 -22 24 -58 25
-80 0 -22 5 -60 11 -85 5 -25 11 -83 13 -130 1 -47 8 -98 15 -115 8 -16 16
-75 19 -130 6 -115 14 -137 95 -262 17 -28 27 -56 27 -81 0 -39 21 -110 58
-192 11 -25 23 -67 26 -95 12 -91 27 -159 46 -200 39 -81 92 -223 121 -318 16
-54 38 -116 49 -137 11 -22 20 -47 20 -56 0 -10 15 -49 33 -88 19 -39 40 -100
47 -136 15 -76 95 -322 114 -353 7 -12 19 -44 25 -72 27 -113 35 -134 80 -215
27 -47 63 -116 82 -155 41 -85 89 -162 121 -193 87 -84 164 -166 184 -195 13
-19 46 -53 74 -75 61 -49 94 -88 85 -102 -4 -6 -1 -17 5 -25 14 -17 45 -21 35
-4 -5 7 3 9 20 7 23 -2 34 -15 62 -68 34 -64 106 -165 147 -205 11 -11 28 -19
37 -17 18 3 48 -37 55 -75 6 -34 47 -96 77 -115 13 -9 31 -23 39 -32 9 -8 31
-23 49 -34 18 -10 37 -30 41 -44 5 -15 26 -45 47 -68 30 -33 43 -40 62 -36 31
7 46 -5 94 -79 22 -33 51 -73 65 -88 31 -34 141 -107 162 -107 8 0 29 -22 46
-49 16 -27 43 -57 59 -67 55 -35 118 -96 143 -139 39 -67 77 -121 103 -147 13
-13 26 -30 28 -37 4 -11 9 -11 26 0 29 17 39 6 25 -26 -10 -21 -9 -32 2 -53 7
-15 17 -56 21 -92 8 -72 26 -114 54 -130 11 -5 29 -26 41 -45 23 -37 23 -45 0
-155 -7 -32 -10 -91 -7 -140 4 -71 2 -92 -14 -124 -13 -27 -19 -59 -18 -97 2
-72 -21 -114 -108 -193 -53 -49 -71 -59 -122 -69 -47 -10 -69 -21 -98 -49 -31
-29 -43 -35 -66 -31 -17 3 -34 0 -45 -9 -25 -23 -94 -30 -118 -14 -10 8 -38
20 -62 27 -23 7 -55 24 -70 38 -35 32 -128 43 -147 18 -9 -13 -29 -17 -81 -17
-91 -1 -203 6 -234 14 -17 4 -19 4 -6 -2 15 -7 10 -10 -25 -21 -24 -7 -58 -17
-75 -22 -52 -16 -85 -10 -163 27 -52 24 -84 34 -102 30 -15 -3 -42 -1 -60 4
-25 8 -37 6 -50 -6 -14 -12 -24 -13 -54 -5 -30 8 -44 7 -68 -6 -26 -13 -51
-14 -151 -8 -185 12 -324 17 -401 16 -128 -2 -369 -22 -425 -36 -64 -15 -254
-13 -375 4 -59 9 -91 9 -121 1 -28 -8 -57 -9 -95 -2 -35 6 -87 6 -149 0 -85
-8 -346 -21 -410 -20 -14 1 -56 1 -95 2 -38 0 -106 6 -150 12 -109 15 -286 22
-795 31 -151 2 -317 10 -367 18 -78 11 -99 11 -130 0 -25 -9 -86 -14 -183 -14
-127 0 -150 3 -190 21 -60 28 -99 28 -140 -3 -25 -19 -46 -25 -83 -25 -27 0
-75 -7 -106 -15 -32 -8 -87 -14 -123 -13 -42 2 -71 -2 -82 -11 -10 -9 -30 -11
-58 -7 -24 3 -50 5 -58 5 -88 -5 -275 1 -355 11 -55 6 -161 14 -236 17 -124 4
-141 3 -186 -17 l-50 -21 -72 20 c-40 11 -79 25 -87 32 -8 7 -37 9 -76 6 -35
-3 -100 -7 -145 -10 -45 -3 -115 -10 -155 -16 -51 -8 -134 -8 -278 0 -257 13
-242 12 -325 5 -38 -3 -135 -9 -215 -12 -159 -6 -230 3 -272 38 -24 19 -26 25
-21 76 4 39 2 64 -10 86 -15 31 -37 215 -37 318 0 46 7 71 40 134 22 43 40 91
40 106 0 16 4 28 10 28 15 0 40 56 40 89 0 16 4 33 10 36 5 3 10 22 10 41 0
30 6 38 50 65 28 17 50 34 50 39 0 4 16 17 35 29 19 11 35 26 35 33 0 31 217
213 242 203 8 -3 18 7 26 24 7 17 23 33 35 37 12 3 36 16 52 28 17 12 58 33
93 45 34 13 62 27 62 31 0 5 15 13 34 20 38 12 118 62 156 96 54 50 117 74
190 74 l69 0 44 46 c25 26 51 55 60 64 8 10 34 21 58 25 34 5 56 18 98 58 91
88 124 124 171 183 53 66 69 84 78 84 4 1 23 21 42 46 19 25 52 57 72 70 44
28 108 121 108 157 0 14 10 34 23 44 25 21 67 78 67 91 0 5 10 17 21 28 12 10
32 35 45 54 13 19 35 51 48 70 14 19 25 45 25 57 1 12 12 34 25 50 13 15 38
55 55 88 18 32 38 66 45 75 7 8 19 31 26 50 7 19 28 78 46 130 19 52 41 118
48 147 7 29 20 63 29 76 37 56 75 201 85 320 7 76 15 124 25 135 8 9 24 35 36
57 12 22 38 51 58 65 39 27 50 49 65 133 6 31 22 74 36 95 23 34 26 48 30 164
3 86 1 143 -8 173 -10 37 -10 48 1 61 11 13 8 19 -16 38 l-28 23 11 74 c6 41
14 90 18 109 3 19 8 66 10 103 2 39 12 88 24 115 12 25 26 80 31 121 6 42 14
82 18 91 5 8 11 37 14 63 4 26 17 80 31 120 13 40 28 104 34 142 5 39 15 88
22 110 6 22 15 58 20 80 5 22 16 65 26 95 9 30 20 96 24 145 4 50 12 100 19
113 21 40 51 149 61 224 5 40 21 105 35 143 13 39 25 83 25 98 0 16 5 38 11
49 6 12 11 39 10 62 0 23 6 57 13 76 14 32 43 281 53 443 3 42 -2 97 -12 142
-13 61 -14 85 -5 136 8 41 8 70 1 88 -5 14 -12 74 -15 133 -5 97 -4 112 15
148 17 32 20 50 15 83 -8 46 -56 131 -91 159 -15 12 -25 33 -30 65 -6 47 -41
132 -59 144 -5 4 -8 20 -8 35 0 16 -6 39 -14 52 -8 12 -12 26 -10 31 3 5 -4
24 -17 42 -17 25 -39 39 -87 57 -36 13 -94 34 -130 47 -96 35 -130 52 -179 91
l-43 34 -103 -1 c-100 -1 -105 -2 -137 -31 -63 -57 -97 -68 -169 -57 -35 6
-94 13 -131 16 l-68 6 -44 -46 -45 -45 -48 10 c-28 6 -61 22 -78 37 -34 31
-84 63 -154 96 -40 20 -61 23 -127 21 -44 -2 -90 -8 -101 -15 -12 -6 -43 -11
-70 -11 -61 0 -137 -29 -186 -70 -20 -17 -43 -30 -50 -27 -6 2 -20 0 -31 -5
-44 -23 -163 -49 -198 -44 -24 4 -41 1 -50 -7 -7 -8 -31 -18 -53 -23 -26 -6
-43 -17 -50 -31 -6 -14 -26 -27 -53 -35 -33 -10 -44 -18 -48 -38 -11 -48 -14
-51 -41 -48 -22 2 -28 8 -28 28 0 22 -5 25 -42 28 -33 2 -44 -1 -56 -19 -9
-11 -20 -19 -25 -16 -5 4 -33 -4 -63 -16 -89 -36 -173 -149 -137 -185 14 -14
3 -42 -17 -42 -8 0 -15 4 -15 9 0 4 -17 11 -37 14 -27 5 -42 2 -55 -10 -10 -9
-18 -13 -18 -9 0 17 -92 -44 -161 -105 -54 -49 -84 -69 -103 -69 -18 0 -41
-14 -68 -40 -23 -22 -50 -42 -59 -45 -10 -4 -21 -15 -24 -26 -4 -12 -15 -19
-31 -19 -14 0 -23 -4 -19 -9 3 -6 -4 -19 -15 -29 -21 -19 -64 -23 -88 -8 -7 4
-12 2 -12 -3 0 -6 -6 -11 -14 -11 -21 0 -36 -25 -40 -66 -4 -43 -29 -54 -34
-16 -3 20 -8 23 -29 17 -31 -7 -151 -85 -177 -114 -11 -12 -37 -24 -59 -28
-28 -4 -53 -19 -84 -48 -24 -23 -60 -51 -79 -61 -39 -21 -84 -68 -84 -89 0
-15 -47 -39 -110 -56 -39 -10 -50 -20 -79 -66 -18 -30 -44 -59 -57 -65 -13 -6
-26 -20 -30 -32 -9 -29 -31 -52 -90 -97 -30 -22 -71 -67 -99 -108 -25 -39 -57
-78 -70 -88 -13 -10 -39 -29 -57 -42 -31 -22 -70 -96 -85 -158 -3 -14 -13 -23
-24 -23 -10 0 -20 -4 -23 -9 -3 -4 -16 -6 -29 -4 -20 4 -29 -4 -55 -46 -18
-28 -38 -51 -45 -51 -8 0 -22 -9 -32 -20 -15 -16 -17 -31 -12 -81 5 -53 3 -62
-13 -66 -21 -6 -36 -35 -45 -86 -4 -26 -13 -41 -28 -47 -45 -19 -57 -36 -61
-89 -2 -29 -11 -60 -20 -70 -9 -10 -16 -22 -16 -28 0 -6 -7 -16 -15 -23 -8 -7
-15 -28 -15 -46 0 -39 -13 -66 -54 -111 -16 -18 -27 -36 -23 -39 4 -4 -5 -22
-19 -41 -40 -53 -56 -99 -49 -147 6 -38 4 -46 -17 -62 -13 -10 -29 -32 -36
-49 -16 -38 -42 -69 -70 -84 -32 -17 -51 -51 -55 -99 -2 -30 -10 -47 -29 -61
-14 -11 -38 -46 -53 -77 -20 -40 -36 -60 -59 -69 -17 -7 -48 -36 -69 -64 -21
-28 -54 -60 -72 -71 -40 -25 -85 -76 -85 -96 0 -8 -11 -32 -25 -52 -14 -20
-25 -44 -25 -53 0 -10 -27 -44 -59 -76 -48 -47 -58 -63 -54 -83 3 -21 -4 -31
-47 -63 -29 -22 -62 -58 -78 -87 -15 -27 -38 -55 -52 -62 -14 -7 -40 -24 -58
-37 -46 -34 -108 -33 -162 3 -22 15 -46 39 -52 54 -6 15 -14 37 -19 50 -20 50
-34 75 -66 112 -18 21 -33 46 -33 55 0 9 -4 14 -8 11 -5 -3 -28 4 -51 16 -43
21 -91 71 -116 123 -8 16 -37 55 -66 85 -53 57 -103 148 -114 210 -11 61 -13
412 -2 500 5 47 9 93 9 103 -1 10 10 22 24 27 27 11 34 50 8 50 -11 0 -14 5
-10 16 3 9 6 47 6 85 0 65 1 69 23 66 31 -3 29 26 -3 33 l-25 6 2 159 c2 218
9 370 17 384 4 6 14 11 22 11 18 0 18 17 0 68 -14 40 -12 67 13 137 6 17 13
42 16 58 3 15 12 27 20 27 20 0 20 44 0 60 -8 6 -14 24 -14 38 1 15 0 34 -2
42 -1 8 -1 36 -1 62 2 42 5 48 27 54 18 4 25 13 25 29 0 13 7 26 15 29 14 5
12 11 -9 42 -13 20 -22 44 -19 53 9 25 24 41 34 35 5 -3 9 -1 9 4 0 5 14 12
30 16 36 7 38 25 6 54 -36 31 -42 80 -18 145 12 30 24 83 28 118 4 43 19 90
46 144 21 44 40 97 43 117 3 20 17 58 33 85 16 26 34 63 40 82 7 19 18 42 26
50 7 9 16 36 19 59 3 25 15 54 26 66 26 28 61 94 61 116 0 46 33 121 69 156
21 22 44 56 50 76 7 21 16 40 21 43 5 3 16 31 25 63 9 31 27 71 40 88 13 17
21 34 18 38 -4 3 0 6 7 6 7 0 18 8 25 17 11 14 17 15 39 5 14 -6 33 -9 41 -6
17 7 21 49 5 59 -6 3 -5 15 2 31 9 18 9 27 0 36 -7 7 -12 24 -12 40 0 20 8 31
29 42 16 9 38 32 48 53 11 21 30 55 42 76 11 21 21 44 21 52 0 8 5 15 10 15 6
0 10 7 10 15 0 35 51 110 75 112 12 1 63 92 64 115 1 14 22 58 96 196 7 12 22
31 34 41 12 11 23 27 25 38 6 29 56 123 77 144 10 10 19 27 19 37 0 9 9 31 20
47 11 17 20 38 20 48 0 10 9 35 20 57 21 41 27 115 10 125 -5 3 -10 17 -10 30
0 13 -11 32 -25 43 -13 11 -21 22 -17 26 3 4 2 10 -3 14 -12 8 -35 72 -35 96
0 9 13 34 29 54 15 20 35 56 44 79 9 22 27 52 40 65 16 16 28 44 35 86 7 42
19 71 37 89 14 16 28 45 32 66 3 21 16 54 29 73 13 19 24 39 24 44 0 5 16 25
36 45 23 23 34 42 30 52 -4 8 -2 21 3 27 5 6 21 43 36 81 29 73 51 108 98 155
23 24 29 41 37 111 5 45 13 85 17 88 5 3 26 35 47 71 22 36 43 67 48 70 4 3
14 25 23 50 8 24 20 50 27 57 14 17 47 111 48 135 0 9 10 25 23 35 13 10 41
43 63 73 33 46 39 62 40 106 0 41 6 59 28 84 15 18 30 45 33 61 3 15 11 30 19
33 8 3 14 14 14 25 0 10 6 21 14 24 8 3 17 19 21 36 4 17 11 33 16 37 12 7 39
71 39 91 0 8 9 26 20 40 11 14 20 36 20 48 0 12 7 28 16 36 9 7 36 56 60 108
25 52 48 98 53 101 5 3 23 41 42 85 38 93 67 145 80 145 5 0 26 11 47 24 31
19 43 38 67 97 35 89 39 95 88 126 21 13 46 38 55 54 10 17 37 57 62 88 25 32
53 71 63 87 76 126 96 154 122 177 17 14 47 53 68 88 20 35 52 76 71 92 20 15
43 43 52 63 9 19 33 48 52 62 20 15 72 64 116 109 53 53 92 84 111 88 50 11
86 27 175 76 47 26 104 52 126 58 25 7 48 21 58 35 20 31 49 40 78 25 79 -43
319 -18 489 51 133 54 253 90 298 90 20 0 51 4 70 10 18 5 54 10 80 11 25 0
66 7 91 14 25 8 72 16 105 20 110 11 174 27 207 51 17 13 42 24 54 24 38 0
266 51 324 72 118 43 155 67 162 104 2 10 13 23 26 29 12 5 22 15 22 21 0 6 7
17 15 24 8 7 15 25 15 40 0 33 40 64 71 55 12 -4 29 1 45 14 20 15 31 18 44
11 25 -14 27 -13 33 11 3 11 12 19 21 17 21 -4 106 69 106 93 0 14 15 26 53
43 31 13 63 37 80 59 15 19 36 39 47 42 11 3 20 14 20 23 0 9 9 31 20 47 11
17 20 38 20 47 0 10 23 32 53 51 61 40 108 94 157 180 29 49 45 66 85 87 53
27 175 142 175 164 0 8 12 17 28 21 23 5 177 152 200 191 4 6 35 30 70 53 34
24 62 46 62 51 0 4 38 35 84 69 46 33 93 76 105 94 11 18 32 43 46 57 26 24
47 62 60 109 10 34 55 96 85 116 14 10 43 44 64 77 22 33 56 70 75 83 20 12
52 40 73 61 20 22 50 49 67 62 17 13 31 28 31 33 0 13 101 108 122 115 10 3
33 33 51 67 35 68 38 82 20 82 -7 0 -13 4 -13 10 0 11 46 12 72 1 12 -6 23 2
41 31 13 21 32 44 41 52 9 7 16 19 16 27 0 16 66 84 83 84 21 1 74 54 81 82 3
15 15 29 25 33 27 8 61 40 61 57 0 16 53 88 112 152 21 23 38 45 38 49 0 16
57 63 70 59 7 -3 17 3 22 12 5 9 15 16 22 16 8 0 16 7 20 15 3 8 12 15 21 15
8 0 15 5 15 10 0 16 32 12 52 -7 17 -15 21 -15 71 10 47 24 59 26 122 21 39
-4 107 -19 153 -35z m1966 -975 c8 -22 8 -24 -8 -24 -18 0 -29 16 -21 30 9 15
22 12 29 -6z m1748 -1707 c7 -7 22 -16 32 -20 10 -4 16 -10 12 -14 -3 -3 -16
-2 -29 4 -12 6 -30 14 -39 17 -10 3 -18 10 -18 16 0 14 26 13 42 -3z m2108
-792 c0 -8 -7 -15 -15 -15 -8 0 -15 7 -15 15 0 8 7 15 15 15 8 0 15 -7 15 -15z
m-13943 -4201 c3 -8 0 -21 -6 -27 -10 -9 -16 -8 -26 7 -8 10 -12 23 -9 27 9
15 34 10 41 -7z m3473 -1858 c0 -3 -4 -8 -10 -11 -5 -3 -10 -1 -10 4 0 6 5 11
10 11 6 0 10 -2 10 -4z m6730 -76 c0 -5 -7 -10 -16 -10 -8 0 -12 5 -9 10 3 6
10 10 16 10 5 0 9 -4 9 -10z m-7179 -106 c11 -14 10 -18 -6 -30 -10 -8 -24
-14 -31 -14 -13 0 -26 38 -18 52 9 14 41 9 55 -8z m7508 -38 c19 -23 -4 -28
-24 -6 -15 17 -16 20 -3 20 9 0 21 -6 27 -14z m-5482 -2813 c3 -7 -1 -21 -10
-31 -8 -9 -19 -33 -24 -52 -5 -20 -16 -35 -24 -35 -16 0 -19 36 -5 47 6 4 5
17 -2 33 -7 14 -12 32 -12 40 0 26 67 25 77 -2z m-77 -227 c0 -8 -13 -19 -30
-25 -16 -5 -30 -15 -30 -20 0 -6 -4 -11 -10 -11 -20 0 -9 31 14 40 13 5 27 14
31 19 9 16 25 13 25 -3z m4590 -897 c7 -11 9 -23 7 -26 -8 -8 -44 15 -51 32
-9 24 31 19 44 -6z m4810 -39 c0 -5 -7 -10 -15 -10 -8 0 -15 5 -15 10 0 6 7
10 15 10 8 0 15 -4 15 -10z m-16282 -143 c2 -12 -3 -17 -17 -17 -23 0 -24 1
-15 25 8 19 28 15 32 -8z m17206 -63 c4 -11 1 -14 -11 -12 -10 2 -19 11 -21
21 -4 21 24 13 32 -9z m-14984 -54 c0 -5 -5 -10 -11 -10 -5 0 -7 5 -4 10 3 6
8 10 11 10 2 0 4 -4 4 -10z m1561 -2887 c12 -12 -44 -63 -70 -63 -24 0 -36 32
-22 58 7 14 20 18 46 17 20 -1 41 -7 46 -12z"/>
<path d="M9211 10769 c-6 -18 -11 -48 -11 -68 -1 -20 -7 -54 -15 -76 -18 -50
-19 -109 -2 -123 10 -9 17 7 31 76 10 48 24 97 32 109 17 26 18 67 4 94 -15
27 -26 24 -39 -12z"/>
<path d="M9142 10419 c2 -6 8 -10 13 -10 5 0 11 4 13 10 2 6 -4 11 -13 11 -9
0 -15 -5 -13 -11z"/>
<path d="M2550 8885 c0 -8 5 -15 10 -15 6 0 10 7 10 15 0 8 -4 15 -10 15 -5 0
-10 -7 -10 -15z"/>
<path d="M3050 7812 c0 -12 22 -32 36 -32 7 0 12 9 11 19 -1 15 -4 17 -14 9
-9 -7 -13 -7 -13 1 0 6 -4 11 -10 11 -5 0 -10 -4 -10 -8z"/>
<path d="M2940 7773 c-35 -3 -62 -11 -75 -22 -14 -13 -42 -20 -88 -24 -68 -5
-90 -15 -108 -50 -9 -16 -8 -18 9 -13 10 4 34 0 54 -8 19 -8 43 -13 54 -12 10
2 29 -1 41 -5 23 -9 25 -8 61 40 16 20 22 22 40 12 11 -6 34 -11 49 -11 16 0
34 -5 40 -11 8 -8 17 -8 31 0 11 6 40 11 63 11 l43 0 -22 20 c-12 12 -22 25
-22 30 0 6 -8 10 -19 10 -10 0 -30 9 -44 20 -14 11 -31 19 -39 18 -7 -1 -38
-3 -68 -5z"/>
<path d="M13902 4183 c5 -25 28 -28 28 -4 0 12 -6 21 -16 21 -9 0 -14 -7 -12
-17z"/>
<path d="M11350 3734 c0 -21 4 -25 23 -22 14 2 23 11 25 26 3 18 -1 22 -22 22
-21 0 -26 -5 -26 -26z"/>
<path d="M7695 3211 c-3 -5 -1 -12 5 -16 5 -3 10 1 10 9 0 18 -6 21 -15 7z"/>
<path d="M7120 3009 c0 -11 5 -17 10 -14 6 3 10 13 10 21 0 8 -4 14 -10 14 -5
0 -10 -9 -10 -21z"/>
<path d="M6895 2990 c3 -5 10 -10 16 -10 5 0 9 5 9 10 0 6 -7 10 -16 10 -8 0
-12 -4 -9 -10z"/>
<path d="M14910 1975 c0 -12 24 -55 32 -55 11 0 10 4 -4 35 -9 21 -28 35 -28
20z"/>
<path d="M13950 18545 c7 -8 19 -15 26 -15 8 0 11 6 8 15 -4 8 -15 15 -26 15
-17 0 -18 -3 -8 -15z"/>
<path d="M19776 13897 c10 -26 11 -102 1 -114 -6 -9 -3 -18 12 -30 23 -19 29
-46 16 -75 -5 -14 -2 -18 14 -18 11 0 28 -11 37 -25 17 -25 17 -25 35 -6 10
10 24 21 31 24 10 3 9 8 -4 23 -20 23 -24 43 -13 68 11 24 -21 49 -52 41 -16
-4 -23 -1 -23 9 0 8 5 18 10 21 18 11 10 44 -17 70 -30 27 -56 33 -47 12z"/>
<path d="M20320 12510 c0 -11 5 -20 10 -20 6 0 10 9 10 20 0 11 -4 20 -10 20
-5 0 -10 -9 -10 -20z"/>
<path d="M20410 11915 c0 -8 5 -15 10 -15 6 0 10 7 10 15 0 8 -4 15 -10 15 -5
0 -10 -7 -10 -15z"/>
<path d="M20731 10764 c0 -11 3 -14 6 -6 3 7 2 16 -1 19 -3 4 -6 -2 -5 -13z"/>
<path d="M20666 10671 c-3 -5 3 -16 14 -26 19 -17 20 -17 20 2 0 21 -25 39
-34 24z"/>
<path d="M8445 9551 c-3 -5 -1 -12 5 -16 5 -3 10 1 10 9 0 18 -6 21 -15 7z"/>
<path d="M8830 9036 c-6 -16 -8 -31 -5 -34 7 -7 55 19 55 30 0 5 -4 7 -9 3 -6
-3 -14 3 -20 12 -8 16 -11 15 -21 -11z"/>
<path d="M20860 8655 c0 -8 4 -15 10 -15 5 0 7 7 4 15 -4 8 -8 15 -10 15 -2 0
-4 -7 -4 -15z"/>
<path d="M21060 8520 c0 -5 5 -10 11 -10 5 0 7 5 4 10 -3 6 -8 10 -11 10 -2 0
-4 -4 -4 -10z"/>
<path d="M5073 7488 c-6 -7 -13 -25 -17 -40 -4 -19 -16 -30 -43 -39 -72 -22
-82 -44 -25 -52 40 -5 72 14 72 42 0 9 9 30 20 46 21 32 26 55 11 55 -5 0 -13
-6 -18 -12z"/>
<path d="M21130 7080 c-9 -6 -10 -10 -3 -10 6 0 15 5 18 10 8 12 4 12 -15 0z"/>
<path d="M20965 6870 c3 -5 8 -10 11 -10 2 0 4 5 4 10 0 6 -5 10 -11 10 -5 0
-7 -4 -4 -10z"/>
<path d="M20877 6403 c-10 -9 -8 -63 2 -63 4 0 8 -10 7 -22 -1 -16 -8 -24 -23
-26 -13 -2 -23 -8 -23 -13 0 -26 58 -109 76 -109 3 0 -4 15 -15 34 -26 41 -28
74 -4 72 22 -1 39 84 23 114 -11 20 -31 26 -43 13z"/>
<path d="M20828 6366 c-17 -12 -15 -56 2 -56 18 0 33 31 24 50 -8 16 -12 17
-26 6z"/>
<path d="M4380 6299 c0 -5 5 -7 10 -4 6 3 10 8 10 11 0 2 -4 4 -10 4 -5 0 -10
-5 -10 -11z"/>
<path d="M13675 5990 c-7 -12 2 -30 16 -30 12 0 12 27 0 35 -5 3 -12 1 -16 -5z"/>
<path d="M20783 5963 c-7 -3 -13 -12 -13 -21 1 -24 28 -58 38 -46 12 13 -10
72 -25 67z"/>
<path d="M20640 5844 c0 -8 5 -12 10 -9 6 3 10 10 10 16 0 5 -4 9 -10 9 -5 0
-10 -7 -10 -16z"/>
<path d="M20365 5840 c-8 -13 -1 -24 14 -19 6 3 7 10 2 18 -6 10 -10 10 -16 1z"/>
<path d="M1600 5805 c0 -20 4 -26 18 -23 9 2 17 12 17 23 0 11 -8 21 -17 23
-14 3 -18 -3 -18 -23z"/>
<path d="M20662 5787 c-12 -13 -22 -29 -22 -35 0 -6 -13 -18 -30 -27 -16 -9
-30 -19 -30 -24 0 -5 -9 -11 -20 -14 -25 -7 -26 -27 -1 -34 21 -5 34 -58 24
-104 -3 -18 -1 -29 6 -29 6 0 11 8 11 18 0 38 44 57 53 23 8 -31 44 -15 53 23
9 42 7 92 -6 116 -8 14 -6 21 6 28 9 5 16 23 17 43 2 27 -2 35 -18 37 -12 2
-30 -8 -43 -21z m18 -57 c0 -5 -4 -10 -10 -10 -5 0 -10 5 -10 10 0 6 5 10 10
10 6 0 10 -4 10 -10z m-37 -55 c-7 -21 -13 -19 -13 6 0 11 4 18 10 14 5 -3 7
-12 3 -20z"/>
<path d="M20292 5721 c-11 -7 -11 -10 0 -22 7 -8 18 -25 25 -39 l11 -25 7 29
c12 43 -14 76 -43 57z"/>
<path d="M1748 5673 c-47 -5 -51 -32 -12 -68 33 -31 84 -34 84 -6 0 24 -20 81
-28 79 -4 -1 -24 -3 -44 -5z"/>
<path d="M20294 5565 c-3 -8 -3 -19 1 -25 11 -17 35 -11 35 9 0 23 -29 36 -36
16z"/>
<path d="M20755 5510 c3 -5 8 -10 11 -10 2 0 4 5 4 10 0 6 -5 10 -11 10 -5 0
-7 -4 -4 -10z"/>
<path d="M20075 5440 c-3 -5 1 -10 9 -10 9 0 16 5 16 10 0 6 -4 10 -9 10 -6 0
-13 -4 -16 -10z"/>
<path d="M20771 5394 c0 -11 3 -14 6 -6 3 7 2 16 -1 19 -3 4 -6 -2 -5 -13z"/>
<path d="M1396 5371 c-3 -4 3 -16 14 -26 16 -15 23 -16 33 -6 9 10 8 15 -7 27
-23 16 -33 18 -40 5z"/>
<path d="M19855 5243 c10 -53 14 -57 36 -29 25 31 24 33 -12 52 l-32 16 8 -39z"/>
<path d="M1520 5144 c0 -8 5 -12 10 -9 6 4 8 11 5 16 -9 14 -15 11 -15 -7z"/>
<path d="M1516 5104 c-11 -29 -6 -44 19 -54 14 -5 25 -14 25 -20 0 -5 5 -10
10 -10 6 0 10 15 10 33 0 50 -49 89 -64 51z"/>
<path d="M3640 4980 c0 -5 5 -10 11 -10 5 0 7 5 4 10 -3 6 -8 10 -11 10 -2 0
-4 -4 -4 -10z"/>
<path d="M19440 4976 c0 -17 27 -29 35 -16 4 6 3 15 0 20 -9 15 -35 12 -35 -4z"/>
<path d="M19632 4959 c2 -6 8 -10 13 -10 5 0 11 4 13 10 2 6 -4 11 -13 11 -9
0 -15 -5 -13 -11z"/>
<path d="M1593 4763 c-42 -15 22 -93 75 -93 18 0 32 5 32 11 0 21 -42 80 -54
76 -6 -2 -18 -1 -26 3 -8 4 -21 5 -27 3z"/>
<path d="M2840 4743 c1 -20 19 -35 35 -29 14 5 15 9 5 21 -13 16 -40 21 -40 8z"/>
<path d="M19581 4733 c-1 -12 4 -25 9 -28 12 -7 12 2 0 30 -8 19 -9 19 -9 -2z"/>
<path d="M18967 4604 c-15 -15 -7 -45 11 -42 9 2 17 12 17 22 0 20 -16 31 -28
20z"/>
<path d="M3100 4545 c0 -2 5 -16 12 -30 9 -20 18 -25 50 -25 37 0 38 1 27 23
-7 12 -17 25 -23 29 -12 8 -66 11 -66 3z"/>
<path d="M1567 4313 c-15 -14 -6 -53 15 -67 24 -17 38 -13 38 13 0 20 -43 64
-53 54z"/>
<path d="M1513 4032 c-14 -19 -19 -36 -16 -55 5 -24 10 -28 36 -25 31 3 51 28
23 28 -14 0 -18 8 -18 30 0 3 3 15 7 28 9 30 -5 27 -32 -6z"/>
<path d="M5410 2860 c0 -5 4 -10 9 -10 6 0 13 5 16 10 3 6 -1 10 -9 10 -9 0
-16 -4 -16 -10z"/>
<path d="M5387 2723 c-13 -12 -7 -33 8 -33 8 0 15 9 15 20 0 20 -11 26 -23 13z"/>
<path d="M5334 2495 c-4 -9 -2 -21 4 -27 15 -15 44 -1 40 19 -4 23 -36 29 -44
8z"/>
<path d="M1575 2430 c-3 -5 -1 -10 4 -10 6 0 11 5 11 10 0 6 -2 10 -4 10 -3 0
-8 -4 -11 -10z"/>
<path d="M16025 1910 c-3 -5 -1 -10 4 -10 6 0 11 5 11 10 0 6 -2 10 -4 10 -3
0 -8 -4 -11 -10z"/>
<path d="M16104 1259 c-7 -11 46 -91 65 -97 6 -2 11 7 11 22 0 14 -4 26 -10
26 -5 0 -16 14 -25 30 -16 31 -29 37 -41 19z"/>
<path d="M8759 969 c-9 -17 -8 -25 5 -37 15 -15 17 -15 32 0 10 10 14 23 9 37
-8 27 -31 27 -46 0z"/>
<path d="M8443 952 c-27 -4 -30 -24 -7 -47 21 -20 37 -7 32 26 -2 18 -8 23
-25 21z"/>
<path d="M9197 847 c-5 -14 36 -67 53 -67 7 0 4 13 -7 31 -24 41 -39 53 -46
36z"/>
<path d="M14908 823 c7 -3 16 -2 19 1 4 3 -2 6 -13 5 -11 0 -14 -3 -6 -6z"/>
<path d="M7746 791 c-4 -7 -5 -15 -2 -18 9 -9 19 4 14 18 -4 11 -6 11 -12 0z"/>
<path d="M8990 712 c0 -5 7 -13 16 -16 10 -4 14 -1 12 6 -5 15 -28 23 -28 10z"/>
<path d="M7700 656 c0 -9 5 -16 10 -16 6 0 10 4 10 9 0 6 -4 13 -10 16 -5 3
-10 -1 -10 -9z"/>
</g>
</svg>
