<?xml version="1.0" standalone="no"?>
<!DOCTYPE svg PUBLIC "-//W3C//DTD SVG 1.1//EN" "http://www.w3.org/Graphics/SVG/1.1/DTD/svg11.dtd" >
<svg xmlns="http://www.w3.org/2000/svg" xmlns:xlink="http://www.w3.org/1999/xlink" version="1.1">
<metadata></metadata>
<defs>
<font id="gothic_cg_no4regular" horiz-adv-x="948" >
<font-face units-per-em="2048" ascent="1638" descent="-410" />
<missing-glyph horiz-adv-x="493" />
<glyph unicode="&#xfb01;" horiz-adv-x="1101" d="M23 750l6 292h88v48q0 237 76 333.5t274 96.5h80v-287h-35q-26 0 -43 -7t-26 -16t-13.5 -29.5t-5 -35t-0.5 -45.5v-58h121v-292h-121v-750h-307v750h-94zM692 0v1042h299v-1042h-299zM692 1182v295h299v-295h-299z" />
<glyph unicode="&#xfb02;" horiz-adv-x="1101" d="M23 750l6 292h88v48q0 237 76 333.5t274 96.5h80v-287h-35q-26 0 -43 -7t-26 -16t-13.5 -29.5t-5 -35t-0.5 -45.5v-58h121v-292h-121v-750h-307v750h-94zM696 0v1477h308v-1477h-308z" />
<glyph horiz-adv-x="0" />
<glyph horiz-adv-x="682" />
<glyph unicode=" "  horiz-adv-x="493" />
<glyph unicode="&#x09;" horiz-adv-x="493" />
<glyph unicode="&#xa0;" horiz-adv-x="493" />
<glyph unicode="!" horiz-adv-x="606" d="M131 0v395h313v-395h-313zM131 1137v340h313v-340l-116 -594h-74z" />
<glyph unicode="&#x22;" horiz-adv-x="909" d="M55 1059v418h322v-418l-84 -326h-162zM471 1059v418h322v-418l-86 -326h-162z" />
<glyph unicode="#" horiz-adv-x="985" d="M35 397l28 199h115l39 264h-113l29 195h113l63 422h185l-64 -422h164l61 422h197l-64 -422h121l-28 -195h-121l-39 -264h121l-31 -199h-123l-59 -442h-191l58 442h-164l-64 -442h-182l61 442h-112zM360 596h164l39 264h-162z" />
<glyph unicode="$" horiz-adv-x="985" d="M49 420q0 32 4 102h260q0 -7 -1 -21.5t-1 -21.5q0 -61 7.5 -103t23.5 -66t30 -35.5t38 -24.5v358q-128 84 -166 114q-154 123 -183 281q-8 41 -8 87q0 330 357 387v57h129v-59q196 -29 275 -130.5t79 -326.5h-266q0 96 -17 141.5t-71 73.5v-305q18 -14 71.5 -53.5 t84.5 -64t77.5 -73t72.5 -92.5t46 -109t20 -137q0 -83 -25 -151.5t-64 -112t-90 -74.5t-98.5 -45t-94.5 -18v-154h-129v156q-57 11 -101.5 25t-95.5 45t-85 74t-56.5 114t-22.5 162zM322 1130q0 -17 4.5 -32.5t9.5 -25t17.5 -20.5t17.5 -15t21 -14t18 -11v225 q-19 -6 -27.5 -10.5t-26 -16t-26 -32t-8.5 -48.5zM539 246q21 7 33.5 13t30 19.5t26 35t8.5 51.5q0 24 -8 46.5t-15.5 35.5t-27 31t-23.5 21.5t-24 18.5v-272z" />
<glyph unicode="%" horiz-adv-x="1593" d="M113 1194q0 135 96 230.5t231 95.5q136 0 234 -96t98 -230q0 -136 -97.5 -233t-234.5 -97q-135 0 -231 97.5t-96 232.5zM334 1194q0 -43 31.5 -73.5t74.5 -30.5q44 0 76.5 30.5t32.5 73.5q0 44 -32 75t-77 31q-44 0 -75 -31t-31 -75zM360 -45l703 1565h133l-700 -1565 h-136zM776 285q0 135 96.5 230t231.5 95q136 0 234 -95.5t98 -229.5q0 -136 -97.5 -233t-234.5 -97q-135 0 -231.5 97.5t-96.5 232.5zM997 285q0 -43 32 -74t75 -31q45 0 76.5 30.5t31.5 74.5t-32 75t-76 31t-75.5 -31t-31.5 -75z" />
<glyph unicode="&#x26;" horiz-adv-x="1062" d="M51 408q0 64 13.5 123t40 108t48 82t54.5 75t43 56q-4 11 -24.5 60t-27.5 70t-19.5 60.5t-17.5 72t-5 65.5q0 146 94 243t242 97q144 0 237.5 -84t93.5 -219q0 -68 -19.5 -130.5t-57.5 -117.5t-69.5 -91.5t-78.5 -85.5l-12 -12l108 -207q28 84 35.5 116.5t18.5 139.5 l233 -12q-10 -177 -38 -276.5t-103 -235.5l159 -305h-301l-47 74q-1 -1 -13 -14t-15.5 -16t-16 -15t-19 -16.5t-20.5 -14.5t-24.5 -14.5t-26.5 -11t-31 -9.5t-34 -5.5t-39 -2.5q-150 0 -255.5 127.5t-105.5 325.5zM350 414q0 -56 31 -93.5t82 -37.5q36 0 61 28l-131 240 q-2 -4 -11.5 -20t-13 -23.5t-9 -23t-7.5 -32.5t-2 -38zM412 1204q0 -78 57 -168q30 35 47.5 58.5t34 58.5t16.5 64q0 32 -22 52.5t-51 20.5q-41 0 -61.5 -25.5t-20.5 -60.5z" />
<glyph unicode="'" horiz-adv-x="493" d="M84 1059v418h322v-418l-84 -326h-164z" />
<glyph unicode="(" horiz-adv-x="493" d="M16 596q0 76 8 150t20 135t32 122.5t38 107.5t44 94.5t44.5 80t45 68t39.5 53.5t34 42t23 28l98 -103q-24 -48 -38 -78.5t-43 -114.5t-46 -167.5t-31 -217t-14 -282.5q0 -130 15.5 -248.5t43 -208.5t46 -140t42.5 -103q5 -10 7 -15l-100 -84q-2 3 -38 51.5t-63.5 89.5 t-69 123.5t-69 165.5t-48 203.5t-20.5 247.5z" />
<glyph unicode=")" horiz-adv-x="493" d="M16 1374l99 103q1 -1 26 -31t39 -49.5t44.5 -62.5t51 -82.5t48.5 -95.5t46.5 -115.5t36 -129.5t26.5 -150.5t9 -164.5q0 -78 -7.5 -153.5t-19 -137t-30.5 -123.5t-36 -108t-42 -95t-41.5 -79t-42 -67t-36.5 -52t-31 -40t-21 -26l-100 84q1 3 14.5 34t20 47.5t21.5 55 t23.5 69.5t21.5 77t21 92t16 100.5t11.5 115.5t3.5 124q0 148 -14 281t-31 216.5t-45.5 167.5t-43 115.5t-38.5 79.5z" />
<glyph unicode="*" horiz-adv-x="985" d="M166 1231q10 29 20 50t13 27t19.5 24.5t19.5 21.5l165 -99v213q9 1 34.5 5t39.5 4q15 0 41.5 -4t36.5 -5v-213l168 99q10 -10 18 -19.5t13.5 -16t10.5 -15.5l7.5 -13.5t6.5 -14t5.5 -13t5.5 -15.5t5 -16l-185 -94l181 -88q-22 -77 -78 -125l-158 110v-192q-40 -8 -76 -8 q-22 0 -76 8v192l-155 -110q-3 2 -12 10.5t-11.5 11t-9.5 10.5t-10 12.5l-9 13.5t-10 18t-8.5 21.5t-9.5 27.5l180 88z" />
<glyph unicode="+" horiz-adv-x="1593" d="M63 598v219h607v653h215v-653h622v-219h-622v-655h-215v655h-607z" />
<glyph unicode="," horiz-adv-x="493" d="M41 -328l164 328h-123v406h321v-406l-200 -328h-162z" />
<glyph unicode="-" horiz-adv-x="493" d="M25 369v284h413v-284h-413z" />
<glyph unicode="." horiz-adv-x="493" d="M76 0v424h317v-424h-317z" />
<glyph unicode="/" horiz-adv-x="493" d="M8 -100l242 1620h199l-242 -1620h-199z" />
<glyph unicode="0" horiz-adv-x="985" d="M57 492v520q0 84 9 150.5t36 136t72 116t122.5 76t182.5 29.5q101 0 177 -29t121.5 -75t73.5 -113.5t38 -134.5t10 -148v-543q0 -60 -4 -110t-15 -105t-30 -98t-51 -83.5t-75 -67t-105.5 -42.5t-139.5 -16q-78 0 -140.5 16t-106 42.5t-76 67.5t-51 84.5t-30 101t-15 109 t-3.5 116.5zM399 367q0 -109 78 -109q46 0 63 28.5t17 80.5v743q0 52 -17 80.5t-63 28.5q-78 0 -78 -109v-743z" />
<glyph unicode="1" horiz-adv-x="985" d="M158 1102v192q88 0 164 46t112 137h262v-1477h-329v1102h-209z" />
<glyph unicode="2" horiz-adv-x="985" d="M84 997q0 251 98.5 387t298.5 136q179 0 291.5 -113t112.5 -313q0 -60 -13 -116.5t-29.5 -98t-54 -100t-62.5 -91.5t-79 -103l-4.5 -6t-4.5 -5.5t-5 -6.5l-191 -264h432v-303h-786v303l266 381q11 15 54.5 71.5t60 82.5t44.5 74t39 90t11 85q0 56 -22 89.5t-62 33.5 q-27 0 -45.5 -13.5t-27.5 -30.5t-14.5 -51t-6.5 -55.5t-2 -62.5h-299z" />
<glyph unicode="3" horiz-adv-x="985" d="M61 403v99h318q0 -10 -1 -32t-1 -32q0 -95 17 -137.5t67 -42.5q46 0 66 44.5t20 133.5q0 62 -9.5 104t-23.5 64t-41 33t-51 14t-66 4h-10v242q100 3 129 13q50 19 63 89q7 38 7 97q0 74 -17 107.5t-59 33.5q-41 0 -56.5 -29t-21.5 -112q-2 -18 -2 -54h-295q0 56 2.5 97.5 t11 94t24 90.5t44 77.5t68 63.5t98.5 39.5t133 15.5q193 0 294 -103.5t101 -306.5q0 -68 -9.5 -121t-22 -84t-36 -57.5t-38.5 -37.5t-43 -28q3 -2 10 -6q64 -37 91 -71q63 -80 63 -269q0 -240 -102.5 -360.5t-323.5 -120.5q-205 0 -301.5 112.5t-96.5 335.5z" />
<glyph unicode="4" horiz-adv-x="985" d="M35 289v352l387 836h397v-883h92v-305h-92v-289h-311v289h-473zM322 594h186v385z" />
<glyph unicode="5" horiz-adv-x="985" d="M51 406q0 16 2 46t2 46h316v-58q0 -178 90 -178q45 0 69.5 35.5t24.5 103.5v224q0 69 -23.5 106t-66.5 37q-44 0 -63 -38t-19 -95h-315l22 842h696v-293h-385v-197q85 49 154 49q172 0 254 -134t82 -382q0 -292 -98.5 -428.5t-333.5 -136.5q-408 0 -408 451z" />
<glyph unicode="6" horiz-adv-x="985" d="M68 461v463q0 281 108.5 438.5t312.5 157.5q105 0 192.5 -43.5t143.5 -135.5t56 -217v-53h-306q0 30 -0.5 43t-2.5 37.5t-7 36t-13 25t-22.5 19t-33.5 5.5q-44 0 -67 -34t-23 -95v-262q72 90 200 90q54 0 102.5 -23t91 -70.5t68 -134.5t25.5 -202q0 -204 -47 -326 t-136.5 -173.5t-234.5 -51.5q-100 0 -175.5 33t-118.5 82.5t-69.5 120t-35 134.5t-8.5 136zM406 373q0 -34 4.5 -56.5t23.5 -41.5t53 -19q45 0 65.5 34.5t20.5 82.5v149q0 52 -19 80.5t-67 28.5q-40 0 -60.5 -30.5t-20.5 -78.5v-149z" />
<glyph unicode="7" horiz-adv-x="985" d="M72 1180v297h813q-96 -373 -149 -682.5t-99 -794.5h-334q23 282 81 607t120 573h-432z" />
<glyph unicode="8" horiz-adv-x="985" d="M61 379q0 41 3 78t10.5 68t14 55.5t19.5 48.5t20 38.5t23.5 34t22.5 27t23 25t20 20.5q-55 59 -75 90q-60 96 -60 248q0 180 110 294t289 114t289.5 -114t110.5 -294q0 -59 -9.5 -110t-21 -81.5t-34 -63.5t-34 -45t-37.5 -38l17.5 -17.5t20.5 -21t20 -23t21.5 -28.5 t19 -32.5t18.5 -39.5l15 -45t13.5 -54t7.5 -62t3 -72q0 -208 -108.5 -316t-311.5 -108t-311.5 108t-108.5 316zM397 371q0 -25 2 -42t9.5 -38.5t26 -33t46.5 -11.5q27 0 44.5 10.5t25 31t10 39t2.5 44.5v129q0 131 -82 131q-84 0 -84 -131v-129zM397 1012q0 -62 18 -96.5 t66 -34.5q27 0 44 9.5t25 29.5t10.5 40.5t2.5 51.5v116q0 111 -82 111q-39 0 -61.5 -32t-22.5 -79v-116z" />
<glyph unicode="9" horiz-adv-x="985" d="M66 983q0 278 104.5 407.5t306.5 129.5q99 0 176 -35t121 -87t72 -121t37.5 -128.5t9.5 -118.5v-477q0 -78 -9 -151.5t-37 -158t-72.5 -145.5t-122.5 -102t-181 -41q-78 0 -148 25.5t-125 74t-87.5 125.5t-32.5 172v54h307q0 -27 0.5 -41.5t2.5 -37.5t7 -35.5t13.5 -26 t23 -19.5t33.5 -6q43 0 65.5 33.5t22.5 93.5v262q-48 -52 -94.5 -70t-108.5 -18q-127 0 -205.5 114t-78.5 328zM385 954q0 -108 86 -108q49 0 65.5 29t16.5 79v150q0 117 -82 117q-86 0 -86 -117v-150z" />
<glyph unicode=":" horiz-adv-x="493" d="M76 0v406h315v-406h-315zM76 616v406h315v-406h-315z" />
<glyph unicode=";" horiz-adv-x="493" d="M20 -328l164 328h-108v406h313v-406l-205 -328h-164zM76 616v406h313v-406h-313z" />
<glyph unicode="&#x3c;" horiz-adv-x="1593" d="M264 631v145l1043 430v-159l-850 -342l850 -336v-166z" />
<glyph unicode="=" horiz-adv-x="1593" d="M18 369v217h1526v-217h-1526zM18 827v217h1526v-217h-1526z" />
<glyph unicode="&#x3e;" horiz-adv-x="1593" d="M264 201v166l850 335l-850 342v160l1043 -430v-145z" />
<glyph unicode="?" d="M76 1106q0 188 101 301t282 113q171 0 269.5 -105.5t98.5 -290.5q0 -78 -16.5 -147t-42 -120.5t-51.5 -97.5t-48.5 -97t-29.5 -99q-2 -18 -2 -20h-318q-2 8 5 28q26 79 65 156.5t66.5 123t48 109.5t20.5 134q0 56 -20.5 87t-57.5 31q-69 0 -69 -114q0 -18 4 -64h-301 q0 12 -2 36t-2 36zM324 0v391h315v-391h-315z" />
<glyph unicode="@" horiz-adv-x="1593" d="M-61 492q-1 89 28 203t98 243.5t164 218.5q248 233 541 252q325 23 549 -139q103 -73 163 -153t91 -197q44 -157 -1 -323t-134 -275q-103 -126 -232.5 -189.5t-247.5 -28.5q-34 10 -51.5 28t-20.5 32.5t-4 44t-3 43.5q-29 -43 -112.5 -92t-156.5 -49q-147 0 -229 100 q-43 52 -47 157.5t31 200.5q32 86 55 132.5t74 123.5q21 33 54 70t84.5 82t119 71t133.5 19q83 -8 129.5 -46t87.5 -112l51 121h172l-225 -543q-6 -15 -16.5 -39t-17.5 -40.5t-16 -38.5t-14 -38.5t-9 -34t-3.5 -32.5t4.5 -26q18 -41 68.5 -40.5t99.5 33.5q106 70 169 142.5 t99 181.5q39 113 36 213t-50 209q-36 82 -101 146.5t-142.5 104t-157.5 60.5t-156 23q-225 6 -465 -164q-225 -161 -307 -402q-108 -311 24 -532q71 -117 206 -193t306 -100q234 -30 476 49q74 24 127 59t124 97l66 -47q-224 -201 -506 -250q-249 -45 -508 35 q-66 20 -174 82.5t-174 142.5q-79 96 -112.5 183t-36.5 221zM499.5 398.5q-15.5 -71.5 2 -123.5t69.5 -78q43 -22 87.5 -9.5t85.5 44t78 79.5t65.5 98t48.5 99q69 169 86 236q47 184 -59 233q-40 21 -83.5 7.5t-82.5 -43t-78 -78t-69.5 -98t-55.5 -103.5q-35 -76 -57 -134 t-37.5 -129.5z" />
<glyph unicode="A" d="M18 0l234 1477h420l221 -1477h-330l-31 190h-155l-29 -190h-330zM387 487h145l-69 527z" />
<glyph unicode="B" horiz-adv-x="1062" d="M102 0v1477h383q121 0 201.5 -18.5t136 -63.5t79.5 -121t24 -191q0 -61 -7.5 -107t-16 -73t-30 -52.5t-35 -36.5t-44.5 -34q68 -47 92 -74q73 -83 73 -266q0 -125 -22 -206t-77 -135t-143 -76.5t-224 -22.5h-390zM436 283h51q82 0 106.5 37t24.5 145q0 90 -31 127 t-108 37h-43v-346zM436 889h51q58 0 82.5 35.5t24.5 113.5q0 84 -26.5 125t-92.5 41h-39v-315z" />
<glyph unicode="C" horiz-adv-x="1062" d="M63 487v463q0 90 9.5 164.5t38.5 152.5t77 131.5t130.5 87.5t193.5 34q79 0 143 -13.5t110 -37.5t80 -61.5t55 -80t34 -99t17.5 -113.5t4.5 -128v-108h-346v135q0 31 -0.5 47.5t-3 44.5t-9 44t-17.5 33.5t-29 25.5t-43 8q-20 0 -35 -8t-24 -25t-14.5 -32.5t-7.5 -43.5 t-2.5 -44t-0.5 -46v-483q0 -45 0.5 -67.5t3 -58t8 -53t15.5 -37.5t26.5 -28t38.5 -8q17 0 31 4t23.5 15t16.5 21t11.5 32t6.5 37t3.5 47t1.5 51v59v104h346v-219q0 -97 -24 -180t-73.5 -151.5t-137 -108t-203.5 -39.5q-97 0 -175 29.5t-129.5 79.5t-86 119t-49.5 144.5 t-15 159.5z" />
<glyph unicode="D" horiz-adv-x="1062" d="M92 0v1477h266q66 0 113 -2t102.5 -8t94.5 -17.5t81.5 -31t70.5 -47.5t55 -69t42.5 -93t25 -120.5t9.5 -152.5v-354q0 -160 -35.5 -275.5t-102 -182t-151.5 -96.5q-80 -28 -179 -28h-13h-379zM442 297h35q38 0 62.5 13t36 39.5t15 53t3.5 66.5v528q0 48 -1 71.5t-7 52.5 t-18 42t-34.5 22t-56.5 9h-35v-897z" />
<glyph unicode="E" d="M80 0v1477h760v-312h-404v-241h332v-326h-332v-272h422v-326h-778z" />
<glyph unicode="F" d="M82 0v1477h782v-312h-430v-264h344v-321h-344v-580h-352z" />
<glyph unicode="G" horiz-adv-x="1062" d="M72 451v573q0 236 113 366t329 130q122 0 208 -35.5t134.5 -105.5t70 -160t21.5 -211h-348v55q0 156 -88 156q-42 0 -63 -41t-21 -103v-620q0 -40 2.5 -68.5t11 -58t26.5 -45t46 -15.5q21 0 36 6.5t24.5 22t15 29t7.5 40t2.5 42.5t0.5 47v59h-90v287h438v-821h-170 l-59 71q-2 -1 -17 -12t-19 -14t-19 -12.5t-21.5 -13t-21.5 -11.5t-25 -11t-26 -8.5t-30 -7.5t-31.5 -4t-35.5 -2q-111 0 -191 38.5t-124.5 108.5t-65 156t-20.5 193z" />
<glyph unicode="H" horiz-adv-x="1062" d="M82 0v1477h352v-523h156v523h350v-1477h-350v563h-156v-563h-352z" />
<glyph unicode="I" horiz-adv-x="606" d="M106 0v1477h353v-1477h-353z" />
<glyph unicode="J" d="M20 471v131h312v-160v-32.5t1 -30.5t2.5 -31t4.5 -26t8.5 -23.5t12.5 -16.5t17 -12.5t23 -3.5q18 0 30.5 4.5t20.5 17t12 23.5t6 36t2.5 42t0.5 53v1035h350v-1026q0 -116 -22 -204.5t-69.5 -155t-128.5 -101.5t-193 -35q-94 0 -163 24.5t-112.5 66.5t-69 109 t-35.5 141.5t-10 174.5z" />
<glyph unicode="K" horiz-adv-x="1062" d="M86 0v1477h342v-469l213 469h356l-323 -709l342 -768h-365l-223 518v-518h-342z" />
<glyph unicode="L" d="M90 0v1477h350v-1151h443v-326h-793z" />
<glyph unicode="M" horiz-adv-x="1290" d="M86 0v1477h414l137 -605l143 605h406v-1477h-314v791l-139 -791h-198l-136 791v-791h-313z" />
<glyph unicode="N" horiz-adv-x="1062" d="M86 0v1477h348l195 -562v562h317v-1477h-323l-215 692v-692h-322z" />
<glyph unicode="O" horiz-adv-x="1062" d="M63 526v424q0 85 11.5 161t42.5 153t80 132t130.5 89.5t186.5 34.5q107 0 188.5 -33.5t130 -87t79 -129t41 -149t10.5 -158.5v-437q0 -571 -449 -571q-451 0 -451 571zM430 526q0 -47 0.5 -70.5t2.5 -60t7.5 -54t14.5 -37.5t24 -28t35 -8t35 9t24 30t14.5 40t7.5 55 t2.5 58t0.5 66v424q0 45 -0.5 67.5t-2.5 59t-7.5 55t-14.5 39t-24 29t-35 8.5q-31 0 -48.5 -15t-25 -55.5t-9 -74t-1.5 -107.5v-430z" />
<glyph unicode="P" d="M72 0v1477h381q78 0 140.5 -11.5t120 -42t96 -80t61 -129t22.5 -184.5q0 -88 -11.5 -157t-31.5 -118t-53.5 -83.5t-70.5 -55.5t-90 -33t-104.5 -16t-121.5 -4v-563h-338zM410 858h45q32 0 53 14.5t31 42t13 55.5t3 68q0 160 -102 160h-43v-340z" />
<glyph unicode="Q" horiz-adv-x="1062" d="M66 545v409q0 270 111 418t345 148q443 0 443 -570v-405q0 -226 -65 -355.5t-204 -183.5q2 -2 12.5 -11.5t15 -13t15.5 -12.5t19 -13.5t20.5 -11.5t25 -10.5t28 -8t33 -6t36.5 -1.5q7 0 22.5 1t22.5 1l19 -35l-291 -196q-99 47 -157 113.5t-101 181.5q-182 40 -266 173.5 t-84 387.5zM432 545q0 -75 1.5 -109.5t9 -77t25.5 -58t48 -15.5q15 0 27 5t20.5 16.5t14.5 23t10 33t6 36.5t3 43.5t1 44.5v49v9v405q0 150 -12 195q-19 62 -70 63q-31 0 -48.5 -14.5t-25 -55t-9 -75.5t-1.5 -113v-405z" />
<glyph unicode="R" horiz-adv-x="1062" d="M74 0v1477h456q202 0 302 -100.5t100 -319.5q0 -37 -2 -69t-9 -59t-11 -46.5t-16 -39.5t-17 -30t-21 -26t-19.5 -20t-21.5 -19.5t-20 -16.5q41 -42 68 -84t41 -75.5t21 -83t8 -81t1 -96.5q0 -230 53 -311h-344q-55 87 -55 383q0 120 -26.5 166.5t-92.5 46.5 q-7 0 -19.5 -1t-19.5 -1v-594h-356zM430 864h43q69 0 94 43t25 129q0 91 -28.5 126.5t-96.5 35.5h-37v-334z" />
<glyph unicode="S" horiz-adv-x="1062" d="M61 403v74h330q0 -32 1 -52.5t4.5 -51t12.5 -50t23 -39t37.5 -29t54.5 -9.5q48 0 80.5 30t32.5 78q0 42 -30.5 87t-79.5 88.5t-108 91t-118.5 103t-108.5 116t-79.5 139t-30.5 162.5q0 170 115 274.5t303 104.5q103 0 181 -25t127.5 -67t80.5 -104t43 -128t12 -147h-319 q0 32 -1.5 55t-8.5 52t-19.5 47t-36.5 31t-57 13q-41 0 -67.5 -24.5t-26.5 -67.5q0 -35 31 -75t80 -81t109 -87.5t119.5 -102.5t108.5 -118t80 -143.5t31 -168.5q0 -203 -122.5 -313.5t-340.5 -110.5q-92 0 -167.5 27t-125.5 71.5t-85 103.5t-50 120.5t-15 125.5z" />
<glyph unicode="T" d="M27 1165v312h864v-312h-250v-1165h-360v1165h-254z" />
<glyph unicode="U" horiz-adv-x="1062" d="M78 506v971h354v-981q0 -142 10 -176q17 -46 64 -48q52 0 64 44t12 180v981h352v-990q0 -92 -9.5 -164t-37.5 -143.5t-74.5 -119t-124 -76.5t-182.5 -29t-183 30t-124 79t-74 123t-37.5 149t-9.5 170z" />
<glyph unicode="V" d="M16 1477h328l125 -705l96 705h316l-226 -1477h-346z" />
<glyph unicode="W" horiz-adv-x="1517" d="M18 1477h330l133 -703l105 703h301l147 -703l103 703h315l-235 -1477h-295l-164 741l-133 -741h-308z" />
<glyph unicode="X" d="M6 0l279 778l-258 699h331l101 -310l112 310h334l-264 -699l262 -778h-332l-108 326l-113 -326h-344z" />
<glyph unicode="Y" d="M27 1477h348l84 -390l92 390h336l-254 -883v-594h-359v594z" />
<glyph unicode="Z" d="M57 0v283l408 882h-387v312h772v-281l-401 -870h409v-326h-801z" />
<glyph unicode="[" horiz-adv-x="493" d="M27 -279v1756h411v-117h-155v-1520h155v-119h-411z" />
<glyph unicode="\" horiz-adv-x="493" d="M6 1520h199l241 -1620h-198z" />
<glyph unicode="]" horiz-adv-x="493" d="M18 -160h158v1520h-158v117h412v-1756h-412v119z" />
<glyph unicode="^" horiz-adv-x="512" d="M-33 1028l219 449h121l203 -449h-121l-145 342l-156 -342h-121z" />
<glyph unicode="_" horiz-adv-x="1167" d="M0 -184h1167v-95h-1167v95z" />
<glyph unicode="`" horiz-adv-x="397" d="M-51 1446h274l170 -295h-174z" />
<glyph unicode="a" d="M59 281q0 88 31.5 155.5t69.5 105t110 67.5t113 40.5t118 25.5q23 5 34 7q0 6 1 20.5t1 20.5q0 46 -23 70t-61 24q-23 0 -39.5 -7t-26.5 -24t-12.5 -23.5t-9.5 -27.5h-279q0 56 21.5 111.5t63.5 105t115 80.5t165 31q176 0 281.5 -89t105.5 -265v-453q0 -14 -1 -56 t-1 -63q0 -34 5 -58t9 -35t20 -44h-309q-22 59 -22 115q-82 -135 -222 -135q-110 0 -184 79.5t-74 221.5zM367 322q0 -30 18.5 -49t48.5 -19q10 0 21 4t19.5 9t19 14.5t16 15l15 15l10.5 10.5v147q-75 -19 -121.5 -52t-46.5 -95z" />
<glyph unicode="b" d="M74 0v1477h307v-541q22 29 35.5 44t39.5 38t56.5 34t65.5 11q274 0 274 -526q0 -261 -68.5 -409t-208.5 -148q-34 0 -63 9.5t-46.5 21.5t-36 35.5t-26 37t-22.5 41.5v-125h-307zM389 530q0 -57 2.5 -97t10 -80t23.5 -60.5t40 -20.5q46 0 62 69.5t16 188.5q0 242 -78 242 q-18 0 -31.5 -8.5t-22 -28.5t-13 -38t-6.5 -51.5t-2.5 -54.5t-0.5 -61z" />
<glyph unicode="c" d="M72 420v227q0 74 23.5 145t68.5 133t122.5 100t174.5 38q79 0 145.5 -25.5t111 -68t75.5 -98.5t45 -115t14 -119v-41h-307v37q0 145 -80 145q-29 0 -48 -14t-26.5 -39t-9.5 -45t-2 -47v-199q0 -38 2 -62t9.5 -52t25 -42t45.5 -14t46 14.5t25.5 42.5t10 52.5t2.5 60.5v29 h307v-51q0 -60 -12 -118t-41.5 -116t-73 -101t-112 -70t-152.5 -27q-123 0 -212.5 59.5t-133 158t-43.5 222.5z" />
<glyph unicode="d" d="M53 537q0 118 15 212t46 165.5t84 110t124 38.5q16 0 31 -2.5t27.5 -5.5t25.5 -10t21.5 -11.5t20.5 -14.5t17.5 -15t16.5 -17.5t14.5 -17t14.5 -17.5t13 -16v541h305v-1477h-305v125q-17 -33 -31 -54t-37 -44.5t-55 -35t-73 -11.5q-94 0 -156.5 70.5t-90.5 192.5t-28 294 zM369 528q0 -256 73 -256q19 0 33.5 9t23 29t13.5 38.5t7 53.5t2.5 55.5t0.5 61.5v9q0 244 -76 244q-18 0 -32 -8.5t-22 -27.5t-13 -37.5t-7 -52t-2.5 -55.5t-0.5 -63z" />
<glyph unicode="e" d="M76 432v166q0 213 98 339t289 126q190 0 290.5 -127t100.5 -350v-160h-475q0 -31 1 -50.5t6 -47.5t14.5 -44t28.5 -28t46 -12q25 0 42.5 10t26.5 30t12 30.5t7 31.5h291q0 -41 -8.5 -84t-33.5 -95.5t-64.5 -92.5t-109 -67t-159.5 -27q-86 0 -154.5 24t-114.5 65t-76.5 99 t-44 123.5t-13.5 140.5zM379 645h170q0 23 -0.5 37.5t-3 36.5t-8 36t-14.5 28t-24.5 21t-35.5 7t-35 -6.5t-24 -21t-14.5 -28t-7.5 -36.5t-2.5 -36t-0.5 -38z" />
<glyph unicode="f" horiz-adv-x="606" d="M23 750l6 292h88v48q0 237 76 333.5t274 96.5h80v-287h-35q-26 0 -43 -7t-26 -16t-13.5 -29.5t-5 -35t-0.5 -45.5v-58h121v-292h-121v-750h-307v750h-94z" />
<glyph unicode="g" d="M35 205q0 39 10 69t31.5 52t39 35t48.5 31q8 5 12 7q-22 27 -34.5 44.5t-33 55t-30.5 85t-10 104.5q0 170 93.5 272.5t252.5 102.5q55 0 97.5 -11.5t71.5 -32.5t48.5 -42t39.5 -47q5 -7 7 -10q8 10 22 30t21 28.5t20.5 22.5t25 20.5t28.5 14.5t38 12t48 5v-277 q-6 0 -18.5 1t-18.5 1q-34 0 -101 -39q0 -54 -2 -92.5t-8.5 -65t-9.5 -36.5t-13.5 -30t-11.5 -23q-50 -100 -178 -125q-30 -6 -67.5 -9.5t-63.5 -5t-50 -5t-36 -13t-12 -25.5q0 -30 52.5 -38t155 -11.5t169.5 -17.5q101 -21 162 -95.5t61 -183.5q0 -321 -471 -321 q-173 0 -277 56t-104 167q0 60 24 97t70 73q-40 30 -69 76.5t-29 93.5zM272 -53q0 -16 6.5 -28.5t21 -19.5t27.5 -11.5t37.5 -6t39 -2t42.5 -0.5q43 0 72.5 2.5t56 10.5t39.5 23.5t13 39.5q0 20 -13.5 32.5t-43 17.5t-51.5 6t-64 1q-87 0 -135 -12.5t-48 -52.5zM342 707 q0 -59 17 -90t47 -31q22 0 35.5 8.5t19 27.5t7 35t1.5 45q0 67 -14 97t-49 30q-38 0 -51 -29t-13 -93z" />
<glyph unicode="h" d="M86 0v1477h307v-564q2 3 15.5 20.5t19 25t20.5 24t25 25t27.5 21t33.5 18.5t37 11t43 5q117 0 172.5 -82.5t55.5 -255.5v-725h-303v614q0 33 -1.5 53t-7 43t-18.5 33.5t-33 10.5q-86 0 -86 -140v-614h-307z" />
<glyph unicode="i" horiz-adv-x="493" d="M84 0v1042h299v-1042h-299zM84 1182v295h299v-295h-299z" />
<glyph unicode="j" horiz-adv-x="493" d="M-25 -72q31 6 43 9t28.5 13.5t20.5 22t10 39.5t6.5 61t0.5 91v878h307v-936q0 -111 -18.5 -193.5t-60 -145t-114.5 -94t-178 -31.5h-45v286zM84 1182v295h307v-295h-307z" />
<glyph unicode="k" d="M86 0v1477h305v-777l164 342h322l-234 -487l246 -555h-326l-172 389v-389h-305z" />
<glyph unicode="l" horiz-adv-x="493" d="M88 0v1477h307v-1477h-307z" />
<glyph unicode="m" horiz-adv-x="1402" d="M76 0v1042h307v-149q14 30 28 52.5t40 53t65.5 47.5t87.5 17q43 0 79 -14t57 -31t39.5 -45t25 -43t14.5 -37q90 170 234 170q110 0 173.5 -83t63.5 -249v-731h-307v618q0 32 -0.5 46t-3.5 35.5t-9.5 30.5t-19.5 16.5t-32 7.5q-39 0 -61.5 -42.5t-22.5 -99.5v-612h-306 v662q0 92 -59 92q-44 0 -65 -38t-21 -102v-614h-307z" />
<glyph unicode="n" d="M90 0v1042h307v-129q1 2 12 17t14.5 19.5t15.5 19t18 20.5t19.5 18.5t23 18.5t24.5 14.5t28.5 12.5t30.5 7t35 3q226 0 226 -320v-743h-301v627q0 31 -1.5 49.5t-7 38.5t-18.5 29.5t-33 9.5q-44 0 -65 -38t-21 -102v-614h-307z" />
<glyph unicode="o" d="M72 412v245q0 69 25 139t71 130.5t120.5 98.5t164.5 38q89 0 159 -27.5t114 -71t73.5 -103t41 -118.5t11.5 -122v-211q0 -60 -12.5 -118t-42 -115.5t-73 -100.5t-111.5 -69.5t-152 -26.5q-79 0 -144.5 24.5t-110 66t-75.5 97.5t-45 117.5t-14 126.5zM379 432 q0 -38 2 -60.5t9 -51t25 -42.5t46 -14t46 14t25.5 41t10 52t2.5 61v176q0 36 -2.5 60.5t-10 52.5t-25.5 42.5t-46 14.5t-45.5 -14.5t-25 -42.5t-9.5 -52t-2 -61v-176z" />
<glyph unicode="p" d="M86 -358v1400h299v-129q2 3 14 23.5t18 28.5t20.5 27t27.5 28t31.5 21t40.5 17t47 5q136 0 203 -145.5t67 -399.5q0 -247 -64.5 -392.5t-197.5 -145.5q-40 0 -74 13t-58 35.5t-39.5 41.5t-30.5 41q-3 6 -5 8v-477h-299zM391 510q0 -52 2.5 -89t10 -75t24.5 -58t43 -20 q72 0 72 252q0 54 -2 89t-9 75t-23 60t-42 20q-17 0 -30.5 -10.5t-21.5 -31.5t-13 -43t-7.5 -54.5t-3 -56.5t-0.5 -58z" />
<glyph unicode="q" d="M59 518q0 253 67.5 399t203.5 146q25 0 47 -5t40 -16.5t31.5 -21.5t27.5 -28t20 -27t18 -29t14 -23v129h299v-1400h-299v477q-1 -2 -8.5 -14t-12 -18t-14 -19.5t-18.5 -21.5t-21.5 -19.5t-26 -18.5t-30 -14t-35.5 -10.5t-40 -3.5q-68 0 -119 40t-82.5 113t-46.5 169.5 t-15 215.5zM365 510q0 -54 2 -89t9.5 -74.5t24.5 -59t43 -19.5q72 0 72 252q0 54 -2 89t-9 75t-23 60t-42 20q-17 0 -30.5 -10t-21 -31t-12.5 -42.5t-7.5 -54.5t-3 -56.5t-0.5 -59.5z" />
<glyph unicode="r" horiz-adv-x="720" d="M72 0v1042h311v-139q27 37 36.5 49t36 40t46 39t51.5 21.5t68 10.5q8 0 24.5 -3.5t20.5 -4.5v-355q-107 19 -136 19q-40 0 -67 -11.5t-43 -30.5t-24 -55.5t-10.5 -73.5t-2.5 -97v-451h-311z" />
<glyph unicode="s" horiz-adv-x="833" d="M55 354h264q2 -23 4.5 -36t10 -33.5t23 -30.5t38.5 -10q27 0 47.5 16t20.5 41q0 26 -15 44t-32 26t-58 24t-65 27q-37 17 -65.5 34t-62.5 45.5t-56.5 60.5t-38 78.5t-15.5 100.5q0 141 95 231.5t241 90.5q72 0 131 -23t96 -59t62 -83.5t35 -93t10 -89.5h-260 q-2 19 -4.5 29t-9 25t-20.5 22.5t-36 7.5q-20 0 -34.5 -15t-14.5 -34q0 -17 5 -29t20 -22.5t28 -16.5t44.5 -19.5t52.5 -23.5q47 -22 75.5 -37.5t67.5 -45t60 -60t37 -77.5t16 -104q0 -143 -97 -239t-249 -96q-94 0 -164.5 31t-110 85.5t-58 118.5t-18.5 139z" />
<glyph unicode="t" horiz-adv-x="606" d="M25 750v292h110v347h303v-347h111v-292h-111l-2 -326q0 -181 17.5 -269.5t50.5 -154.5h-311q-38 84 -48 186t-10 318v246h-110z" />
<glyph unicode="u" d="M86 274v768h303v-577q0 -50 1 -73.5t6 -52.5t16.5 -40.5t31.5 -11.5q21 0 36.5 7.5t24.5 23t15 31.5t8.5 41t3 42.5t0.5 44.5v565h308v-1042h-308v141q-85 -161 -233 -161q-100 0 -156.5 83t-56.5 211z" />
<glyph unicode="v" horiz-adv-x="833" d="M16 1042h312l75 -426l78 426h291l-240 -1042h-266z" />
<glyph unicode="w" horiz-adv-x="1175" d="M27 1042h290l52 -387l75 387h263l81 -387l48 387h286l-172 -1042h-272l-94 422l-97 -422h-274z" />
<glyph unicode="x" horiz-adv-x="833" d="M10 1042h314l77 -213l76 213h318l-220 -499l226 -543h-316l-84 240l-75 -240h-308l209 543z" />
<glyph unicode="y" horiz-adv-x="833" d="M31 -76h67q83 0 115.5 33.5t32.5 124.5q0 26 -4.5 52t-14.5 65.5t-12 50.5l-180 792h293l73 -407l80 407h291l-258 -1097q-12 -52 -20.5 -83.5t-20.5 -66.5t-23.5 -53.5t-30 -39t-39 -29.5t-50 -17.5t-65 -11t-83.5 -2.5h-151v282z" />
<glyph unicode="z" horiz-adv-x="720" d="M37 0v164l274 602h-260v276h627v-163l-277 -613h277v-266h-641z" />
<glyph unicode="{" horiz-adv-x="985" d="M270 530v64q58 14 135 80t87 119q6 28 6 61t-4.5 67.5t-9.5 63t-12.5 64t-10.5 55.5q-15 102 -8 155t47 123q49 86 177 137.5t187 47.5v-47q-144 -48 -198 -189q-9 -23 -14 -44t-5 -46.5t0.5 -38t4.5 -47.5t5 -47q3 -27 11.5 -81.5t10.5 -82t-6 -74t-30 -92.5 q-20 -43 -147.5 -128.5t-163.5 -88.5q65 -11 132.5 -54t109 -88t57.5 -79q22 -46 30 -92t6 -74t-10 -80.5t-10 -79.5q-1 -14 -5 -47t-4.5 -47.5t-0.5 -39t4.5 -45.5t13.5 -44q53 -137 199 -186v-49q-32 -2 -101 15.5t-150.5 63t-115.5 105.5q-38 67 -45 123t4 155 q2 28 15 95t18.5 109t-0.5 104q-10 53 -80.5 118.5t-128.5 85.5z" />
<glyph unicode="|" horiz-adv-x="493" d="M178 -303v1780h109v-1780h-109z" />
<glyph unicode="}" horiz-adv-x="985" d="M102 -393q145 49 199 188q9 23 13.5 44t4.5 45.5t-0.5 39t-4.5 47.5t-5 47q-2 25 -10.5 81t-10 82t6 72.5t29.5 92.5q20 43 147.5 129.5t163.5 89.5q-95 16 -183.5 89t-115.5 130q-22 46 -30 92t-6.5 74t8.5 80t9 80q1 18 5 58t5 58t-3 48.5t-15 58.5q-53 138 -198 187 v49q32 2 101 -16t150 -63.5t115 -105.5q39 -69 46.5 -123t-5.5 -155q-3 -23 -11.5 -69t-14.5 -79t-9.5 -82t4.5 -77q10 -53 80.5 -118t128.5 -85v-64q-58 -15 -135 -81t-86 -119q-4 -37 -5 -62t4 -64.5t9.5 -64.5t12 -61.5t10.5 -56.5q16 -105 8.5 -155.5t-47.5 -123.5 q-33 -60 -114 -105.5t-150 -63t-101 -15.5v47z" />
<glyph unicode="~" horiz-adv-x="1593" d="M358 598q24 272 201 272q55 1 122.5 -32t120 -73t111 -73.5t97.5 -34.5q23 0 41 9t27.5 22t16.5 33.5t9.5 35.5t5 36.5t4.5 29.5h98q-5 -47 -11.5 -83t-21 -73t-35 -61t-53.5 -39.5t-77 -15.5q-52 -1 -106 20.5t-98 52.5t-86 62.5t-86 53t-83 20.5q-16 0 -28.5 -5 t-22 -18.5t-15 -23.5t-11 -33t-7.5 -33t-6 -37q-1 -8 -2 -12h-105z" />
<glyph unicode="&#xa1;" horiz-adv-x="606" d="M131 -96l117 598h71l125 -598v-340h-313v340zM131 647v395h313v-395h-313z" />
<glyph unicode="&#xa2;" horiz-adv-x="985" d="M84 709v192q0 178 87 286t241 136v57h135v-59q146 -36 231.5 -140.5t85.5 -279.5v-37h-307v35q0 145 -84 145q-82 0 -82 -145v-207q0 -34 2.5 -57.5t10 -50t25 -40.5t44.5 -14t45 14t26 40t10.5 50.5t2.5 57.5v37h307v-20q0 -383 -317 -459v-154h-135v146 q-328 78 -328 467z" />
<glyph unicode="&#xa3;" horiz-adv-x="985" d="M61 -45v332q49 44 63 64q52 73 52 245v45h-115v217h107q-27 128 -27 174q0 138 46.5 248t138.5 175t217 65q82 0 145 -22.5t104 -62t66.5 -98t36 -124t10.5 -146.5h-266v29q0 47 -22 85t-64 38q-52 0 -72 -43.5t-20 -131.5q0 -52 22 -186h209v-217h-207q0 -138 -63 -379 q8 -4 28 -15.5t31.5 -17t29 -11t32.5 -5.5q24 0 42 9t28.5 29.5t17 39.5t9 54.5t3 57.5t0.5 66h260q0 -49 -1.5 -89t-8.5 -94.5t-19 -96.5t-34 -86t-52 -74t-75.5 -50.5t-102.5 -23.5q-25 3 -50 9t-43.5 12t-41.5 18t-35 18.5t-33.5 22.5t-27.5 20.5t-27 22t-22 18.5 q-51 -49 -81 -72t-77 -42t-111 -27z" />
<glyph unicode="&#xa4;" horiz-adv-x="1024" d="M12 324l144 143q-108 133 -105 299q3 162 109 287l-140 143l62 64l139 -144q68 51 131 74.5t146 26.5q94 3 165 -18t146 -75l147 138l64 -64l-141 -145q55 -67 80.5 -137.5t25.5 -159.5q0 -166 -106 -293l141 -141l-59 -58l-144 146q-131 -108 -293 -111q-93 -1 -164 23 t-143 81l-139 -141zM154 762q-1 -157 107 -263t261 -106q149 0 256.5 106t108.5 255q2 153 -105.5 262t-265.5 108q-149 0 -255.5 -106.5t-106.5 -255.5z" />
<glyph unicode="&#xa5;" horiz-adv-x="985" d="M37 1477h348l84 -390l92 390h336l-244 -637v-142h187v-149h-187v-100h187v-150h-187v-299h-364v299h-189v150h189v100h-189v149h189v142z" />
<glyph unicode="&#xa7;" horiz-adv-x="985" d="M84 633q0 34 6.5 66.5t15.5 56.5t25.5 49t28.5 40.5t33.5 35t31 27.5t31.5 24t25 18q-46 69 -66 127.5t-20 124.5q0 138 85.5 228t223.5 90q160 0 315 -137q2 -2 3.5 -3t2.5 -2l-67 -100q-1 1 -16.5 15.5t-21.5 19.5t-24 19t-30 20.5t-32.5 17.5t-38.5 16t-41.5 9 t-47.5 4q-63 0 -108.5 -38t-45.5 -97q0 -39 28.5 -81t74.5 -82t101 -83.5t110 -92t101 -100t74.5 -115t28.5 -130.5q0 -56 -15.5 -105t-46 -89t-49 -59t-51.5 -48q-7 -6 -10 -9q0 -1 11.5 -13.5t15 -17t15 -19.5t16.5 -24t15.5 -26.5t15.5 -31.5l12.5 -35t11 -40.5t6 -44 t2.5 -49.5q0 -132 -84.5 -218.5t-216.5 -86.5q-40 0 -79 7.5t-72 22t-60 28.5t-53.5 35.5t-41.5 34t-35 32t-23 22.5v4l79 89q3 -2 21.5 -20t26.5 -25t28.5 -24t34 -25.5t35 -21.5t40 -19.5t41 -11.5t44.5 -5q64 0 107.5 40t43.5 99q0 40 -31.5 83t-82 84t-111 85.5 t-121.5 94.5t-111.5 103.5t-82 120t-31.5 136.5zM254 756q0 -55 53 -122t111 -118l217 -188q36 36 53 65t17 66q0 35 -20.5 73.5t-41.5 62.5t-57 58l-248 236q-50 -42 -63 -61q-21 -30 -21 -72z" />
<glyph unicode="&#xa8;" horiz-adv-x="518" d="M-96 1300q0 55 38.5 93.5t94.5 38.5q54 0 93.5 -39t39.5 -93q0 -56 -39 -95.5t-94 -39.5t-94 39.5t-39 95.5zM248 1300q0 54 39 93t94 39q56 0 94.5 -38.5t38.5 -93.5q0 -56 -39 -95.5t-94 -39.5t-94 39.5t-39 95.5z" />
<glyph unicode="&#xa9;" horiz-adv-x="1024" d="M-2 1034q0 97 37.5 186t101.5 154t152 105t184 41q129 2 241.5 -58.5t181 -168t73.5 -236.5q5 -134 -60.5 -251t-181 -186.5t-248.5 -68.5q-97 1 -186 39.5t-153.5 103.5t-103 154t-38.5 186zM72 1030q2 -169 122.5 -290.5t288.5 -121.5q114 0 212.5 60t154.5 161.5 t51 215.5q-6 168 -132.5 284t-295.5 111q-109 -3 -202 -61t-146.5 -153.5t-52.5 -205.5zM229 1042q0 108 72 189t178 88q127 9 217 -78l-47 -47q-65 62 -170 59q-80 -4 -133 -68.5t-53 -150.5q0 -81 57 -139.5t139 -63.5q103 -3 166 66l47 -45q-40 -41 -97 -63.5t-122 -18.5 q-107 7 -180.5 86t-73.5 186z" />
<glyph unicode="&#xaa;" horiz-adv-x="985" d="M131 844q0 72 29.5 131.5t75 97.5t103.5 65.5t111.5 39.5t102.5 14v43q0 42 -24 66t-54 24q-66 0 -85 -65q-2 -5 -7 -29h-223q2 30 9.5 61.5t29 74.5t53.5 75t89.5 55t131.5 23q153 0 239.5 -93t86.5 -264v-418q0 -16 1.5 -31t2.5 -24t4.5 -22.5t5 -18t6.5 -18.5t6 -17 h-241q-22 30 -31 64q-88 -88 -188 -88q-93 0 -163.5 75.5t-70.5 178.5zM397 877q0 -26 19.5 -42t46.5 -16q36 0 90 68v137q-4 -2 -23.5 -10.5t-24.5 -11t-21.5 -10.5t-21.5 -11.5t-17.5 -12t-16.5 -14.5t-12 -15t-11 -18t-5.5 -20.5t-2.5 -23.5z" />
<glyph unicode="&#xab;" horiz-adv-x="1175" d="M96 506l271 452h241l-276 -452l268 -449h-242zM555 506l272 452h242l-278 -452l268 -449h-240z" />
<glyph unicode="&#xac;" horiz-adv-x="1593" d="M74 934v110h1421v-585h-100v475h-1321z" />
<glyph unicode="&#xad;" horiz-adv-x="493" d="M25 369v284h413v-284h-413z" />
<glyph unicode="&#xae;" horiz-adv-x="1024" d="M-4 1044q2 129 67 238.5t175 173.5t239 64q194 0 334.5 -136t146.5 -329q4 -132 -60.5 -248.5t-178 -186t-244.5 -69.5q-129 0 -240.5 67.5t-176 181.5t-62.5 244zM68 1040q-1 -111 53 -208t148 -155t204 -59q85 -1 163.5 35t135 95t89 139.5t28.5 165.5 q-6 164 -124 278.5t-282 116.5q-169 1 -291 -119t-124 -289zM303 797v508h191q17 0 33.5 -1.5t44 -10.5t47.5 -24t35 -45t16 -71q1 -59 -23 -90.5t-72 -50.5l95 -215h-86l-82 209h-123v-209h-76zM377 1073h110q59 0 83 19q26 22 26 65q0 38 -30 57t-70 19h-119v-160z" />
<glyph unicode="&#xaf;" horiz-adv-x="516" d="M-51 1227v145h565v-145h-565z" />
<glyph unicode="&#xb0;" horiz-adv-x="985" d="M248 1292q0 94 67.5 161t161.5 67t162 -67t68 -161t-68 -161.5t-162 -67.5q-95 0 -162 67t-67 162zM369 1292q0 -44 32 -76t76 -32t76.5 32t32.5 76t-32.5 75.5t-76.5 31.5t-76 -31.5t-32 -75.5z" />
<glyph unicode="&#xb1;" horiz-adv-x="1593" d="M18 0v221h1526v-221h-1526zM18 823v221h648v390h219v-390h659v-221h-659v-381h-219v381h-648z" />
<glyph unicode="&#xb4;" horiz-adv-x="536" d="M100 1151l162 295h270l-262 -295h-170z" />
<glyph unicode="&#xb5;" horiz-adv-x="1249" d="M90 -303q7 68 32 153t25 207v1002h183v-598q0 -72 1.5 -111t12 -90t31.5 -76q59 -69 182 -61q65 4 131 53t88 100v783h180v-737q0 -121 29 -187q17 -38 53 -49.5t66 -3.5q38 10 64.5 62.5t19.5 78.5h39q-6 -102 -86 -176q-73 -67 -170 -67q-82 -1 -137.5 69t-55.5 131 q-5 -12 -33.5 -41.5t-73 -65t-108 -62.5t-123.5 -29q-64 -1 -133.5 39.5t-103.5 82.5v-98q0 -65 42.5 -161t43.5 -144q0 -61 -23 -105.5t-76 -44.5q-56 0 -80.5 44t-19.5 102z" />
<glyph unicode="&#xb6;" horiz-adv-x="1024" d="M84 983q0 113 59 226.5t168 174.5q92 51 204 72t259 21h160v-62h-148v-1800h-59v1800h-117l2 -1800h-71v909q-123 1 -228 61.5t-167 166t-62 231.5z" />
<glyph unicode="&#xb7;" horiz-adv-x="985" d="M309 518v434h332v-434h-332z" />
<glyph unicode="&#xb8;" horiz-adv-x="419" d="M94 -344l41 76q55 -19 80 -19q30 0 47 16t17 33q0 26 -16.5 41t-47.5 15q-20 0 -57 -11v281h90v-192q16 2 47 2q49 0 85 -30t36 -91q0 -68 -48.5 -110t-134.5 -42q-57 0 -139 31z" />
<glyph unicode="&#xba;" horiz-adv-x="985" d="M147 1034q0 150 32.5 256t108 168t191.5 62q330 0 330 -486q0 -211 -84 -324.5t-246 -113.5q-163 0 -247.5 113.5t-84.5 324.5zM397 1059q0 -131 15 -184.5t67 -53.5q27 0 43.5 13.5t24.5 47.5t10 71.5t2 105.5q0 128 -16 186t-64 58q-49 0 -65.5 -58t-16.5 -186z" />
<glyph unicode="&#xbb;" horiz-adv-x="1175" d="M96 958h240l272 -452l-262 -449h-242l269 449zM555 958h242l270 -452l-262 -449h-242l268 449z" />
<glyph unicode="&#xbf;" d="M76 -55q0 73 14.5 136t38 110.5t48 89t48.5 90t35 94.5q7 30 6 37h318v-35q0 -54 -21.5 -106.5t-52 -96.5t-60.5 -87.5t-51.5 -95.5t-21.5 -104q0 -56 19.5 -87t56.5 -31q39 0 56 27t17 89q0 22 -4 62h301q4 -36 4 -74q0 -189 -100.5 -301.5t-282.5 -112.5 q-171 0 -269.5 105.5t-98.5 290.5zM264 647v395h316v-395h-316z" />
<glyph unicode="&#xc0;" d="M18 0l234 1477h420l221 -1477h-330l-31 190h-155l-29 -190h-330zM154 1903h274l170 -295h-174zM387 487h145l-69 527z" />
<glyph unicode="&#xc1;" d="M18 0l234 1477h420l221 -1477h-330l-31 190h-155l-29 -190h-330zM330 1608l162 295h270l-262 -295h-170zM387 487h145l-69 527z" />
<glyph unicode="&#xc2;" d="M18 0l234 1477h420l221 -1477h-330l-31 190h-155l-29 -190h-330zM156 1608l198 295h219l199 -295h-119l-188 145l-199 -145h-110zM387 487h145l-69 527z" />
<glyph unicode="&#xc3;" d="M18 0l234 1477h420l221 -1477h-330l-31 190h-155l-29 -190h-330zM158 1661q1 15 6 35.5t19 48t34 50t54.5 38.5t76.5 16q45 0 117.5 -26.5t105.5 -26.5q20 0 36 14t22 39h90q-1 -22 -6 -45.5t-19 -51t-34.5 -48.5t-54.5 -35t-77 -14q-56 0 -122 26.5t-93 26.5 q-39 0 -65 -47h-90zM387 487h145l-69 527z" />
<glyph unicode="&#xc4;" d="M18 0l234 1477h420l221 -1477h-330l-31 190h-155l-29 -190h-330zM150 1757q0 55 38.5 93t94.5 38q54 0 93.5 -38.5t39.5 -92.5q0 -56 -39 -95.5t-94 -39.5t-94 39.5t-39 95.5zM387 487h145l-69 527zM494 1757q0 54 39 92.5t94 38.5q56 0 94.5 -38t38.5 -93 q0 -56 -39 -95.5t-94 -39.5t-94 39.5t-39 95.5z" />
<glyph unicode="&#xc5;" d="M18 0l234 1477h420l221 -1477h-330l-31 190h-155l-29 -190h-330zM287 1800q0 71 50 121.5t120 50.5t120 -50.5t50 -121.5t-50 -121.5t-120 -50.5t-120 50.5t-50 121.5zM367 1800q0 -37 26.5 -62.5t63.5 -25.5q35 0 60.5 26.5t25.5 61.5t-25.5 61.5t-60.5 26.5 q-37 0 -63.5 -25.5t-26.5 -62.5zM387 487h145l-69 527z" />
<glyph unicode="&#xc6;" horiz-adv-x="1744" d="M74 0l526 1477h928v-312h-404v-241h332v-326h-332v-272h422v-326h-784v186h-281l-69 -186h-338zM584 481h178v547z" />
<glyph unicode="&#xc7;" horiz-adv-x="1062" d="M63 950q0 90 9.5 164.5t38.5 152.5t77 131.5t130.5 87.5t193.5 34q79 0 143 -13.5t110 -37.5t80 -61.5t55 -80t34 -99t17.5 -113.5t4.5 -128v-108h-346v135q0 31 -0.5 47.5t-3 44.5t-9 44t-17.5 33.5t-29 25.5t-43 8q-20 0 -35 -8t-24 -25t-14.5 -32.5t-7.5 -43.5 t-2.5 -44t-0.5 -46v-483q0 -45 0.5 -67.5t3 -58t8 -53t15.5 -37.5t26.5 -28t38.5 -8q17 0 31 4t23.5 15t16.5 21t11.5 32t6.5 37t3.5 47t1.5 51v59v104h346v-221q2 -195 -91 -323t-281 -152q-16 -2 -74 -2v-59q16 2 47 2q49 0 85 -30t36 -91q0 -68 -48 -110t-134 -42 q-58 0 -140 31l41 76q55 -19 80 -19q30 0 47 16t17 33q0 26 -16.5 41t-47.5 15q-20 0 -57 -11q0 125 -2 158q-33 -2 -76 14t-90.5 53.5t-87.5 90t-67.5 133t-30.5 172.5z" />
<glyph unicode="&#xc8;" d="M80 0v1477h760v-312h-404v-241h332v-326h-332v-272h422v-326h-778zM195 1903h274l170 -295h-174z" />
<glyph unicode="&#xc9;" d="M80 0v1477h760v-312h-404v-241h332v-326h-332v-272h422v-326h-778zM315 1608l162 295h271l-263 -295h-170z" />
<glyph unicode="&#xca;" d="M80 0v1477h760v-312h-404v-241h332v-326h-332v-272h422v-326h-778zM154 1608l198 295h219l199 -295h-119l-188 145l-199 -145h-110z" />
<glyph unicode="&#xcb;" d="M80 0v1477h760v-312h-404v-241h332v-326h-332v-272h422v-326h-778zM150 1757q0 55 38.5 93t94.5 38q54 0 93.5 -38.5t39.5 -92.5q0 -56 -39 -95.5t-94 -39.5t-94 39.5t-39 95.5zM494 1757q0 54 39 92.5t94 38.5q56 0 94.5 -38t38.5 -93q0 -56 -39 -95.5t-94 -39.5 t-94 39.5t-39 95.5z" />
<glyph unicode="&#xcc;" horiz-adv-x="606" d="M6 1903h275l170 -295h-175zM106 0v1477h353v-1477h-353z" />
<glyph unicode="&#xcd;" horiz-adv-x="606" d="M106 0v1477h353v-1477h-353zM158 1608l161 295h271l-262 -295h-170z" />
<glyph unicode="&#xce;" horiz-adv-x="606" d="M-18 1608l198 295h219l199 -295h-119l-188 145l-199 -145h-110zM106 0v1477h353v-1477h-353z" />
<glyph unicode="&#xcf;" horiz-adv-x="606" d="M-23 1757q0 55 39 93t95 38q54 0 93.5 -38.5t39.5 -92.5q0 -56 -39 -95.5t-94 -39.5t-94.5 39.5t-39.5 95.5zM106 0v1477h353v-1477h-353zM322 1757q0 54 39 92.5t94 38.5q56 0 94.5 -38t38.5 -93q0 -56 -39 -95.5t-94 -39.5t-94 39.5t-39 95.5z" />
<glyph unicode="&#xd1;" horiz-adv-x="1062" d="M86 0v1477h348l195 -562v562h317v-1477h-323l-215 692v-692h-322zM227 1661q1 20 10.5 47.5t29 61t59.5 56.5t92 23q45 0 117.5 -26.5t105.5 -26.5q44 0 57 53h90q-1 -29 -10 -59t-29 -62t-59 -52.5t-92 -20.5q-56 0 -122 26.5t-93 26.5q-40 0 -66 -47h-90z" />
<glyph unicode="&#xd2;" horiz-adv-x="1062" d="M63 526v424q0 85 11.5 161t42.5 153t80 132t130.5 89.5t186.5 34.5q107 0 188.5 -33.5t130 -87t79 -129t41 -149t10.5 -158.5v-437q0 -571 -449 -571q-451 0 -451 571zM236 1903h274l170 -295h-174zM430 526q0 -47 0.5 -70.5t2.5 -60t7.5 -54t14.5 -37.5t24 -28t35 -8 t35 9t24 30t14.5 40t7.5 55t2.5 58t0.5 66v424q0 45 -0.5 67.5t-2.5 59t-7.5 55t-14.5 39t-24 29t-35 8.5q-31 0 -48.5 -15t-25 -55.5t-9 -74t-1.5 -107.5v-430z" />
<glyph unicode="&#xd3;" horiz-adv-x="1062" d="M63 526v424q0 85 11.5 161t42.5 153t80 132t130.5 89.5t186.5 34.5q107 0 188.5 -33.5t130 -87t79 -129t41 -149t10.5 -158.5v-437q0 -571 -449 -571q-451 0 -451 571zM406 1608l161 295h271l-263 -295h-169zM430 526q0 -47 0.5 -70.5t2.5 -60t7.5 -54t14.5 -37.5t24 -28 t35 -8t35 9t24 30t14.5 40t7.5 55t2.5 58t0.5 66v424q0 45 -0.5 67.5t-2.5 59t-7.5 55t-14.5 39t-24 29t-35 8.5q-31 0 -48.5 -15t-25 -55.5t-9 -74t-1.5 -107.5v-430z" />
<glyph unicode="&#xd4;" horiz-adv-x="1062" d="M63 526v424q0 85 11.5 161t42.5 153t80 132t130.5 89.5t186.5 34.5q107 0 188.5 -33.5t130 -87t79 -129t41 -149t10.5 -158.5v-437q0 -571 -449 -571q-451 0 -451 571zM211 1608l199 295h219l198 -295h-118l-189 145l-198 -145h-111zM430 526q0 -47 0.5 -70.5t2.5 -60 t7.5 -54t14.5 -37.5t24 -28t35 -8t35 9t24 30t14.5 40t7.5 55t2.5 58t0.5 66v424q0 45 -0.5 67.5t-2.5 59t-7.5 55t-14.5 39t-24 29t-35 8.5q-31 0 -48.5 -15t-25 -55.5t-9 -74t-1.5 -107.5v-430z" />
<glyph unicode="&#xd5;" horiz-adv-x="1062" d="M63 526v424q0 85 11.5 161t42.5 153t80 132t130.5 89.5t186.5 34.5q107 0 188.5 -33.5t130 -87t79 -129t41 -149t10.5 -158.5v-437q0 -571 -449 -571q-451 0 -451 571zM219 1661q1 20 10.5 47.5t29 61t59.5 56.5t92 23q45 0 117.5 -26.5t105.5 -26.5q44 0 57 53h90 q-1 -29 -10 -59t-29 -62t-59 -52.5t-92 -20.5q-56 0 -122 26.5t-93 26.5q-40 0 -66 -47h-90zM430 526q0 -47 0.5 -70.5t2.5 -60t7.5 -54t14.5 -37.5t24 -28t35 -8t35 9t24 30t14.5 40t7.5 55t2.5 58t0.5 66v424q0 45 -0.5 67.5t-2.5 59t-7.5 55t-14.5 39t-24 29t-35 8.5 q-31 0 -48.5 -15t-25 -55.5t-9 -74t-1.5 -107.5v-430z" />
<glyph unicode="&#xd6;" horiz-adv-x="1062" d="M63 526v424q0 85 11.5 161t42.5 153t80 132t130.5 89.5t186.5 34.5q107 0 188.5 -33.5t130 -87t79 -129t41 -149t10.5 -158.5v-437q0 -571 -449 -571q-451 0 -451 571zM199 1757q0 55 38.5 93t94.5 38q54 0 93.5 -38.5t39.5 -92.5q0 -56 -39 -95.5t-94 -39.5t-94 39.5 t-39 95.5zM430 526q0 -47 0.5 -70.5t2.5 -60t7.5 -54t14.5 -37.5t24 -28t35 -8t35 9t24 30t14.5 40t7.5 55t2.5 58t0.5 66v424q0 45 -0.5 67.5t-2.5 59t-7.5 55t-14.5 39t-24 29t-35 8.5q-31 0 -48.5 -15t-25 -55.5t-9 -74t-1.5 -107.5v-430zM543 1757q0 54 39 92.5t94 38.5 q56 0 94.5 -38t38.5 -93q0 -56 -39 -95.5t-94 -39.5t-94 39.5t-39 95.5z" />
<glyph unicode="&#xd8;" horiz-adv-x="1062" d="M63 526v416q0 88 11.5 164.5t42 155t79.5 133.5t130.5 90t187.5 35q35 0 67.5 -3.5t57 -8t48.5 -12.5t39 -14t32.5 -16t24.5 -15t19.5 -14t14.5 -10l43 93h135l-94 -189q62 -147 62 -397v-408q0 -70 -3 -122.5t-14 -115.5t-30 -108t-52.5 -90t-80 -73t-115 -45 t-154.5 -17q-55 0 -100 5.5t-68.5 10.5t-49.5 19t-31 18t-25 19l-37 -72h-135l82 160q-42 47 -64.5 162t-22.5 249zM420 393q4 -140 106 -135q26 1 45 18t29 40.5t15.5 61t6.5 66t1 70.5v227zM420 668l203 356q2 17 -1 46.5t-12 64.5t-32 60t-56 24q-35 -1 -57 -25 t-30.5 -69t-11 -84.5t-3.5 -96.5v-22v-254z" />
<glyph unicode="&#xd9;" horiz-adv-x="1062" d="M78 506v971h354v-981q0 -142 10 -176q17 -46 64 -48q52 0 64 44t12 180v981h352v-990q0 -92 -9.5 -164t-37.5 -143.5t-74.5 -119t-124 -76.5t-182.5 -29t-183 30t-124 79t-74 123t-37.5 149t-9.5 170zM268 1903h275l170 -295h-174z" />
<glyph unicode="&#xda;" horiz-adv-x="1062" d="M78 506v971h354v-981q0 -142 10 -176q17 -46 64 -48q52 0 64 44t12 180v981h352v-990q0 -92 -9.5 -164t-37.5 -143.5t-74.5 -119t-124 -76.5t-182.5 -29t-183 30t-124 79t-74 123t-37.5 149t-9.5 170zM379 1608l162 295h270l-262 -295h-170z" />
<glyph unicode="&#xdb;" horiz-adv-x="1062" d="M78 506v971h354v-981q0 -142 10 -176q17 -46 64 -48q52 0 64 44t12 180v981h352v-990q0 -92 -9.5 -164t-37.5 -143.5t-74.5 -119t-124 -76.5t-182.5 -29t-183 30t-124 79t-74 123t-37.5 149t-9.5 170zM195 1608l198 295h219l199 -295h-119l-188 145l-199 -145h-110z" />
<glyph unicode="&#xdc;" horiz-adv-x="1062" d="M78 506v971h354v-981q0 -142 10 -176q17 -46 64 -48q52 0 64 44t12 180v981h352v-990q0 -92 -9.5 -164t-37.5 -143.5t-74.5 -119t-124 -76.5t-182.5 -29t-183 30t-124 79t-74 123t-37.5 149t-9.5 170zM199 1757q0 55 38.5 93t94.5 38q54 0 93.5 -38.5t39.5 -92.5 q0 -56 -39 -95.5t-94 -39.5t-94 39.5t-39 95.5zM543 1757q0 54 39 92.5t94 38.5q56 0 94.5 -38t38.5 -93q0 -56 -39 -95.5t-94 -39.5t-94 39.5t-39 95.5z" />
<glyph unicode="&#xdf;" horiz-adv-x="1062" d="M49 0v1171q0 170 101.5 259.5t293.5 89.5q218 0 352 -128t134 -335q0 -68 -17.5 -125t-38.5 -91t-59.5 -67t-57.5 -44.5t-55 -31.5q40 -20 66.5 -36t69 -54t69 -81t46.5 -113.5t20 -155.5q0 -142 -33 -252.5t-85.5 -177.5t-126 -110t-145.5 -59.5t-153 -16.5v278 q41 4 70.5 11.5t65 28.5t57.5 53.5t37.5 91t15.5 137.5q0 80 -15.5 137t-37 88t-58 49.5t-65 24t-70.5 8.5v278q29 2 46.5 4.5t44 9.5t42.5 20.5t32.5 35.5t24 57t7.5 82q0 213 -154 213q-57 0 -87 -29t-30 -114v-1106h-307z" />
<glyph unicode="&#xe0;" d="M59 281q0 88 31.5 155.5t69.5 105t110 67.5t113 40.5t118 25.5q23 5 34 7q0 6 1 20.5t1 20.5q0 46 -23 70t-61 24q-23 0 -39.5 -7t-26.5 -24t-12.5 -23.5t-9.5 -27.5h-279q0 56 21.5 111.5t63.5 105t115 80.5t165 31q176 0 281.5 -89t105.5 -265v-453q0 -14 -1 -56 t-1 -63q0 -34 5 -58t9 -35t20 -44h-309q-22 59 -22 115q-82 -135 -222 -135q-110 0 -184 79.5t-74 221.5zM211 1446h274l170 -295h-174zM367 322q0 -30 18.5 -49t48.5 -19q10 0 21 4t19.5 9t19 14.5t16 15l15 15l10.5 10.5v147q-75 -19 -121.5 -52t-46.5 -95z" />
<glyph unicode="&#xe1;" d="M59 281q0 88 31.5 155.5t69.5 105t110 67.5t113 40.5t118 25.5q23 5 34 7q0 6 1 20.5t1 20.5q0 46 -23 70t-61 24q-23 0 -39.5 -7t-26.5 -24t-12.5 -23.5t-9.5 -27.5h-279q0 56 21.5 111.5t63.5 105t115 80.5t165 31q176 0 281.5 -89t105.5 -265v-453q0 -14 -1 -56 t-1 -63q0 -34 5 -58t9 -35t20 -44h-309q-22 59 -22 115q-82 -135 -222 -135q-110 0 -184 79.5t-74 221.5zM338 1151l162 295h270l-262 -295h-170zM367 322q0 -30 18.5 -49t48.5 -19q10 0 21 4t19.5 9t19 14.5t16 15l15 15l10.5 10.5v147q-75 -19 -121.5 -52t-46.5 -95z" />
<glyph unicode="&#xe2;" d="M59 281q0 88 31.5 155.5t69.5 105t110 67.5t113 40.5t118 25.5q23 5 34 7q0 6 1 20.5t1 20.5q0 46 -23 70t-61 24q-23 0 -39.5 -7t-26.5 -24t-12.5 -23.5t-9.5 -27.5h-279q0 56 21.5 111.5t63.5 105t115 80.5t165 31q176 0 281.5 -89t105.5 -265v-453q0 -14 -1 -56 t-1 -63q0 -34 5 -58t9 -35t20 -44h-309q-22 59 -22 115q-82 -135 -222 -135q-110 0 -184 79.5t-74 221.5zM162 1151l198 295h220l198 -295h-119l-188 145l-199 -145h-110zM367 322q0 -30 18.5 -49t48.5 -19q10 0 21 4t19.5 9t19 14.5t16 15l15 15l10.5 10.5v147 q-75 -19 -121.5 -52t-46.5 -95z" />
<glyph unicode="&#xe3;" d="M59 281q0 88 31.5 155.5t69.5 105t110 67.5t113 40.5t118 25.5q23 5 34 7q0 6 1 20.5t1 20.5q0 46 -23 70t-61 24q-23 0 -39.5 -7t-26.5 -24t-12.5 -23.5t-9.5 -27.5h-279q0 56 21.5 111.5t63.5 105t115 80.5t165 31q176 0 281.5 -89t105.5 -265v-453q0 -14 -1 -56 t-1 -63q0 -34 5 -58t9 -35t20 -44h-309q-22 59 -22 115q-82 -135 -222 -135q-110 0 -184 79.5t-74 221.5zM170 1204q1 15 6 35.5t19 48.5t34 50.5t54.5 38.5t76.5 16q45 0 118 -27t106 -27q20 0 35.5 14.5t21.5 39.5h90q-1 -29 -10 -59t-29 -62.5t-59 -53t-92 -20.5 q-56 0 -122 26.5t-93 26.5q-40 0 -66 -47h-90zM367 322q0 -30 18.5 -49t48.5 -19q10 0 21 4t19.5 9t19 14.5t16 15l15 15l10.5 10.5v147q-75 -19 -121.5 -52t-46.5 -95z" />
<glyph unicode="&#xe4;" d="M59 281q0 88 31.5 155.5t69.5 105t110 67.5t113 40.5t118 25.5q23 5 34 7q0 6 1 20.5t1 20.5q0 46 -23 70t-61 24q-23 0 -39.5 -7t-26.5 -24t-12.5 -23.5t-9.5 -27.5h-279q0 56 21.5 111.5t63.5 105t115 80.5t165 31q176 0 281.5 -89t105.5 -265v-453q0 -14 -1 -56 t-1 -63q0 -34 5 -58t9 -35t20 -44h-309q-22 59 -22 115q-82 -135 -222 -135q-110 0 -184 79.5t-74 221.5zM158 1300q0 55 38.5 93.5t94.5 38.5q54 0 93.5 -39t39.5 -93q0 -56 -39 -95.5t-94 -39.5t-94 39.5t-39 95.5zM367 322q0 -30 18.5 -49t48.5 -19q10 0 21 4t19.5 9 t19 14.5t16 15l15 15l10.5 10.5v147q-75 -19 -121.5 -52t-46.5 -95zM502 1300q0 54 39 93t94 39q56 0 94.5 -38.5t38.5 -93.5q0 -56 -39 -95.5t-94 -39.5t-94 39.5t-39 95.5z" />
<glyph unicode="&#xe5;" d="M59 281q0 88 31.5 155.5t69.5 105t110 67.5t113 40.5t118 25.5q23 5 34 7q0 6 1 20.5t1 20.5q0 46 -23 70t-61 24q-23 0 -39.5 -7t-26.5 -24t-12.5 -23.5t-9.5 -27.5h-279q0 56 21.5 111.5t63.5 105t115 80.5t165 31q176 0 281.5 -89t105.5 -265v-453q0 -14 -1 -56 t-1 -63q0 -34 5 -58t9 -35t20 -44h-309q-22 59 -22 115q-82 -135 -222 -135q-110 0 -184 79.5t-74 221.5zM303 1343q0 71 50 122t120 51t120 -51t50 -122t-50 -121.5t-120 -50.5t-120 50.5t-50 121.5zM367 322q0 -30 18.5 -49t48.5 -19q10 0 21 4t19.5 9t19 14.5t16 15 l15 15l10.5 10.5v147q-75 -19 -121.5 -52t-46.5 -95zM383 1343q0 -37 26.5 -62.5t63.5 -25.5q35 0 60.5 26.5t25.5 61.5q0 36 -25.5 62.5t-60.5 26.5q-37 0 -63.5 -26t-26.5 -63z" />
<glyph unicode="&#xe6;" horiz-adv-x="1402" d="M59 281q0 85 30 152t77.5 108.5t112.5 69t128.5 39t131.5 12.5q0 31 -1 48.5t-5 40t-13 34t-25 20t-40 8.5q-10 0 -18.5 -1.5t-16 -5t-12.5 -6t-11 -10t-9 -10.5t-8 -13t-6 -12.5t-6 -14t-6 -13.5h-276q2 35 11 72.5t34.5 87t64.5 86.5t108 63.5t157 26.5 q83 0 145.5 -39.5t91.5 -79.5q95 119 228 119q195 0 292 -131t97 -357v-149h-475q0 -39 2 -63t10.5 -55.5t29.5 -47.5t54 -16q21 0 37 8.5t24 16.5t15 28t7.5 24.5t4.5 24.5h291q0 -47 -8.5 -91.5t-35 -96t-68 -89.5t-115.5 -63.5t-170 -25.5q-56 0 -105 13t-82 34.5 t-51.5 37.5t-32.5 33q-53 -36 -84 -55t-95.5 -41t-127.5 -22q-126 0 -203.5 83.5t-77.5 217.5zM360 330q0 -36 19.5 -58t50.5 -22q30 0 59.5 23t45.5 53l-3 143q-79 -20 -125.5 -52t-46.5 -87zM840 645h172q0 34 -2 57t-10 51t-27 43t-49 15q-24 0 -41 -11.5t-25 -26 t-12.5 -41.5t-5 -43t-0.5 -44z" />
<glyph unicode="&#xe7;" d="M74 657q-1 71 22 140.5t68 130t122.5 98t174.5 37.5q79 0 145.5 -25.5t111 -68t75.5 -98.5t45 -115t14 -119v-41h-307v37q0 145 -80 145q-29 0 -48 -14t-26.5 -39t-9.5 -45t-2 -47v-199q0 -38 2 -62t9.5 -52t25 -42t45.5 -14t46 14.5t25.5 42.5t10 52.5t2.5 60.5v29h307 v-51q0 -59 -12 -116t-39 -112.5t-67 -98t-100 -70.5t-134 -33q-2 0 -12 -1t-15 -1v-82h47q49 0 85 -30t36 -91q0 -68 -48 -110t-134 -42q-58 0 -140 31l41 76q55 -19 80 -19q30 0 47 16t17 33q0 26 -16.5 41t-47.5 15q-20 0 -57 -11q1 17 1.5 41t1.5 81.5t-1 58.5 q-50 5 -102 32t-98 74t-76.5 121t-32.5 162q-1 41 -1 60v30v60.5t-1 129.5z" />
<glyph unicode="&#xe8;" d="M76 432v166q0 213 98 339t289 126q190 0 290.5 -127t100.5 -350v-160h-475q0 -31 1 -50.5t6 -47.5t14.5 -44t28.5 -28t46 -12q25 0 42.5 10t26.5 30t12 30.5t7 31.5h291q0 -41 -8.5 -84t-33.5 -95.5t-64.5 -92.5t-109 -67t-159.5 -27q-86 0 -154.5 24t-114.5 65t-76.5 99 t-44 123.5t-13.5 140.5zM205 1446h274l170 -295h-174zM379 645h170q0 23 -0.5 37.5t-3 36.5t-8 36t-14.5 28t-24.5 21t-35.5 7t-35 -6.5t-24 -21t-14.5 -28t-7.5 -36.5t-2.5 -36t-0.5 -38z" />
<glyph unicode="&#xe9;" d="M76 432v166q0 213 98 339t289 126q190 0 290.5 -127t100.5 -350v-160h-475q0 -31 1 -50.5t6 -47.5t14.5 -44t28.5 -28t46 -12q25 0 42.5 10t26.5 30t12 30.5t7 31.5h291q0 -41 -8.5 -84t-33.5 -95.5t-64.5 -92.5t-109 -67t-159.5 -27q-86 0 -154.5 24t-114.5 65t-76.5 99 t-44 123.5t-13.5 140.5zM336 1151l162 295h270l-262 -295h-170zM379 645h170q0 23 -0.5 37.5t-3 36.5t-8 36t-14.5 28t-24.5 21t-35.5 7t-35 -6.5t-24 -21t-14.5 -28t-7.5 -36.5t-2.5 -36t-0.5 -38z" />
<glyph unicode="&#xea;" d="M76 432v166q0 213 98 339t289 126q190 0 290.5 -127t100.5 -350v-160h-475q0 -31 1 -50.5t6 -47.5t14.5 -44t28.5 -28t46 -12q25 0 42.5 10t26.5 30t12 30.5t7 31.5h291q0 -41 -8.5 -84t-33.5 -95.5t-64.5 -92.5t-109 -67t-159.5 -27q-86 0 -154.5 24t-114.5 65t-76.5 99 t-44 123.5t-13.5 140.5zM135 1151l199 295h219l199 -295h-119l-189 145l-198 -145h-111zM379 645h170q0 23 -0.5 37.5t-3 36.5t-8 36t-14.5 28t-24.5 21t-35.5 7t-35 -6.5t-24 -21t-14.5 -28t-7.5 -36.5t-2.5 -36t-0.5 -38z" />
<glyph unicode="&#xeb;" d="M76 432v166q0 213 98 339t289 126q190 0 290.5 -127t100.5 -350v-160h-475q0 -31 1 -50.5t6 -47.5t14.5 -44t28.5 -28t46 -12q25 0 42.5 10t26.5 30t12 30.5t7 31.5h291q0 -41 -8.5 -84t-33.5 -95.5t-64.5 -92.5t-109 -67t-159.5 -27q-86 0 -154.5 24t-114.5 65t-76.5 99 t-44 123.5t-13.5 140.5zM160 1300q0 55 38.5 93.5t94.5 38.5q54 0 93.5 -39t39.5 -93q0 -56 -39 -95.5t-94 -39.5t-94 39.5t-39 95.5zM379 645h170q0 23 -0.5 37.5t-3 36.5t-8 36t-14.5 28t-24.5 21t-35.5 7t-35 -6.5t-24 -21t-14.5 -28t-7.5 -36.5t-2.5 -36t-0.5 -38z M504 1300q0 54 39 93t94 39q56 0 94.5 -38.5t38.5 -93.5q0 -56 -39 -95.5t-94 -39.5t-94 39.5t-39 95.5z" />
<glyph unicode="&#xec;" horiz-adv-x="493" d="M-61 1446h274l170 -295h-174zM84 0v1042h299v-1042h-299z" />
<glyph unicode="&#xed;" horiz-adv-x="493" d="M84 0v1042h299v-1042h-299zM90 1151l162 295h270l-262 -295h-170z" />
<glyph unicode="&#xee;" horiz-adv-x="493" d="M-80 1151l199 295h219l199 -295h-119l-189 145l-198 -145h-111zM84 0v1042h299v-1042h-299z" />
<glyph unicode="&#xef;" horiz-adv-x="493" d="M-76 1300q0 55 38.5 93.5t94.5 38.5q54 0 93.5 -39t39.5 -93q0 -56 -39 -95.5t-94 -39.5t-94 39.5t-39 95.5zM84 0v1042h299v-1042h-299zM268 1300q0 54 39 93t94 39q56 0 95 -38.5t39 -93.5q0 -56 -39.5 -95.5t-94.5 -39.5t-94 39.5t-39 95.5z" />
<glyph unicode="&#xf1;" d="M90 0v1042h307v-129q1 2 12 17t14.5 19.5t15.5 19t18 20.5t19.5 18.5t23 18.5t24.5 14.5t28.5 12.5t30.5 7t35 3q226 0 226 -320v-743h-301v627q0 31 -1.5 49.5t-7 38.5t-18.5 29.5t-33 9.5q-44 0 -65 -38t-21 -102v-614h-307zM178 1204q1 20 10.5 47.5t29 61.5t59.5 57 t92 23q45 0 117.5 -27t105.5 -27q20 0 35.5 14.5t21.5 39.5h90q-1 -29 -10 -59t-29 -62.5t-59 -53t-92 -20.5q-56 0 -122 26.5t-93 26.5q-40 0 -66 -47h-90z" />
<glyph unicode="&#xf2;" d="M72 412v245q0 69 25 139t71 130.5t120.5 98.5t164.5 38q89 0 159 -27.5t114 -71t73.5 -103t41 -118.5t11.5 -122v-211q0 -60 -12.5 -118t-42 -115.5t-73 -100.5t-111.5 -69.5t-152 -26.5q-79 0 -144.5 24.5t-110 66t-75.5 97.5t-45 117.5t-14 126.5zM184 1446h275 l170 -295h-174zM379 432q0 -38 2 -60.5t9 -51t25 -42.5t46 -14t46 14t25.5 41t10 52t2.5 61v176q0 36 -2.5 60.5t-10 52.5t-25.5 42.5t-46 14.5t-45.5 -14.5t-25 -42.5t-9.5 -52t-2 -61v-176z" />
<glyph unicode="&#xf3;" d="M72 412v245q0 69 25 139t71 130.5t120.5 98.5t164.5 38q89 0 159 -27.5t114 -71t73.5 -103t41 -118.5t11.5 -122v-211q0 -60 -12.5 -118t-42 -115.5t-73 -100.5t-111.5 -69.5t-152 -26.5q-79 0 -144.5 24.5t-110 66t-75.5 97.5t-45 117.5t-14 126.5zM346 1151l162 295 h270l-262 -295h-170zM379 432q0 -38 2 -60.5t9 -51t25 -42.5t46 -14t46 14t25.5 41t10 52t2.5 61v176q0 36 -2.5 60.5t-10 52.5t-25.5 42.5t-46 14.5t-45.5 -14.5t-25 -42.5t-9.5 -52t-2 -61v-176z" />
<glyph unicode="&#xf4;" d="M72 412v245q0 69 25 139t71 130.5t120.5 98.5t164.5 38q89 0 159 -27.5t114 -71t73.5 -103t41 -118.5t11.5 -122v-211q0 -60 -12.5 -118t-42 -115.5t-73 -100.5t-111.5 -69.5t-152 -26.5q-79 0 -144.5 24.5t-110 66t-75.5 97.5t-45 117.5t-14 126.5zM145 1151l199 295 h219l199 -295h-119l-188 145l-199 -145h-111zM379 432q0 -38 2 -60.5t9 -51t25 -42.5t46 -14t46 14t25.5 41t10 52t2.5 61v176q0 36 -2.5 60.5t-10 52.5t-25.5 42.5t-46 14.5t-45.5 -14.5t-25 -42.5t-9.5 -52t-2 -61v-176z" />
<glyph unicode="&#xf5;" d="M72 412v245q0 69 25 139t71 130.5t120.5 98.5t164.5 38q89 0 159 -27.5t114 -71t73.5 -103t41 -118.5t11.5 -122v-211q0 -60 -12.5 -118t-42 -115.5t-73 -100.5t-111.5 -69.5t-152 -26.5q-79 0 -144.5 24.5t-110 66t-75.5 97.5t-45 117.5t-14 126.5zM178 1204 q1 20 10.5 47.5t29 61.5t59.5 57t92 23q45 0 117.5 -27t105.5 -27q20 0 35.5 14.5t21.5 39.5h90q-1 -29 -10 -59t-29 -62.5t-59 -53t-92 -20.5q-56 0 -122 26.5t-93 26.5q-40 0 -66 -47h-90zM379 432q0 -38 2 -60.5t9 -51t25 -42.5t46 -14t46 14t25.5 41t10 52t2.5 61v176 q0 36 -2.5 60.5t-10 52.5t-25.5 42.5t-46 14.5t-45.5 -14.5t-25 -42.5t-9.5 -52t-2 -61v-176z" />
<glyph unicode="&#xf6;" d="M72 412v245q0 69 25 139t71 130.5t120.5 98.5t164.5 38q89 0 159 -27.5t114 -71t73.5 -103t41 -118.5t11.5 -122v-211q0 -60 -12.5 -118t-42 -115.5t-73 -100.5t-111.5 -69.5t-152 -26.5q-79 0 -144.5 24.5t-110 66t-75.5 97.5t-45 117.5t-14 126.5zM139 1300 q0 55 38.5 93.5t94.5 38.5q54 0 94 -39t40 -93q0 -56 -39.5 -95.5t-94.5 -39.5t-94 39.5t-39 95.5zM379 432q0 -38 2 -60.5t9 -51t25 -42.5t46 -14t46 14t25.5 41t10 52t2.5 61v176q0 36 -2.5 60.5t-10 52.5t-25.5 42.5t-46 14.5t-45.5 -14.5t-25 -42.5t-9.5 -52t-2 -61 v-176zM483 1300q0 54 39 93t94 39q56 0 95 -38.5t39 -93.5q0 -56 -39.5 -95.5t-94.5 -39.5t-94 39.5t-39 95.5z" />
<glyph unicode="&#xf7;" horiz-adv-x="1593" d="M61 598v219h1432v-219h-1432zM637 250q0 58 41.5 99.5t99.5 41.5t99 -41t41 -100t-41 -101.5t-99 -42.5t-99.5 42.5t-41.5 101.5zM643 1174q0 58 39.5 99.5t95.5 41.5q59 0 100.5 -41.5t41.5 -99.5t-42 -100t-100 -42q-56 0 -95.5 42t-39.5 100z" />
<glyph unicode="&#xf8;" d="M61 -20l86 135q-22 39 -36 74t-26.5 102.5t-12.5 150.5v193q0 77 22 150t66.5 136.5t122 102.5t178.5 39q63 0 124.5 -21.5t108.5 -60.5l51 82h113l-92 -145q86 -94 86 -283v-209q0 -64 -11 -124t-39.5 -119.5t-71.5 -103.5t-112.5 -71.5t-156.5 -27.5q-136 0 -244 65 l-43 -65h-113zM358 461l187 246q-18 44 -36.5 60.5t-55.5 16.5q-90 0 -95 -157v-166zM383 317q15 -63 70 -63q38 0 64.5 37t29.5 94v164z" />
<glyph unicode="&#xf9;" d="M86 274v768h303v-577q0 -50 1 -73.5t6 -52.5t16.5 -40.5t31.5 -11.5q21 0 36.5 7.5t24.5 23t15 31.5t8.5 41t3 42.5t0.5 44.5v565h308v-1042h-308v141q-85 -161 -233 -161q-100 0 -156.5 83t-56.5 211zM195 1446h274l170 -295h-174z" />
<glyph unicode="&#xfa;" d="M86 274v768h303v-577q0 -50 1 -73.5t6 -52.5t16.5 -40.5t31.5 -11.5q21 0 36.5 7.5t24.5 23t15 31.5t8.5 41t3 42.5t0.5 44.5v565h308v-1042h-308v141q-85 -161 -233 -161q-100 0 -156.5 83t-56.5 211zM336 1151l162 295h270l-262 -295h-170z" />
<glyph unicode="&#xfb;" d="M86 274v768h303v-577q0 -50 1 -73.5t6 -52.5t16.5 -40.5t31.5 -11.5q21 0 36.5 7.5t24.5 23t15 31.5t8.5 41t3 42.5t0.5 44.5v565h308v-1042h-308v141q-85 -161 -233 -161q-100 0 -156.5 83t-56.5 211zM145 1151l199 295h219l199 -295h-119l-188 145l-199 -145h-111z" />
<glyph unicode="&#xfc;" d="M86 274v768h303v-577q0 -50 1 -73.5t6 -52.5t16.5 -40.5t31.5 -11.5q21 0 36.5 7.5t24.5 23t15 31.5t8.5 41t3 42.5t0.5 44.5v565h308v-1042h-308v141q-85 -161 -233 -161q-100 0 -156.5 83t-56.5 211zM150 1300q0 55 38.5 93.5t94.5 38.5q54 0 93.5 -39t39.5 -93 q0 -56 -39 -95.5t-94 -39.5t-94 39.5t-39 95.5zM494 1300q0 54 39 93t94 39q56 0 94.5 -38.5t38.5 -93.5q0 -56 -39 -95.5t-94 -39.5t-94 39.5t-39 95.5z" />
<glyph unicode="&#xff;" horiz-adv-x="833" d="M31 -76h67q83 0 115.5 33.5t32.5 124.5q0 26 -4.5 52t-14.5 65.5t-12 50.5l-180 792h293l73 -407l80 407h291l-258 -1097q-12 -52 -20.5 -83.5t-20.5 -66.5t-23.5 -53.5t-30 -39t-39 -29.5t-50 -17.5t-65 -11t-83.5 -2.5h-151v282zM104 1300q0 55 39 93.5t95 38.5 q54 0 93.5 -39t39.5 -93q0 -56 -39 -95.5t-94 -39.5t-94.5 39.5t-39.5 95.5zM449 1300q0 54 39 93t94 39q56 0 94.5 -38.5t38.5 -93.5q0 -56 -39 -95.5t-94 -39.5t-94 39.5t-39 95.5z" />
<glyph unicode="&#x152;" horiz-adv-x="1517" d="M86 537v426q0 81 11 154.5t40.5 149t76 130t122.5 89t174 34.5q60 0 174 -21.5t219 -21.5h467v-308h-403v-241h331v-326h-331v-272h424v-330h-412q-43 0 -198 -22.5t-246 -22.5q-106 0 -186.5 34t-129.5 88.5t-79.5 132.5t-42 156.5t-11.5 170.5zM451 444q0 -153 84 -153 q83 0 83 153v590q0 178 -83 178q-84 0 -84 -182v-586z" />
<glyph unicode="&#x153;" horiz-adv-x="1517" d="M104 434v174q0 63 12 124t41 122t72.5 106.5t112 74t154.5 28.5q80 0 129 -19.5t110 -66.5q29 22 50 36t74.5 32t111.5 18q175 0 283 -123t108 -317v-195h-475q0 -30 0.5 -43.5t2.5 -42.5t8.5 -43.5t16.5 -32t28 -25.5t42 -8q14 0 26 3.5t20 8.5t14.5 14.5t10.5 15.5 t7.5 19t4.5 17.5t3 18t2 14.5h289q0 -68 -22.5 -131t-66.5 -116t-118.5 -85t-169.5 -32q-67 0 -121 19.5t-121 70.5q-100 -90 -247 -90q-87 0 -156 28t-112.5 73t-72 106t-40 121.5t-11.5 125.5zM412 434q0 -37 2 -61t9.5 -52t26 -42.5t46.5 -14.5t45.5 14t25 42t9.5 52 t2 62v174q0 37 -2 60.5t-9.5 51.5t-25 42t-45.5 14t-46.5 -14t-26 -42t-9.5 -51.5t-2 -60.5v-174zM887 651h168q0 27 -0.5 40t-4.5 41t-12 43t-25 27.5t-42 12.5q-39 0 -61.5 -28t-22.5 -72v-64z" />
<glyph unicode="&#x178;" d="M27 1477h348l84 -390l92 390h336l-254 -883v-594h-359v594zM150 1757q0 55 38.5 93t94.5 38q54 0 93.5 -38.5t39.5 -92.5q0 -56 -39 -95.5t-94 -39.5t-94 39.5t-39 95.5zM494 1757q0 54 39 92.5t94 38.5q56 0 94.5 -38t38.5 -93q0 -56 -39 -95.5t-94 -39.5t-94 39.5 t-39 95.5z" />
<glyph unicode="&#x2c6;" horiz-adv-x="518" d="M-100 1151l198 295h219l199 -295h-119l-188 145l-199 -145h-110z" />
<glyph unicode="&#x2dc;" horiz-adv-x="497" d="M-68 1204q1 20 10.5 47.5t29 61.5t59.5 57t92 23q45 0 117.5 -27t105.5 -27q20 0 35.5 14.5t21.5 39.5h91q-1 -22 -6 -46t-19 -51t-34.5 -48.5t-54.5 -35.5t-77 -14q-56 0 -122 26.5t-93 26.5q-39 0 -65 -47h-91z" />
<glyph unicode="&#x2000;" horiz-adv-x="986" />
<glyph unicode="&#x2001;" horiz-adv-x="1972" />
<glyph unicode="&#x2002;" horiz-adv-x="986" />
<glyph unicode="&#x2003;" horiz-adv-x="1972" />
<glyph unicode="&#x2004;" horiz-adv-x="657" />
<glyph unicode="&#x2005;" horiz-adv-x="493" />
<glyph unicode="&#x2006;" horiz-adv-x="328" />
<glyph unicode="&#x2007;" horiz-adv-x="328" />
<glyph unicode="&#x2008;" horiz-adv-x="246" />
<glyph unicode="&#x2009;" horiz-adv-x="394" />
<glyph unicode="&#x200a;" horiz-adv-x="109" />
<glyph unicode="&#x2010;" horiz-adv-x="493" d="M25 369v284h413v-284h-413z" />
<glyph unicode="&#x2011;" horiz-adv-x="493" d="M25 369v284h413v-284h-413z" />
<glyph unicode="&#x2012;" horiz-adv-x="493" d="M25 369v284h413v-284h-413z" />
<glyph unicode="&#x2013;" horiz-adv-x="985" d="M35 442v142h880v-142h-880z" />
<glyph unicode="&#x2014;" horiz-adv-x="1593" d="M47 442v142h1471v-142h-1471z" />
<glyph unicode="&#x2018;" horiz-adv-x="493" d="M61 733v416l201 328h162l-164 -328h123v-416h-322z" />
<glyph unicode="&#x2019;" horiz-adv-x="493" d="M41 733l164 326h-123v418h321v-418l-200 -326h-162z" />
<glyph unicode="&#x201a;" horiz-adv-x="493" d="M41 -326l164 326h-123v418h321v-418l-200 -326h-162z" />
<glyph unicode="&#x201c;" horiz-adv-x="909" d="M61 733v416l201 328h162l-164 -328h123v-416h-322zM477 733v416l199 328h162l-162 -328h123v-416h-322z" />
<glyph unicode="&#x201d;" horiz-adv-x="909" d="M43 733l164 326h-123v418h322v-418l-199 -326h-164zM459 733l164 326h-123v418h321v-418l-200 -326h-162z" />
<glyph unicode="&#x201e;" horiz-adv-x="909" d="M41 -328l164 328h-123v424h321v-424l-200 -328h-162zM455 -328l163 328h-122v424h321v-424l-201 -328h-161z" />
<glyph unicode="&#x2022;" horiz-adv-x="1024" d="M156 758q3 152 113 258t263 106q156 0 261.5 -110.5t105.5 -268.5q0 -102 -50.5 -188t-136 -134.5t-184.5 -45.5q-156 6 -265.5 117.5t-106.5 265.5z" />
<glyph unicode="&#x2026;" horiz-adv-x="1593" d="M109 145q0 58 42 100t101 42q60 0 101.5 -43t41.5 -103t-42.5 -100.5t-102.5 -40.5t-100.5 42.5t-40.5 102.5zM635 141q0 59 42 102.5t101 43.5q60 0 103 -43t43 -103t-43 -100.5t-103 -40.5q-59 0 -101 41.5t-42 99.5zM1165 141q0 60 42 103t102 43q58 0 100.5 -43.5 t42.5 -102.5t-41 -100t-100 -41q-60 0 -103 40.5t-43 100.5z" />
<glyph unicode="&#x202f;" horiz-adv-x="394" />
<glyph unicode="&#x2039;" horiz-adv-x="720" d="M96 506l271 452h241l-276 -452l268 -449h-242z" />
<glyph unicode="&#x203a;" horiz-adv-x="720" d="M96 958h240l272 -452l-262 -449h-242l269 449z" />
<glyph unicode="&#x205f;" horiz-adv-x="493" />
<glyph unicode="&#x2122;" horiz-adv-x="1249" d="M113 1399v78h389v-78h-152v-522h-84v522h-153zM565 877v600h170l101 -510h14l86 510h164v-598h-76v546h-25l-108 -546h-105l-112 542h-29v-544h-80z" />
<glyph unicode="&#x25fc;" horiz-adv-x="1044" d="M0 0v1044h1044v-1044h-1044z" />
</font>
</defs>
</svg>
