<?xml version="1.0" standalone="no"?>
<!DOCTYPE svg PUBLIC "-//W3C//DTD SVG 1.1//EN" "http://www.w3.org/Graphics/SVG/1.1/DTD/svg11.dtd" >
<svg xmlns="http://www.w3.org/2000/svg" xmlns:xlink="http://www.w3.org/1999/xlink" version="1.1">
<metadata></metadata>
<defs>
<font id="supermario64textregular" horiz-adv-x="471" >
<font-face units-per-em="1000" ascent="800" descent="-200" />
<missing-glyph horiz-adv-x="230" />
<glyph horiz-adv-x="0" />
<glyph horiz-adv-x="0" />
<glyph horiz-adv-x="333" />
<glyph unicode="&#xa;" horiz-adv-x="0" />
<glyph unicode="&#xd;" horiz-adv-x="0" />
<glyph unicode=" "  horiz-adv-x="230" />
<glyph unicode="&#x09;" horiz-adv-x="230" />
<glyph unicode="&#xa0;" horiz-adv-x="230" />
<glyph unicode="!" horiz-adv-x="344" d="M162 162q16 -13 25.5 -34.5t9.5 -45.5q0 -38 -23.5 -65t-55.5 -27q-31 0 -54 24q-27 29 -25 70q2 31 23 57t49 33q28 6 51 -12zM118 47q5 0 10 4.5t8.5 12.5t3.5 18q0 6 -1.5 12t-3 10t-4 7.5t-4.5 5t-3 2.5q-10 -3 -18.5 -14.5t-9.5 -23.5q-1 -17 9 -28q6 -6 13 -6z M298 769q10 -10 13.5 -26t1 -47.5t-19 -87t-47.5 -134.5q-46 -120 -97 -227q-8 -16 -26 -16q-2 0 -5 1q-10 2 -16.5 9.5t-6.5 16.5q-1 18 -1 40.5t1.5 70t5.5 91t14 96.5t24.5 94.5t38.5 76t55 48.5q41 18 65 -6zM153 396q49 115 79 206.5t26 121.5l-1 -1q-31 -14 -54 -67 t-34 -118t-16 -142z" />
<glyph unicode="&#x22;" horiz-adv-x="505" d="M187 684q14 -21 23.5 -54t13 -67.5t4.5 -52.5t1 -31q0 -12 -8 -20t-20 -8t-20.5 8t-8.5 20q0 38 -5 81q-15 -8 -33 -8q-16 0 -32 6q-31 14 -49.5 46t-14.5 66q4 39 34 56h1v1l2 1q28 14 60 1.5t52 -45.5zM146 623q2 14 -7 30q-21 30 -39 24q-5 -3 -6 -13q-2 -15 7.5 -31 t23.5 -23q9 -4 14.5 -0.5t6.5 13.5zM421 684q19 -27 29.5 -78.5t12 -78.5t1.5 -48q0 -12 -8.5 -20t-20.5 -8t-20 8t-8 20q0 38 -6 81q-15 -9 -33 -9q-23 0 -45 14t-36 39q-19 32 -15 66q4 39 35 56v1q2 0 4 1q29 14 62 0q30 -13 48 -44zM381 623q1 14 -7 30q-21 30 -39 24 q-5 -3 -7 -13q-1 -15 8 -31q8 -15 20 -21t18 -2q6 3 7 13z" />
<glyph unicode="&#x201c;" horiz-adv-x="505" d="M187 684q14 -21 23.5 -54t13 -67.5t4.5 -52.5t1 -31q0 -12 -8 -20t-20 -8t-20.5 8t-8.5 20q0 38 -5 81q-15 -8 -33 -8q-16 0 -32 6q-31 14 -49.5 46t-14.5 66q4 39 34 56h1v1l2 1q28 14 60 1.5t52 -45.5zM146 623q2 14 -7 30q-21 30 -39 24q-5 -3 -6 -13q-2 -15 7.5 -31 t23.5 -23q9 -4 14.5 -0.5t6.5 13.5zM421 684q19 -27 29.5 -78.5t12 -78.5t1.5 -48q0 -12 -8.5 -20t-20.5 -8t-20 8t-8 20q0 38 -6 81q-15 -9 -33 -9q-23 0 -45 14t-36 39q-19 32 -15 66q4 39 35 56v1q2 0 4 1q29 14 62 0q30 -13 48 -44zM381 623q1 14 -7 30q-21 30 -39 24 q-5 -3 -7 -13q-1 -15 8 -31q8 -15 20 -21t18 -2q6 3 7 13z" />
<glyph unicode="#" horiz-adv-x="575" d="M507 339q12 1 20.5 -7t9.5 -19.5t-7 -20.5t-20 -10q-50 -2 -115 -2h-18q-13 -113 -17 -203q-1 -11 -9 -19t-19 -8h-2q-11 1 -19 9.5t-8 20.5q5 89 17 200q-60 2 -128 5q-13 -103 -16 -182q-1 -12 -9 -20t-20 -8q0 1 -1 1q-11 0 -19 8.5t-8 20.5q3 82 16 183q-40 2 -69 4 q-11 1 -19 10t-7 21t10 19.5t21 6.5q23 -2 72 -5q11 66 24 122q-60 3 -101 7q-11 0 -19 9t-7 21t10 19.5t20 6.5q60 -4 112 -7q28 93 65 147q6 10 17.5 12t21.5 -4.5t12 -18t-4 -21.5q-30 -43 -53 -117q62 -3 117 -3q21 92 47 141q5 10 16 13.5t21.5 -2t14 -17t-1.5 -21.5 q-21 -40 -39 -114q51 0 91 2q12 1 20.5 -7t9.5 -19.5t-7 -20.5t-20 -9q-46 -3 -107 -3q-10 -56 -19 -124q71 0 123 3zM201 342q67 -4 126 -5q8 67 19 123q-57 1 -121 4q-14 -56 -24 -122z" />
<glyph unicode="$" horiz-adv-x="545" d="M505 644q8 -9 7.5 -20.5t-9.5 -19.5t-20.5 -7.5t-19.5 9.5q-24 27 -62 43q-31 -132 -51 -255q47 -37 63.5 -84t4.5 -91q-4 -13 -10 -25.5t-14.5 -24t-19 -21.5t-24 -18.5t-28.5 -14.5q-1 -18 -1 -34q0 -12 -8 -20t-20 -8t-20 8t-8 20v21q-9 -1 -17 -1q-13 0 -31 2v-25 q0 -5 -2 -10.5t-6 -9.5t-9.5 -6t-10.5 -2q-8 0 -14.5 4t-10.5 10.5t-4 14.5q0 15 1 36q-22 6 -41 15t-39 24t-32 37t-13 49q0 12 8 20.5t20 8.5t20 -8t9 -20q1 -43 71 -68q7 111 28 242q-76 50 -77 118q0 52 40 95t95 69q11 42 18 69q3 11 13.5 17t22 3t17 -13.5t2.5 -21.5 q-5 -17 -9 -35q22 3 45 1q8 32 14 52q3 11 13 16.5t21.5 2.5t17 -13t2.5 -22q-4 -15 -13 -49q56 -21 91 -60zM172 534q0 -29 31 -56q13 71 30 144q-61 -43 -61 -88zM220 160q25 -4 47 -1q5 96 22 208q-14 7 -29 13q-7 3 -15 7q-19 -124 -25 -227zM363 234q14 47 -23 91 q-10 -76 -15 -144q29 21 38 53zM298 426q19 115 47 235q-23 1 -46 -6q-25 -106 -44 -210q13 -7 26 -12q6 -2 17 -7z" />
<glyph unicode="%" horiz-adv-x="508" d="M480.5 642.5q8.5 -8.5 8.5 -20t-9 -19.5q-48 -49 -108 -132.5t-107 -159.5t-94.5 -160.5t-65.5 -119t-26 -50.5t-26 -16q-6 0 -12 3q-11 5 -14.5 16.5t1.5 21.5q17 34 46 87.5t93 165t137.5 217t135.5 167.5q8 8 20 8t20.5 -8.5zM296 177q27 28 60 32.5t53 -16.5 q23 -23 15 -59q-6 -30 -31 -55q-32 -32 -71 -32q-26 0 -42 16q-23 23 -15 60q6 30 31 54zM353 120q6 5 9.5 11t5 10t2 8t-0.5 4q-1 1 -2 1q-15 0 -31 -17q-7 -7 -11.5 -14.5t-5 -12t0.5 -7.5q2 -1 6.5 0t12 5.5t14.5 11.5zM143 440q-26 0 -43 17q-21 21 -15.5 55.5 t34.5 63.5t63.5 34.5t55.5 -15.5q24 -24 14 -62q-7 -31 -33 -57t-57 -33q-10 -3 -19 -3zM159 536q-11 -11 -15.5 -22.5t-3.5 -16.5q3 0 8.5 1t14 6t16.5 12q11 11 15.5 22.5t3.5 16.5q-5 1 -16.5 -3.5t-22.5 -15.5z" />
<glyph unicode="&#x26;" horiz-adv-x="567" d="M523 54q11 -5 15 -16t-1 -22q-7 -16 -25 -16q-7 0 -12 2q-61 28 -129 74q-82 -76 -169 -76q-58 0 -101.5 30t-57.5 81q-14 49 5 96.5t65 75.5l7 4q34 22 49 31q-9 35 -6 70q8 122 80 151q27 11 57 4.5t52 -27.5q39 -36 26 -78q-11 -36 -46 -70t-94 -73q34 -72 126 -144 q39 47 56 93h-48q-12 0 -20 8.5t-8 20t8 20t20 8.5h83q12 0 20.5 -8.5t8.5 -19.5q0 -28 -20 -71t-53 -84q61 -40 112 -64zM219 384q-1 -16 1 -33q91 63 104 104q2 8 -10 19q-16 15 -35 15q-8 0 -15 -3q-39 -15 -45 -102zM202 56q62 0 123 54q-95 75 -135 154q-13 -8 -41 -25 l-6 -4q-30 -18 -42.5 -48t-3.5 -61q8 -29 34.5 -49.5t70.5 -20.5z" />
<glyph unicode="'" horiz-adv-x="319" d="M277 644q13 -31 -3 -63t-53 -49q-23 -10 -47 -10q-11 0 -22 2q-22 5 -37 19q-21 -47 -21 -65q0 -12 -8.5 -20t-20.5 -8t-20 8.5t-8 20.5q0 24 21 75.5t50 87.5q17 24 46 37l10 4q3 1 8 3h1q14 4 27 4q26 0 46.5 -11.5t29.5 -32.5q1 0 1 -1v-1zM197 584q15 7 23 18t5 19 q-9 12 -24 12q-12 0 -23 -6q-11 -4 -22 -17q-3 -3 -3 -4q-6 -10 -2.5 -17t14.5 -9q15 -4 32 4z" />
<glyph unicode="&#x2018;" horiz-adv-x="319" d="M277 644q13 -31 -3 -63t-53 -49q-23 -10 -47 -10q-11 0 -22 2q-22 5 -37 19q-21 -47 -21 -65q0 -12 -8.5 -20t-20.5 -8t-20 8.5t-8 20.5q0 24 21 75.5t50 87.5q17 24 46 37l10 4q3 1 8 3h1q14 4 27 4q26 0 46.5 -11.5t29.5 -32.5q1 0 1 -1v-1zM197 584q15 7 23 18t5 19 q-9 12 -24 12q-12 0 -23 -6q-11 -4 -22 -17q-3 -3 -3 -4q-6 -10 -2.5 -17t14.5 -9q15 -4 32 4z" />
<glyph unicode="(" horiz-adv-x="349" d="M276 56q11 -2 18 -12t4 -21q-1 -10 -9 -16.5t-18 -6.5h-5q-5 1 -13 3.5t-27 12.5t-37.5 25t-41.5 44.5t-41 67t-33.5 95.5t-22.5 128q-8 70 -0.5 130t24 100t40.5 72.5t45.5 50t45 30.5t33 16t13.5 4q8 2 15 0t12.5 -7.5t7.5 -13.5q2 -11 -4 -21t-17 -13 q-10 -2 -23.5 -7.5t-44 -30t-51.5 -58.5t-34.5 -99.5t-5.5 -147.5q5 -47 14 -88t19.5 -71t23.5 -55.5t25.5 -42t26 -29.5t23.5 -20t19.5 -11.5t13 -6t5.5 -1.5z" />
<glyph unicode=")" horiz-adv-x="349" d="M98 779q4 -1 13.5 -4t33 -16t45 -30.5t45.5 -50t40.5 -72.5t24 -100t0.5 -130q-8 -70 -23.5 -128t-33.5 -95.5t-41 -67t-41 -44.5t-37.5 -25t-27.5 -12.5t-13 -3.5h-5q-10 0 -18 6.5t-10 16.5q-1 6 0.5 11.5t4.5 10t8 7.5t11 4q2 1 7.5 2.5t20.5 10.5t29.5 22.5t32.5 39 t32.5 58t27.5 82.5t19 110q8 82 -5 147.5t-34.5 99.5t-52 58.5t-44 30t-23.5 7.5q-11 3 -17 13t-3 22q1 7 6.5 12.5t12.5 7.5t15 0z" />
<glyph unicode="*" horiz-adv-x="395" d="M339 486q11 -5 14.5 -16t-1.5 -22q-8 -15 -26 -15q-7 0 -13 3q-32 16 -82 18q41 -56 95 -104q8 -8 8.5 -20t-7.5 -20q-8 -10 -21 -10q-11 0 -19 8q-59 54 -104 115q-27 -51 -36 -100q-2 -10 -10 -16.5t-18 -6.5h-5q-12 2 -18.5 12t-4.5 21q11 57 40 113q-34 -5 -57 -12 q-11 -3 -21.5 2.5t-13.5 16.5t2.5 21.5t16.5 13.5q32 10 74 16q-32 62 -41 105q-2 12 4.5 22t18 12t21 -4.5t12.5 -17.5q8 -37 37 -92q51 67 105 109q9 7 21 5.5t19 -10.5t5.5 -20.5t-10.5 -19.5q-39 -30 -82 -83q58 -3 97 -24z" />
<glyph unicode="+" horiz-adv-x="412" d="M361 327q11 -5 15.5 -16t-0.5 -22q-7 -17 -26 -17q-6 0 -11 3q-32 13 -113 12q2 -69 16 -133q1 -8 -1 -15t-8 -12t-13 -7h-6q-10 0 -18 6t-10 16q-14 69 -16 142q-57 -4 -104 -11q-12 -2 -21.5 5t-11.5 18q0 5 0.5 9.5t2.5 8.5t5 7t7.5 5t8.5 3q54 8 113 12q3 80 16 133 q3 12 13 18t21.5 3t17.5 -13t4 -21q-12 -45 -15 -118q93 2 134 -16z" />
<glyph unicode="," horiz-adv-x="335" d="M276 66q-3 -10 -9 -20q-39 -71 -172 -143q-6 -3 -14 -3q-17 0 -25 15q-5 10 -1.5 21.5t13.5 16.5q47 26 81 51q-24 8 -40 26q-28 30 -25 69q2 34 29.5 62t64.5 34q36 7 66 -18q36 -29 37 -76q2 -14 -4 -32v-2zM141 95q-1 -14 9 -26q13 -14 33 -14q22 0 35 18v1.5v0.5 q3 5 4 9q3 7 3 13q0 23 -17 36q-8 7 -16 7h-4q-19 -4 -32.5 -17.5t-14.5 -27.5z" />
<glyph unicode="-" horiz-adv-x="469" d="M415 306q12 -3 18 -13t3 -21q-2 -10 -10 -16t-17 -6q-4 0 -7 1q-30 7 -77 9.5t-86.5 1.5t-86.5 -4t-61.5 -4.5t-26.5 -3.5q-12 -1 -21 6.5t-10.5 19t5.5 20.5t19 11q17 2 46.5 4.5t90 6t121 1t100.5 -12.5z" />
<glyph unicode="." horiz-adv-x="304" d="M152 0q-44 0 -74 32q-28 30 -25 69q3 34 30 61.5t64 34.5q36 7 67 -18q37 -31 37 -80q0 -41 -29 -70t-70 -29zM161 142q-2 0 -4 -1q-18 -3 -32 -17t-15 -27q-1 -15 9 -26q14 -14 33 -14q17 0 29.5 12t12.5 30q0 22 -17 36q-8 7 -16 7z" />
<glyph unicode="/" horiz-adv-x="328" d="M265 684.5q10 -6.5 12 -18t-4 -21.5q-36 -52 -68 -140t-52 -167t-37 -168t-22 -123t-7 -53q-2 -10 -10 -17t-19 -7h-3q-12 1 -19 10.5t-6 21.5q3 23 8.5 59.5t23 127.5t38 171t54.5 170.5t72 146.5q6 10 17.5 12t21.5 -4.5z" />
<glyph unicode="0" horiz-adv-x="514" d="M454 609q2 -11 4 -26.5t5.5 -54t4 -76t-3 -87.5t-12.5 -94.5t-27.5 -91t-45 -82.5t-68 -64.5t-93.5 -40.5q-25 -5 -47 -5q-61 0 -95 42q-32 41 -33.5 116.5t20.5 155t59 155.5q10 22 22.5 45t36 57.5t47.5 60t55.5 45t62.5 19.5q20 1 41.5 -4t42 -23t24.5 -47zM205 48 q56 13 97.5 51t62.5 85t32 107t12.5 109t-1.5 100t-5.5 70.5t-4.5 29.5v1q-4 25 -46 25h-3h-2q-36 0 -84 -53.5t-90 -140.5q-56 -116 -71 -221t19 -146q24 -31 84 -17z" />
<glyph unicode="1" horiz-adv-x="396" d="M236 56h92q12 0 20.5 -8t8.5 -20t-8.5 -20t-20.5 -8h-250q-11 0 -19.5 8t-8.5 20t8.5 20t19.5 8h100q46 350 89 524l-61 -44q-9 -7 -20.5 -5.5t-18.5 11t-5 21.5t11 19l129 93q17 13 34 -0.5t9 -32.5q-47 -117 -109 -586z" />
<glyph unicode="2" horiz-adv-x="506" d="M463.5 106.5q6.5 -9.5 4.5 -21t-12 -18.5q-99 -67 -342 -67h-47q-20 1 -26 21q-1 5 -2.5 12t-1.5 26.5t4 40t16 49.5t31.5 56.5t54.5 60.5t82 63q86 54 121 116t27 113q-2 12 -6.5 22.5t-11 18.5t-15.5 13.5t-19 8.5q-23 5 -50.5 -9.5t-51.5 -41t-41.5 -50t-28.5 -42.5 q-6 -10 -17.5 -13.5t-21.5 2.5t-13 17.5t2 21.5q8 13 18 29t35.5 47t51 53t61.5 35.5t70 5.5q37 -9 62 -38t32 -71q7 -41 -5.5 -87t-55.5 -100.5t-113 -98.5q-51 -33 -86 -68t-50 -65.5t-20.5 -51.5t-4.5 -39q48 -1 98 1t122.5 16t109.5 40q10 6 21.5 4t18 -11.5z" />
<glyph unicode="3" horiz-adv-x="477" d="M425 501q-14 -74 -119 -124q35 -13 60 -34q53 -44 58 -121q4 -64 -29.5 -117.5t-96.5 -82.5q-49 -22 -100 -22q-94 0 -160 66q-8 8 -8 20t8.5 20t20 8t19.5 -8q29 -29 66.5 -40.5t69.5 -8t61 16.5q41 19 68.5 56t24.5 88q-4 53 -38 81q-15 13 -36 21.5t-39.5 11.5 t-36.5 3.5t-26 0t-11 -0.5q-11 -1 -20 5.5t-11 18t4.5 21t17.5 11.5q22 4 50 13.5t61 24.5t57.5 37t28.5 46q12 62 -11 86q-24 25 -90 15q-24 -3 -46.5 -18.5t-36 -32.5t-25 -38t-14.5 -29.5t-5 -13.5q-3 -11 -13.5 -16.5t-22 -2t-17 14t-1.5 21.5q2 8 6.5 19.5t19.5 38 t33 48t49 41t65 24.5q95 14 139 -32q43 -45 26 -136z" />
<glyph unicode="4" horiz-adv-x="535" d="M460 236q11 1 20.5 -6t11.5 -18.5t-5 -21t-19 -11.5q-52 -8 -190 -9q-28 -90 -42 -148q-1 -7 -5.5 -11.5t-10 -7.5t-11.5 -3q-4 0 -7 1q-12 3 -18 13t-3 21q15 59 38 135q-87 0 -157 2q-14 1 -22 11t-5 23q16 83 45 151.5t65 115.5t69.5 77.5t70.5 52.5q43 26 91 41 t65.5 17t28.5 2h1q19 0 26 -18t-7 -31q-93 -85 -193 -387q118 2 163 9zM237 227q80 246 162 366q-25 -8 -49.5 -19.5t-54.5 -30.5t-57.5 -47.5t-54 -65.5t-48.5 -88.5t-37 -113.5q73 -1 139 -1z" />
<glyph unicode="5" horiz-adv-x="532" d="M470 670q12 0 20.5 -8t8.5 -20t-8.5 -20t-20.5 -8h-234l-107 -264q34 12 66.5 18.5t71.5 9.5t74.5 -8t60.5 -36q40 -40 49.5 -99t-15.5 -114q-26 -58 -82.5 -89.5t-133.5 -31.5q-12 0 -25 1q-89 5 -147 62q-8 9 -8 20.5t8.5 20t20 8.5t19.5 -8q43 -43 111 -47t116.5 19 t69.5 69q17 38 10.5 80t-33.5 69q-22 21 -60 26t-79.5 -3.5t-74.5 -19.5t-58 -23q-17 -9 -31.5 4.5t-6.5 31.5l139 343q7 17 26 17h253z" />
<glyph unicode="6" horiz-adv-x="513" d="M344 615q-57 7 -126 -60q-81 -79 -108 -214q15 16 33 31q43 36 92 48t96 -3q44 -14 76 -50t45 -87q11 -31 1.5 -86.5t-40.5 -98.5q-59 -84 -171 -94q-9 -1 -18 -1q-50 0 -89 27t-63 77q-12 27 -19 59v1q-1 2 -1 6q-21 104 12 225t115 201q88 86 172 76q21 -3 40.5 -11.5 t31.5 -18t23 -20.5t14.5 -16t5.5 -8q6 -10 3.5 -21.5t-12.5 -18t-21.5 -3.5t-17.5 13q-3 4 -9 11.5t-25.5 20.5t-39.5 15zM179 328q-26 -22 -43 -46.5t-22 -42.5t-7.5 -34.5t0.5 -21.5q6 -31 17 -55q36 -78 113 -71q86 8 130 70q16 24 25 53t8.5 49.5t-3.5 36.5 q-9 36 -31 61.5t-53 35.5q-67 21 -134 -35z" />
<glyph unicode="7" horiz-adv-x="509" d="M458 632.5q3 -13.5 -5 -24.5q-131 -166 -243 -341t-112 -238q0 -12 -8.5 -20.5t-20 -8.5t-20 8.5t-8.5 20.5q0 35 28.5 99t67.5 128t91.5 140.5t87.5 124.5t69 92q-41 15 -79 17.5t-65.5 -3.5t-52.5 -19t-40.5 -25.5t-29 -28t-17.5 -22.5t-7 -11q-5 -11 -16.5 -14 t-21.5 2.5t-13.5 16.5t1.5 22q3 4 8.5 13t24 29.5t40 38t56 34t72.5 23t90 -1.5t107 -33q13 -5 16 -18.5z" />
<glyph unicode="8" horiz-adv-x="497" d="M450 556q-27 -106 -140 -157q-14 -7 -27 -14q37 -28 59.5 -46.5t49.5 -50t39 -62.5q23 -59 -6.5 -112.5t-102.5 -85.5q-63 -28 -128 -28q-48 0 -85 17t-54 51q-31 64 -2 144q34 95 133 175q-67 56 -69 108q-2 54 61 108q111 95 193 79q42 -8 65 -45q24 -37 14 -81z M378 205q-10 25 -34.5 52.5t-44 43.5t-57.5 43q-2 1 -5 3.5t-5 4.5q-44 -34 -77.5 -76t-48.5 -83q-21 -58 0 -100q15 -32 74 -36t119 23q8 3 16.5 7.5t21.5 13.5t21.5 18.5t17.5 23.5t8 28.5t-6 33.5zM234 422q26 16 52 28q89 40 109 120q4 20 -6 37q-11 16 -28 19 q-7 1 -14 1q-53 0 -132 -67q-42 -36 -41 -63q1 -29 60 -75z" />
<glyph unicode="9" horiz-adv-x="513" d="M461 502q21 -104 -12 -225t-115 -201q-78 -76 -154 -76q-9 0 -18 1q-21 2 -40 11t-31.5 18t-23.5 20.5t-14.5 16t-5.5 8.5q-6 10 -3.5 21.5t12.5 17.5t21.5 3.5t17.5 -12.5q3 -5 9.5 -12.5t25.5 -20.5t39 -15q57 -6 126 60q81 79 108 215q-15 -17 -32 -31 q-44 -37 -93 -48.5t-95 3.5q-45 14 -77 49.5t-45 86.5q-11 31 -1.5 86.5t40.5 99.5q59 83 171 94q23 2 43.5 -1.5t39 -11.5t34.5 -21t29.5 -30.5t23.5 -39.5q12 -27 19 -59v-1q1 -2 1 -6zM334 344q27 22 44 47t21.5 43t7 34t-0.5 22q-6 30 -17 54q-32 72 -100 72 q-6 0 -13 -1q-86 -8 -129 -70q-17 -23 -26 -52t-8.5 -49.5t3.5 -36.5q9 -37 31 -62.5t53 -34.5q67 -22 134 34z" />
<glyph unicode=":" horiz-adv-x="286" d="M205 229q37 -31 37 -80q0 -41 -29 -70t-70 -29q-44 0 -74 32q-28 30 -25 69q3 34 30 61.5t64 34.5t67 -18zM143 107q17 0 29.5 12t12.5 30q0 22 -17 36q-8 7 -16 7q-2 0 -4 -1q-18 -3 -32 -17t-15 -27q-1 -15 9 -26q14 -14 33 -14zM143 379q-44 0 -74 32q-28 29 -25 69 q3 33 30 61t64 35t67 -19q37 -30 37 -80q0 -40 -29 -69t-70 -29zM101 475q-1 -14 9 -25q14 -15 33 -15q17 0 29.5 12.5t12.5 29.5q0 23 -17 37q-8 6 -16 6h-4q-18 -3 -32 -17t-15 -28z" />
<glyph unicode=";" horiz-adv-x="335" d="M276 116q-3 -10 -9 -20q-39 -71 -172 -143q-6 -3 -14 -3q-17 0 -25 15q-5 10 -1.5 21.5t13.5 16.5q47 26 81 51q-24 8 -40 26q-28 30 -25 69q2 34 29.5 62t64.5 34q36 7 66 -18q36 -29 37 -76q2 -14 -4 -32q0 -1 -0.5 -2zM141 145q-1 -14 9 -26q13 -14 33 -14q22 0 35 18 v1v1q3 5 4 9q3 7 3 13q0 23 -17 36q-8 7 -16 7h-4q-19 -4 -32.5 -17.5t-14.5 -27.5zM183 377q-44 0 -74 32q-28 30 -25 69q2 33 29.5 61t64.5 35q36 7 66 -18q38 -31 38 -80q0 -41 -29 -70t-70 -29zM141 474q-1 -15 9 -26q13 -14 33 -14q17 0 29.5 12t12.5 30q0 22 -17 36 q-8 7 -16 7q-2 0 -4 -1q-19 -3 -32.5 -17t-14.5 -27z" />
<glyph unicode="&#x3c;" horiz-adv-x="507" d="M447 116q12 -2 19 -11.5t5 -20.5t-10 -17.5t-18 -6.5h-4q-47 7 -97 17t-121 29t-121 48t-61 61q-13 39 22 73q32 32 82 64t94.5 54t94 42.5t69.5 27.5t33 11q11 4 21.5 -1.5t14.5 -16.5t-1.5 -21.5t-16.5 -14.5q-5 -1 -15 -4.5t-37.5 -14t-54.5 -22t-63 -28.5t-67 -34 t-62 -39t-52 -43q-10 -10 -8 -15q10 -29 118.5 -63.5t235.5 -53.5z" />
<glyph unicode="=" horiz-adv-x="486" d="M73 298q-8 -2 -15 0.5t-12 8t-7 12.5q-3 12 3 21.5t18 12.5q7 2 18 4.5t40.5 7.5t58 8.5t66 5.5t70 0t65.5 -9t56 -20q10 -5 13.5 -16.5t-2.5 -21.5q-8 -15 -25 -15q-7 0 -14 4q-35 20 -106.5 21.5t-127.5 -6.5t-99 -18zM434 193q10 -6 13.5 -17.5t-2.5 -21.5 q-8 -14 -25 -14q-7 0 -14 3q-35 20 -106.5 21.5t-127.5 -6.5t-99 -18q-8 -1 -15 1t-12 7.5t-7 12.5q-3 12 3 22t18 13q7 1 18 3.5t40.5 7.5t58 8.5t66 5.5t70 0.5t65.5 -8.5t56 -20z" />
<glyph unicode="&#x3e;" horiz-adv-x="507" d="M446 288q35 -34 22 -73q-11 -32 -61 -61t-121 -48t-120.5 -29t-96.5 -17h-5q-10 0 -18 6.5t-10 17.5q-1 7 2 14t9 12t13 6q127 19 236 53.5t118 63.5q2 5 -8 15q-21 21 -52 43t-62 39t-67 34t-63 28.5t-54 22t-37.5 14t-14.5 4.5q-12 4 -17 14.5t-1.5 21.5t14 16.5 t21.5 1.5q13 -4 33 -11t70 -27.5t94 -42.5t94.5 -54t81.5 -64z" />
<glyph unicode="?" horiz-adv-x="410" d="M359 625q23 -47 8.5 -108.5t-52.5 -109.5q-7 -8 -18 -23q-32 -39 -46 -58.5t-26 -47.5t-12 -55q0 -12 -8.5 -20.5t-20 -8.5t-20 8.5t-8.5 20.5q0 28 6.5 52.5t22.5 51t28.5 43.5t38.5 50q13 15 18 22q29 36 41 83.5t-2 71.5q-13 23 -57 16q-39 -6 -69.5 -26.5t-46 -42.5 t-26 -49.5t-13 -39.5t-2.5 -20q-2 -11 -11 -18.5t-21 -6.5q-7 1 -13 5.5t-9.5 11.5t-2.5 14q2 23 9.5 48.5t24 55.5t38.5 54.5t57 44t76 25.5q83 12 116 -44zM172.5 163q33.5 0 57.5 -24t24 -57.5t-24 -57.5t-57.5 -24t-57.5 24t-24 57.5t24 57.5t57.5 24zM172.5 57 q10.5 0 17.5 7t7 17q0 7 -3 12.5t-9 9t-12.5 3.5t-12 -3.5t-9 -9t-3.5 -12.5q0 -10 7 -17t17.5 -7z" />
<glyph unicode="@" horiz-adv-x="630" d="M422.5 538.5q11.5 -3.5 16.5 -14t2 -21.5q-15 -48 -25 -102t-11.5 -103.5t13.5 -69.5q7 -10 20 -10q21 0 49 48.5t38 115.5q3 20 4 39.5t-2.5 47.5t-13 50.5t-31 43t-52.5 29.5q-117 36 -209 -32q-56 -41 -88.5 -113.5t-32.5 -156.5q0 -77 52.5 -138t122.5 -84 q61 -20 113 -5.5t84 58.5q7 10 18.5 12t21 -5t11.5 -18.5t-5 -21.5q-64 -88 -174 -88q-42 0 -86 14q-40 13 -77.5 37.5t-68.5 59t-50 81.5t-19 98q0 98 38.5 182t106.5 134q55 41 122 51.5t137 -10.5q78 -25 114 -97t20 -176q-12 -84 -52.5 -148.5t-89.5 -64.5q-42 0 -66 33 q-15 20 -21 53q-26 -27 -59 -35q-13 -3 -25 -3q-57 0 -85 51q-10 19 -14 42.5t0 49t17.5 52.5t35.5 49q84 84 144 59q9 -3 16 -9q2 9 5 17q3 11 13.5 16.5t22 2zM280 267q23 6 39.5 28t24 51.5t10.5 45t4 27.5q0 35 -13 41q-3 1 -6 1q-29 0 -77 -48q-29 -29 -36.5 -67 t7.5 -59q15 -27 47 -20z" />
<glyph unicode="A" horiz-adv-x="419" d="M363 658l10 -629q0 -8 -3.5 -14.5t-10 -10.5t-14.5 -4q-12 0 -20.5 8t-8.5 20l-3 206h-184q-44 -123 -64 -212q-2 -10 -10 -16t-18 -6h-6q-11 3 -17.5 13t-3.5 21q5 22 13.5 56t37 119t60.5 161t84.5 163t109.5 144q13 14 30.5 6.5t17.5 -25.5zM151 291h161l-4 292 q-85 -109 -157 -292z" />
<glyph unicode="B" horiz-adv-x="437" d="M381 301q42 -56 7 -155q-16 -45 -43 -76.5t-65 -48.5q-45 -21 -102 -21q-64 0 -119 21q-18 7 -18 26v279q0 18 1.5 40.5t6.5 69t16.5 88.5t28.5 84t45.5 70t65.5 34q84 15 137 -29q25 -22 40 -56.5t17.5 -56t2.5 -40.5q0 -20 -6.5 -43t-19.5 -47.5t-35 -48.5t-50 -43 q60 -9 90 -47zM215 657q-30 -6 -53 -40t-35.5 -84.5t-19 -95.5t-8.5 -87q38 0 72 7.5t58.5 20t44.5 29t33 33.5t22 34t13 31t4 25q0 31 -10 61.5t-31 47.5q-23 20 -61 20q-14 0 -29 -2zM334 164q25 71 1 102q-12 16 -34.5 22t-39.5 5h-2h-161v-225q94 -26 158 4q55 26 78 92 z" />
<glyph unicode="C" horiz-adv-x="435" d="M387 291q12 -2 18.5 -11.5t4.5 -21.5q-1 -7 -3.5 -17t-9.5 -35t-18 -49.5t-26 -51.5t-37 -50t-48 -36q-34 -19 -73.5 -19t-81.5 19q-54 23 -74.5 97t-4.5 185q11 67 33 134.5t51.5 123t68 92t76.5 40.5q89 10 145 -132q3 -8 2 -15t-5.5 -13t-12.5 -9q-10 -5 -21 0t-15 16 q-16 40 -38 70t-48 27q-33 -4 -70 -54t-67 -128t-42 -161q-14 -87 -2 -146.5t46 -74.5q61 -27 107 -2q17 9 32.5 25t26 33.5t20 38t15.5 37t10.5 33t5.5 23t2 9.5q2 11 11.5 18t21.5 5z" />
<glyph unicode="D" horiz-adv-x="418" d="M325 617q79 -86 66 -239q-5 -63 -26 -118t-47.5 -92t-61 -68t-63 -48t-58.5 -30t-41.5 -16.5t-17.5 -4.5q-3 -1 -6 -1q-9 0 -16 5q-10 6 -12 18q-2 9 -3.5 25.5t-2 72.5t4 124.5t20 185t41.5 249.5q2 10 9.5 16.5t18.5 6.5q5 0 14.5 -1t33.5 -5.5t46.5 -12.5t50.5 -25.5 t50 -41.5zM334 383q11 128 -51 196q-49 53 -130 65q-72 -378 -58 -578q25 9 49.5 21.5t58 39t59.5 59.5t46.5 84.5t25.5 112.5z" />
<glyph unicode="E" horiz-adv-x="422" d="M385 704q8 0 14.5 -4t10 -10.5t3.5 -14.5q0 -11 -8 -19.5t-20 -8.5q-48 0 -88.5 -9.5t-66 -23t-46 -32.5t-31 -35t-17.5 -33.5t-8.5 -24.5t-2.5 -12q0 -2 -1 -4q-8 -31 -20 -113q99 62 219 62q12 0 20 -8t8 -20t-8 -20t-20 -8q-44 0 -85 -10t-70 -26t-45.5 -27t-28.5 -22 q-4 -35 -8 -74q-7 -60 29 -96q18 -19 48.5 -31.5t57.5 -17t57 -5.5t42 -0.5t18 1.5q11 1 20.5 -6.5t10.5 -19.5t-6.5 -21t-19.5 -10q-16 -1 -40 -1q-158 0 -229 71q-54 55 -45 142q22 204 40 274q2 9 5 20t13 33.5t23.5 42.5t38.5 43t56 39.5t78 27.5t102 11z" />
<glyph unicode="F" horiz-adv-x="416" d="M383 693q12 0 20.5 -8.5t8.5 -20t-8.5 -20t-20.5 -8.5q-78 0 -228 -18q-34 -119 -49 -241q97 60 215 60q12 0 20.5 -8t8.5 -20t-8.5 -20.5t-20.5 -8.5q-55 0 -106.5 -16.5t-75 -31.5t-41.5 -30q-7 -72 -3 -142t6.5 -92.5t4.5 -34.5q2 -11 -4.5 -21t-17.5 -12h-6 q-10 0 -17.5 6t-9.5 16q-3 14 -6 36t-6.5 87t0 134t20.5 171t47 203q5 17 23 20q162 20 254 20z" />
<glyph unicode="G" horiz-adv-x="416" d="M364 413q3 -9 6 -22.5t8 -48t5.5 -67.5t-6 -75t-21.5 -76t-46 -65.5t-75 -48.5q-27 -10 -52 -10q-56 0 -95 49q-42 55 -53.5 159t10.5 213.5t70 177.5q68 95 141 89q20 -2 39.5 -12.5t32 -22t23.5 -26.5t14.5 -21.5t6.5 -10.5q5 -11 1 -22t-14.5 -16t-21.5 -1.5t-16 14.5 q-10 19 -29 39t-41 22q-41 3 -89 -65q-42 -58 -61.5 -155t-11 -189.5t43.5 -137.5q31 -40 81 -21q39 15 64 46t35 64t12 74t-1 68.5t-8 54.5q-80 -25 -105 -69q-6 -10 -17 -13t-21.5 3t-13.5 17.5t3 21.5q13 22 35 40.5t42.5 29t44 19t33 11t15.5 3.5q11 2 20 -4t12 -16z " />
<glyph unicode="H" horiz-adv-x="400" d="M167 655q-2 -7 -6.5 -20.5t-15 -52t-19.5 -79.5t-18 -100t-13 -116.5t-1 -125t15 -128.5q2 -11 -4.5 -21t-17.5 -12h-6q-10 0 -18 6.5t-10 16.5q-17 88 -16.5 187.5t10.5 173t27 147t25.5 100.5t14.5 43q3 8 9 12.5t13 6t14 -1.5q12 -4 16.5 -14.5t0.5 -21.5zM350 699 q2 -35 4 -81.5t2.5 -144t-5 -179t-22 -163t-44.5 -119.5q-8 -12 -23 -12q-9 0 -16 5q-10 7 -12 18.5t5 20.5q46 65 57 297h-151q-12 0 -20.5 8.5t-8.5 20t8.5 20t20.5 8.5h154q4 154 -6 297q0 12 7.5 21t19.5 9.5t20.5 -7.5t9.5 -19z" />
<glyph unicode="I" horiz-adv-x="349" d="M99 662h218q12 0 20.5 -8.5t8.5 -20t-8.5 -20t-20.5 -8.5h-87q-15 -60 -29.5 -130t-27.5 -196t-4 -222h84q11 0 19.5 -8.5t8.5 -20t-8.5 -20t-19.5 -8.5h-109h-110q-11 0 -19.5 8.5t-8.5 20t8.5 20t19.5 8.5h78q-8 96 3.5 217t25.5 193.5t30 137.5h-72q-12 0 -20.5 8.5 t-8.5 20t8.5 20t20.5 8.5z" />
<glyph unicode="J" horiz-adv-x="407" d="M198 692h186l-1 -30q-2 -22 -4.5 -57t-12.5 -120.5t-24.5 -158.5t-41 -151t-58.5 -119q-52 -66 -106 -66q-15 0 -29 5q-16 6 -30.5 17.5t-25 26t-19.5 31t-14 33t-8 32t-3 27.5q0 11 8.5 19.5t20 8.5t20 -8.5t8.5 -19.5q0 -28 18.5 -66.5t42.5 -46.5q31 -11 72 42 q31 39 56 114.5t39 165t21 150t11 115.5h-126q-12 0 -20.5 8t-8.5 20t8.5 20t20.5 8z" />
<glyph unicode="K" horiz-adv-x="381" d="M357 49q9 -8 9.5 -19.5t-7.5 -20.5q-9 -9 -21 -9q-11 0 -19 8l-216 201v-180q0 -12 -8.5 -20.5t-20 -8.5t-20 8.5t-8.5 20.5v379q0 25 2 62.5t16 122t37 140.5q4 10 15 14.5t22 0t15.5 -15t-0.5 -21.5q-21 -51 -33.5 -131t-14.5 -116t-2 -56v-95q43 20 80 73t60 118.5 t36.5 120.5t19.5 100q1 8 5.5 14t11.5 9t14 2q12 -2 19 -11t6 -21q-2 -13 -5.5 -34.5t-14.5 -71t-28 -97.5t-41 -99.5t-59.5 -92t-77.5 -60.5z" />
<glyph unicode="L" horiz-adv-x="375" d="M261 57h88q11 0 19.5 -8.5t8.5 -20.5t-8.5 -20t-19.5 -8h-88q-154 0 -209 98q-22 39 -26.5 93.5t5 108t29.5 114.5t39.5 107.5t43.5 93.5t34 65t17 29q6 10 17.5 13t21.5 -3t13 -17.5t-3 -21.5q-18 -30 -38.5 -69.5t-44 -92t-41.5 -106.5t-29.5 -106.5t-9 -100 t20.5 -79.5q40 -69 160 -69z" />
<glyph unicode="M" horiz-adv-x="598" d="M535 550q25 -89 28.5 -200.5t-22 -212t-80.5 -133.5q-7 -4 -15 -4q-16 0 -24 13q-6 10 -3 21.5t13 17.5q38 24 58 108t17 187.5t-27 187.5q-9 32 -20 54.5t-19 31t-15 8.5q-17 0 -32.5 -24t-26.5 -61.5t-19 -86.5q-2 -25 -7 -73q-7 -51 -8 -73v-18q0 -11 -8.5 -19.5 t-20 -8t-20 8.5t-8.5 20q0 9 1 19q2 83 15 156q2 42 -2.5 68.5t-20 45t-43.5 22.5q-29 5 -58 -41q-40 -63 -61 -176.5t-18 -212t25 -131.5q7 -10 4.5 -21.5t-12 -18t-21 -4.5t-18.5 12q-32 47 -35 160.5t21.5 234.5t66.5 187q49 78 115 68q65 -11 93 -62q38 85 98 85 q71 0 109 -135z" />
<glyph unicode="N" horiz-adv-x="533" d="M477 702q8 -6 11 -17.5t5.5 -70t-6.5 -176.5q-13 -246 -37 -357q-8 -37 -18.5 -56.5t-28.5 -23.5q-3 -1 -7 -1q-19 0 -32 19q-43 62 -178 572q-37 -63 -60 -144t-30 -145.5t-7 -132t2 -92.5t4 -38q1 -12 -6 -21.5t-18.5 -11t-21 6t-11.5 18.5q-1 9 -2 23t-3.5 50t-1.5 75 t4 89.5t13.5 102t25.5 104t41.5 105t60.5 96.5q10 14 27.5 10.5t21.5 -20.5q112 -431 169 -578q20 91 34.5 312t6.5 267q-7 15 3 29q6 9 18 11t21 -5z" />
<glyph unicode="O" d="M413 562q19 -54 25.5 -117t-0.5 -129.5t-34 -133t-72 -118.5q-8 -9 -19.5 -20.5t-43 -27.5t-62.5 -16h-13q-82 9 -140 125q-35 68 -29.5 150t35 158t77.5 140q14 19 30 36.5t39.5 38t50 31.5t50.5 7q32 -6 59.5 -38t46.5 -86zM289 101q51 58 75 139.5t21.5 159 t-26.5 143.5q-9 27 -20.5 46.5t-22 29t-19.5 11.5h-3q-17 0 -47 -22.5t-64 -67.5q-41 -56 -68 -122.5t-33.5 -138t23.5 -129.5q18 -37 42.5 -63.5t52.5 -29.5q21 -3 44 9.5t31.5 20.5t13.5 14z" />
<glyph unicode="P" horiz-adv-x="406" d="M388 576q19 -100 -44 -177q-77 -94 -238 -98q-13 -141 -10 -270q1 -13 -8 -22t-21 -9h-1q-12 0 -21 8.5t-9 20.5q-3 13 -1 62.5t3 113.5t10.5 141t23 146t40 127t61.5 84q7 6 16 6q25 2 53.5 -3t59 -18.5t54.5 -42.5t32 -69zM297 437q45 55 31 127q-5 27 -21 45.5 t-37.5 26t-37 10.5t-29.5 3q-64 -59 -91 -287q128 5 185 75z" />
<glyph unicode="Q" horiz-adv-x="475" d="M360 100l52 -52q8 -8 8 -20t-8 -20t-20 -8t-20 8l-48 48q-55 -56 -117 -56h-13q-82 9 -140 125q-35 68 -29.5 150t35 158t77.5 140q14 19 30 36.5t39.5 38t50 31.5t50.5 7q32 -6 59.5 -38t46.5 -86q23 -67 28.5 -144.5t-14.5 -163.5t-67 -154zM319 141q37 58 53.5 131.5 t12 142.5t-25.5 128q-14 39 -31 61.5t-30 25.5h-4q-17 0 -47 -22t-64 -68q-41 -56 -68 -122.5t-33.5 -138t23.5 -129.5q18 -37 42.5 -63.5t52.5 -29.5q42 -5 84 39l-71 71q-9 8 -9 20t8.5 20t20 8t20.5 -8z" />
<glyph unicode="R" horiz-adv-x="405" d="M234 298l139 -257q5 -10 1.5 -21t-13.5 -17q-6 -3 -13 -3q-17 0 -25 14l-147 271q-41 -4 -79 2q-16 -141 -5 -256q1 -12 -6.5 -21t-19.5 -10h-2q-11 0 -19 7t-10 18q-1 13 -2 33.5t-1.5 72.5t2.5 103.5t14 119.5t29 127.5t50.5 120t75.5 103.5q9 9 22 8q2 0 5 -0.5t11 -2 t16 -4t19 -7.5t21.5 -11t21.5 -15.5t20 -21.5q52 -66 31 -183q-18 -98 -88 -146q-22 -14 -48 -24zM104 343q16 -2 34.5 -3t52.5 5.5t59 23.5q51 35 64 109q16 91 -19 138q-23 29 -62 38q-95 -104 -129 -311z" />
<glyph unicode="S" horiz-adv-x="403" d="M384 576q2 -6 1.5 -11.5t-3 -10.5t-7 -8.5t-10.5 -4.5q-8 -2 -15 -0.5t-12.5 6.5t-7.5 13q-4 12 -13.5 27.5t-23.5 20.5q-18 7 -46 -10q-34 -21 -58.5 -56.5t-24.5 -73.5q1 -66 83 -113q35 -21 58 -51t31 -62.5t6 -65t-14 -62.5q-21 -53 -62 -83.5t-89 -30.5q-16 0 -32 4 q-20 3 -41 12.5t-43 26.5t-36 44.5t-15 61.5q0 12 8 20.5t20 8.5t20.5 -8t8.5 -20q0 -21 9.5 -38t20.5 -26t26 -15.5t21.5 -8.5t10.5 -2l2 -1q39 -9 71 14t47 62q8 20 10 42.5t-2.5 45.5t-21 45t-43.5 38q-109 63 -110 161q-1 51 29 100t80 80q52 31 97 14q17 -7 31.5 -20 t22.5 -28t11.5 -23t4.5 -14z" />
<glyph unicode="T" horiz-adv-x="416" d="M32 651h357q12 0 20 -8.5t8 -20t-8 -20t-20 -8.5h-156q-67 -289 -67 -565q0 -12 -8 -20.5t-20 -8.5t-20 8.5t-8 20.5q0 273 65 565h-143q-11 0 -19.5 8.5t-8.5 20t8.5 20t19.5 8.5z" />
<glyph unicode="U" horiz-adv-x="413" d="M185 0q-74 0 -113 56q-31 44 -37 123.5t4.5 155t32.5 164t35 130t24 72.5q2 5 6 9.5t8.5 6.5t10 2.5t10.5 -1.5q11 -4 16 -14.5t1 -20.5q-21 -58 -41 -133.5t-38.5 -168t-16.5 -173.5t30 -120q23 -33 68 -33q50 0 81 38q32 40 45 117.5t8.5 165t-13.5 158t-21 124.5 q-2 12 4 21.5t18 11.5q5 1 10.5 0t10 -3.5t7.5 -7t4 -10.5q5 -22 11.5 -57t16 -120t9.5 -158.5t-16 -153t-51 -123.5q-48 -58 -124 -58z" />
<glyph unicode="&#xdb;" horiz-adv-x="413" d="M185 0q-74 0 -113 56q-31 44 -37 123.5t4.5 155t32.5 164t35 130t24 72.5q2 5 6 9.5t8.5 6.5t10 2.5t10.5 -1.5q11 -4 16 -14.5t1 -20.5q-21 -58 -41 -133.5t-38.5 -168t-16.5 -173.5t30 -120q23 -33 68 -33q50 0 81 38q32 40 45 117.5t8.5 165t-13.5 158t-21 124.5 q-2 12 4 21.5t18 11.5q5 1 10.5 0t10 -3.5t7.5 -7t4 -10.5q5 -22 11.5 -57t16 -120t9.5 -158.5t-16 -153t-51 -123.5q-48 -58 -124 -58z" />
<glyph unicode="&#xda;" horiz-adv-x="413" d="M185 0q-74 0 -113 56q-31 44 -37 123.5t4.5 155t32.5 164t35 130t24 72.5q2 5 6 9.5t8.5 6.5t10 2.5t10.5 -1.5q11 -4 16 -14.5t1 -20.5q-21 -58 -41 -133.5t-38.5 -168t-16.5 -173.5t30 -120q23 -33 68 -33q50 0 81 38q32 40 45 117.5t8.5 165t-13.5 158t-21 124.5 q-2 12 4 21.5t18 11.5q5 1 10.5 0t10 -3.5t7.5 -7t4 -10.5q5 -22 11.5 -57t16 -120t9.5 -158.5t-16 -153t-51 -123.5q-48 -58 -124 -58z" />
<glyph unicode="&#xd9;" horiz-adv-x="413" d="M185 0q-74 0 -113 56q-31 44 -37 123.5t4.5 155t32.5 164t35 130t24 72.5q2 5 6 9.5t8.5 6.5t10 2.5t10.5 -1.5q11 -4 16 -14.5t1 -20.5q-21 -58 -41 -133.5t-38.5 -168t-16.5 -173.5t30 -120q23 -33 68 -33q50 0 81 38q32 40 45 117.5t8.5 165t-13.5 158t-21 124.5 q-2 12 4 21.5t18 11.5q5 1 10.5 0t10 -3.5t7.5 -7t4 -10.5q5 -22 11.5 -57t16 -120t9.5 -158.5t-16 -153t-51 -123.5q-48 -58 -124 -58z" />
<glyph unicode="V" horiz-adv-x="381" d="M368 673q6 -53 -20 -140.5t-61.5 -166.5t-84 -168.5t-70 -125.5t-35.5 -59q-8 -13 -24 -13h-6q-19 4 -22 23q-9 52 -10 115.5t4 121.5t14.5 122t18.5 110.5t19.5 93t15 64t8 28.5t13.5 17t21.5 2.5t17 -13.5t2.5 -21q-4 -13 -10 -36.5t-20 -89t-24.5 -128.5t-17.5 -145 t-4 -148q39 68 75 138t72.5 150.5t56 150.5t15.5 112q-2 12 5.5 21t19.5 10q7 1 14 -2t11.5 -9t5.5 -14z" />
<glyph unicode="W" horiz-adv-x="593" d="M479 670q20 -56 39 -138.5t32.5 -176t8 -178.5t-34.5 -126q-27 -38 -72 -38q-94 0 -140 150q-33 -97 -93 -139q-33 -24 -68 -24q-20 0 -39 9q-75 36 -82 188q-3 68 5.5 131t23.5 108.5t36.5 86.5t40.5 66t39.5 46t29 28t14.5 11q10 6 21.5 4t18 -12t4.5 -21.5t-12 -17.5 l-12.5 -10t-25.5 -24.5t-34.5 -41t-35 -59t-31.5 -77.5t-20.5 -97.5t-4.5 -118.5q2 -55 15 -92t34.5 -47.5t49.5 10.5q40 28 67.5 97.5t27.5 159.5q-4 41 -4 76q-1 11 7 19.5t19 9.5t20 -6.5t10 -18.5q5 -38 5 -76q5 -46 13.5 -89t22 -83.5t34 -65t44.5 -24.5q16 0 26 15 q20 29 24 98.5t-6 151.5t-29 167t-42 150q-4 11 1.5 21.5t16.5 14.5t21.5 -1t14.5 -16z" />
<glyph unicode="X" horiz-adv-x="520" d="M503 646q-111 -92 -212 -226q1 -27 1 -55q-2 -61 6.5 -111t22.5 -81t34 -54.5t37 -34.5t35.5 -18t26.5 -8t13 -1q12 0 20 -8.5t7.5 -20.5t-8.5 -20t-20 -8q-4 0 -10.5 1t-23 5t-33 10.5t-38 20.5t-39.5 33q-86 90 -88 269q-50 -75 -94.5 -159t-58.5 -114.5t-20 -47.5 q-7 -18 -27 -18q-5 0 -10 2q-11 4 -15.5 15t-0.5 21q10 26 28 66.5t75.5 143t121.5 190.5q-4 58 -18 100.5t-37.5 68t-55.5 31.5q-26 5 -26 29t26 28q10 2 20 -3q14 -4 28 -10.5t32 -21t32.5 -34.5t28 -52t20.5 -72q88 108 184 187q9 8 20.5 7t19 -10t6.5 -21t-10 -19z" />
<glyph unicode="Y" horiz-adv-x="381" d="M358 728q11 -4 16 -14.5t1 -22.5q-12 -34 -29 -74.5t-48 -104t-68.5 -112t-73.5 -64.5q-15 -191 -1 -304q2 -11 -5 -20.5t-19 -10.5q-2 -1 -4 -1q-10 0 -18 7t-10 18q-15 115 0 309q-55 21 -66 129q-7 71 3 161q8 64 17 83.5t26 21.5q7 1 14 -2t11.5 -9t5.5 -13 q2 -12 -6 -22q-7 -21 -13 -77t-2.5 -120t20.5 -90q8 -10 18 -9q36 2 93.5 101.5t101.5 222.5q4 11 14.5 16t21.5 1z" />
<glyph unicode="Z" horiz-adv-x="420" d="M381 86q12 0 20.5 -8.5t8.5 -20t-8.5 -20t-20.5 -8.5q-30 0 -101 -14q-73 -15 -106 -15q-50 0 -80 23q-42 32 -46 104q-3 36 9 78.5t34.5 85t48.5 83t57 80t54 66t46 50.5q-25 7 -51 9t-47.5 0t-44 -6t-38 -8.5t-29.5 -10t-19 -7.5t-8 -4q-10 -5 -21.5 -1.5t-16.5 14 t-1.5 22t14.5 16.5q8 4 21.5 10t50.5 16.5t73.5 14.5t86 -1.5t92.5 -25.5q14 -6 16.5 -20.5t-8.5 -25.5q-34 -34 -75 -82.5t-87 -111.5t-75 -127.5t-26 -109.5q3 -47 24 -63q13 -9 38.5 -10t45 2t57.5 10q76 16 112 16z" />
<glyph unicode="[" horiz-adv-x="443" d="M369 658q12 -1 18.5 -10.5t5 -21.5t-11 -18.5t-21.5 -5.5q-24 4 -54 7t-70.5 4t-63.5 -5q-14 -66 -28.5 -142.5t-29.5 -206.5t-8 -207q100 -1 188 1q11 0 19.5 -8t9 -20t-7.5 -20.5t-20 -8.5q-49 -1 -104 -1q-67 0 -111 1q-10 0 -17.5 7t-9.5 17q-5 35 -6 81t3 95t10 99 t14 100t15 89.5t15 76.5t11 52t6 24q3 14 17 20q19 7 48.5 10t56.5 2.5t57.5 -3t44.5 -4.5t24 -4z" />
<glyph unicode="\" horiz-adv-x="336" d="M297 52q1 -8 -2 -14.5t-9 -11.5t-13 -6h-4q-10 0 -18.5 7t-9.5 18q-3 20 -7.5 53t-22 122.5t-37 168t-52 166.5t-67.5 141q-7 10 -4.5 21.5t12 18t21 4t18.5 -12.5q37 -55 71 -145.5t54.5 -171t38 -171t23 -127.5t8.5 -60z" />
<glyph unicode="]" horiz-adv-x="443" d="M322 637q2 -9 5.5 -24t11 -52t14.5 -76t15.5 -89.5t14.5 -100t9.5 -99t3 -95.5t-5.5 -81q-1 -6 -5 -11.5t-10 -8.5t-13 -4q-59 -1 -125 -1q-56 0 -89 1q-12 1 -20 9.5t-7.5 20.5t9 19.5t20.5 7.5q59 -2 187 0q7 76 -8 206t-29.5 206.5t-29.5 143.5q-22 6 -62.5 4.5 t-70.5 -4t-54 -6.5q-12 -2 -21.5 5t-11 18.5t5 21t18.5 11.5q23 4 54 7.5t89 3t88 -12.5q14 -5 17 -20z" />
<glyph unicode="^" horiz-adv-x="502" d="M462 93q2 -12 -5 -21.5t-19 -10.5q-8 -1 -15 1.5t-11.5 8.5t-5.5 14q-19 127 -53.5 235.5t-63.5 118.5q-6 1 -15 -8q-29 -29 -59 -77t-51 -90.5t-40 -89.5t-25.5 -65.5t-10.5 -28.5q-6 -20 -27 -20q-4 0 -8 2q-8 2 -13 8t-6.5 13t0.5 15q3 9 8.5 24t19.5 51t31.5 73.5 t38.5 79t48 80t54 65.5q34 34 72 22q33 -11 61.5 -61t47.5 -121t29.5 -121t17.5 -97z" />
<glyph unicode="_" horiz-adv-x="522" d="M467 26q12 -2 18.5 -11.5t4.5 -21.5q-2 -10 -10 -16.5t-18 -6.5q-3 0 -6 1q-36 7 -91 9t-101.5 1.5t-99.5 -3.5t-71 -5t-30 -3q-8 0 -14.5 3t-11 9t-5.5 14q-1 12 6.5 21t19.5 10q33 3 83.5 6.5t157 4t168.5 -11.5z" />
<glyph unicode="`" horiz-adv-x="348" d="M292 506.5q6 -10.5 2.5 -21.5t-14.5 -17q-34 -18 -69 -18q-66 0 -122 58q-15 13 -24 30q-18 34 -9 70t39.5 52t65.5 3.5t53 -46.5q18 -33 10 -68q-5 -24 -23 -41q27 -3 53 10q10 6 21 2.5t17 -14zM122 610q-10 -5 -12 -18.5t5 -26.5q5 -7 13 -16q5 -3 9 -5q11 -4 20 1 t12 16q3 15 -5 29q-12 22 -32 22q-5 0 -10 -2z" />
<glyph unicode="a" horiz-adv-x="433" d="M395 59q12 0 20 -8.5t8 -20.5t-8.5 -20t-19.5 -8h-1q-82 1 -120 46q-8 9 -14 20q-17 -25 -40 -39q-46 -29 -82 -29q-11 0 -22 2q-42 10 -71 59q-25 39 -20.5 88.5t26 96t56.5 87.5q37 44 81.5 68.5t80.5 9.5q15 -6 25 -15.5t14.5 -24t6.5 -27t0.5 -33.5t-3 -33.5 t-4.5 -36.5q-4 -22 -5 -34q-1 -10 -3 -22q-6 -73 17 -100q21 -26 78 -26zM252 249q3 24 4.5 36.5t2.5 31.5t-1.5 29t-9.5 13q-3 1 -6 1q-15 0 -40 -16t-52 -48t-45 -68t-23.5 -73t11.5 -64q17 -29 36 -34q22 -5 61 20q40 25 54 116q2 19 8 56z" />
<glyph unicode="b" horiz-adv-x="351" d="M319 237q24 -110 -44 -179q-56 -58 -153 -58q-29 0 -61 6v0h-1q-2 0 -5 1l-1 1q-2 1 -3 1l-2 2t-2 1.5t-2 1.5t-2 2.5l-1 1.5q-1 1 -2 3q0 1 -1 2q0 1 -0.5 3l-0.5 2q-16 83 10 214v1q16 84 49.5 185t50.5 142.5t29 67.5q5 11 16 15t21.5 -1t15 -16t-0.5 -21 q-71 -157 -112 -323q90 42 145 20q45 -18 57 -75zM234 97q47 48 30 128q-6 27 -24 34q-15 8 -41.5 2t-51 -17t-46.5 -24q-17 -96 -10 -162q95 -11 143 39z" />
<glyph unicode="c" horiz-adv-x="342" d="M304.5 140.5q10.5 -5.5 13.5 -16.5t-2 -22q-2 -3 -5 -8t-11.5 -17t-19.5 -23t-24.5 -22.5t-31.5 -20t-36 -10.5q-8 -1 -15 -1q-58 0 -110 57q-35 38 -38 92t27 113q29 58 77 98.5t95 35.5q14 -1 26.5 -6.5t28 -24t22.5 -47.5q4 -11 -2 -21.5t-17.5 -13.5t-21.5 3t-13 17 q-9 35 -29 37q-23 2 -57.5 -27.5t-57.5 -75.5q-10 -19 -16 -39t-4 -50.5t21 -51.5q40 -43 77 -39q26 4 49.5 27.5t35.5 44.5q6 11 17 14t21.5 -2.5z" />
<glyph unicode="d" horiz-adv-x="343" d="M362.5 617.5q10.5 -5.5 13.5 -17t-2 -21.5q-34 -61 -54.5 -141t-26.5 -144t-6.5 -131.5t1.5 -92.5t4 -38q1 -12 -6.5 -21t-18.5 -11h-4q-20 0 -27 20q-33 -8 -61 -8q-75 0 -116 53q-37 56 -31 131t44 131q19 26 42 42.5t47 21t45.5 3t42.5 -8.5q24 128 75 221 q6 10 17 13.5t21.5 -2zM105 99q35 -46 126 -22q-7 129 9 250q-76 32 -121 -33q-29 -41 -34.5 -98.5t20.5 -96.5z" />
<glyph unicode="e" horiz-adv-x="361" d="M329 36.5q2 -11.5 -5 -21t-19 -11.5q-26 -4 -62 -4q-119 0 -175 53q-50 47 -42 127q10 98 76.5 170.5t133.5 73.5q24 0 42.5 -10t30.5 -29t15 -44q15 -126 -47 -177q-64 -52 -195 -13q2 -35 25 -57q21 -20 61.5 -29.5t73 -8t55.5 3.5q11 2 20.5 -5t11.5 -18.5zM237 367 q-37 0 -84.5 -45.5t-64.5 -113.5q111 -35 153 0q38 31 27 126q-3 20 -11 26.5t-20 6.5z" />
<glyph unicode="f" horiz-adv-x="333" d="M279 707q35 0 62.5 -15t42.5 -38t23 -45.5t10 -43.5q1 -11 -6.5 -20t-18.5 -11q-8 0 -15 3t-11.5 9t-4.5 14q-1 6 -2.5 13.5t-7 22t-13.5 25.5t-23.5 20t-35.5 9q-30 0 -56.5 -68.5t-39.5 -154.5q56 12 112 12q11 0 19.5 -8.5t8.5 -20t-8.5 -20t-19.5 -8.5 q-58 0 -115 -15v-338q0 -12 -8.5 -20.5t-20 -8.5t-20 8.5t-8.5 20.5v320q-42 -16 -66 -32q-7 -5 -16 -5q-15 0 -23 12q-7 10 -4.5 21.5t11.5 18.5q38 25 99 46q3 28 8 57.5t17.5 75t28 79.5t42.5 59.5t59 25.5z" />
<glyph unicode="g" horiz-adv-x="417" d="M378 402q20 -94 -13 -199q-1 -4 -3 -9q-27 -81 -75 -141q-68 -83 -141 -83q-60 0 -96 38q-19 19 -29 49t-10.5 43t-0.5 22q1 11 9.5 19t20 7.5t19.5 -9t8 -20.5q0 -5 0.5 -14t6.5 -28t17 -30q19 -20 55 -20q46 0 97 62q2 2 4 5q-10 -2 -20 -3q-54 -4 -89 26 q-41 36 -46 115q-4 61 23 121.5t69.5 99.5t85.5 45q6 -1 16.5 0.5t24 -4.5t26 -14.5t24 -29t17.5 -48.5zM312 224q27 89 11 166q-11 52 -40 52q-2 0 -6 -1q-43 -5 -88 -70t-41 -135q4 -56 27 -76q17 -15 47 -12q63 5 86 63q2 6 4 11v2z" />
<glyph unicode="h" horiz-adv-x="356" d="M266 449q16 -11 27 -29.5t15 -39t5 -31t1 -18.5v-302q0 -12 -8.5 -20.5t-20 -8.5t-20 8.5t-8.5 20.5v302q0 20 -6 42t-17 29q-10 7 -29 -1q-24 -10 -44 -28.5t-32.5 -39.5t-18.5 -34t-9 -24v-246q0 -12 -8.5 -20.5t-20 -8.5t-20 8.5t-8.5 20.5v301q0 13 1 32.5t9.5 70 t22.5 97t44.5 103t71.5 97.5q9 9 20.5 9t20 -8.5t8.5 -20.5t-8 -20q-101 -100 -127 -292q34 38 77 56q47 19 82 -5z" />
<glyph unicode="i" horiz-adv-x="248" d="M151 454q-30 0 -51.5 21.5t-21.5 52t21.5 51.5t51.5 21t51.5 -21t21.5 -51.5t-21.5 -52t-51.5 -21.5zM151 563q-15 0 -25 -10.5t-10 -25.5q0 -9 4.5 -17.5t12.5 -13t18 -4.5q15 0 25 10.5t10 25t-10 25t-25 10.5zM214 123q6 -2 10 -6t6.5 -9t3 -10.5t-1.5 -10.5 q-11 -33 -36.5 -60t-62.5 -27h-12q-45 7 -70 53q-61 110 48 350q5 10 16 14.5t21.5 -0.5t15 -16t-0.5 -22q-31 -67 -47 -122.5t-16.5 -90.5t3 -54t10.5 -32q11 -21 28 -23q13 -2 26 11.5t17 22t6 14.5q4 11 14.5 16t21.5 2z" />
<glyph unicode="j" horiz-adv-x="341" d="M277 753q30 0 51.5 -21.5t21.5 -51.5t-21.5 -51.5t-51.5 -21.5t-51.5 21.5t-21.5 51.5t21.5 51.5t51.5 21.5zM277 645q15 0 25 10t10 25q0 10 -4.5 18t-12.5 12.5t-18 4.5q-15 0 -25 -10t-10 -25q0 -10 4.5 -18t12.5 -12.5t18 -4.5zM276 520q12 1 20.5 -7t8.5 -20 q8 -206 -21 -320t-75 -162q-39 -41 -84 -41q-21 0 -40.5 9.5t-31.5 21.5t-22.5 27.5t-13.5 22.5t-5 11q-4 11 0.5 22t15.5 15t21.5 -0.5t15.5 -15.5q2 -6 7.5 -15.5t21 -25t31.5 -15.5q21 0 43 23q16 16 29.5 43.5t27.5 76.5t20.5 132t3.5 189q-1 12 7 20.5t20 8.5z" />
<glyph unicode="k" horiz-adv-x="332" d="M129 220q24 -7 46.5 -19t48.5 -32.5t48.5 -54t38.5 -76.5q4 -11 -1 -21.5t-16 -14.5q-5 -2 -10 -2q-20 0 -27 19q-11 31 -27.5 56.5t-33 41t-35.5 27.5t-33.5 17t-28.5 9v-141q0 -12 -8.5 -20.5t-20 -8.5t-20 8.5t-8.5 20.5v247q0 12 1.5 31t10 69.5t22 99t41.5 111 t65 114.5q7 9 18.5 11t21 -4.5t11.5 -18t-5 -21.5q-34 -48 -60 -106.5t-38.5 -104t-20 -92.5t-9 -64.5t-1.5 -25.5v-5l165 166q8 8 20 8t20.5 -8.5t8.5 -20t-9 -20.5z" />
<glyph unicode="l" horiz-adv-x="148" d="M230 716q8 -9 7 -20.5t-10 -19.5q-33 -29 -58 -80.5t-38.5 -108t-21.5 -124t-10 -120.5t-1.5 -107.5t1.5 -74.5t2 -30q1 -12 -6.5 -21t-19.5 -10h-2q-11 0 -19.5 7.5t-9.5 18.5q-1 15 -2 37.5t-1.5 80.5t2 113.5t12 127.5t25 131t44 114.5t66.5 88.5q9 8 20.5 7t19.5 -10 z" />
<glyph unicode="m" horiz-adv-x="497" d="M437 363q21 -32 26 -77.5t0 -85.5t-17.5 -84t-20.5 -64l-14 -35q-8 -17 -26 -17q-6 0 -11 2q-11 5 -15.5 16t0.5 22q9 19 17.5 44.5t17.5 61t13 68t0 65t-17 52.5q-9 14 -27.5 18.5t-31.5 -1.5q-18 -6 -16 -24q1 -3 1 -6q6 -70 -22.5 -167t-60.5 -140q-8 -11 -22 -11 q-10 0 -17 5q-10 7 -11.5 19t5.5 21q31 42 53.5 128.5t18.5 140.5l-0.5 0.5t-0.5 1.5q0 4 -1 9q-2 15 -8 22q-11 13 -28 10q-19 -3 -41 -22t-39 -47q-5 -9 -9 -15q-2 -5 -4 -9q0 -1 -1 -3q-49 -102 -38 -230q1 -12 -6.5 -21t-18.5 -10h-3q-7 0 -13.5 3t-10.5 9t-4 14 q-13 152 49 272q4 9 10 19q1 1 1 3l2 2q8 14 5 20q-5 11 -29 15q-8 1 -13.5 6t-8.5 12t-2 15q2 11 11.5 18t21.5 5q42 -7 64 -34q34 29 68 35q44 6 75 -25q10 8 23 13q28 13 66.5 3t59.5 -42z" />
<glyph unicode="n" horiz-adv-x="341" d="M293 385q17 -19 19.5 -59t-5.5 -83.5t-20 -89.5t-22 -75.5t-16 -41.5l-8 -16t-11.5 -13t-18.5 -7q-8 0 -14.5 4t-10 10.5t-3.5 13.5q0 14 10 23q8 13 22 56.5t26 91.5q10 48 13.5 83t1.5 48.5t-6 17.5q-11 13 -27 10q-20 -3 -43 -24t-40 -50q-5 -9 -9 -18q-1 0 -1 -1v-1 q-29 -61 -37.5 -127.5t-4.5 -94.5q3 -7 3 -15q-1 -11 -9 -19t-19 -8h-2q-16 1 -24 16q-5 9 -6.5 36.5t2 64.5t15 83t30.5 86v1q6 14 14 28q3 6 4 7q9 14 6 20q-5 11 -30 15q-7 2 -13 6.5t-8.5 12t-1.5 14.5q2 12 11.5 18.5t21.5 4.5q41 -6 63 -34q35 30 69 35q47 7 79 -29z " />
<glyph unicode="o" horiz-adv-x="374" d="M303 381q47 -34 43 -116.5t-29 -145t-67 -93.5q-35 -26 -77 -26q-17 0 -34 5q-43 11 -73.5 50t-37.5 92q-9 70 27 132.5t110 104.5q1 0 3 1q12 5 28 9.5t49.5 3.5t57.5 -17zM289 267q3 52 -19 67q-10 7 -27 8t-29.5 -2t-22.5 -7q-31 -18 -53.5 -39.5t-32.5 -41t-16.5 -39 t-5.5 -33.5t1 -25q3 -23 13 -43.5t24.5 -34t31.5 -17.5q35 -9 63 12q21 15 36.5 43.5t25 67.5t11.5 84z" />
<glyph unicode="p" horiz-adv-x="339" d="M263 536q60 -45 49 -150q-23 -227 -212 -254v-134q0 -12 -8.5 -20t-20 -8t-20 8t-8.5 20v423q0 5 2 10q1 4 4 11t12 23.5t19.5 30.5t28 29.5t36.5 22.5q30 13 61.5 9.5t56.5 -21.5zM256 392q7 73 -27 98q-27 20 -63 6q-22 -9 -39.5 -33.5t-26.5 -46.5v-227 q71 13 108.5 62t47.5 141z" />
<glyph unicode="q" horiz-adv-x="424" d="M401.5 93.5q9.5 -6.5 12 -18t-3.5 -21.5q-56 -84 -116 -84q-11 0 -20 3q-27 8 -43 34t-16 63q0 9 2 22q-30 -4 -52.5 -4.5t-41.5 4.5t-32 12t-23.5 17t-17 18.5t-10.5 18.5q-33 67 2.5 160t101.5 140q31 22 77.5 33.5t68 12.5t34.5 1q13 -1 21.5 -11.5t5.5 -23.5 q-54 -223 -73 -345v-2q-6 -36 -6 -53q0 -37 18 -43q11 -3 31 11.5t41 47.5q7 9 18.5 11.5t21 -4zM225 151q17 106 62 295q-71 -6 -110 -34q-53 -37 -80.5 -111t-5.5 -119q27 -56 134 -31z" />
<glyph unicode="r" horiz-adv-x="308" d="M274 375q12 -3 18 -13t3.5 -21t-12.5 -17.5t-22 -3.5q-27 4 -47.5 4t-38.5 -8t-29.5 -16t-21 -20t-14 -19t-7.5 -14l-8 -219q-1 -12 -9 -20t-20 -8h-1q-11 1 -19 9.5t-8 20.5l13 351q0 12 8.5 20t20.5 8q8 -1 14 -5t10 -10.5t3 -14.5l-1 -38q70 56 168 34z" />
<glyph unicode="s" horiz-adv-x="357" d="M316 353q-51 -16 -114.5 -51t-88.5 -78q-8 -14 -5 -18q4 -6 19.5 -11t36.5 -7t40 -1h2q6 0 14.5 -1t25 -4t32.5 -12.5t26 -22.5q23 -31 10 -76q-22 -71 -164 -71q-54 0 -109 9q-12 2 -19 12t-5 21.5t12 18t21 4.5q59 -12 130.5 -7t79.5 30q5 17 -1 25q-13 17 -53 18 q-20 -1 -42 0t-56.5 12t-48.5 33q-20 33 5 77q16 27 46 53t58.5 42.5t61.5 31.5t46.5 20t22.5 7q11 4 21.5 -1.5t14 -16.5t-2 -21.5t-16.5 -14.5z" />
<glyph unicode="t" horiz-adv-x="376" d="M348.5 114q10.5 -6 13 -17.5t-3.5 -21.5q-2 -4 -5 -8.5t-10.5 -14t-17 -17.5t-20.5 -16.5t-25.5 -13.5t-29.5 -5h-2q-59 0 -105 74q-43 67 -31 203l-60 -23q-5 -2 -11 -2q-19 0 -26 18q-4 11 0.5 22t15.5 15l90 34q24 151 87 310q4 11 15 15.5t22 0.5q7 -3 11.5 -9 t5.5 -13.5t-1 -14.5q-51 -128 -78 -265l72 27q7 3 14 2t13 -6t9 -12q4 -11 -0.5 -21.5t-15.5 -15.5l-102 -39q-19 -138 18 -196q30 -47 57 -47h1q17 0 34.5 16t26.5 31q6 10 17 13t21.5 -3z" />
<glyph unicode="u" horiz-adv-x="354" d="M282 422q8 0 14.5 -4t10 -10.5t3.5 -14.5v-365q0 -12 -8 -20t-20 -8t-20 8t-8 20v63q-73 -91 -131 -91h-3q-46 2 -71 55q-19 41 -19.5 92.5t10.5 92t29.5 83.5t28 59t15.5 27q7 10 18.5 12t21.5 -4t12 -17.5t-4 -21.5q-2 -4 -6.5 -11.5t-15.5 -28t-20 -42t-18 -51 t-13 -56.5t-1.5 -56.5t14.5 -53.5q10 -22 22 -23q21 -1 59.5 40t71.5 94v203q0 12 8 20.5t20 8.5z" />
<glyph unicode="&#xfb;" horiz-adv-x="354" d="M282 422q8 0 14.5 -4t10 -10.5t3.5 -14.5v-365q0 -12 -8 -20t-20 -8t-20 8t-8 20v63q-73 -91 -131 -91h-3q-46 2 -71 55q-19 41 -19.5 92.5t10.5 92t29.5 83.5t28 59t15.5 27q7 10 18.5 12t21.5 -4t12 -17.5t-4 -21.5q-2 -4 -6.5 -11.5t-15.5 -28t-20 -42t-18 -51 t-13 -56.5t-1.5 -56.5t14.5 -53.5q10 -22 22 -23q21 -1 59.5 40t71.5 94v203q0 12 8 20.5t20 8.5z" />
<glyph unicode="&#xfa;" horiz-adv-x="354" d="M282 422q8 0 14.5 -4t10 -10.5t3.5 -14.5v-365q0 -12 -8 -20t-20 -8t-20 8t-8 20v63q-73 -91 -131 -91h-3q-46 2 -71 55q-19 41 -19.5 92.5t10.5 92t29.5 83.5t28 59t15.5 27q7 10 18.5 12t21.5 -4t12 -17.5t-4 -21.5q-2 -4 -6.5 -11.5t-15.5 -28t-20 -42t-18 -51 t-13 -56.5t-1.5 -56.5t14.5 -53.5q10 -22 22 -23q21 -1 59.5 40t71.5 94v203q0 12 8 20.5t20 8.5z" />
<glyph unicode="&#xf9;" horiz-adv-x="354" d="M282 422q8 0 14.5 -4t10 -10.5t3.5 -14.5v-365q0 -12 -8 -20t-20 -8t-20 8t-8 20v63q-73 -91 -131 -91h-3q-46 2 -71 55q-19 41 -19.5 92.5t10.5 92t29.5 83.5t28 59t15.5 27q7 10 18.5 12t21.5 -4t12 -17.5t-4 -21.5q-2 -4 -6.5 -11.5t-15.5 -28t-20 -42t-18 -51 t-13 -56.5t-1.5 -56.5t14.5 -53.5q10 -22 22 -23q21 -1 59.5 40t71.5 94v203q0 12 8 20.5t20 8.5z" />
<glyph unicode="v" horiz-adv-x="353" d="M304.5 431q11.5 0 20 -8t8.5 -20q0 -52 -14 -101.5t-34 -87t-48 -72.5t-52 -57.5t-50 -42.5t-36.5 -27t-17.5 -11q-6 -4 -14 -4t-14 5q-15 8 -14 25l16 400q0 8 4.5 14t11 9.5t14.5 3.5q11 0 19 -9t8 -20l-14 -343q23 17 44 37t46.5 51.5t44 64.5t31 76.5t12.5 88.5 q0 12 8.5 20t20 8z" />
<glyph unicode="w" horiz-adv-x="483" d="M424 397q3 -11 8 -27.5t12 -59.5t7 -82.5t-12.5 -87.5t-39.5 -83q-45 -57 -95 -57q-4 0 -9 1q-42 4 -78 46q-16 -17 -33 -26q-21 -11 -43 -11q-31 0 -60 22q-28 22 -41 53.5t-13.5 62.5t8.5 67.5t20.5 64.5t27.5 57.5t24.5 42.5t15.5 23q6 10 18 12t21.5 -4.5t11.5 -18 t-5 -21.5q-5 -8 -15.5 -24.5t-30.5 -57.5t-30.5 -77t-7 -75t30.5 -60q21 -17 41 -6q42 22 73.5 118t22.5 196q-1 12 6.5 21t19.5 10t20.5 -6.5t9.5 -19.5q7 -73 -8.5 -155t-48.5 -140q25 -36 49 -38t53 35q22 28 31.5 68.5t9 74.5t-7 71t-10.5 51t-7 21q-2 8 -1 15t6 13 t13 8q5 2 10.5 1.5t10.5 -2.5t9 -6.5t6 -9.5z" />
<glyph unicode="x" horiz-adv-x="428" d="M383 63q8 0 14.5 -3.5t10.5 -10t4 -14.5q0 -12 -8.5 -20.5t-20.5 -8.5q-85 0 -142 51.5t-74 140.5q-68 -86 -68 -169q0 -12 -8 -20.5t-20 -8.5t-20.5 8.5t-8.5 20.5q0 125 118 248q-1 27 -13 47.5t-26 31t-32.5 17.5t-28 8.5t-16.5 2.5q-11 1 -19 9.5t-7 20.5t10 19.5 t20 6.5q29 -2 58.5 -12.5t60 -37.5t42.5 -66q73 63 145 101q10 5 21.5 2t17 -13.5t2 -22t-13.5 -16.5q-9 -5 -26.5 -15.5t-60 -41.5t-76.5 -64q1 -22 4.5 -43t14.5 -49.5t28 -49t47.5 -35t70.5 -14.5z" />
<glyph unicode="y" horiz-adv-x="339" d="M285 182q-3 -12 -7 -22q-15 -44 -40 -78q-68 -98 -202 -112h-3q-10 0 -18.5 7t-9.5 18q-1 12 6.5 21t18.5 11q89 9 141 62h-2.5h-1.5q-42 0 -70 15q-18 10 -29.5 24.5t-16 33.5t-6 35t2.5 40t7 37.5t9 37.5q5 19 7 27q7 27 5 48t-5.5 33t-11 20.5t-10.5 10.5l-6 4 q-11 4 -15.5 14.5t-0.5 21.5t14.5 16t21.5 1q3 -1 7 -3t13 -8.5t17 -15t16 -23.5t12.5 -32.5t4.5 -43.5t-7 -55q-2 -9 -7 -28q-10 -41 -14 -65.5t0 -47.5t20 -32q10 -6 30 -8t43 6q18 8 27 27q12 37 17.5 82t4.5 80t-5.5 70.5t-7 49t-4.5 19.5q-2 12 4 22t18 13q7 1 14 -1 t12.5 -7.5t7.5 -12.5q2 -9 4.5 -22.5t7 -50t6 -71.5t-3 -81.5t-15.5 -86.5z" />
<glyph unicode="z" horiz-adv-x="367" d="M344 133.5q7 -9.5 5 -21t-11 -18.5t-20.5 -15t-37 -23t-50.5 -26.5t-56.5 -20.5t-58.5 -9q-39 0 -66 18q-26 18 -28 46q-2 36 32.5 77t114.5 111q73 63 84 81q-16 9 -68 14.5t-110 3.5q-8 -1 -14.5 3t-10.5 10t-5 14q0 12 8 20.5t20 8.5q189 7 228 -42q16 -18 10 -42 q-5 -19 -28 -43t-76 -71q-70 -61 -96 -90q-35 -38 -32 -51l2 -2q15 -12 40.5 -9.5t50.5 10.5t52.5 22.5t47 27t33.5 22.5q9 7 21 5.5t19 -11z" />
<glyph unicode="{" horiz-adv-x="304" d="M233 36q11 -3 17 -13t4 -21q-2 -6 -6 -11t-10 -8t-12 -3q-3 0 -7 1q-7 2 -19 5.5t-39 16t-48.5 27.5t-40.5 41.5t-24 56.5q-3 11 -0.5 28.5t3.5 27t7 26t9.5 24.5t10.5 23q23 43 21.5 69t-38.5 49l-2 2l-2 2h-1l-0.5 0.5t-0.5 1.5l-2 2q0 1 -1 3t-1.5 2.5t-1 2.5 t-0.5 2.5t-0.5 2.5t-0.5 2.5v3t0.5 3t1 2.5l0.5 2q0 1 2 3v1.5v0.5h1q0 1 1.5 3l1.5 2q24 23 36.5 42.5t17 32.5t1 28.5t-8.5 24t-17 25.5q-12 18 -18 28.5t-12.5 29t-6.5 36.5q0 32 18 59t40 42.5t51 28t42 16.5t21 5q11 3 21 -3.5t13 -17.5q1 -6 0 -11.5t-4 -10t-7.5 -8 t-10.5 -4.5q-5 -1 -14 -3.5t-30.5 -11.5t-38.5 -19t-30.5 -26.5t-13.5 -35.5q0 -21 27 -62q10 -15 15.5 -24t13 -25.5t7.5 -31.5t-2.5 -34t-14.5 -41t-32 -45q21 -20 30.5 -42t5.5 -47t-9 -40t-16 -40q-10 -23 -15 -35t-8.5 -30t-1.5 -33q1 -11 6.5 -21.5t13 -19t17.5 -16 t19.5 -13.5t20.5 -11t19 -8l16 -6t11.5 -4t4.5 -1z" />
<glyph unicode="|" horiz-adv-x="174" d="M125 750q-1 -12 -4 -37.5t-7.5 -101t-6 -155.5t2.5 -196t15 -229q1 -12 -6.5 -21t-18.5 -10h-3q-11 0 -19 7.5t-9 18.5q-11 114 -15 232.5t-2.5 199.5t6 158t7 102.5t4.5 38.5q1 12 10.5 19t21 5.5t19 -10.5t5.5 -21z" />
<glyph unicode="}" horiz-adv-x="304" d="M227 257q11 -26 17 -41t10.5 -40t1.5 -48q-4 -30 -23.5 -56.5t-41 -41.5t-48.5 -27.5t-38.5 -16t-19.5 -5.5q-3 -1 -7 -1q-9 0 -17 6t-10 16q-3 11 3 21t18 13q15 4 33 11.5t39.5 19.5t37 30t18.5 39q2 15 -2 33t-8.5 30t-14.5 35q-12 25 -17 40t-9 40t5.5 47t31.5 42 q-24 28 -36 54.5t-14 45t4.5 40t13 32.5t18.5 29q28 41 28 62q0 11 -4.5 21t-11.5 18t-17 15.5t-20 13t-21 10t-20 8t-17 6t-11.5 3.5t-5.5 1q-11 2 -17.5 12t-4 21.5t12.5 18t21 3.5q9 -2 21.5 -5.5t41.5 -16t51.5 -28t40 -42.5t17.5 -59q0 -18 -6.5 -36.5t-12.5 -29 t-18 -28.5q-11 -17 -16 -25.5t-9 -24t0.5 -28.5t17.5 -32.5t36 -42.5l2 -2t2 -3l0.5 -0.5t0.5 -1.5q1 -2 1 -3l1 -2.5l1 -2.5v-3v-2.5v-2.5v-2.5t-1 -2.5l-1 -3l-1 -2.5t-2 -2.5q0 -1 -2 -2q0 -1 -0.5 -1.5l-0.5 -0.5l-2.5 -2.5t-2.5 -1.5q-36 -23 -37.5 -49t21.5 -69z" />
<glyph unicode="~" horiz-adv-x="581" d="M537.5 387.5q7.5 -8.5 7 -20t-9.5 -19.5q-11 -10 -27 -22t-53.5 -29t-70.5 -17q-12 0 -24 2q-58 11 -89 74q-21 42 -54 48q-32 6 -71 -14t-63 -42q-8 -8 -20 -7.5t-20 9t-7 20.5t9 20q5 4 12.5 10.5t28.5 20t41.5 23t48 15t52.5 0.5q60 -11 94 -78q19 -38 49 -43.5t67 13 t60 39.5q8 8 20 7t19.5 -9.5z" />
<glyph unicode="&#xa1;" horiz-adv-x="300" d="M237 675q25 -27 23 -65q-1 -19 -10.5 -36.5t-24.5 -30t-32 -16.5q-7 -2 -13 -2q-19 0 -35 13q-32 26 -32 74q0 23 9.5 43t26.5 31.5t37 11.5q29 0 51 -23zM181 582q8 3 15 12.5t7 19.5q1 13 -7 22q-5 5 -10 5q-6 0 -11.5 -8.5t-5.5 -20.5q0 -22 12 -30zM187 481 q9 -2 15.5 -9.5t7.5 -17.5v-45.5t-1.5 -78.5t-9.5 -102t-21 -100t-37.5 -88.5t-56.5 -52.5q-16 -7 -30 -7q-19 0 -31 13q-13 13 -16 35t11 81t50 152q41 105 88 204q9 20 31 16zM63 40q25 14 44 58t29 97.5t14 118.5q-89 -215 -87 -274z" />
<glyph unicode="&#xad;" horiz-adv-x="0" />
<glyph unicode="&#xbf;" horiz-adv-x="391" d="M327.5 234q11.5 -1 19 -10t6.5 -21q-2 -22 -9.5 -47t-23 -54t-37 -52.5t-55 -42.5t-74.5 -25q-13 -2 -26 -2q-60 0 -86 45q-22 45 -8 105t50 107q8 9 18 22q30 37 43.5 56t25 45.5t11.5 52.5q0 12 8.5 20.5t20.5 8.5t20 -8.5t8 -20.5q0 -26 -6 -50t-21.5 -50t-28 -42.5 t-37.5 -47.5q-11 -14 -17 -22q-28 -34 -39.5 -79.5t1.5 -68.5q12 -21 55 -15q37 6 66.5 26t44.5 41.5t25 48.5t12 37.5t2 17.5q2 11 11 18.5t20.5 6.5zM222 470q-33 0 -56.5 23.5t-23.5 56.5t23.5 56.5t56.5 23.5t56.5 -23.5t23.5 -56.5t-23.5 -56.5t-56.5 -23.5zM222.5 573 q-9.5 0 -16.5 -7t-7 -16.5t7 -16t16.5 -6.5t16 6.5t6.5 16t-6.5 16.5t-16 7z" />
<glyph unicode="&#xc0;" horiz-adv-x="426" d="M431.5 773.5q5.5 -10.5 2 -21.5t-13.5 -17q-34 -18 -69 -18q-67 0 -123 58q-13 11 -21 26q0 1 -0.5 1h-0.5v1l-0.5 0.5t-0.5 1.5q-18 33 -10 68q8 37 40 54q31 16 66 3.5t53 -46.5q15 -29 11 -59t-24 -50q27 -3 52 10q11 6 22 2.5t16.5 -14zM250 860q-3 -13 4 -28 q6 -8 14 -16q16 -11 29 -4q10 5 12 18.5t-5 26.5q-12 22 -32 22q-5 0 -10 -2q-9 -5 -12 -17zM345.5 684q17.5 -7 17.5 -26l10 -629q0 -12 -8 -20.5t-20 -8.5t-20.5 8t-8.5 20l-3 206h-184q-44 -122 -64 -212q-2 -10 -10 -16t-18 -6q-3 0 -6 1q-11 2 -17.5 12t-3.5 22 q5 21 13.5 55t37 119t60.5 161t84.5 163.5t109.5 144.5q13 13 30.5 6zM151 291h161l-4 292q-85 -109 -157 -292z" />
<glyph unicode="&#xc1;" horiz-adv-x="419" d="M345.5 684q17.5 -7 17.5 -26l10 -629q0 -12 -8 -20.5t-20 -8.5t-20 8t-9 20l-3 206h-184q-44 -122 -64 -212q-2 -10 -10 -16t-18 -6q-3 0 -6 1q-11 2 -17.5 12t-3.5 22q5 21 13.5 55t37 119t60.5 161t84.5 163.5t109.5 144.5q13 13 30.5 6zM151 291h161l-4 292 q-85 -109 -157 -292zM485 915q12 -31 -4 -63t-53 -48q-23 -11 -47 -11q-11 0 -22 2q-21 5 -37 19q-21 -47 -21 -65q0 -11 -8.5 -19.5t-19.5 -8.5h-1q-11 0 -19.5 8.5t-8.5 20.5q1 24 21 75t50 87q15 22 40 35q3 2 7 3q4 2 9 4q3 1 7 2l1 1q19 5 37 3q8 0 14 -1q36 -9 52 -38 v-1l0.5 -1t1.5 -2v-1zM405 855q7 4 13 8.5t9.5 9.5t5 10t-0.5 9q-9 12 -24 12q-12 0 -23 -5t-22 -18q-9 -12 -5 -21q3 -7 14 -9q15 -4 33 4z" />
<glyph unicode="&#xc2;" horiz-adv-x="449" d="M434 730q2 -12 -5 -21.5t-18.5 -11t-21 5.5t-11.5 18q-14 95 -36 134q-15 -18 -30.5 -47.5t-24.5 -51.5t-15 -39q-6 -20 -27 -20q-4 0 -9 2q-11 3 -16 13.5t-2 21.5q5 15 13 36t31 65t46 67q22 22 48 14q53 -18 78 -186zM344.5 684q17.5 -7 17.5 -26l10 -629 q0 -12 -8 -20.5t-20 -8.5t-20.5 8t-8.5 20l-3 206h-184q-44 -122 -64 -212q-2 -10 -10 -16t-18 -6q-3 0 -6 1q-11 2 -17.5 12t-3.5 22q5 21 13.5 55t37 119t60.5 161t84.5 163.5t109.5 144.5q13 13 30.5 6zM150 291h161l-4 292q-85 -109 -157 -292z" />
<glyph unicode="&#xc3;" d="M501.5 787.5q7.5 -8.5 7 -20.5t-9.5 -20q-7 -6 -17.5 -14t-35 -19t-46.5 -11q-8 0 -16 2q-41 8 -62 51q-10 20 -25 23q-15 2 -36.5 -8.5t-34.5 -23.5q-9 -7 -20.5 -6.5t-19.5 9t-7.5 20.5t9.5 19q9 9 21.5 18t42.5 20.5t56 6.5q42 -8 65 -53q9 -18 21 -20q15 -3 35 7 t33 22q8 7 20 6.5t19.5 -9zM344.5 684q17.5 -7 17.5 -26l10 -629q0 -12 -8 -20.5t-20 -8.5t-20.5 8t-8.5 20l-3 206h-184q-44 -122 -64 -212q-2 -10 -10 -16t-18 -6q-3 0 -6 1q-11 2 -17.5 12t-3.5 22q5 21 13.5 55t37 119t60.5 161t84.5 163.5t109.5 144.5q13 13 30.5 6z M150 291h161l-4 292q-85 -109 -157 -292z" />
<glyph unicode="&#xc4;" horiz-adv-x="477" d="M438 899q24 0 45 -12.5t33.5 -33.5t12.5 -45q0 -41 -30 -69q-25 -23 -57 -23q-3 0 -6 1q-31 2 -57 27t-32 58q-6 34 17 62q29 35 74 35zM460 781q12 11 12 27q0 14 -10 24t-24 10q-19 0 -30 -14q-7 -7 -5 -15q1 -8 5 -15t9.5 -12.5t11.5 -8.5t11 -4q11 -1 20 8zM206 717 q-20 1 -39 13t-32 31t-17 41q-6 34 17 62q28 35 73 35q38 0 64.5 -27t26.5 -64q0 -41 -29 -69q-25 -23 -58 -23q-3 0 -6 1zM178 828q-6 -7 -4 -15q2 -15 14 -27t22 -13q12 -1 21 8q12 11 12 26t-10 25t-25 10q-18 0 -30 -14zM345.5 684q17.5 -7 17.5 -26l10 -629 q0 -12 -8 -20.5t-20 -8.5t-20.5 8t-8.5 20l-3 206h-184q-44 -122 -64 -212q-2 -10 -10 -16t-18 -6q-3 0 -6 1q-11 2 -17.5 12t-3.5 22q5 21 13.5 55t37 119t60.5 161t84.5 163.5t109.5 144.5q13 13 30.5 6zM151 291h161l-4 292q-85 -109 -157 -292z" />
<glyph unicode="&#xc5;" horiz-adv-x="419" d="M376 905q37 -31 37 -80q0 -27 -13 -49.5t-36 -36t-49 -13.5q-45 0 -74 32q-28 30 -25 69q2 34 29.5 61.5t63.5 34.5q37 7 67 -18zM315 783q17 0 29.5 12t12.5 30q0 22 -17 36q-8 7 -16 7q-2 0 -4 -1q-19 -3 -33 -17t-14 -27q-2 -15 9 -26q13 -14 33 -14zM345.5 684 q17.5 -7 17.5 -26l10 -629q0 -12 -8 -20.5t-20 -8.5t-20.5 8t-8.5 20l-3 206h-184q-44 -122 -64 -212q-2 -10 -10 -16t-18 -6q-3 0 -6 1q-11 2 -17.5 12t-3.5 22q5 21 13.5 55t37 119t60.5 161t84.5 163.5t109.5 144.5q13 13 30.5 6zM151 291h161l-4 292q-85 -109 -157 -292 z" />
<glyph unicode="&#xc6;" horiz-adv-x="734" d="M725 464q8 -24 -9 -42l-146 -155l34 -219q4 -26 -17 -41q-20 -14 -41 -1l-179 102l-178 -102q-9 -6 -20 -6q-12 0 -22 7q-21 15 -17 41l34 219l-146 155q-17 18 -9 42q8 23 32 27l200 32l90 198q11 24 36.5 24t35.5 -24l90 -198l200 -32q24 -4 32 -27zM523 301l131 139 l-179 28q-21 3 -30 23l-78 172l-78 -172q-9 -20 -30 -23l-179 -28l131 -139q14 -15 11 -35l-31 -194l157 90q19 11 39 0l156 -90l-30 194q-4 20 10 35z" />
<glyph unicode="&#xc7;" horiz-adv-x="434" d="M387 320q12 -2 18.5 -11.5t4.5 -21.5l-5 -22.5t-14.5 -47.5t-26 -62.5t-40 -59.5t-56.5 -47q-29 -16 -62 -18l-15 -35q18 3 36 0q51 -9 85 -62q11 -18 15.5 -38t1.5 -37.5t-10.5 -34.5t-19.5 -30t-27 -23q-32 -20 -69 -20q-71 0 -118 70q-6 10 -4 21.5t12 18t21.5 4 t18.5 -11.5q16 -26 37 -37t38.5 -9t32.5 12q22 14 29.5 36.5t-6.5 48.5q-20 31 -46 36q-30 5 -64 -20q-17 -14 -35 -0.5t-9 34.5l37 83q-17 5 -34 12q-54 24 -74.5 97.5t-4.5 184.5q14 91 47 177.5t82 147t100 66.5q89 10 145 -133q5 -11 0 -22t-16 -15q-7 -3 -14.5 -2 t-13.5 6t-8 12q-16 40 -38 70t-48 27q-33 -4 -70 -53.5t-67 -128t-42 -160.5q-14 -88 -2 -147.5t46 -74.5q61 -26 107 -2q23 12 43.5 38t32 50.5t21 53t12 40t3.5 17.5q2 12 11.5 18.5t21.5 4.5z" />
<glyph unicode="&#xc8;" horiz-adv-x="422" d="M203 798q-15 13 -24 30q-18 34 -9.5 70t39.5 52t66 3.5t53 -46.5q15 -29 11 -59t-24 -50q27 -3 52 10q11 6 22 2.5t16.5 -14t2 -21.5t-13.5 -17q-34 -18 -69 -18q-66 0 -122 58zM236 900q-10 -5 -12 -18.5t4 -26.5q6 -7 14 -16q4 -3 8 -5q12 -4 21 1q10 5 12 18.5 t-5 26.5q-12 22 -32 22q-6 0 -10 -2zM384 704q12 0 20 -8t8 -20t-8 -20.5t-20 -8.5q-48 0 -88.5 -9t-66 -22.5t-46 -32.5t-31 -35t-17.5 -33.5t-8.5 -24.5t-2.5 -12q0 -3 -1 -5q-8 -31 -20 -113q99 63 219 63q12 0 20 -8.5t8 -20t-8 -20t-20 -8.5q-44 0 -85 -10t-70 -25.5 t-45.5 -27t-28.5 -22.5q-4 -34 -8 -73q-7 -61 29 -96q18 -19 48.5 -31.5t57.5 -17t57 -6t42 -1t18 1.5q8 1 14.5 -2.5t11 -9.5t5.5 -13.5t-2.5 -14.5t-9.5 -11.5t-14 -4.5q-16 -2 -40 -2q-158 0 -229 71q-54 55 -45 143q22 203 40 273q2 9 5 20.5t13 34t23.5 42.5t38.5 43 t56 39t78 27t102 11z" />
<glyph unicode="&#xc9;" horiz-adv-x="422" d="M384 704q5 0 9 -1.5t7.5 -4t6 -6t4 -8t1.5 -8.5q0 -12 -8 -20.5t-20 -8.5q-48 0 -88.5 -9t-66 -22.5t-46 -32.5t-31 -35t-17.5 -33.5t-8.5 -25t-2.5 -11.5q0 -3 -1 -5q-8 -31 -20 -113q99 63 219 63q12 0 20 -8.5t8 -20t-8 -20t-20 -8.5q-44 0 -85 -10t-70 -25.5 t-45.5 -27t-28.5 -22.5q-4 -34 -8 -73q-7 -61 29 -96q18 -19 48.5 -31.5t57.5 -17t57 -6t42 -1t18 1.5q12 1 21 -6.5t10 -19t-6.5 -20.5t-19.5 -10q-16 -2 -40 -2q-158 0 -229 71q-54 55 -45 143q22 203 40 273q2 8 4.5 17t9 27.5t18 36t27.5 38t40 37t54 31t72 22.5t91 8z M170 738h-1q-11 0 -19.5 8.5t-8.5 19.5q0 9 3.5 23t9.5 31.5t14.5 36t19.5 37.5t24 34q14 22 40 36q3 2 6 3l10 4q3 1 7 2h1q19 6 37 4q8 0 14 -2q36 -8 52 -38v0l1 -1q0 -1 1 -2v-1l1 -1q12 -31 -4 -63t-53 -49q-23 -10 -48 -10q-35 0 -58 21q-21 -47 -21 -65 q0 -8 -4 -14.5t-10.5 -10t-13.5 -3.5zM302 872q14 7 22 18t5 19q-9 11 -24 12q-12 -1 -23 -6q-11 -4 -22 -17q-9 -13 -5 -21q3 -8 17 -10t30 5z" />
<glyph unicode="&#xca;" horiz-adv-x="422" d="M191 741q-7 2 -12.5 8t-6.5 13t1 15q4 14 12 35.5t31.5 65t46.5 66.5q22 22 48 14q53 -18 78 -186q2 -12 -5 -21.5t-19 -11t-21.5 5.5t-10.5 19q-14 95 -36 133q-22 -25 -41 -66.5t-29 -71.5q-7 -20 -27 -20q-5 0 -9 2zM384 704q12 0 20 -8t8 -20t-8 -20.5t-20 -8.5 q-49 0 -89 -9t-66 -22.5t-46.5 -32.5t-30.5 -35t-17 -33.5t-8.5 -24.5t-2.5 -12v-5q-8 -25 -21 -113q99 63 219 63q12 0 20 -8.5t8 -20t-8 -20t-20 -8.5q-44 0 -85 -10t-70 -25.5t-45.5 -27t-28.5 -22.5q-4 -35 -8 -73q-7 -61 29 -96q18 -19 48.5 -31.5t57.5 -17t57 -6 t42 -1t18 1.5q12 1 21 -6.5t10 -18.5q0 -6 -1.5 -11.5t-5 -9.5t-8.5 -7t-11 -3q-16 -2 -40 -2q-158 0 -229 71q-54 55 -45 143q22 203 40 273q2 9 5 20.5t13 34t23.5 42.5t38.5 43t56 39t78 27t102 11z" />
<glyph unicode="&#xcb;" horiz-adv-x="422" d="M398 941q13 0 24.5 -3.5t21.5 -9t18.5 -14t14.5 -18.5t9 -22t3 -24q0 -41 -29 -68q-25 -23 -58 -23h-6q-31 2 -56.5 27t-31.5 59q-7 34 17 62q28 34 73 34zM421 823q11 11 11 27q0 14 -10 24t-24 10q-18 0 -30 -14q-6 -7 -5 -15q2 -8 6 -15t9 -12.5t11 -8.5t11 -4 q12 0 21 8zM167 759q-31 2 -56.5 27t-32 59t16.5 62q29 34 74 34q38 0 64.5 -27t26.5 -64q0 -41 -30 -68q-25 -23 -57 -23h-6zM139 870q-6 -7 -5 -15q3 -15 14.5 -27t22.5 -13q11 0 21 8q11 11 11 27q0 14 -10 24t-24 10q-19 0 -30 -14zM384 704q12 0 20 -8t8 -20t-8 -20.5 t-20 -8.5q-48 0 -88.5 -9t-66 -22.5t-46 -32.5t-31 -35t-17.5 -33.5t-8.5 -24.5t-2.5 -12q0 -3 -1 -5q-8 -31 -20 -113q99 63 219 63q12 0 20 -8.5t8 -20t-8 -20t-20 -8.5q-44 0 -85 -10t-70 -25.5t-45.5 -27t-28.5 -22.5q-4 -34 -8 -73q-7 -61 29 -96q18 -19 48.5 -31.5 t57.5 -17t57 -6t42 -1t18 1.5q11 1 20.5 -6.5t10.5 -18.5q1 -8 -2.5 -15t-9.5 -11.5t-14 -4.5q-16 -2 -40 -2q-158 0 -229 71q-54 55 -45 143q22 203 40 273q2 9 5 20.5t13 34t23.5 42.5t38.5 43t56 39t78 27t102 11z" />
<glyph unicode="&#xcc;" horiz-adv-x="350" d="M89 796q0 1 -0.5 1.5l-0.5 0.5q-18 33 -10 68q9 38 41 55q30 16 65 3.5t53 -46.5q15 -29 11.5 -59.5t-24.5 -50.5q27 -3 53 11q10 6 21.5 2.5t17 -14t2 -22t-14.5 -16.5q-34 -18 -69 -18q-66 0 -123 58q-12 11 -21 26v1h-1zM134 854q-3 -14 4 -28q5 -8 13 -16 q16 -12 29 -5q10 6 12 19.5t-5 26.5q-12 22 -32 22q-5 0 -10 -2q-9 -5 -11 -17zM318 662q12 0 20.5 -8.5t8.5 -20.5t-8.5 -20t-20.5 -8h-87q-15 -60 -29.5 -130t-27.5 -196t-4 -222h84q11 0 19.5 -8.5t8.5 -20.5t-8.5 -20t-19.5 -8h-219q-11 0 -19.5 8t-8.5 20t8.5 20.5 t19.5 8.5h78q-8 96 3.5 217t25.5 193t30 138h-72q-12 0 -20.5 8t-8.5 20t8.5 20.5t20.5 8.5h218z" />
<glyph unicode="&#xcd;" horiz-adv-x="350" d="M100 662h218q12 0 20.5 -8.5t8.5 -20.5t-8.5 -20t-20.5 -8h-87q-15 -60 -29.5 -130t-27.5 -196t-4 -222h84q12 0 20 -8.5t8 -20.5t-8 -20t-20 -8h-219q-11 0 -19.5 8t-8.5 20t8.5 20.5t19.5 8.5h78q-8 96 3.5 217t25.5 193t30 138h-72q-12 0 -20.5 8t-8.5 20t8.5 20.5 t20.5 8.5zM371 918q13 -30 -3.5 -62.5t-52.5 -48.5q-23 -11 -47 -11q-11 0 -22 3q-22 4 -37 19q-21 -47 -21 -66q0 -5 -2.5 -10.5t-6 -9t-9 -6t-11.5 -2.5q-12 0 -20 8.5t-8 20.5q0 25 21 76t50 87q17 24 46 38q4 1 10 3q2 1 7 3h1q19 6 38 4q7 -1 13 -2q36 -8 52 -38v0 q0 -1 0.5 -2l0.5 -1q1 -1 1 -1.5v-0.5v-1zM291 858q6 3 11.5 7t8.5 7.5t5.5 8t3 8t-0.5 7.5q-9 11 -24 11q-12 0 -23 -5t-22 -17q-3 -4 -3 -5q-6 -10 -2.5 -17t13.5 -9q16 -3 33 4z" />
<glyph unicode="&#xce;" horiz-adv-x="350" d="M120 716q-12 4 -17 14.5t-2 21.5q5 15 13 36t31.5 65t46.5 67q21 22 47 13q54 -17 79 -185q0 -6 -1 -11.5t-4.5 -10t-8.5 -7.5t-10 -4q-8 -1 -15 2t-11.5 9t-6.5 13q-14 95 -36 134q-21 -25 -40.5 -66.5t-29.5 -71.5q-6 -20 -27 -20q-4 0 -8 1zM100 662h218 q12 0 20.5 -8.5t8.5 -20.5t-8.5 -20t-20.5 -8h-87q-15 -60 -29.5 -130t-27.5 -196t-4 -222h84q11 0 19.5 -8.5t8.5 -20.5t-8.5 -20t-19.5 -8h-219q-11 0 -19.5 8t-8.5 20t8.5 20.5t19.5 8.5h78q-8 96 3.5 217t25.5 193t30 138h-72q-12 0 -20.5 8t-8.5 20t8.5 20.5t20.5 8.5z " />
<glyph unicode="&#xcf;" horiz-adv-x="349" d="M323 890q38 0 64.5 -26.5t26.5 -64.5q0 -40 -29 -68q-25 -23 -58 -23h-6q-20 2 -39 14t-32 31t-17 41q-7 34 17 62q28 34 73 34zM346 773q11 11 11 26t-10 25t-24 10q-18 0 -30 -14q-6 -8 -5 -15q2 -10 8.5 -19.5t14 -14.5t14.5 -6q12 -1 21 8zM92 708q-31 3 -57 27.5 t-32 58.5t17 62q29 35 74 35q37 0 64 -27t27 -65q0 -40 -30 -68q-25 -23 -57 -23h-6zM64 820q-6 -8 -5 -15q2 -10 8 -19.5t14 -14.5t15 -6q11 -1 21 8q11 11 11 26t-10 25t-24 10q-19 0 -30 -14zM317 662q12 0 20.5 -8.5t8.5 -20.5t-8.5 -20t-20.5 -8h-87 q-15 -60 -29.5 -130t-27 -196t-4.5 -222h84q12 0 20 -8.5t8 -20.5t-8 -20t-20 -8h-219q-11 0 -19.5 8t-8.5 20t8.5 20.5t19.5 8.5h78q-8 96 3.5 217t25.5 193t30 138h-72q-12 0 -20 8t-8 20t8 20.5t20 8.5h218z" />
<glyph unicode="&#xd1;" horiz-adv-x="529" d="M206 806q-8 -8 -20 -7.5t-20 9.5t-7 20.5t9 19.5q6 5 14.5 11.5t26 17t39 15.5t40.5 1q42 -8 65 -53q9 -18 22 -21q14 -2 34 8t33 21q9 8 20.5 7.5t19.5 -9.5t7.5 -20.5t-9.5 -19.5q-7 -6 -17.5 -14t-35.5 -19t-47 -11q-8 0 -16 2q-40 7 -62 51q-10 20 -24 22 q-16 3 -37 -7.5t-35 -23.5zM473 702q8 -6 11 -17.5t5.5 -70.5t-6.5 -177q-13 -245 -37 -356q-8 -38 -18.5 -57.5t-28.5 -22.5q-3 -1 -7 -1q-19 0 -32 18q-43 63 -178 573q-37 -63 -60 -144.5t-30 -146t-7 -131.5t2 -92.5t4 -38.5q1 -11 -6 -20.5t-18.5 -11t-21 5.5t-11.5 19 q-1 11 -3 28.5t-3.5 63.5t0.5 92.5t10 109.5t23 120t43.5 119t67.5 112q10 13 27.5 9.5t21.5 -20.5q112 -430 169 -578q20 91 34.5 312.5t6.5 267.5q-7 15 3 28q6 10 18 12t21 -5z" />
<glyph unicode="&#xd2;" d="M179 812.5q0 0.5 -0.5 1t-0.5 1.5q-18 33 -10 68q8 37 40 54q31 17 66 4t53 -47q17 -33 10 -68q-6 -24 -23 -41q27 -3 52 11q11 5 22 1.5t16.5 -14t2 -21.5t-13.5 -17q-34 -18 -69 -18q-67 0 -123 59q-13 11 -21 26h-0.5t-0.5 0.5zM223 870q-3 -13 4 -28q6 -7 14 -16 q16 -11 29 -4q9 5 11 17q3 14 -4 28q-12 22 -32 22q-6 0 -10 -2q-9 -5 -12 -17zM413 563q26 -74 29.5 -159t-23.5 -178t-87 -161q-8 -10 -19.5 -21t-43 -27.5t-62.5 -16.5q-6 0 -13 1q-82 9 -140 124q-35 69 -29.5 151t35 157.5t77.5 140.5q14 18 30 35.5t39.5 38.5t50 31.5 t50.5 6.5q32 -6 59.5 -37.5t46.5 -85.5zM289 102q51 58 75 139t21.5 159t-26.5 144q-14 39 -31 61.5t-30 24.5h-4q-17 0 -47 -22t-64 -68q-41 -56 -68 -122.5t-33.5 -138t23.5 -128.5q44 -88 95 -94q21 -2 44 10t31.5 20.5l13.5 13.5v1z" />
<glyph unicode="&#xd3;" d="M413 563q26 -74 29.5 -159t-23.5 -178t-87 -161q-8 -10 -19.5 -21t-43 -27.5t-62.5 -16.5q-6 0 -13 1q-82 9 -140 124q-35 69 -29.5 151t35 157.5t77.5 140.5q14 18 30 35.5t39.5 38.5t50 31.5t50.5 6.5q32 -6 59.5 -37.5t46.5 -85.5zM289 102q51 58 75 139t21.5 159 t-26.5 144q-9 26 -20.5 46t-22 29.5t-19.5 10.5h-3q-17 0 -47 -22t-64 -68q-41 -56 -68 -122.5t-33.5 -138t23.5 -128.5q44 -88 95 -94q8 -1 15.5 0t14.5 3.5t14 6t12.5 7t10.5 7.5t8.5 7.5t7 6.5t4.5 4.5t1.5 2zM173.5 725.5q-11.5 0.5 -20 8.5t-8.5 20q1 25 21.5 76 t50.5 87q17 25 46 38q4 2 10 4q2 1 7 2h1t1 1q13 3 26 3q26 1 46.5 -10.5t30.5 -32.5v-1.5v-0.5h1v-1q12 -30 -4 -62t-53 -49q-23 -11 -47 -11q-11 0 -21 3q-22 5 -38 19q-21 -47 -21 -65q0 -12 -8.5 -20.5t-20 -8zM306 860q14 6 22 17t5 20q-9 11 -24 11q-11 0 -23 -5 q-10 -5 -22 -17q-2 -3 -3 -5q-5 -10 -2 -16.5t14 -9.5q15 -3 33 5z" />
<glyph unicode="&#xd4;" d="M181 719q-11 4 -16 14.5t-2 21.5q5 14 13 35.5t31 65.5t46 67q22 22 48 13q53 -17 78 -186q2 -7 -1 -14t-9 -12t-13.5 -6t-14.5 2t-12 8.5t-6 13.5q-14 95 -36 134q-21 -26 -40.5 -67t-29.5 -72q-6 -19 -27 -19q-4 0 -9 1zM413 563q19 -54 25.5 -117t-0.5 -130 t-34 -133.5t-72 -117.5q-8 -10 -19.5 -21t-43 -27.5t-62.5 -16.5q-6 0 -13 1q-82 9 -140 124q-35 69 -29.5 151t35 157.5t77.5 140.5q14 18 30 35.5t39.5 38.5t50 31.5t50.5 6.5q32 -6 59.5 -37.5t46.5 -85.5zM289 102q51 58 75 139t21.5 159t-26.5 144q-14 39 -31 61.5 t-31 24.5h-3q-10 0 -25.5 -8t-39 -29.5t-46.5 -52.5q-41 -56 -68 -122.5t-33.5 -138t23.5 -128.5q44 -88 95 -94q13 -1 27 3t24 10t19.5 14t13 11.5l5.5 5.5v1z" />
<glyph unicode="&#xd5;" d="M307 686q16 -3 31 -12.5t28.5 -25t25 -37t21.5 -48.5q26 -74 29.5 -159t-23.5 -178t-87 -161q-8 -10 -19.5 -21t-43 -27.5t-62.5 -16.5q-6 0 -13 1q-82 9 -140 124q-35 69 -29.5 151t35 157.5t77.5 140.5q14 18 30 35.5t39.5 38.5t50 31.5t50.5 6.5zM289 102 q51 58 75 139t21.5 159t-26.5 144q-9 26 -20.5 46t-22 29.5t-19.5 10.5h-3q-17 0 -47 -22t-64 -68q-41 -56 -68 -122.5t-33.5 -138t23.5 -128.5q44 -88 95 -94q21 -2 44 10t31.5 20.5l13.5 13.5v1zM464 825q8 -9 7.5 -20.5t-9.5 -19.5q-49 -44 -99 -44q-9 0 -17 2 q-40 8 -62 51q-10 20 -24 22q-16 4 -37.5 -7.5t-33.5 -23.5q-9 -8 -21 -7t-19.5 9.5t-7 20.5t8.5 19q9 8 22 17.5t43 21t55 6.5q43 -8 65 -53q9 -18 22 -20q14 -3 34 7t33 22q9 7 20.5 6.5t19.5 -9.5z" />
<glyph unicode="&#xd6;" horiz-adv-x="474" d="M404 897q24 0 45 -12t33.5 -33t12.5 -46q0 -40 -30 -68q-25 -23 -57 -23h-7q-31 3 -56.5 27.5t-31.5 58.5t17 62q28 34 74 34zM426 780q12 10 12 26q0 10 -4.5 17.5t-12.5 12.5t-17 5q-19 0 -30 -14q-7 -8 -5 -15q3 -16 14.5 -27.5t22.5 -12.5t20 8zM172 715 q-20 2 -39 14t-32 31t-17 41q-7 34 17 62q28 34 73 34q38 0 64.5 -26.5t26.5 -64.5q0 -40 -29 -68q-25 -23 -58 -23h-6zM144 827q-6 -8 -5 -15q2 -11 8.5 -20t14 -14.5t14.5 -5.5q12 -1 21 8q11 10 11 26q0 15 -10 25t-24 10q-18 0 -30 -14zM307 686q32 -6 59.5 -37.5 t46.5 -85.5q26 -74 29.5 -159t-23.5 -178t-87 -161q-8 -10 -19.5 -21t-43 -27.5t-62.5 -16.5q-6 0 -13 1q-82 9 -140 124q-35 69 -29.5 151t35 157.5t77.5 140.5q14 18 30 35.5t39.5 38.5t50 31.5t50.5 6.5zM289 102q51 58 75 139t21.5 159t-26.5 144q-9 26 -20.5 46 t-22 29.5t-19.5 10.5h-3q-17 0 -47 -22t-64 -68q-41 -56 -68 -122.5t-33.5 -138t23.5 -128.5q44 -88 95 -94q21 -2 44 10t31.5 20t13.5 14v1z" />
<glyph unicode="&#xd8;" horiz-adv-x="621" d="M395 690q54 0 99.5 -45.5t71 -125t25.5 -174.5q0 -71 -15 -135t-41.5 -110t-63 -73t-76.5 -27h-168q-55 0 -100 45.5t-71 125t-26 174.5q0 72 15.5 136t41.5 110t62.5 72.5t77.5 26.5h168zM87 345q0 -124 43 -206t97 -82h58q-40 47 -63.5 122.5t-23.5 165.5t23.5 166 t63.5 123h-58q-54 0 -97 -82.5t-43 -206.5zM394.5 57q53.5 0 97 82t43.5 206t-43.5 206.5t-97 82.5t-96.5 -82.5t-43 -206.5t43 -206t96.5 -82z" />
<glyph unicode="&#xdd;" horiz-adv-x="378" d="M357 727q11 -4 16 -14.5t1 -21.5q-12 -35 -29 -75t-48 -104t-68.5 -112.5t-73.5 -63.5q-15 -191 -1 -304q2 -12 -5 -21t-19 -11h-4q-10 0 -18 7t-10 17q-15 116 0 310q-55 20 -66 128q-7 71 3 161q4 34 8.5 55t9.5 31.5t10.5 14t14.5 5.5q7 1 14 -2t11.5 -9t5.5 -14 q2 -12 -6 -21q-7 -21 -13 -77.5t-2.5 -120.5t20.5 -89q8 -11 18 -10q24 2 60 51.5t71.5 122t63.5 150.5q3 7 8.5 12t13 6.5t14.5 -1.5zM137 781q-8 0 -14.5 4t-10 10.5t-3.5 14.5q0 25 21 76t50 87q17 24 46 37q4 2 10 4q3 1 7 3h1q19 6 38 4q7 -1 13 -2q36 -8 52 -38v0 q0 -1 0.5 -2l0.5 -1q1 -1 1 -1.5v-0.5v-1q13 -32 -5 -65q-16 -30 -51 -46q-23 -11 -47 -11q-11 0 -22 3q-22 4 -37 19q-21 -47 -21 -66q0 -7 -4 -13.5t-10.5 -10.5t-14.5 -4zM294 937q5 9 3 16q-9 11 -24 11q-12 0 -23 -5t-22 -17q-3 -4 -3 -5q-6 -10 -2.5 -17t13.5 -9 q16 -3 33.5 4.5t24.5 21.5z" />
<glyph unicode="&#xdf;" horiz-adv-x="437" d="M260 0q-27 0 -58 8q-12 2 -18 12t-3.5 21.5t13 18t21.5 3.5q52 -13 87 1t47 53q18 52 -9 112.5t-88 85.5q-32 14 -40 40q-2 8 -2.5 16t2 16.5t5.5 15.5t9 17t10 16.5t12 17.5q35 52 42 78q9 32 -1 55.5t-29 32.5q-11 5 -22.5 4.5t-23 -6t-22 -15.5t-20.5 -25 q-37 -57 -55.5 -134.5t-20 -140.5t5 -130.5t11.5 -92.5t8 -38q3 -11 -3 -21t-17 -13t-21.5 3t-13.5 17q-4 18 -9.5 45.5t-12.5 99.5t-4.5 139t23.5 150.5t62 146.5q17 27 39 44.5t43 23t40.5 4t35.5 -8.5q27 -12 44.5 -36t22 -54.5t-4.5 -64.5q-10 -35 -50 -95 q-28 -41 -29 -50q3 -2 8 -5q41 -17 72.5 -49t46.5 -68.5t19 -77t-9 -73.5q-14 -43 -50 -71t-93 -28z" />
<glyph unicode="&#xe0;" horiz-adv-x="447" d="M408 79q12 0 20 -8.5t8 -20t-8.5 -19.5t-19.5 -8h-1q-85 1 -124 46l-8 10q-78 -79 -144 -79q-7 0 -13 1q-51 7 -78 63q-18 40 -14.5 88t23.5 96t48.5 89.5t59.5 67.5q36 30 70 36.5t61 -12.5q17 -12 26 -30t9.5 -44.5t-1 -44.5t-6.5 -52q-8 -40 -8 -85.5t18 -66.5 q22 -26 82 -27zM260 266q4 24 5.5 37.5t2 32.5t-2.5 30.5t-10 15.5q-5 4 -13 4q-19 0 -48 -24q-58 -49 -92.5 -136t-10.5 -137q14 -29 34 -32q25 -3 59.5 20.5t58.5 51.5q5 5 11 7q-6 41 6 130zM148 563l-0.5 1l-0.5 1q-18 34 -9.5 70t39.5 52.5t66 4t53 -47.5 q17 -33 10 -68q-6 -24 -23 -41q27 -3 52 11q11 5 22 1.5t16.5 -13.5t2 -21.5t-13.5 -16.5q-34 -18 -69 -18q-67 0 -123 58q-13 11 -21 26q-1 0 -1 1v0zM204 637q-10 -5 -12 -18t4 -26q6 -8 14 -17q16 -11 29 -4q9 5 11 17q3 14 -4 29q-12 22 -32 22q-6 0 -10 -3z" />
<glyph unicode="&#xe1;" horiz-adv-x="447" d="M408 79q12 0 20 -8.5t8 -20t-8.5 -19.5t-19.5 -8h-1q-85 1 -124 46l-8 10q-78 -79 -144 -79q-7 0 -13 1q-51 7 -78 63q-24 54 -10 120t49.5 125.5t77.5 95.5q36 30 70 36.5t61 -12.5q17 -12 26 -30t9.5 -44.5t-1 -44.5t-6.5 -52q-8 -40 -8 -85.5t18 -66.5q22 -26 82 -27z M260 266q4 24 5.5 37.5t2 32.5t-2.5 30.5t-10 15.5q-5 4 -13 4q-19 0 -48 -24q-58 -49 -92.5 -136t-10.5 -137q14 -29 34 -32q25 -3 59.5 20.5t58.5 51.5q5 5 11 7q-6 41 6 130zM136 447q-12 1 -20 9t-8 20q0 25 20.5 76t50.5 87q17 25 46 38q4 2 10 4q2 1 7 2v0q20 6 38 4 q8 -1 14 -2q36 -8 52 -38v0q0 -1 0.5 -2l0.5 -1q0 -1 0.5 -1.5l0.5 -0.5v-1q13 -30 -3.5 -62t-52.5 -49q-23 -11 -48 -11q-11 0 -21 3q-22 5 -37 19q-21 -47 -21 -65q0 -8 -4 -14.5t-10.5 -10.5t-14.5 -4zM268 582q15 6 22.5 17t5.5 20q-9 11 -24 11q-12 0 -23 -5t-22 -17 q-3 -4 -3 -5q-6 -10 -3 -16.5t14 -9.5q16 -3 33 5z" />
<glyph unicode="&#xe2;" horiz-adv-x="447" d="M408 79q12 0 20 -8.5t8 -20t-8.5 -19.5t-19.5 -8h-1q-85 1 -124 46l-8 10q-78 -79 -144 -79q-7 0 -13 1q-51 7 -78 63q-18 40 -14.5 88t23.5 96t48.5 89.5t59.5 67.5q36 30 70 36.5t61 -12.5q17 -12 26 -30t9.5 -44.5t-1 -44.5t-6.5 -52q-8 -40 -8 -85.5t18 -66.5 q22 -26 82 -27zM260 266q4 24 5.5 37.5t2 32.5t-2.5 30.5t-10 15.5q-5 4 -13 4q-19 0 -48 -24q-58 -49 -92.5 -136t-10.5 -137q14 -29 34 -32q25 -3 59.5 20.5t58.5 51.5q5 5 11 7q-6 41 6 130zM152 470q-11 3 -16.5 13.5t-1.5 21.5q5 15 13 36t31 65t46 67q22 22 48 13 q53 -17 78 -185q2 -12 -5 -21.5t-18.5 -11t-21 5.5t-11.5 18q-14 95 -36 134q-22 -25 -41 -66.5t-29 -71.5q-6 -20 -27 -20q-5 0 -9 2z" />
<glyph unicode="&#xe3;" horiz-adv-x="447" d="M408 79q12 0 20 -8.5t8 -20t-8.5 -19.5t-19.5 -8h-1q-85 1 -124 46l-8 10q-78 -79 -144 -79q-7 0 -13 1q-51 7 -78 63q-18 40 -14.5 88t23.5 96t48.5 89.5t59.5 67.5q36 30 70 36.5t61 -12.5q17 -12 26 -30t9.5 -44.5t-1 -44.5t-6.5 -52q-8 -40 -8 -85.5t18 -66.5 q22 -26 82 -27zM260 266q4 24 5.5 37.5t2 32.5t-2.5 30.5t-10 15.5q-5 4 -13 4q-19 0 -48 -24q-58 -49 -92.5 -136t-10.5 -137q14 -29 34 -32q25 -3 59.5 20.5t58.5 51.5q5 5 11 7q-6 41 6 130zM129 507q-8 -8 -20 -7t-20 9.5t-7.5 20t9.5 19.5t22 17.5t43 21t55 6.5 q42 -8 65 -53q9 -18 22 -20q14 -3 34 7t33 22q9 7 20.5 6.5t19.5 -9.5t7 -20.5t-9 -19.5q-5 -4 -12 -9t-21 -14t-32 -15t-35 -6q-8 0 -16 2q-40 7 -62 51q-10 20 -24 22q-16 3 -37 -7.5t-35 -23.5z" />
<glyph unicode="&#xe4;" horiz-adv-x="448" d="M409 79q12 0 20 -8.5t8 -20t-8.5 -19.5t-19.5 -8h-1q-85 1 -124 46l-8 10q-78 -79 -145 -79q-6 0 -12 1q-51 7 -78 63q-24 54 -10 120t49.5 125.5t77.5 95.5q36 30 70 36.5t61 -12.5q17 -12 26 -30t9.5 -44.5t-1 -44.5t-6.5 -52q-8 -40 -8 -85.5t18 -66.5q22 -26 82 -27z M261 266q4 24 5 37.5t2 32.5t-2 30.5t-10 15.5q-5 4 -13 4q-19 0 -48 -24q-58 -49 -92.5 -136t-10.5 -137q14 -29 34 -32q25 -3 59.5 20.5t58.5 51.5q5 5 11 7q-6 41 6 130zM334 487q-31 3 -56.5 27.5t-31.5 58.5q-7 34 17 62q28 35 73 35q38 0 64.5 -27t26.5 -65 q0 -40 -30 -68q-24 -23 -57 -23h-6zM306 599q-6 -8 -5 -15q2 -10 8.5 -19.5t14 -14.5t14.5 -6q12 -1 21 8q11 11 11 26t-10 25t-24 10q-18 0 -30 -14zM105 487q-31 3 -57 27.5t-32 58.5t17 62q29 35 74 35q37 0 64 -27t27 -65q0 -40 -30 -68q-25 -23 -57 -23h-6zM77 599 q-6 -8 -5 -15q3 -16 14.5 -27.5t22.5 -12.5t21 8q11 11 11 26q0 10 -4.5 18t-12.5 12.5t-17 4.5q-19 0 -30 -14z" />
<glyph unicode="&#xe5;" horiz-adv-x="447" d="M408 79q12 0 20 -8.5t8 -20t-8.5 -19.5t-19.5 -8h-1q-85 1 -124 46l-8 10q-78 -79 -144 -79q-7 0 -13 1q-51 7 -78 63q-24 54 -10 120t49.5 125.5t77.5 95.5q36 30 70 36.5t61 -12.5q17 -12 26 -30t9.5 -44.5t-1 -44.5t-6.5 -52q-8 -40 -8 -85.5t18 -66.5q22 -26 82 -27z M260 266q4 24 5.5 37.5t2 32.5t-2.5 30.5t-10 15.5q-5 4 -13 4q-19 0 -48 -24q-58 -49 -92.5 -136t-10.5 -137q14 -29 34 -32q25 -3 59.5 20.5t58.5 51.5q5 5 11 7q-6 41 6 130zM231 489q-44 0 -74 32q-28 29 -25 68q2 34 29.5 62t64.5 35q36 6 66 -19q38 -31 38 -80 q0 -41 -29 -69.5t-70 -28.5zM189 585q-1 -14 9 -26q13 -14 33 -14q17 0 29.5 12.5t12.5 29.5q0 23 -17 37q-8 6 -16 6h-4q-19 -4 -32.5 -17.5t-14.5 -27.5z" />
<glyph unicode="&#xe6;" horiz-adv-x="746" d="M731 464q8 -24 -9 -42l-146 -155l34 -219q4 -26 -17 -41q-10 -7 -22 -7q-10 0 -19 6l-179 102l-178 -102q-22 -13 -42 1q-21 15 -17 41l34 219l-146 155q-17 18 -9 42q8 23 32 27l200 32l90 198q11 24 36.5 24t35.5 -24l90 -198l200 -32q24 -4 32 -27z" />
<glyph unicode="&#xe7;" horiz-adv-x="341" d="M188 31h-1l-16 -36q19 3 36 0q51 -8 85 -61q12 -19 16 -38.5t1.5 -37.5t-10.5 -34.5t-20 -30t-27 -22.5q-31 -21 -69 -21q-71 0 -117 71q-7 10 -4.5 21.5t12 18t21 4t18.5 -12.5q17 -25 37.5 -36t38 -9.5t33.5 11.5q21 14 28.5 37t-6.5 48q-20 32 -46 36q-30 5 -64 -19 q-17 -14 -34.5 -0.5t-8.5 33.5l37 86q-34 14 -65 48q-35 37 -38 91.5t27 113.5q29 58 77.5 98.5t94.5 35.5q23 -3 44.5 -20t32.5 -58q4 -12 -2 -22t-17.5 -13t-21.5 3t-13 17q-9 34 -29 36q-22 3 -57 -26.5t-58 -75.5q-10 -19 -16 -39t-4 -51t21 -51q40 -44 77 -39 q13 2 27 10t23.5 17.5t18 21t12 16.5t4.5 7q5 10 16.5 13.5t22 -2t13.5 -17t-2 -21.5q-2 -3 -5 -8t-11.5 -17t-19.5 -23.5t-24.5 -23t-31.5 -19.5t-36 -10z" />
<glyph unicode="&#xe8;" horiz-adv-x="361" d="M329 36q2 -12 -5 -21.5t-19 -10.5q-26 -4 -62 -4q-119 0 -175 53q-50 47 -42 127q10 98 76.5 170.5t133.5 73.5h2q35 0 58 -22.5t28 -61.5q15 -125 -47 -176q-64 -52 -195 -14q2 -34 25 -56q21 -20 61.5 -30t73 -8t55.5 4q11 2 20.5 -5t11.5 -19zM237 367 q-37 0 -84.5 -45.5t-64.5 -113.5q111 -35 153 0q38 31 27 126q-4 33 -30 33h-1zM92 519q-15 13 -24 30q-18 33 -10 68q9 37 41 54q30 17 65 4t53 -47q18 -33 10 -68q-5 -24 -23 -41q27 -3 53 11q10 5 21.5 1.5t17 -13.5t2 -21.5t-14.5 -16.5q-34 -19 -69 -19q-66 0 -122 58z M114 605q-3 -14 4 -28q5 -8 13 -16q5 -4 9 -5q11 -5 20 0t12 17q3 14 -5 29q-12 22 -32 22q-5 0 -10 -3q-9 -5 -11 -16z" />
<glyph unicode="&#xe9;" horiz-adv-x="362" d="M101 443q-12 0 -20 8.5t-8 20.5q0 24 20.5 75t49.5 87q15 22 41 35q3 2 6 3q4 2 10 4q2 1 7 2q0 1 1 1q19 5 38 3q7 0 13 -2q36 -8 52 -38v0l0.5 -1t0.5 -2l0.5 -0.5l0.5 -0.5v-1q13 -32 -5 -65q-16 -31 -51 -46q-23 -11 -47 -11q-12 0 -22 2q-22 5 -37 19 q-21 -47 -21 -65q0 -8 -4 -14t-10.5 -10t-14.5 -4zM258 599q5 9 3 15q-9 12 -24 12q-12 0 -23 -5t-23 -18q-9 -12 -5 -21q3 -7 14 -9q16 -4 33.5 4t24.5 22zM330 36q2 -12 -5 -21.5t-19 -10.5q-26 -4 -62 -4q-119 0 -175 53q-50 47 -42 127q10 98 76.5 170.5t133.5 73.5h2 q35 0 58 -22.5t28 -61.5q15 -125 -47 -176q-64 -52 -195 -14q2 -34 25 -56q21 -20 61.5 -30t73 -8t55.5 4q11 2 20.5 -5t11.5 -19zM238 367q-37 0 -84.5 -45.5t-64.5 -113.5q111 -35 153 0q38 31 27 126q-4 33 -30 33h-1z" />
<glyph unicode="&#xea;" horiz-adv-x="361" d="M329 36q2 -12 -5 -21.5t-19 -10.5q-26 -4 -62 -4q-119 0 -175 53q-50 47 -42 127q7 65 41 122.5t80 89t89 32.5h2q35 0 58 -22.5t28 -61.5q15 -125 -47 -176q-64 -52 -195 -14q2 -34 25 -56q21 -20 61.5 -30t73 -8t55.5 4q11 2 20.5 -5t11.5 -19zM237 367 q-37 0 -84.5 -45.5t-64.5 -113.5q111 -35 153 0q38 31 27 126q-4 33 -30 33h-1zM104 454q-11 4 -16.5 14.5t-1.5 21.5q4 14 12 35.5t31.5 65.5t46.5 67q22 22 48 13q53 -17 78 -186q1 -5 -0.5 -11t-5 -10t-8 -7t-10.5 -4q-12 -2 -21.5 5t-10.5 19q-15 95 -37 133 q-14 -17 -30 -46.5t-25 -52t-14 -39.5q-7 -19 -27 -19q-5 0 -9 1z" />
<glyph unicode="&#xeb;" horiz-adv-x="362" d="M298 60q11 2 20.5 -5t11.5 -19q1 -8 -1.5 -15t-8.5 -11.5t-14 -5.5q-26 -4 -62 -4q-119 0 -175 53q-50 47 -42 127q6 65 40.5 122.5t80.5 89t89 32.5h1q36 0 59 -22.5t28 -61.5q15 -125 -47 -176q-64 -52 -195 -14q2 -34 25 -56q21 -20 61.5 -30t73 -8t55.5 4zM238 367 q-37 0 -84.5 -45.5t-64.5 -113.5q110 -35 153 0q38 31 27 126q-5 33 -30 33h-1zM321 654q38 0 64.5 -26.5t26.5 -64.5q0 -41 -29 -68q-25 -23 -58 -23h-6q-31 2 -56.5 27t-31.5 59q-7 34 17 62q28 34 73 34zM344 536q11 11 11 27q0 14 -10 24t-24 10q-18 0 -30 -13 q-6 -8 -5 -16q1 -5 3.5 -10t5 -9t6.5 -8t7.5 -6.5t7.5 -4t7 -1.5q12 -1 21 7zM90 472q-31 2 -57 27t-32 59t17 62q29 34 74 34q37 0 64 -26.5t27 -64.5q0 -41 -30 -68q-25 -23 -57 -23h-6zM62 584q-6 -8 -5 -16q1 -7 5.5 -14.5t9.5 -12.5t11 -8.5t11 -3.5q11 -1 21 7 q11 11 11 27q0 14 -10 24t-24 10q-19 0 -30 -13z" />
<glyph unicode="&#xec;" horiz-adv-x="247" d="M224 517.5q0 -30.5 -21.5 -51.5t-51.5 -21t-51.5 21t-21.5 51.5t21.5 52t51.5 21.5t51.5 -21.5t21.5 -52zM116 517.5q0 -14.5 10 -25t25 -10.5t25 10.5t10 25t-10 25t-25 10.5t-25 -10.5t-10 -25zM214.5 113q11.5 -4 16.5 -14.5t1 -21.5q-11 -32 -36.5 -59.5t-62.5 -27.5 q-6 0 -12 1q-45 6 -70 53q-61 110 48 349q5 11 16 15t21.5 -1t15 -16t-0.5 -21q-31 -68 -47 -123.5t-16.5 -90t3 -54t10.5 -31.5q11 -21 28 -24q13 -2 26 11.5t17 22.5t6 14q4 12 14.5 17t22 1zM277.5 677.5q5.5 -10.5 2 -21.5t-14.5 -17q-34 -18 -69 -18q-66 0 -122 58 q-15 13 -24 30q-18 34 -9 70t40 52q32 17 67 3q33 -13 51 -46q15 -29 11.5 -59t-24.5 -50q27 -3 53 11q10 5 21.5 1.5t17 -14zM107 781q-9 -5 -11.5 -18t4.5 -26q5 -8 13 -16q5 -4 9 -5q11 -5 20 0q10 5 12 18.5t-5 27.5q-8 14 -21 20q-6 2 -11 2t-10 -3z" />
<glyph unicode="&#xed;" horiz-adv-x="248" d="M268 822q13 -31 -5 -64q-16 -31 -51 -47q-23 -10 -47 -10q-11 0 -22 2q-22 5 -37 19q-21 -47 -21 -65q0 -12 -8.5 -20t-20.5 -8t-20 8.5t-8 19.5q0 25 20.5 75.5t49.5 86.5q15 22 41 36q3 1 6 3l10 4q3 1 7 2h1q19 6 37 4q8 -1 14 -2q36 -8 52 -38v0v-1l1 -2l1 -1v-1v-1z M213 785q5 8 3 15q-9 11 -24 12q-12 -1 -23 -6t-23 -17q-8 -13 -5 -21q4 -7 14 -10q16 -3 33.5 5t24.5 22zM224 517.5q0 -30.5 -21.5 -51.5t-51.5 -21t-51.5 21t-21.5 51.5t21.5 52t51.5 21.5t51.5 -21.5t21.5 -52zM115 517.5q0 -14.5 10.5 -25t25 -10.5t25 10.5t10.5 25 t-10.5 25t-25 10.5t-25 -10.5t-10.5 -25zM214 113q6 -2 10 -5.5t6.5 -8.5t3 -10.5t-1.5 -11.5q-11 -32 -36.5 -59.5t-62.5 -27.5q-6 0 -12 1q-45 6 -70 53q-61 110 48 349q5 11 16 15t21.5 -1t15 -16t-0.5 -21q-31 -68 -47 -123.5t-16.5 -90t3 -54t10.5 -31.5q11 -21 28 -24 q13 -2 26 11.5t17 22.5t6 14q4 12 14.5 17t21.5 1z" />
<glyph unicode="&#xee;" horiz-adv-x="248" d="M151 445q-30 0 -51.5 21t-21.5 51.5t21.5 52t51.5 21.5t51.5 -21.5t21.5 -52t-21.5 -51.5t-51.5 -21zM151 553q-15 0 -25 -10.5t-10 -25t10 -25t25 -10.5t25 10.5t10 25t-10 25t-25 10.5zM214.5 113q11.5 -4 16.5 -14.5t1 -21.5q-11 -32 -36.5 -59.5t-62.5 -27.5 q-6 0 -12 1q-45 6 -70 53q-61 110 48 349q5 11 16 15t21.5 -1t15 -16t-0.5 -21q-31 -68 -47 -123.5t-16.5 -90t3 -54t10.5 -31.5q11 -21 28 -24q13 -2 26 11.5t17.5 22.5t5.5 14q4 12 14.5 17t22 1zM260 664q1 -7 -2 -14t-9 -12t-13.5 -6t-14.5 2t-11.5 8.5t-6.5 13.5 q-14 95 -36 134q-21 -26 -40.5 -67.5t-29.5 -71.5q-6 -19 -27 -19q-4 0 -8 1q-12 4 -17 14.5t-2 21.5q2 6 5.5 14.5t12.5 31t19 42.5t24.5 42.5t29.5 37.5q21 22 47 13q54 -17 79 -186z" />
<glyph unicode="&#xef;" horiz-adv-x="247" d="M77 517.5q0 30.5 21.5 52t51.5 21.5t51.5 -21.5t21.5 -52t-21.5 -51.5t-51.5 -21t-51.5 21t-21.5 51.5zM150 553q-15 0 -25 -10.5t-10 -25t10 -25t25 -10.5t25 10.5t10 25t-10 25t-25 10.5zM214 113q11 -4 16 -14.5t1 -21.5q-11 -32 -36.5 -59.5t-62.5 -27.5q-6 0 -12 1 q-45 6 -70 53q-60 110 48 349q5 11 16 15t22 -1t15 -16t-1 -21q-31 -68 -47 -123.5t-16.5 -90t3 -54t10.5 -31.5q11 -21 28 -24q14 -2 26.5 11.5t16.5 22.5t7 14q2 8 8 13t13 6t15 -1zM265 833q38 0 64.5 -26.5t26.5 -64.5q0 -41 -29 -68q-25 -23 -58 -23h-6q-31 2 -56.5 27 t-31.5 59q-7 34 17 62q28 34 73 34zM288 715q11 11 11 27q0 14 -10 24t-24 10q-18 0 -30 -13q-6 -8 -5 -16q3 -15 14.5 -26.5t22.5 -12.5q12 -1 21 7zM40 651h-6q-31 2 -57 27t-32 59t17 62q29 34 74 34q37 0 64 -26.5t27 -64.5q0 -41 -30 -68q-25 -23 -57 -23zM1 747 q3 -15 14.5 -26.5t22.5 -12.5t21 7q11 11 11 27q0 9 -4.5 17t-12.5 12.5t-17 4.5q-19 0 -30 -13q-6 -8 -5 -16z" />
<glyph unicode="&#xf1;" horiz-adv-x="355" d="M222 435q49 7 82 -30q17 -20 19.5 -62t-5.5 -88t-21 -94.5t-23.5 -79.5t-16.5 -45q-4 -7 -6 -11.5t-7 -11.5t-11.5 -10t-13.5 -3h-1q-11 0 -19.5 8t-8.5 20q0 14 11 22q5 9 13 31t18.5 57t18.5 70q7 32 11 58.5t5 43.5t0.5 30t-2.5 19t-4 8q-12 15 -31 12q-21 -4 -46 -26 t-43 -53q-36 -68 -48 -146.5t-7 -112.5q4 -6 3 -14q0 -12 -8.5 -19.5t-19.5 -7.5h-1q-17 0 -25 15q-5 10 -6.5 39t2 68t16 87.5t31.5 90.5v1q7 15 16 30l4 8q9 15 6 22q-3 6 -13.5 11t-18.5 6q-12 2 -19 11.5t-5 21t11.5 18.5t21.5 5q45 -7 67 -37q37 32 74 38zM358 593.5 q8 -8.5 7.5 -20.5t-9.5 -19q-49 -44 -99 -44q-9 0 -16 1q-41 8 -63 51q-10 20 -24 23q-16 3 -37 -8t-34 -23q-9 -8 -21 -7.5t-19.5 9t-7 20.5t9.5 20t21.5 17.5t42.5 20.5t56 7q42 -8 64 -54q9 -18 22 -20q15 -3 35 7.5t32 21.5q9 8 20.5 7t19.5 -9.5z" />
<glyph unicode="&#xf2;" horiz-adv-x="374" d="M303 381q47 -34 43 -116.5t-29 -145t-67 -93.5q-35 -26 -77 -26q-17 0 -34 4q-43 11 -73.5 50.5t-37.5 92.5q-9 70 27 132.5t110 104.5q1 0 3 1q12 5 28 9.5t49.5 3.5t57.5 -17zM289 267q3 52 -19 67q-10 7 -27 8t-29.5 -2t-22.5 -7q-31 -18 -53.5 -39.5t-32.5 -41 t-16.5 -39t-5.5 -33.5t1 -25q3 -23 13 -43.5t24.5 -34t31.5 -18.5q34 -8 63 13q31 23 50.5 74.5t22.5 120.5zM101 522q-15 12 -24 30q-18 33 -10 68q9 37 41 54q30 16 65 3.5t53 -46.5q18 -33 10 -68q-5 -24 -23 -41q27 -3 53 10q10 6 21.5 2.5t17 -14t2 -21.5t-14.5 -17 q-34 -18 -69 -18q-66 0 -122 58zM123 607q-3 -13 4 -28q5 -7 13 -16q5 -3 9 -5q11 -4 20 1t12 16q3 15 -5 29q-12 22 -32 22q-5 0 -10 -2q-9 -5 -11 -17z" />
<glyph unicode="&#xf3;" horiz-adv-x="375" d="M303 381q47 -34 43 -116.5t-29 -145t-67 -93.5q-35 -26 -77 -26q-17 0 -34 4q-43 11 -73.5 50.5t-37.5 92.5q-9 69 27 132t110 105q2 0 3 1q12 5 28 9.5t49.5 3.5t57.5 -17zM289 267q3 52 -19 67q-10 7 -27 8t-29.5 -2t-22.5 -7q-31 -18 -53.5 -39.5t-32.5 -41t-16.5 -39 t-5.5 -33.5t1 -25q3 -23 13 -43.5t24.5 -34t31.5 -18.5q35 -8 63 13q31 23 50.5 74.5t22.5 120.5zM131 447q-12 0 -20 8.5t-8 20.5q0 11 5 30t14 42t23 47.5t29 43.5q17 24 46 37q4 2 10 4q2 1 7 3v0q20 6 38 4q8 -1 14 -2q36 -8 52 -38v0v-2l1 -1q0 -1 0.5 -1.5l0.5 -0.5 v-1q13 -31 -3.5 -63t-52.5 -48q-23 -11 -48 -11q-11 0 -21 3q-22 4 -37 19q-21 -47 -21 -66q0 -7 -4 -13.5t-10.5 -10.5t-14.5 -4zM263 581q15 7 22.5 18t5.5 20q-9 11 -24 11q-12 0 -23 -5t-22 -17q-3 -4 -3 -5q-6 -10 -3 -17t14 -9q16 -4 33 4z" />
<glyph unicode="&#xf4;" horiz-adv-x="373" d="M302 381q47 -34 43 -116.5t-29 -145t-67 -93.5q-35 -26 -77 -26q-17 0 -34 4q-43 11 -73.5 50.5t-37.5 92.5q-9 69 27 132t110 105q2 0 3 1q12 5 28 9.5t49.5 3.5t57.5 -17zM288 267q3 52 -19 67q-8 6 -19.5 7.5t-23 0t-20.5 -3.5t-16 -5q-31 -18 -53.5 -39.5t-32.5 -41 t-16.5 -39t-5.5 -33.5t1 -25q3 -23 13 -43.5t24.5 -34t31.5 -18.5q34 -8 63 13q31 23 50.5 74.5t22.5 120.5zM129 426q-11 3 -16.5 13.5t-1.5 21.5l5 15t12 31.5t19 42t24.5 42.5t29.5 37q22 22 48 14q53 -18 78 -186q1 -12 -6 -21.5t-18 -10.5q-8 -2 -15 1t-11.5 9t-5.5 13 q-15 96 -37 134q-21 -25 -40.5 -66.5t-28.5 -71.5q-7 -20 -27 -20q-5 0 -9 2z" />
<glyph unicode="&#xf5;" horiz-adv-x="375" d="M303 381q47 -34 43 -116.5t-29 -145t-67 -93.5q-35 -26 -77 -26q-17 0 -34 4q-43 11 -73.5 50.5t-37.5 92.5q-9 69 27 132t110 105q2 0 3 1q12 5 28 9.5t49.5 3.5t57.5 -17zM289 267q3 52 -19 67q-10 7 -27 8t-29.5 -2t-22.5 -7q-31 -18 -53.5 -39.5t-32.5 -41t-16.5 -39 t-5.5 -33.5t1 -25q3 -23 13 -43.5t24.5 -34t31.5 -18.5q34 -8 63 13q31 23 50.5 74.5t22.5 120.5zM407.5 547q7.5 -9 7 -20.5t-9.5 -19.5q-7 -6 -17.5 -14t-35 -19t-46.5 -11q-8 0 -16 2q-41 7 -62 51q-10 20 -25 22q-6 2 -14.5 0t-16.5 -5.5t-16 -8t-14 -9t-10 -8.5 q-9 -8 -20.5 -7.5t-19.5 9.5t-7.5 20.5t9.5 19.5t21.5 17.5t42.5 21t56 6.5q42 -8 65 -53q8 -18 21 -21q15 -2 35 8t32 21q9 8 21 7.5t19.5 -9.5z" />
<glyph unicode="&#xf6;" horiz-adv-x="374" d="M302 381q47 -34 43.5 -116.5t-29 -145t-67.5 -93.5q-35 -26 -77 -26q-17 0 -34 4q-43 11 -73.5 50.5t-37.5 92.5q-9 69 27.5 132t109.5 105q2 0 3 1q12 5 28 9.5t49.5 3.5t57.5 -17zM289 267q2 52 -20 67q-10 7 -27 8t-29.5 -2t-21.5 -7q-32 -18 -54.5 -39.5t-32.5 -41 t-16.5 -39t-5.5 -33.5t1 -25q5 -35 24.5 -62t44.5 -34q35 -8 63 13q31 23 50.5 74.5t23.5 120.5zM322 626q38 0 64.5 -27t26.5 -64q0 -41 -29 -69q-25 -23 -58 -23q-3 0 -6 1q-31 2 -56.5 27t-32 58.5t17.5 61.5q28 35 73 35zM345 508q11 11 11 27q0 9 -4.5 17t-12.5 12.5 t-17 4.5q-18 0 -30 -14q-6 -7 -5 -15q3 -15 14.5 -27t22.5 -13q12 -1 21 8zM91 444q-31 2 -57 27t-32 58.5t17 61.5q29 35 74 35q37 0 64 -27t27 -64q0 -41 -30 -69q-25 -23 -57 -23q-3 0 -6 1zM63 555q-6 -7 -5 -15q3 -15 14.5 -27t22.5 -13t21 8q11 11 11 27q0 14 -10 24 t-24 10q-19 0 -30 -14z" />
<glyph unicode="&#xfd;" horiz-adv-x="343" d="M299 524q2 -9 4.5 -22.5t7 -50t6 -71.5t-3 -81.5t-15.5 -86.5q-3 -11 -7 -22q-15 -44 -40 -78q-68 -98 -202 -112h-3q-10 0 -18.5 7.5t-9.5 17.5q-1 12 6.5 21t18.5 11q89 9 141 62h-2.5h-1.5q-42 0 -70 16q-18 10 -29.5 24t-16 33t-6 35t2.5 40t7 37.5t9 38.5q5 18 7 27 q4 19 5 35.5t-1 27.5t-6 20.5t-7.5 15t-8.5 9.5t-7 5t-3 2q-11 4 -15.5 14.5t-0.5 21.5t14.5 16t21.5 1q3 -1 7 -3t13 -8.5t17 -15t16 -23.5t12.5 -32.5t4.5 -43.5t-7 -55q-2 -9 -7 -28q-6 -24 -9.5 -40t-5.5 -34.5t-1 -31t6.5 -23t15.5 -16.5q10 -5 30 -7t43 5q18 8 27 28 q12 36 17.5 81t4.5 80t-5.5 70.5t-7 49t-3.5 20.5q-3 11 3 21t18 13q5 1 10.5 0t10.5 -3.5t8 -7.5t5 -10zM110 575q-12 0 -20.5 8.5t-7.5 20.5q0 10 5 29.5t14 42t22.5 47.5t29.5 43q17 25 46 38q4 2 9 4q3 1 7 2h1q20 6 38 4q8 0 14 -2q36 -8 51 -38v0q1 0 1.5 -1t0.5 -2 v-0.5t0.5 -0.5t0.5 -1q12 -31 -4 -63t-53 -49q-23 -10 -47 -10q-11 0 -21 2q-22 5 -37 19q-21 -47 -22 -65q0 -12 -8 -20t-20 -8zM242 709q10 4 17 11t9.5 14t1.5 12q-9 11 -25 12q-11 0 -23 -6q-10 -4 -22 -17q-2 -3 -3 -5q-5 -9 -2 -16t14 -9q16 -4 33 4z" />
<glyph unicode="&#xff;" horiz-adv-x="341" d="M299 524q2 -9 4.5 -22.5t7 -50t6 -71.5t-3 -82t-15.5 -86q-3 -12 -7 -22q-15 -44 -39 -78q-69 -98 -202 -112h-3q-11 0 -19 7t-10 18q-1 12 6.5 21t19.5 10q88 10 140 63h-2h-2q-42 0 -69 15q-19 10 -30.5 24.5t-15.5 33.5t-5.5 35t2 40t6.5 37.5t9 37.5q5 19 7 27 q8 27 5.5 48t-5.5 33t-11 20.5t-11 10.5t-6 3q-11 5 -15.5 15.5t-0.5 21.5q3 7 9 12t13 6t15 -2q1 0 4 -1.5t9 -5t12 -8.5t13 -13.5t13 -18t10.5 -23.5t6.5 -29.5t1 -36.5t-7 -44q-2 -9 -7 -28q-6 -24 -9 -40t-5.5 -35t-1 -31t6.5 -22.5t15 -16.5t30.5 -8t43.5 6q17 8 26 27 q12 37 17.5 82t4.5 80t-5.5 70.5t-7 49t-3.5 19.5q-2 8 0 15t7.5 12.5t13 7t15 -0.5t12.5 -7.5t7 -12.5zM275 761q19 0 35.5 -7.5t29 -19.5t19.5 -29t7 -35q0 -41 -29 -68q-25 -23 -58 -23h-6q-31 2 -56.5 27t-31.5 59q-7 34 17 62q28 34 73 34zM298 643q11 11 11 27 q0 14 -10 24t-24 10q-18 0 -30 -14q-6 -7 -5 -15q2 -8 6 -15t9 -12.5t11 -8.5t11 -4q12 0 21 8zM50 579h-6q-31 2 -57 27t-32 59t17 62q29 34 74 34q37 0 64 -26.5t27 -64.5q0 -41 -30 -68q-25 -23 -57 -23zM11 675q3 -15 14.5 -27t22.5 -13q11 0 21 8q11 11 11 27 q0 14 -10 24t-24 10q-19 0 -30 -14q-6 -7 -5 -15z" />
<glyph unicode="&#x178;" horiz-adv-x="379" d="M358 727q11 -4 16 -14.5t1 -21.5q-12 -35 -29 -75t-48 -104t-68.5 -112.5t-73.5 -63.5q-15 -191 -1 -304q2 -12 -5 -21t-19 -11h-4q-10 0 -18 7t-10 17q-15 116 0 310q-55 20 -66 128q-8 71 3 161q6 46 12.5 69t13 29t16.5 8q12 1 21.5 -6t10.5 -19q2 -12 -6 -21 q-7 -21 -13 -77.5t-2.5 -120.5t20.5 -89q8 -11 18 -10q24 2 60 51.5t71.5 122t63.5 150.5q4 11 14.5 16t21.5 1zM310 783q-15 1 -30 8t-26.5 18.5t-20 27t-11.5 32.5q-7 34 17 62q28 34 73 34q38 0 64.5 -27t26.5 -64q0 -41 -30 -68q-24 -23 -57 -23h-6zM282 894 q-6 -7 -5 -15q3 -15 14.5 -27t22.5 -13q12 0 21 8q11 11 11 27q0 14 -10 24t-24 10q-18 0 -30 -14zM87 783h-6q-21 1 -39.5 13t-32 31t-17.5 42q-6 34 17 62q29 34 74 34q37 0 64 -27t27 -64q0 -41 -30 -68q-25 -23 -57 -23zM48 879q3 -15 14.5 -27t22.5 -13q11 0 21 8 q11 11 11 27q0 9 -4.5 17t-12.5 12.5t-17 4.5q-19 0 -30 -14q-6 -7 -5 -15z" />
<glyph unicode="&#x2000;" horiz-adv-x="510" />
<glyph unicode="&#x2001;" horiz-adv-x="1021" />
<glyph unicode="&#x2002;" horiz-adv-x="510" />
<glyph unicode="&#x2003;" horiz-adv-x="1021" />
<glyph unicode="&#x2004;" horiz-adv-x="340" />
<glyph unicode="&#x2005;" horiz-adv-x="255" />
<glyph unicode="&#x2006;" horiz-adv-x="170" />
<glyph unicode="&#x2007;" horiz-adv-x="170" />
<glyph unicode="&#x2008;" horiz-adv-x="127" />
<glyph unicode="&#x2009;" horiz-adv-x="204" />
<glyph unicode="&#x200a;" horiz-adv-x="56" />
<glyph unicode="&#x2010;" horiz-adv-x="469" d="M415 306q12 -3 18 -13t3 -21q-2 -10 -10 -16t-17 -6q-4 0 -7 1q-30 7 -77 9.5t-86.5 1.5t-86.5 -4t-61.5 -4.5t-26.5 -3.5q-12 -1 -21 6.5t-10.5 19t5.5 20.5t19 11q17 2 46.5 4.5t90 6t121 1t100.5 -12.5z" />
<glyph unicode="&#x2011;" horiz-adv-x="469" d="M415 306q12 -3 18 -13t3 -21q-2 -10 -10 -16t-17 -6q-4 0 -7 1q-30 7 -77 9.5t-86.5 1.5t-86.5 -4t-61.5 -4.5t-26.5 -3.5q-12 -1 -21 6.5t-10.5 19t5.5 20.5t19 11q17 2 46.5 4.5t90 6t121 1t100.5 -12.5z" />
<glyph unicode="&#x2012;" horiz-adv-x="469" d="M415 306q12 -3 18 -13t3 -21q-2 -10 -10 -16t-17 -6q-4 0 -7 1q-30 7 -77 9.5t-86.5 1.5t-86.5 -4t-61.5 -4.5t-26.5 -3.5q-12 -1 -21 6.5t-10.5 19t5.5 20.5t19 11q17 2 46.5 4.5t90 6t121 1t100.5 -12.5z" />
<glyph unicode="&#x2013;" horiz-adv-x="564" d="M505 306q15 -3 22 -13t4 -21q-3 -10 -12.5 -16t-21.5 -6q-5 0 -8 1q-37 7 -95 9.5t-107 1.5t-107 -4t-76 -4.5t-33 -3.5q-15 -1 -26 6.5t-13 19t7 20.5t24 11q21 2 57 4.5t111 6t149.5 1t124.5 -12.5z" />
<glyph unicode="&#x2014;" horiz-adv-x="1064" d="M978 306q29 -3 44 -13t8 -21q-5 -10 -25 -16t-42 -6q-10 0 -17 1q-75 7 -191 9.5t-213.5 1.5t-213.5 -4t-152 -4.5t-66 -3.5q-29 -1 -51.5 6.5t-26 19t14 20.5t46.5 11q42 2 115 4.5t222.5 6t299 1t248.5 -12.5z" />
<glyph unicode="&#x202f;" horiz-adv-x="204" />
<glyph unicode="&#x205f;" horiz-adv-x="255" />
<glyph unicode="&#x25fc;" horiz-adv-x="440" d="M0 440h440v-440h-440v440z" />
</font>
</defs>
</svg>
