<?xml version="1.0" encoding="UTF-8"?>
<svg id="b" data-name="Layer 2" xmlns="http://www.w3.org/2000/svg" width="123.726" height="123.726" viewBox="0 0 123.726 123.726">
  <g id="c" data-name="Layer 1">
    <g id="d" data-name="circle stamp logo">
      <g>
        <g>
          <g>
            <path d="m26.538,62.364l-12.854.282-1.847-.845-3.656.08-.079-3.599,18.338-.402.098,4.485Zm-18.233,5.201l-.1-4.542,3.228-.071,4.615,1.928.055,2.514-7.798.171Z" fill="red"/>
            <path d="m27.033,67.946l1.087,4.352-17.796,4.443-1.087-4.352,17.796-4.443Z" fill="red"/>
            <path d="m17.433,84.099l.011,1.061-3.182,1.682-1.33-3.983,2.389-2.878,9.294-4.913,3.724-.353,2.542,3.342-3.106,1.642-.845-.62-9.497,5.02Zm-.539,7.232l-1.896-3.586,3.182-1.682,3.508-.271,1.242,2.349-6.036,3.191Zm8.937-7.729l2.2-2.746,3.182-1.682,1.896,3.586-6.036,3.191-1.242-2.349Z" fill="red"/>
            <path d="m20.652,96.422l12.594-13.332,3.26,3.08-5.61,5.939.527.773-2.589,2.741-.821-.462-4.1,4.34-3.26-3.08Zm5.399,5.1l4.1-4.34-.487-.774,2.589-2.741.781.463,5.611-5.939,3.281,3.099-12.594,13.332-3.281-3.099Z" fill="red"/>
            <path d="m48.991,94.485l-1.852,4.21-.046,2.445-4.613,10.486-4.498-1.979,4.613-10.486,1.772-1.686,1.852-4.21,2.772,1.219Zm-7.113-3.129l3.295,1.449-1.702,3.87-2.616,2.47-2.014-.886,3.037-6.904Zm6.403,11.056l.053-3.597,1.702-3.87,3.295,1.45-3.037,6.904-2.014-.886Z" fill="red"/>
            <path d="m57.939,96.611l-1.693,18.261-4.466-.414,1.693-18.262,4.466.414Zm-.313,15.75l2.38-3.394,2.475.229-.575,6.201-4.523-.419.243-2.617Zm4.759-7.391l-.232,2.503-4.039-.374.232-2.503,4.039.375Zm1.214-7.834l-.575,6.201-2.475-.229-1.716-3.774.243-2.617,4.523.419Z" fill="red"/>
            <path d="m67.894,96.35l10.976,12.643.802,3.451-3.173.737-10.497-11.845-.863.201-1.002-4.313,3.757-.873Zm-2.483,6.356l.167-.039,5.421,5.78,1.326,5.705-4.035.938-2.878-12.384Zm12.753,3.254l-.167.039-5.453-5.919-1.061-4.564,4.035-.938,2.645,11.382Z" fill="red"/>
            <path d="m79.785,91.92l9.914,15.431-3.774,2.424-9.914-15.431,3.774-2.425Zm9.563,12.771l.419-2.307-1.575-2.452-1.948-.073-1.019-1.586.744-1.802-1.653-2.572-2.18-.433-1.39-2.163,3.029-1.946,3.448.875,2.533,3.942-.303,2.436,2.357.761,2.471,3.846-.591,3.572-3.029,1.946-1.313-2.043Z" fill="red"/>
            <path d="m88.883,84.154l14.245,11.552-2.825,3.484-14.245-11.551,2.825-3.484Zm3.581-4.415l4.837,3.923-1.565,1.93-4.091-.669-2.041-1.655,2.861-3.528Zm5.841,5.361l1.953,1.583-2.555,3.151-1.953-1.583,2.555-3.151Zm3.502,8.063l-1.5-3.865,1.565-1.93,4.837,3.923-2.861,3.528-2.041-1.655Z" fill="red"/>
            <path d="m92.803,79.321l1.59-4.194,17.149,6.503-1.59,4.194-17.149-6.503Zm14.669-.976l-.626.282-2.19-.831-.722-1.801-4.274-1.621-2.029.758-2.831-1.074,1.276-3.366,3.311-1.158,5.85,2.219,1.342,2.342,3.52-.743,4.007,1.519-1.479,3.9-5.154-.427Z" fill="red"/>
            <path d="m111.442,64.281l.585-1.209,3.598.124-.866,4.401-3.561,1.307-10.422-.358-3.406-1.546-.538-4.306,3.512.121.42,1.101,10.679.367Zm-7.928-3.903l-3.275,1.288-3.141-.108.139-4.055,6.367.219-.091,2.655Zm11.981-.074l-3.091,1.781-2.855-.098-.575.924-2.97-.102.186-5.425,9.394.323-.089,2.599Z" fill="red"/>
          </g>
          <g>
            <path d="m33.553,34.954l1.253-.484,2.543,2.548-3.639,2.623-3.494-1.478-7.367-7.381-1.431-3.456,2.549-3.513,2.483,2.487-.445,1.091,7.549,7.563Zm-3.124-8.266l-3.272-1.296-2.22-2.224,2.871-2.866,4.501,4.509-1.881,1.877Zm8.801,8.13l-3.474-.812-2.018-2.022-1.051.282-2.099-2.103,3.842-3.835,6.64,6.653-1.84,1.837Z" fill="red"/>
            <path d="m41.362,32.717l-2.098-4.411-3.819-13.083,2.838-1.35,1.644,3.457,2.841,8.233.914-.34,1.399,2.941-1.189.692.799,2.277-3.328,1.583Zm7.3-3.473l-1.263-2.057-1.287.486-1.399-2.941.84-.495-4.595-7.399-1.644-3.457,2.967-1.411,7.766,11.205,2.098,4.411-3.483,1.657Z" fill="red"/>
            <path d="m51.059,9.209l4.465-.428,1.749,18.258-4.465.428-1.749-18.258Zm7.361,12.726l-.53-.437-.223-2.332,1.297-1.445-.436-4.55-1.577-1.485-.289-3.015,3.583-.343,2.503,2.458.597,6.228-1.507,2.24,2.223,2.829.409,4.266-4.152.398-1.896-4.812Z" fill="red"/>
            <path d="m69.574,8.689l4.346,1.11-4.537,17.772-4.346-1.11,4.537-17.772Zm2.616,14.468l-.35-.591.58-2.27,1.709-.92,1.131-4.429-.981-1.931.749-2.934,3.488.89,1.523,3.161-1.548,6.062-2.177,1.597,1.133,3.415-1.06,4.152-4.042-1.032-.154-5.17Z" fill="red"/>
            <path d="m86.048,14.186l3.907,2.202-9.005,15.977-3.907-2.202,9.005-15.977Z" fill="red"/>
            <path d="m100.295,24.814l-3.223,3.282-.909,2.271-8.028,8.174-3.506-3.444,8.028-8.174,2.254-.95,3.223-3.282,2.161,2.122Zm-5.545-5.445l2.569,2.523-2.963,3.017-3.321,1.384-1.57-1.541,5.285-5.382Zm2.074,12.609l1.323-3.346,2.963-3.017,2.569,2.522-5.285,5.382-1.57-1.542Z" fill="red"/>
          </g>
        </g>
        <path d="m61.863,32.909c15.965,0,28.954,12.989,28.954,28.954s-12.989,28.954-28.954,28.954-28.954-12.989-28.954-28.954,12.989-28.954,28.954-28.954m0-1.645c-16.899,0-30.599,13.699-30.599,30.599s13.699,30.599,30.599,30.599,30.599-13.699,30.599-30.599-13.699-30.599-30.599-30.599h0Z" fill="red"/>
        <g>
          <path d="m25.094,42.928c.083.014.195.027.27.081.067.049.076.165.083.242.003.04.025.078.025.115,0,.051-.013.111-.017.164-.004.053.002.106,0,.159-.001.027-.006.046-.009.071-.005.036.005.07-.001.107-.012.07-.022.146-.024.218-.002.066-.014.128-.002.195.021.112.043.22.073.33.032.118.039.245.047.363.002.03.009.042.002.073-.008.036-.028.071-.042.106-.02.051-.035.122-.074.159-.046.044-.108.077-.157.12-.02.018-.038.043-.061.058-.016.01-.032.01-.048.018-.013.006-.034.027-.047.029-.038.007-.117-.043-.154-.057-.063-.024-.096-.062-.135-.116-.059-.081-.171-.204-.278-.215-.022-.002-.055.01-.077.013-.036.005-.074.006-.109.016-.05.014-.094.047-.139.068-.055.026-.11.026-.169.034-.039.005-.076.016-.116.02-.045.005-.084.018-.124.036-.044.018-.093.022-.137.041-.079.033-.162.057-.246.076-.122.027-.218.109-.328.162-.063.03-.112.038-.178.051-.043.008-.072-.004-.115-.002-.033.002-.067,0-.098.006-.024.005-.055.006-.078.013-.029.007-.051.022-.081.02-.019-.001-.032-.004-.05-.003-.012,0-.031.005-.04.004-.037-.003-.063-.025-.102-.022-.041.003-.068.025-.103.042-.057.028-.104.017-.138.081-.026.05-.045.13-.012.179.032.047.075.087.118.123.047.039.084.082.126.126.079.08.141.186.234.249.04.027.108.055.136.099.026.041.029.105.038.151.011.057.009.117.008.175,0,.071-.012.137-.004.208.005.037.012.079.008.118-.004.033-.024.06-.031.092-.003.018,0,.045-.004.067-.008.058.007.122.016.18.006.035.022.067.035.101.018.048.031.096.049.144.027.075.042.148.051.226.007.061.029.112.029.174,0,.049.001.096.007.144.004.037.022.063.031.097.008.032-.004.076-.01.11-.013.08-.059.16-.087.235-.014.039-.033.063-.061.095-.055.061-.019.062.023.104.027.027.038.035.076.049.032.012.05.015.065.043.015.028.002.058.034.074.022.011.061-.008.083-.016.057-.022.093-.054.153-.061.049-.006.091-.006.138-.019.056-.015.108-.033.162-.057.033-.014.08-.048.115-.052.029-.004.054.025.082.029.03.004.041-.005.073.008.05.02.125.033.168.065.027.019.027.054.036.082.011.034.026.07.046.1.024.036.032.052.035.095.003.038,0,.077.004.114.004.035.012.051,0,.09-.009.025-.02.05-.029.075-.024.061-.041.131-.084.179-.039.043-.08.075-.13.104-.008.005-.022.006-.031.011-.007.003-.01.02-.017.024-.008.003-.031,0-.041.002-.006.001-.017.008-.022.011-.108.043-.214.08-.326.109-.034.009-.059.029-.091.038-.025.007-.04-.001-.067.011-.035.016-.073.037-.11.049-.116.036-.232.06-.345.116-.098.049-.154.143-.197.24-.013.029-.024.06-.048.082-.06.056-.141.029-.214.043-.044.008-.084.028-.128.034-.041.006-.082.002-.122.004-.107.004-.196-.053-.26-.135-.031-.039-.075-.085-.089-.131-.008-.025-.018-.038-.029-.061-.012-.024-.01-.047-.018-.073-.018-.056-.051-.114-.045-.175.005-.05.035-.101.054-.148.018-.047.035-.08.064-.12.036-.051.064-.101.084-.16.013-.039.027-.097.014-.134-.01-.031-.035-.059-.052-.084-.049-.07-.031-.177-.031-.26,0-.038-.025-.065-.034-.101-.011-.044-.014-.089-.025-.133-.013-.054-.047-.089-.073-.136-.027-.049-.01-.104-.008-.156,0-.029-.007-.057-.002-.086.006-.03.022-.056.028-.086.011-.053.008-.1.001-.153-.003-.026.002-.056-.002-.08-.004-.022-.015-.039-.019-.064-.008-.047-.003-.091-.004-.137,0-.08-.027-.189-.055-.262-.03-.077-.043-.168-.083-.241-.046-.084-.099-.165-.141-.255-.021-.045-.05-.086-.076-.13-.018-.033-.05-.087-.08-.108-.031-.024-.089-.034-.126-.049-.019-.007-.039-.018-.059-.023s-.031,0-.049-.001c-.037-.003-.066-.004-.104,0-.019.002-.03.003-.048.001-.011-.001-.021-.01-.033-.012-.008-.001-.012.007-.018.006-.048-.008-.092-.014-.143-.018-.042-.003-.082-.015-.124-.013-.088.004-.189.014-.275-.006-.034-.008-.067-.037-.102-.041-.017-.002-.026.009-.043.007-.051-.007-.089-.044-.14-.047-.032-.002-.057-.01-.088-.016-.028-.006-.059-.006-.088-.01-.022-.003-.055.002-.081-.002-.035-.004-.069-.022-.102-.035-.029-.012-.065-.02-.092-.035-.031-.018-.051-.039-.086-.053-.059-.025-.133-.004-.196.006-.108.016-.212.063-.322.087-.029.006-.053.014-.082.022-.03.008-.063.011-.098.02-.027.007-.055.016-.082.021-.03.006-.066.004-.093.012-.047.013-.103.039-.152.034-.062-.006-.143-.056-.202-.079-.028-.011-.058-.019-.082-.037-.025-.018-.045-.046-.071-.063-.042-.028-.075-.026-.11-.066-.026-.029-.049-.059-.078-.084-.051-.042-.1-.096-.14-.151-.062-.084-.108-.138-.2-.175-.075-.03-.12-.084-.171-.143-.026-.03-.051-.061-.077-.09-.023-.027-.036-.053-.056-.082-.04-.057-.093-.117-.142-.163-.032-.031-.063-.053-.091-.087-.021-.025-.041-.05-.062-.076-.089-.113-.156-.241-.251-.35-.044-.05-.087-.108-.1-.177-.009-.052-.015-.097-.03-.148-.017-.057-.002-.108-.007-.167-.004-.045-.012-.112-.003-.155.005-.024.02-.043.023-.068.003-.029.002-.044.013-.072.016-.041.016-.085.02-.127.005-.04.014-.091.038-.123.041-.058.051-.082-.033-.125-.051-.026-.087-.073-.12-.118-.026-.035-.052-.078-.102-.061-.039.014-.066.056-.067.097,0,.03.004.057.002.087-.002.019.01.041.004.057-.005.013-.006.007-.013.015-.011.013-.02.029-.031.04-.014.015-.022.01-.041.002-.011-.005-.018-.012-.029-.018-.018-.012-.04-.017-.06-.025-.033-.013-.066-.031-.101-.037-.015-.003-.033-.007-.049-.007-.011,0-.018.005-.027.007-.014.003-.032-.001-.047-.002-.016,0-.032-.001-.048-.002-.018-.001-.037-.002-.055,0-.014,0-.036-.008-.049-.002-.008.004-.007.01-.011.017-.004.008-.007.008-.012.014-.008.009-.011.016-.022.022-.016.008-.027.004-.043-.002-.014-.005-.024-.007-.038-.008-.027-.002-.059.007-.086-.002-.027-.009-.061-.02-.082-.035-.021-.015-.041-.031-.057-.051-.01-.012-.019-.023-.033-.032-.01-.007-.021-.017-.029-.024-.021-.019-.042-.042-.063-.062-.01-.01-.02-.021-.034-.027-.022-.009-.041-.018-.061-.03-.012-.007-.02-.019-.032-.027-.016-.011-.037-.016-.055-.023-.017-.006-.038-.02-.056-.022-.008-.001-.039.002-.044.005-.013.008-.004.032-.024.035-.029.005-.052-.042-.064-.061-.041-.067-.057-.153-.052-.229.003-.04.009-.083.015-.122.006-.037.015-.071.019-.108.003-.035.004-.068-.005-.102-.006-.022-.014-.053-.013-.076,0-.009.004-.018.004-.027,0-.025-.018-.049-.025-.072-.006-.022-.015-.043-.019-.065-.006-.029-.01-.058-.016-.086-.005-.024-.013-.047-.016-.072-.004-.032.002-.061.002-.093.001-.059.008-.121.026-.177.012-.037.031-.067.049-.101.014-.028.034-.049.054-.073.016-.019.03-.041.047-.06.02-.024.041-.056.065-.075.02-.016.043-.042.067-.051.019-.008.037,0,.056-.006.025-.006.047-.011.071-.023.019-.01.033-.023.05-.036.021-.016.041-.034.063-.046.074-.038.146-.078.219-.118.018-.01.038-.02.055-.033.028-.02.057-.022.086-.037.023-.012.096-.065.124-.029.023.03-.028.071-.027.102.001.033.093.012.116.014.061.003.122.015.182.008.057-.006.104-.019.154-.045.043-.023.089-.047.123-.082.012-.013.022-.026.039-.032.025-.009.03,0,.04.02.048.092.011.188-.025.281-.015.039-.022.071.003.109.022.033.06.046.09.069.031.023.063.036.1.05.09.035.18.071.271.105.051.019.057.039.093.073.04.038.082.07.104.122.018.041.024.08.035.123.005.022.027.045.03.064.004.023-.012.061-.012.087,0,.027.004.045-.003.071-.008.03-.023.047-.021.077.003.046.029.107.053.145.012.019.025.031.035.053.012.025.02.047.044.063.038.027.084.039.127.054.01.004.016-.002.026-.004.016-.005.033-.008.049-.014.015-.006.034-.003.049,0,.013.002.025.015.038.017.014.002.022-.009.035-.007.051.01.092.025.147.029.059.004.106.026.162.047.121.047.245.09.365.141.035.014.053.036.084.055.029.017.063.02.091.039.048.032.103.049.151.08.003.002.008.018.014.023.015.01.038.009.054.018.027.016.043.035.07.05.026.014.042.033.066.048.024.015.057.016.081.032.017.011.02.024.041.036.023.012.047.016.069.031.018.012.027.027.054.037.03.011.047.021.07.038.021.015.034.023.061.034.031.013.04.028.067.046.069.046.157.069.224.12.026.02.041.048.062.072.069.083.181.143.29.156.018.002.033-.002.052.003.016.004.03.018.047.02.018.003.062-.002.079-.012.039-.023.045-.071.069-.102.026-.033.102-.052.137-.051.035,0,.071.01.106.015.026.004.063-.008.09-.004.035.006.056.017.091.015.025,0,.055-.005.081-.005.032,0,.071-.006.103-.004.045.004.082.024.129.022.069-.002.135-.035.201-.041.063-.006.122-.04.184-.035.07.005.152.054.218.08.029.011.061.031.092.037.036.006.077-.008.113-.016.041-.008.071-.026.108-.044.029-.014.061-.016.091-.027.131-.051.268-.12.391-.189.078-.044.152-.115.241-.128.038-.006.072-.021.111-.015.053.008.112.016.164.027.054.012.11.022.163.037.049.014.094.013.146.02.098.014.202.002.301.005.05.002.097-.011.146-.012.017,0,.032.002.048.003.018,0,.044,0,.061.002.039.006.08.019.119.027.035.006.067-.002.104.003.022.003.036.014.056.018.033.007.068-.003.101,0,.09.009.118.009.179-.048.055-.053.124-.082.194-.108.032-.012.063-.035.096-.043.019-.005.032.007.051-.005.023-.014.028-.047.037-.071.016-.043.039-.086.051-.129.012-.046-.012-.086-.014-.132,0-.036.005-.079.003-.116-.002-.05.022-.085.03-.135.002-.018-.005-.032.001-.054.006-.022.017-.044.025-.065.021-.055.037-.097.074-.141.064-.077.148-.126.242-.166.072-.031.114-.086.198-.072h0Z" fill="red"/>
          <path d="m101.656,50.717c-.07.045-.161.112-.254.122-.082.009-.167-.071-.224-.123-.029-.027-.071-.041-.096-.068-.034-.038-.065-.091-.098-.133s-.073-.077-.107-.118c-.017-.02-.027-.038-.041-.059-.021-.03-.051-.049-.072-.08-.039-.06-.082-.122-.128-.177-.043-.05-.077-.104-.131-.145-.091-.069-.181-.134-.277-.195-.104-.065-.194-.154-.28-.237-.022-.021-.035-.025-.051-.053-.018-.032-.028-.072-.041-.106-.02-.051-.056-.114-.053-.167.004-.063.028-.13.035-.195.003-.027,0-.058.006-.084.005-.018.017-.029.024-.046.005-.014.007-.042.015-.053.024-.031.115-.047.152-.062.063-.025.112-.019.178-.006.098.02.264.036.351-.029.018-.013.034-.044.048-.061.023-.028.051-.055.069-.085.027-.045.038-.098.057-.145.022-.056.064-.094.102-.139.025-.03.046-.064.072-.093.03-.034.049-.07.068-.111.02-.043.053-.079.073-.122.037-.078.081-.152.13-.223.071-.102.087-.228.133-.341.026-.064.057-.103.097-.158.026-.035.056-.046.086-.076.023-.023.05-.045.069-.07.014-.02.036-.041.049-.062.016-.025.023-.05.047-.069.015-.012.026-.018.039-.031.008-.008.019-.024.027-.03.029-.022.063-.024.09-.053.028-.029.033-.064.047-.101.024-.06.066-.083.047-.153-.014-.054-.055-.126-.112-.14-.055-.013-.114-.014-.17-.011-.061.002-.117-.005-.178-.008-.112-.006-.229-.042-.341-.026-.048.007-.118.032-.167.018-.046-.012-.092-.058-.13-.086-.047-.035-.086-.08-.124-.124-.047-.053-.084-.109-.138-.156-.029-.024-.062-.05-.085-.082-.019-.027-.023-.061-.04-.088-.01-.016-.029-.034-.042-.053-.033-.048-.088-.086-.134-.122-.028-.022-.061-.035-.094-.051-.045-.023-.088-.05-.133-.073-.071-.036-.131-.08-.19-.131-.046-.04-.097-.063-.139-.11-.033-.036-.065-.07-.102-.102-.028-.024-.059-.032-.088-.051-.027-.018-.048-.059-.067-.088-.044-.068-.064-.158-.094-.232-.016-.039-.019-.069-.019-.112,0-.082-.028-.059-.087-.061-.038-.002-.051,0-.09.015-.031.012-.047.022-.077.012-.03-.01-.04-.042-.075-.032-.024.007-.04.048-.05.069-.028.055-.033.102-.072.148-.032.037-.063.066-.089.107-.031.049-.057.097-.081.152-.014.033-.027.09-.05.116-.02.022-.057.018-.08.034-.025.017-.027.031-.059.043-.051.019-.114.06-.167.066-.033.004-.057-.021-.082-.036-.031-.018-.066-.034-.102-.043-.041-.01-.059-.017-.09-.047-.028-.025-.051-.057-.08-.081-.027-.023-.044-.03-.06-.067-.01-.024-.019-.05-.029-.075-.024-.061-.059-.124-.059-.19,0-.057.008-.109.026-.164.003-.009.012-.019.016-.029.003-.007-.007-.021-.003-.029.003-.008.023-.021.029-.029.004-.005.007-.018.009-.022.051-.104.104-.204.167-.301.019-.029.024-.061.042-.09.013-.022.03-.026.042-.054.015-.035.029-.077.048-.11.062-.105.131-.201.176-.318.039-.102.017-.21-.016-.31-.01-.03-.023-.061-.02-.093.006-.082.084-.117.13-.176.027-.035.043-.077.071-.112.027-.031.059-.057.088-.085.076-.075.18-.093.283-.077.049.008.112.012.154.037.023.013.039.016.063.026.024.01.04.028.062.041.051.029.114.049.151.099.03.041.042.099.061.146.018.047.028.083.034.132.008.061.02.118.046.174.017.037.046.09.08.109.029.015.066.02.095.027.084.018.142.11.198.171.026.028.062.031.093.051.037.025.07.056.108.082.046.031.095.034.145.051.053.018.077.069.112.11.019.022.043.037.059.063.016.026.022.055.037.082.028.047.062.08.102.114.02.017.037.042.055.057.018.014.038.019.057.034.037.029.064.065.095.099.055.059.148.122.218.156.074.036.146.095.224.122.091.031.185.055.275.093.047.019.095.029.144.045.035.012.095.03.132.027.039-.004.089-.035.126-.05.019-.007.041-.013.059-.022.018-.01.022-.021.037-.032.029-.022.052-.041.077-.07.012-.014.02-.022.035-.033.009-.007.022-.007.032-.014.006-.004.004-.014.009-.017.041-.027.078-.052.117-.084.033-.026.071-.044.1-.073.062-.062.13-.138.207-.181.031-.016.074-.018.103-.038.014-.01.013-.024.027-.034.042-.029.095-.028.135-.06.025-.02.049-.031.076-.047.025-.015.048-.036.072-.052.018-.013.04-.039.061-.054.029-.02.066-.03.099-.043.03-.012.061-.029.092-.037.035-.008.064-.006.099-.018.061-.021.1-.087.141-.137.069-.085.114-.19.179-.281.017-.024.03-.047.046-.071.016-.026.039-.051.059-.081.015-.023.029-.049.046-.07.018-.024.046-.047.061-.071.026-.041.049-.098.089-.128.05-.037.144-.055.202-.078.029-.01.056-.025.086-.029.031-.004.064.004.095-.002.05-.008.073-.031.126-.026.039.004.076.01.114.009.066-.003.139.004.205.017.102.02.173.029.265-.006.075-.029.145-.019.223-.01.04.005.079.01.118.015.035.004.062.015.097.023.067.015.148.024.215.025.044,0,.082-.004.125.002.033.005.065.009.097.014.142.023.278.073.421.089.066.008.137.021.193.064.042.032.076.061.121.089.051.031.075.078.118.119.033.03.085.074.107.112.012.022.014.045.029.066.017.024.028.034.039.062.016.041.046.073.071.108.023.033.05.077.055.116.009.07.018.096.109.07.055-.015.113-.005.169.006.043.008.091.023.116-.024.02-.037.011-.086-.016-.117-.019-.022-.042-.039-.06-.063-.011-.015-.035-.023-.042-.04-.005-.012,0-.009,0-.02,0-.017-.004-.035-.004-.051,0-.021.009-.023.029-.03.012-.004.022-.004.033-.006.022-.004.041-.014.062-.022.033-.013.069-.022.1-.04.014-.008.029-.017.041-.028.008-.007.01-.015.016-.024.008-.012.024-.02.035-.03.012-.01.024-.021.037-.031.015-.012.029-.024.041-.037.01-.01.032-.018.037-.032.003-.008-.001-.012-.004-.02-.002-.009,0-.01,0-.018,0-.012-.002-.019.002-.031.006-.017.017-.021.033-.027.014-.005.022-.011.033-.02.021-.017.039-.045.065-.057.026-.012.058-.026.085-.03.026-.003.051-.004.077,0,.016.002.029.004.045.002.012-.002.027-.002.038-.002.028,0,.059.003.088.004.015,0,.029.002.043-.003.022-.008.042-.014.065-.019.014-.003.028,0,.042-.002.019-.002.038-.013.056-.02.017-.006.041-.011.056-.021.006-.004.027-.027.029-.033.004-.015-.019-.026-.006-.043.018-.022.067-.004.089.002.075.022.146.075.193.134.025.032.049.067.071.101.021.031.037.063.059.092.022.029.043.053.073.072.019.012.047.03.061.047.006.007.009.016.015.022.017.018.046.024.067.037.02.012.04.022.058.035.024.017.047.035.07.052.02.014.042.027.061.042.025.02.041.047.061.07.039.045.076.095.1.149.016.036.023.07.033.108.008.031.008.059.01.09.002.025.005.051.006.076.002.032.008.069.002.1-.004.025-.003.059-.015.083-.009.018-.027.026-.037.042-.014.022-.027.041-.037.065-.008.02-.009.04-.013.061-.005.025-.007.052-.016.077-.029.077-.055.156-.082.234-.007.02-.014.04-.018.061-.007.033-.027.055-.039.086-.009.024-.028.113-.073.105-.037-.006-.028-.071-.049-.093-.023-.023-.076.054-.095.069-.047.039-.1.071-.141.116-.038.043-.064.085-.083.138-.016.047-.034.094-.035.143,0,.018,0,.035-.008.05-.013.024-.022.02-.043.012-.098-.036-.135-.131-.171-.225-.015-.039-.032-.067-.076-.079-.039-.01-.075.006-.113.01-.039.003-.071.016-.107.03-.09.035-.181.069-.271.105-.051.02-.069.01-.118.009-.055-.002-.107.004-.159-.02-.041-.018-.072-.043-.108-.067-.018-.012-.05-.015-.065-.027-.018-.014-.032-.053-.05-.072-.019-.02-.033-.031-.046-.055-.014-.027-.014-.05-.037-.071-.034-.032-.093-.059-.137-.072-.022-.006-.039-.006-.062-.015-.026-.011-.047-.021-.075-.017-.046.006-.088.028-.13.046-.01.004-.011.012-.016.021-.008.014-.018.028-.027.043-.008.014-.022.025-.036.034-.011.008-.029.006-.04.013-.012.008-.01.022-.021.029-.045.027-.085.043-.127.077-.046.037-.096.053-.151.075-.122.047-.242.098-.365.142-.035.012-.064.009-.099.016-.033.006-.06.027-.093.033-.057.009-.109.034-.165.043-.004,0-.018-.008-.027-.008-.018.002-.034.019-.052.023-.031.006-.055.002-.086.01-.029.008-.053.004-.081.009s-.053.027-.082.031c-.02.003-.031-.005-.054.001-.025.006-.045.02-.071.023-.022.003-.038-.002-.065.009-.029.012-.049.016-.077.019-.026.003-.041.006-.068.016-.031.012-.048.006-.08.012-.082.013-.163.055-.247.062-.033.003-.063-.007-.094-.012-.107-.015-.23.016-.319.081-.015.011-.023.024-.04.033-.014.008-.034.008-.048.016-.015.01-.045.044-.05.062-.014.043.014.082.018.122.004.042-.04.107-.066.131-.027.024-.06.041-.09.061-.021.014-.041.049-.063.064-.029.019-.053.025-.077.05-.018.018-.038.041-.056.059-.023.022-.049.053-.073.072-.036.028-.077.038-.11.071-.049.048-.076.116-.121.166-.042.047-.063.112-.112.151-.055.043-.149.063-.216.088-.029.011-.066.018-.092.035-.031.019-.051.058-.073.088-.024.034-.035.067-.049.105-.012.03-.035.053-.049.082-.062.125-.117.269-.161.403-.028.086-.035.188-.091.257-.024.03-.039.065-.072.086-.044.03-.093.064-.139.091-.048.028-.096.058-.145.083-.045.023-.078.054-.121.084-.082.057-.151.135-.226.2-.038.032-.064.073-.1.108-.012.012-.024.02-.037.03-.014.012-.032.031-.046.04-.033.022-.072.04-.105.061-.03.019-.049.047-.08.068-.018.012-.036.014-.054.024-.029.017-.048.048-.075.068-.073.054-.094.073-.1.157-.006.076-.037.144-.07.211-.015.03-.023.068-.042.096-.011.016-.028.016-.035.038-.007.026.011.053.021.078.016.042.029.09.049.13.022.042.067.055.099.088.025.026.05.061.076.088.035.035.041.077.069.12.01.015.025.02.036.041.01.02.016.044.024.065.021.054.038.096.041.154.005.1-.024.193-.067.286-.033.071-.026.141-.097.187h0Z" fill="red"/>
        </g>
        <path d="m61.863,4.112c31.895,0,57.751,25.856,57.751,57.751s-25.856,57.751-57.751,57.751S4.112,93.758,4.112,61.863,29.968,4.112,61.863,4.112m0-4.112C27.752,0,0,27.752,0,61.863s27.752,61.863,61.863,61.863,61.863-27.751,61.863-61.863S95.974,0,61.863,0h0Z" fill="red"/>
      </g>
    </g>
  </g>
</svg>